G04 #@! TF.GenerationSoftware,KiCad,Pcbnew,9.0.0*
G04 #@! TF.CreationDate,2025-04-18T21:38:45-04:00*
G04 #@! TF.ProjectId,blood_pressure,626c6f6f-645f-4707-9265-73737572652e,rev?*
G04 #@! TF.SameCoordinates,Original*
G04 #@! TF.FileFunction,Legend,Bot*
G04 #@! TF.FilePolarity,Positive*
%FSLAX46Y46*%
G04 Gerber Fmt 4.6, Leading zero omitted, Abs format (unit mm)*
G04 Created by KiCad (PCBNEW 9.0.0) date 2025-04-18 21:38:45*
%MOMM*%
%LPD*%
G01*
G04 APERTURE LIST*
G04 Aperture macros list*
%AMRoundRect*
0 Rectangle with rounded corners*
0 $1 Rounding radius*
0 $2 $3 $4 $5 $6 $7 $8 $9 X,Y pos of 4 corners*
0 Add a 4 corners polygon primitive as box body*
4,1,4,$2,$3,$4,$5,$6,$7,$8,$9,$2,$3,0*
0 Add four circle primitives for the rounded corners*
1,1,$1+$1,$2,$3*
1,1,$1+$1,$4,$5*
1,1,$1+$1,$6,$7*
1,1,$1+$1,$8,$9*
0 Add four rect primitives between the rounded corners*
20,1,$1+$1,$2,$3,$4,$5,0*
20,1,$1+$1,$4,$5,$6,$7,0*
20,1,$1+$1,$6,$7,$8,$9,0*
20,1,$1+$1,$8,$9,$2,$3,0*%
G04 Aperture macros list end*
%ADD10C,0.150000*%
%ADD11C,0.120000*%
%ADD12C,3.200000*%
%ADD13C,1.508000*%
%ADD14R,2.600000X2.600000*%
%ADD15C,2.600000*%
%ADD16O,1.800000X1.800000*%
%ADD17O,1.500000X1.500000*%
%ADD18O,1.700000X1.700000*%
%ADD19R,1.700000X1.700000*%
%ADD20R,1.800000X1.800000*%
%ADD21C,1.800000*%
%ADD22C,2.000000*%
%ADD23RoundRect,0.250000X0.550000X0.550000X-0.550000X0.550000X-0.550000X-0.550000X0.550000X-0.550000X0*%
%ADD24C,1.600000*%
G04 APERTURE END LIST*
D10*
X167483094Y-76414819D02*
X167483094Y-75414819D01*
X167483094Y-75414819D02*
X167244999Y-75414819D01*
X167244999Y-75414819D02*
X167102142Y-75462438D01*
X167102142Y-75462438D02*
X167006904Y-75557676D01*
X167006904Y-75557676D02*
X166959285Y-75652914D01*
X166959285Y-75652914D02*
X166911666Y-75843390D01*
X166911666Y-75843390D02*
X166911666Y-75986247D01*
X166911666Y-75986247D02*
X166959285Y-76176723D01*
X166959285Y-76176723D02*
X167006904Y-76271961D01*
X167006904Y-76271961D02*
X167102142Y-76367200D01*
X167102142Y-76367200D02*
X167244999Y-76414819D01*
X167244999Y-76414819D02*
X167483094Y-76414819D01*
X165959285Y-76414819D02*
X166530713Y-76414819D01*
X166244999Y-76414819D02*
X166244999Y-75414819D01*
X166244999Y-75414819D02*
X166340237Y-75557676D01*
X166340237Y-75557676D02*
X166435475Y-75652914D01*
X166435475Y-75652914D02*
X166530713Y-75700533D01*
X167468094Y-86914819D02*
X167468094Y-85914819D01*
X167468094Y-85914819D02*
X167229999Y-85914819D01*
X167229999Y-85914819D02*
X167087142Y-85962438D01*
X167087142Y-85962438D02*
X166991904Y-86057676D01*
X166991904Y-86057676D02*
X166944285Y-86152914D01*
X166944285Y-86152914D02*
X166896666Y-86343390D01*
X166896666Y-86343390D02*
X166896666Y-86486247D01*
X166896666Y-86486247D02*
X166944285Y-86676723D01*
X166944285Y-86676723D02*
X166991904Y-86771961D01*
X166991904Y-86771961D02*
X167087142Y-86867200D01*
X167087142Y-86867200D02*
X167229999Y-86914819D01*
X167229999Y-86914819D02*
X167468094Y-86914819D01*
X166515713Y-86010057D02*
X166468094Y-85962438D01*
X166468094Y-85962438D02*
X166372856Y-85914819D01*
X166372856Y-85914819D02*
X166134761Y-85914819D01*
X166134761Y-85914819D02*
X166039523Y-85962438D01*
X166039523Y-85962438D02*
X165991904Y-86010057D01*
X165991904Y-86010057D02*
X165944285Y-86105295D01*
X165944285Y-86105295D02*
X165944285Y-86200533D01*
X165944285Y-86200533D02*
X165991904Y-86343390D01*
X165991904Y-86343390D02*
X166563332Y-86914819D01*
X166563332Y-86914819D02*
X165944285Y-86914819D01*
X167468094Y-96914819D02*
X167468094Y-95914819D01*
X167468094Y-95914819D02*
X167229999Y-95914819D01*
X167229999Y-95914819D02*
X167087142Y-95962438D01*
X167087142Y-95962438D02*
X166991904Y-96057676D01*
X166991904Y-96057676D02*
X166944285Y-96152914D01*
X166944285Y-96152914D02*
X166896666Y-96343390D01*
X166896666Y-96343390D02*
X166896666Y-96486247D01*
X166896666Y-96486247D02*
X166944285Y-96676723D01*
X166944285Y-96676723D02*
X166991904Y-96771961D01*
X166991904Y-96771961D02*
X167087142Y-96867200D01*
X167087142Y-96867200D02*
X167229999Y-96914819D01*
X167229999Y-96914819D02*
X167468094Y-96914819D01*
X166563332Y-95914819D02*
X165944285Y-95914819D01*
X165944285Y-95914819D02*
X166277618Y-96295771D01*
X166277618Y-96295771D02*
X166134761Y-96295771D01*
X166134761Y-96295771D02*
X166039523Y-96343390D01*
X166039523Y-96343390D02*
X165991904Y-96391009D01*
X165991904Y-96391009D02*
X165944285Y-96486247D01*
X165944285Y-96486247D02*
X165944285Y-96724342D01*
X165944285Y-96724342D02*
X165991904Y-96819580D01*
X165991904Y-96819580D02*
X166039523Y-96867200D01*
X166039523Y-96867200D02*
X166134761Y-96914819D01*
X166134761Y-96914819D02*
X166420475Y-96914819D01*
X166420475Y-96914819D02*
X166515713Y-96867200D01*
X166515713Y-96867200D02*
X166563332Y-96819580D01*
X167833332Y-65157200D02*
X167690475Y-65204819D01*
X167690475Y-65204819D02*
X167452380Y-65204819D01*
X167452380Y-65204819D02*
X167357142Y-65157200D01*
X167357142Y-65157200D02*
X167309523Y-65109580D01*
X167309523Y-65109580D02*
X167261904Y-65014342D01*
X167261904Y-65014342D02*
X167261904Y-64919104D01*
X167261904Y-64919104D02*
X167309523Y-64823866D01*
X167309523Y-64823866D02*
X167357142Y-64776247D01*
X167357142Y-64776247D02*
X167452380Y-64728628D01*
X167452380Y-64728628D02*
X167642856Y-64681009D01*
X167642856Y-64681009D02*
X167738094Y-64633390D01*
X167738094Y-64633390D02*
X167785713Y-64585771D01*
X167785713Y-64585771D02*
X167833332Y-64490533D01*
X167833332Y-64490533D02*
X167833332Y-64395295D01*
X167833332Y-64395295D02*
X167785713Y-64300057D01*
X167785713Y-64300057D02*
X167738094Y-64252438D01*
X167738094Y-64252438D02*
X167642856Y-64204819D01*
X167642856Y-64204819D02*
X167404761Y-64204819D01*
X167404761Y-64204819D02*
X167261904Y-64252438D01*
X166928570Y-64204819D02*
X166690475Y-65204819D01*
X166690475Y-65204819D02*
X166499999Y-64490533D01*
X166499999Y-64490533D02*
X166309523Y-65204819D01*
X166309523Y-65204819D02*
X166071428Y-64204819D01*
X165166666Y-65204819D02*
X165738094Y-65204819D01*
X165452380Y-65204819D02*
X165452380Y-64204819D01*
X165452380Y-64204819D02*
X165547618Y-64347676D01*
X165547618Y-64347676D02*
X165642856Y-64442914D01*
X165642856Y-64442914D02*
X165738094Y-64490533D01*
X167828332Y-47349700D02*
X167685475Y-47397319D01*
X167685475Y-47397319D02*
X167447380Y-47397319D01*
X167447380Y-47397319D02*
X167352142Y-47349700D01*
X167352142Y-47349700D02*
X167304523Y-47302080D01*
X167304523Y-47302080D02*
X167256904Y-47206842D01*
X167256904Y-47206842D02*
X167256904Y-47111604D01*
X167256904Y-47111604D02*
X167304523Y-47016366D01*
X167304523Y-47016366D02*
X167352142Y-46968747D01*
X167352142Y-46968747D02*
X167447380Y-46921128D01*
X167447380Y-46921128D02*
X167637856Y-46873509D01*
X167637856Y-46873509D02*
X167733094Y-46825890D01*
X167733094Y-46825890D02*
X167780713Y-46778271D01*
X167780713Y-46778271D02*
X167828332Y-46683033D01*
X167828332Y-46683033D02*
X167828332Y-46587795D01*
X167828332Y-46587795D02*
X167780713Y-46492557D01*
X167780713Y-46492557D02*
X167733094Y-46444938D01*
X167733094Y-46444938D02*
X167637856Y-46397319D01*
X167637856Y-46397319D02*
X167399761Y-46397319D01*
X167399761Y-46397319D02*
X167256904Y-46444938D01*
X166923570Y-46397319D02*
X166685475Y-47397319D01*
X166685475Y-47397319D02*
X166494999Y-46683033D01*
X166494999Y-46683033D02*
X166304523Y-47397319D01*
X166304523Y-47397319D02*
X166066428Y-46397319D01*
X165733094Y-46492557D02*
X165685475Y-46444938D01*
X165685475Y-46444938D02*
X165590237Y-46397319D01*
X165590237Y-46397319D02*
X165352142Y-46397319D01*
X165352142Y-46397319D02*
X165256904Y-46444938D01*
X165256904Y-46444938D02*
X165209285Y-46492557D01*
X165209285Y-46492557D02*
X165161666Y-46587795D01*
X165161666Y-46587795D02*
X165161666Y-46683033D01*
X165161666Y-46683033D02*
X165209285Y-46825890D01*
X165209285Y-46825890D02*
X165780713Y-47397319D01*
X165780713Y-47397319D02*
X165161666Y-47397319D01*
D11*
X164185000Y-73545000D02*
X164185000Y-70455000D01*
X164185000Y-70455170D02*
G75*
G02*
X169735000Y-71999952I2560000J-1544830D01*
G01*
X169735000Y-72000048D02*
G75*
G02*
X164185000Y-73544830I-2990000J48D01*
G01*
X169245000Y-72000000D02*
G75*
G02*
X164245000Y-72000000I-2500000J0D01*
G01*
X164245000Y-72000000D02*
G75*
G02*
X169245000Y-72000000I2500000J0D01*
G01*
X164170000Y-84045000D02*
X164170000Y-80955000D01*
X164170000Y-80955170D02*
G75*
G02*
X169720000Y-82499952I2560000J-1544830D01*
G01*
X169720000Y-82500048D02*
G75*
G02*
X164170000Y-84044830I-2990000J48D01*
G01*
X169230000Y-82500000D02*
G75*
G02*
X164230000Y-82500000I-2500000J0D01*
G01*
X164230000Y-82500000D02*
G75*
G02*
X169230000Y-82500000I2500000J0D01*
G01*
X164170000Y-94045000D02*
X164170000Y-90955000D01*
X164170000Y-90955170D02*
G75*
G02*
X169720000Y-92499952I2560000J-1544830D01*
G01*
X169720000Y-92500048D02*
G75*
G02*
X164170000Y-94044830I-2990000J48D01*
G01*
X169230000Y-92500000D02*
G75*
G02*
X164230000Y-92500000I-2500000J0D01*
G01*
X164230000Y-92500000D02*
G75*
G02*
X169230000Y-92500000I2500000J0D01*
G01*
X163000000Y-61250000D02*
X163000000Y-59750000D01*
X164250000Y-57250000D02*
X168750000Y-57250000D01*
X168750000Y-63750000D02*
X164250000Y-63750000D01*
X170000000Y-59750000D02*
X170000000Y-61250000D01*
X163085000Y-47942500D02*
X163085000Y-49092500D01*
X163085000Y-51012500D02*
X163085000Y-52162500D01*
X167098333Y-49417500D02*
X167098333Y-50687500D01*
X169905000Y-47942500D02*
X163085000Y-47942500D01*
X169905000Y-47942500D02*
X169905000Y-49012500D01*
X169905000Y-51092500D02*
X169905000Y-52162500D01*
X169905000Y-52162500D02*
X163085000Y-52162500D01*
X170145000Y-47702500D02*
X168762000Y-47702500D01*
X170145000Y-47702500D02*
X170145000Y-49012500D01*
X168305000Y-49417500D02*
X164685000Y-49417500D01*
X164685000Y-50687500D01*
X168305000Y-50687500D01*
X168305000Y-49417500D01*
X168305000Y-49417500D02*
X167098333Y-49417500D01*
X167098333Y-50687500D01*
X168305000Y-50687500D01*
X168305000Y-49417500D01*
G36*
X168305000Y-49417500D02*
G01*
X167098333Y-49417500D01*
X167098333Y-50687500D01*
X168305000Y-50687500D01*
X168305000Y-49417500D01*
G37*
%LPC*%
D12*
X167500000Y-102500000D03*
X112500000Y-102500000D03*
D13*
X107625000Y-56414000D03*
X107625000Y-53874000D03*
X107625000Y-51334000D03*
X107625000Y-48794000D03*
X107625000Y-46254000D03*
X133025000Y-56414000D03*
X133025000Y-53874000D03*
X133025000Y-51334000D03*
X133025000Y-48794000D03*
X133025000Y-46254000D03*
X133025000Y-43714000D03*
X133025000Y-41174000D03*
X133025000Y-38634000D03*
X133025000Y-36094000D03*
D12*
X167500000Y-27500000D03*
X112500000Y-27500000D03*
D14*
X159800000Y-38750000D03*
D15*
X165800000Y-38750000D03*
X162800000Y-34050000D03*
D16*
X107960000Y-82809100D03*
D17*
X110990000Y-82509100D03*
X110990000Y-77659100D03*
D16*
X107960000Y-77359100D03*
D18*
X107830000Y-88974100D03*
X110370000Y-88974100D03*
D19*
X112910000Y-88974100D03*
D18*
X115450000Y-88974100D03*
X117990000Y-88974100D03*
X120530000Y-88974100D03*
X123070000Y-88974100D03*
D19*
X125610000Y-88974100D03*
D18*
X128150000Y-88974100D03*
X130690000Y-88974100D03*
X133230000Y-88974100D03*
X135770000Y-88974100D03*
D19*
X138310000Y-88974100D03*
D18*
X140850000Y-88974100D03*
X143390000Y-88974100D03*
X145930000Y-88974100D03*
X148470000Y-88974100D03*
D19*
X151010000Y-88974100D03*
D18*
X153550000Y-88974100D03*
X156090000Y-88974100D03*
X156090000Y-71194100D03*
X153550000Y-71194100D03*
D19*
X151010000Y-71194100D03*
D18*
X148470000Y-71194100D03*
X145930000Y-71194100D03*
X143390000Y-71194100D03*
X140850000Y-71194100D03*
D19*
X138310000Y-71194100D03*
D18*
X135770000Y-71194100D03*
X133230000Y-71194100D03*
X130690000Y-71194100D03*
X128150000Y-71194100D03*
D19*
X125610000Y-71194100D03*
D18*
X123070000Y-71194100D03*
X120530000Y-71194100D03*
X117990000Y-71194100D03*
X115450000Y-71194100D03*
D19*
X112910000Y-71194100D03*
D18*
X110370000Y-71194100D03*
X107830000Y-71194100D03*
X137560000Y-79500000D03*
D19*
X137560000Y-76960000D03*
D18*
X137560000Y-74420000D03*
D20*
X165475000Y-72000000D03*
D21*
X168015000Y-72000000D03*
D20*
X165460000Y-82500000D03*
D21*
X168000000Y-82500000D03*
D20*
X165460000Y-92500000D03*
D21*
X168000000Y-92500000D03*
D22*
X163250000Y-62750000D03*
X169750000Y-62750000D03*
X163250000Y-58250000D03*
X169750000Y-58250000D03*
D23*
X170305000Y-50052500D03*
D24*
X162685000Y-50052500D03*
%LPD*%
M02*
