G04 #@! TF.GenerationSoftware,KiCad,Pcbnew,9.0.0*
G04 #@! TF.CreationDate,2025-04-18T21:38:45-04:00*
G04 #@! TF.ProjectId,blood_pressure,626c6f6f-645f-4707-9265-73737572652e,rev?*
G04 #@! TF.SameCoordinates,Original*
G04 #@! TF.FileFunction,Legend,Top*
G04 #@! TF.FilePolarity,Positive*
%FSLAX46Y46*%
G04 Gerber Fmt 4.6, Leading zero omitted, Abs format (unit mm)*
G04 Created by KiCad (PCBNEW 9.0.0) date 2025-04-18 21:38:45*
%MOMM*%
%LPD*%
G01*
G04 APERTURE LIST*
G04 Aperture macros list*
%AMRoundRect*
0 Rectangle with rounded corners*
0 $1 Rounding radius*
0 $2 $3 $4 $5 $6 $7 $8 $9 X,Y pos of 4 corners*
0 Add a 4 corners polygon primitive as box body*
4,1,4,$2,$3,$4,$5,$6,$7,$8,$9,$2,$3,0*
0 Add four circle primitives for the rounded corners*
1,1,$1+$1,$2,$3*
1,1,$1+$1,$4,$5*
1,1,$1+$1,$6,$7*
1,1,$1+$1,$8,$9*
0 Add four rect primitives between the rounded corners*
20,1,$1+$1,$2,$3,$4,$5,0*
20,1,$1+$1,$4,$5,$6,$7,0*
20,1,$1+$1,$6,$7,$8,$9,0*
20,1,$1+$1,$8,$9,$2,$3,0*%
G04 Aperture macros list end*
%ADD10C,0.150000*%
%ADD11C,0.100000*%
%ADD12C,0.120000*%
%ADD13C,0.127000*%
%ADD14C,0.200000*%
%ADD15C,3.200000*%
%ADD16RoundRect,0.250000X-0.262500X-0.450000X0.262500X-0.450000X0.262500X0.450000X-0.262500X0.450000X0*%
%ADD17RoundRect,0.250000X0.475000X-0.250000X0.475000X0.250000X-0.475000X0.250000X-0.475000X-0.250000X0*%
%ADD18C,1.712000*%
%ADD19RoundRect,0.150000X-0.587500X-0.150000X0.587500X-0.150000X0.587500X0.150000X-0.587500X0.150000X0*%
%ADD20R,2.600000X2.600000*%
%ADD21C,2.600000*%
%ADD22O,1.800000X1.800000*%
%ADD23O,1.500000X1.500000*%
%ADD24O,1.700000X1.700000*%
%ADD25R,1.700000X3.500000*%
%ADD26R,1.700000X1.700000*%
%ADD27R,1.800000X1.800000*%
%ADD28C,1.800000*%
%ADD29C,2.000000*%
%ADD30RoundRect,0.250000X0.550000X0.550000X-0.550000X0.550000X-0.550000X-0.550000X0.550000X-0.550000X0*%
%ADD31C,1.600000*%
G04 APERTURE END LIST*
D10*
X166738095Y-98754819D02*
X166738095Y-97754819D01*
X166738095Y-98231009D02*
X167309523Y-98231009D01*
X167309523Y-98754819D02*
X167309523Y-97754819D01*
X168214285Y-98088152D02*
X168214285Y-98754819D01*
X167976190Y-97707200D02*
X167738095Y-98421485D01*
X167738095Y-98421485D02*
X168357142Y-98421485D01*
X120420833Y-95304819D02*
X120087500Y-94828628D01*
X119849405Y-95304819D02*
X119849405Y-94304819D01*
X119849405Y-94304819D02*
X120230357Y-94304819D01*
X120230357Y-94304819D02*
X120325595Y-94352438D01*
X120325595Y-94352438D02*
X120373214Y-94400057D01*
X120373214Y-94400057D02*
X120420833Y-94495295D01*
X120420833Y-94495295D02*
X120420833Y-94638152D01*
X120420833Y-94638152D02*
X120373214Y-94733390D01*
X120373214Y-94733390D02*
X120325595Y-94781009D01*
X120325595Y-94781009D02*
X120230357Y-94828628D01*
X120230357Y-94828628D02*
X119849405Y-94828628D01*
X121325595Y-94304819D02*
X120849405Y-94304819D01*
X120849405Y-94304819D02*
X120801786Y-94781009D01*
X120801786Y-94781009D02*
X120849405Y-94733390D01*
X120849405Y-94733390D02*
X120944643Y-94685771D01*
X120944643Y-94685771D02*
X121182738Y-94685771D01*
X121182738Y-94685771D02*
X121277976Y-94733390D01*
X121277976Y-94733390D02*
X121325595Y-94781009D01*
X121325595Y-94781009D02*
X121373214Y-94876247D01*
X121373214Y-94876247D02*
X121373214Y-95114342D01*
X121373214Y-95114342D02*
X121325595Y-95209580D01*
X121325595Y-95209580D02*
X121277976Y-95257200D01*
X121277976Y-95257200D02*
X121182738Y-95304819D01*
X121182738Y-95304819D02*
X120944643Y-95304819D01*
X120944643Y-95304819D02*
X120849405Y-95257200D01*
X120849405Y-95257200D02*
X120801786Y-95209580D01*
X127333333Y-95454819D02*
X127000000Y-94978628D01*
X126761905Y-95454819D02*
X126761905Y-94454819D01*
X126761905Y-94454819D02*
X127142857Y-94454819D01*
X127142857Y-94454819D02*
X127238095Y-94502438D01*
X127238095Y-94502438D02*
X127285714Y-94550057D01*
X127285714Y-94550057D02*
X127333333Y-94645295D01*
X127333333Y-94645295D02*
X127333333Y-94788152D01*
X127333333Y-94788152D02*
X127285714Y-94883390D01*
X127285714Y-94883390D02*
X127238095Y-94931009D01*
X127238095Y-94931009D02*
X127142857Y-94978628D01*
X127142857Y-94978628D02*
X126761905Y-94978628D01*
X128190476Y-94454819D02*
X128000000Y-94454819D01*
X128000000Y-94454819D02*
X127904762Y-94502438D01*
X127904762Y-94502438D02*
X127857143Y-94550057D01*
X127857143Y-94550057D02*
X127761905Y-94692914D01*
X127761905Y-94692914D02*
X127714286Y-94883390D01*
X127714286Y-94883390D02*
X127714286Y-95264342D01*
X127714286Y-95264342D02*
X127761905Y-95359580D01*
X127761905Y-95359580D02*
X127809524Y-95407200D01*
X127809524Y-95407200D02*
X127904762Y-95454819D01*
X127904762Y-95454819D02*
X128095238Y-95454819D01*
X128095238Y-95454819D02*
X128190476Y-95407200D01*
X128190476Y-95407200D02*
X128238095Y-95359580D01*
X128238095Y-95359580D02*
X128285714Y-95264342D01*
X128285714Y-95264342D02*
X128285714Y-95026247D01*
X128285714Y-95026247D02*
X128238095Y-94931009D01*
X128238095Y-94931009D02*
X128190476Y-94883390D01*
X128190476Y-94883390D02*
X128095238Y-94835771D01*
X128095238Y-94835771D02*
X127904762Y-94835771D01*
X127904762Y-94835771D02*
X127809524Y-94883390D01*
X127809524Y-94883390D02*
X127761905Y-94931009D01*
X127761905Y-94931009D02*
X127714286Y-95026247D01*
X138484580Y-52166666D02*
X138532200Y-52214285D01*
X138532200Y-52214285D02*
X138579819Y-52357142D01*
X138579819Y-52357142D02*
X138579819Y-52452380D01*
X138579819Y-52452380D02*
X138532200Y-52595237D01*
X138532200Y-52595237D02*
X138436961Y-52690475D01*
X138436961Y-52690475D02*
X138341723Y-52738094D01*
X138341723Y-52738094D02*
X138151247Y-52785713D01*
X138151247Y-52785713D02*
X138008390Y-52785713D01*
X138008390Y-52785713D02*
X137817914Y-52738094D01*
X137817914Y-52738094D02*
X137722676Y-52690475D01*
X137722676Y-52690475D02*
X137627438Y-52595237D01*
X137627438Y-52595237D02*
X137579819Y-52452380D01*
X137579819Y-52452380D02*
X137579819Y-52357142D01*
X137579819Y-52357142D02*
X137627438Y-52214285D01*
X137627438Y-52214285D02*
X137675057Y-52166666D01*
X137675057Y-51785713D02*
X137627438Y-51738094D01*
X137627438Y-51738094D02*
X137579819Y-51642856D01*
X137579819Y-51642856D02*
X137579819Y-51404761D01*
X137579819Y-51404761D02*
X137627438Y-51309523D01*
X137627438Y-51309523D02*
X137675057Y-51261904D01*
X137675057Y-51261904D02*
X137770295Y-51214285D01*
X137770295Y-51214285D02*
X137865533Y-51214285D01*
X137865533Y-51214285D02*
X138008390Y-51261904D01*
X138008390Y-51261904D02*
X138579819Y-51833332D01*
X138579819Y-51833332D02*
X138579819Y-51214285D01*
X111738095Y-98754819D02*
X111738095Y-97754819D01*
X111738095Y-98231009D02*
X112309523Y-98231009D01*
X112309523Y-98754819D02*
X112309523Y-97754819D01*
X112690476Y-97754819D02*
X113309523Y-97754819D01*
X113309523Y-97754819D02*
X112976190Y-98135771D01*
X112976190Y-98135771D02*
X113119047Y-98135771D01*
X113119047Y-98135771D02*
X113214285Y-98183390D01*
X113214285Y-98183390D02*
X113261904Y-98231009D01*
X113261904Y-98231009D02*
X113309523Y-98326247D01*
X113309523Y-98326247D02*
X113309523Y-98564342D01*
X113309523Y-98564342D02*
X113261904Y-98659580D01*
X113261904Y-98659580D02*
X113214285Y-98707200D01*
X113214285Y-98707200D02*
X113119047Y-98754819D01*
X113119047Y-98754819D02*
X112833333Y-98754819D01*
X112833333Y-98754819D02*
X112738095Y-98707200D01*
X112738095Y-98707200D02*
X112690476Y-98659580D01*
X131542095Y-59624819D02*
X131542095Y-60434342D01*
X131542095Y-60434342D02*
X131589714Y-60529580D01*
X131589714Y-60529580D02*
X131637333Y-60577200D01*
X131637333Y-60577200D02*
X131732571Y-60624819D01*
X131732571Y-60624819D02*
X131923047Y-60624819D01*
X131923047Y-60624819D02*
X132018285Y-60577200D01*
X132018285Y-60577200D02*
X132065904Y-60529580D01*
X132065904Y-60529580D02*
X132113523Y-60434342D01*
X132113523Y-60434342D02*
X132113523Y-59624819D01*
X132542095Y-59720057D02*
X132589714Y-59672438D01*
X132589714Y-59672438D02*
X132684952Y-59624819D01*
X132684952Y-59624819D02*
X132923047Y-59624819D01*
X132923047Y-59624819D02*
X133018285Y-59672438D01*
X133018285Y-59672438D02*
X133065904Y-59720057D01*
X133065904Y-59720057D02*
X133113523Y-59815295D01*
X133113523Y-59815295D02*
X133113523Y-59910533D01*
X133113523Y-59910533D02*
X133065904Y-60053390D01*
X133065904Y-60053390D02*
X132494476Y-60624819D01*
X132494476Y-60624819D02*
X133113523Y-60624819D01*
X166738095Y-23754819D02*
X166738095Y-22754819D01*
X166738095Y-23231009D02*
X167309523Y-23231009D01*
X167309523Y-23754819D02*
X167309523Y-22754819D01*
X167738095Y-22850057D02*
X167785714Y-22802438D01*
X167785714Y-22802438D02*
X167880952Y-22754819D01*
X167880952Y-22754819D02*
X168119047Y-22754819D01*
X168119047Y-22754819D02*
X168214285Y-22802438D01*
X168214285Y-22802438D02*
X168261904Y-22850057D01*
X168261904Y-22850057D02*
X168309523Y-22945295D01*
X168309523Y-22945295D02*
X168309523Y-23040533D01*
X168309523Y-23040533D02*
X168261904Y-23183390D01*
X168261904Y-23183390D02*
X167690476Y-23754819D01*
X167690476Y-23754819D02*
X168309523Y-23754819D01*
X116420833Y-96304819D02*
X116087500Y-95828628D01*
X115849405Y-96304819D02*
X115849405Y-95304819D01*
X115849405Y-95304819D02*
X116230357Y-95304819D01*
X116230357Y-95304819D02*
X116325595Y-95352438D01*
X116325595Y-95352438D02*
X116373214Y-95400057D01*
X116373214Y-95400057D02*
X116420833Y-95495295D01*
X116420833Y-95495295D02*
X116420833Y-95638152D01*
X116420833Y-95638152D02*
X116373214Y-95733390D01*
X116373214Y-95733390D02*
X116325595Y-95781009D01*
X116325595Y-95781009D02*
X116230357Y-95828628D01*
X116230357Y-95828628D02*
X115849405Y-95828628D01*
X117277976Y-95638152D02*
X117277976Y-96304819D01*
X117039881Y-95257200D02*
X116801786Y-95971485D01*
X116801786Y-95971485D02*
X117420833Y-95971485D01*
X155904761Y-48050057D02*
X155809523Y-48002438D01*
X155809523Y-48002438D02*
X155714285Y-47907200D01*
X155714285Y-47907200D02*
X155571428Y-47764342D01*
X155571428Y-47764342D02*
X155476190Y-47716723D01*
X155476190Y-47716723D02*
X155380952Y-47716723D01*
X155428571Y-47954819D02*
X155333333Y-47907200D01*
X155333333Y-47907200D02*
X155238095Y-47811961D01*
X155238095Y-47811961D02*
X155190476Y-47621485D01*
X155190476Y-47621485D02*
X155190476Y-47288152D01*
X155190476Y-47288152D02*
X155238095Y-47097676D01*
X155238095Y-47097676D02*
X155333333Y-47002438D01*
X155333333Y-47002438D02*
X155428571Y-46954819D01*
X155428571Y-46954819D02*
X155619047Y-46954819D01*
X155619047Y-46954819D02*
X155714285Y-47002438D01*
X155714285Y-47002438D02*
X155809523Y-47097676D01*
X155809523Y-47097676D02*
X155857142Y-47288152D01*
X155857142Y-47288152D02*
X155857142Y-47621485D01*
X155857142Y-47621485D02*
X155809523Y-47811961D01*
X155809523Y-47811961D02*
X155714285Y-47907200D01*
X155714285Y-47907200D02*
X155619047Y-47954819D01*
X155619047Y-47954819D02*
X155428571Y-47954819D01*
X156809523Y-47954819D02*
X156238095Y-47954819D01*
X156523809Y-47954819D02*
X156523809Y-46954819D01*
X156523809Y-46954819D02*
X156428571Y-47097676D01*
X156428571Y-47097676D02*
X156333333Y-47192914D01*
X156333333Y-47192914D02*
X156238095Y-47240533D01*
X111738095Y-23754819D02*
X111738095Y-22754819D01*
X111738095Y-23231009D02*
X112309523Y-23231009D01*
X112309523Y-23754819D02*
X112309523Y-22754819D01*
X113309523Y-23754819D02*
X112738095Y-23754819D01*
X113023809Y-23754819D02*
X113023809Y-22754819D01*
X113023809Y-22754819D02*
X112928571Y-22897676D01*
X112928571Y-22897676D02*
X112833333Y-22992914D01*
X112833333Y-22992914D02*
X112738095Y-23040533D01*
X157420833Y-56804819D02*
X157087500Y-56328628D01*
X156849405Y-56804819D02*
X156849405Y-55804819D01*
X156849405Y-55804819D02*
X157230357Y-55804819D01*
X157230357Y-55804819D02*
X157325595Y-55852438D01*
X157325595Y-55852438D02*
X157373214Y-55900057D01*
X157373214Y-55900057D02*
X157420833Y-55995295D01*
X157420833Y-55995295D02*
X157420833Y-56138152D01*
X157420833Y-56138152D02*
X157373214Y-56233390D01*
X157373214Y-56233390D02*
X157325595Y-56281009D01*
X157325595Y-56281009D02*
X157230357Y-56328628D01*
X157230357Y-56328628D02*
X156849405Y-56328628D01*
X157754167Y-55804819D02*
X158373214Y-55804819D01*
X158373214Y-55804819D02*
X158039881Y-56185771D01*
X158039881Y-56185771D02*
X158182738Y-56185771D01*
X158182738Y-56185771D02*
X158277976Y-56233390D01*
X158277976Y-56233390D02*
X158325595Y-56281009D01*
X158325595Y-56281009D02*
X158373214Y-56376247D01*
X158373214Y-56376247D02*
X158373214Y-56614342D01*
X158373214Y-56614342D02*
X158325595Y-56709580D01*
X158325595Y-56709580D02*
X158277976Y-56757200D01*
X158277976Y-56757200D02*
X158182738Y-56804819D01*
X158182738Y-56804819D02*
X157897024Y-56804819D01*
X157897024Y-56804819D02*
X157801786Y-56757200D01*
X157801786Y-56757200D02*
X157754167Y-56709580D01*
X167916666Y-32454819D02*
X167916666Y-33169104D01*
X167916666Y-33169104D02*
X167869047Y-33311961D01*
X167869047Y-33311961D02*
X167773809Y-33407200D01*
X167773809Y-33407200D02*
X167630952Y-33454819D01*
X167630952Y-33454819D02*
X167535714Y-33454819D01*
X168916666Y-33454819D02*
X168345238Y-33454819D01*
X168630952Y-33454819D02*
X168630952Y-32454819D01*
X168630952Y-32454819D02*
X168535714Y-32597676D01*
X168535714Y-32597676D02*
X168440476Y-32692914D01*
X168440476Y-32692914D02*
X168345238Y-32740533D01*
X131414819Y-80846004D02*
X132224342Y-80846004D01*
X132224342Y-80846004D02*
X132319580Y-80798385D01*
X132319580Y-80798385D02*
X132367200Y-80750766D01*
X132367200Y-80750766D02*
X132414819Y-80655528D01*
X132414819Y-80655528D02*
X132414819Y-80465052D01*
X132414819Y-80465052D02*
X132367200Y-80369814D01*
X132367200Y-80369814D02*
X132319580Y-80322195D01*
X132319580Y-80322195D02*
X132224342Y-80274576D01*
X132224342Y-80274576D02*
X131414819Y-80274576D01*
X132414819Y-79274576D02*
X132414819Y-79846004D01*
X132414819Y-79560290D02*
X131414819Y-79560290D01*
X131414819Y-79560290D02*
X131557676Y-79655528D01*
X131557676Y-79655528D02*
X131652914Y-79750766D01*
X131652914Y-79750766D02*
X131700533Y-79846004D01*
X109785754Y-65528852D02*
X109267209Y-66424521D01*
X109267209Y-66424521D02*
X110162878Y-65905976D01*
X109651067Y-66741035D02*
X109698207Y-66855519D01*
X109698207Y-66855519D02*
X109832894Y-66990206D01*
X109832894Y-66990206D02*
X109920441Y-67010409D01*
X109920441Y-67010409D02*
X109981050Y-67003674D01*
X109981050Y-67003674D02*
X110075331Y-66963268D01*
X110075331Y-66963268D02*
X110142675Y-66895925D01*
X110142675Y-66895925D02*
X110183081Y-66801644D01*
X110183081Y-66801644D02*
X110189815Y-66741035D01*
X110189815Y-66741035D02*
X110169612Y-66653488D01*
X110169612Y-66653488D02*
X110095534Y-66512067D01*
X110095534Y-66512067D02*
X110075331Y-66424520D01*
X110075331Y-66424520D02*
X110082065Y-66363911D01*
X110082065Y-66363911D02*
X110122472Y-66269630D01*
X110122472Y-66269630D02*
X110189815Y-66202287D01*
X110189815Y-66202287D02*
X110284096Y-66161881D01*
X110284096Y-66161881D02*
X110344705Y-66155146D01*
X110344705Y-66155146D02*
X110432252Y-66175349D01*
X110432252Y-66175349D02*
X110566939Y-66310036D01*
X110566939Y-66310036D02*
X110614079Y-66424520D01*
X110627548Y-67111424D02*
X110290830Y-67448142D01*
X110809375Y-66552473D02*
X110627548Y-67111424D01*
X110627548Y-67111424D02*
X111186499Y-66929597D01*
X110674688Y-67764656D02*
X110721829Y-67879140D01*
X110721829Y-67879140D02*
X110856516Y-68013827D01*
X110856516Y-68013827D02*
X110944062Y-68034030D01*
X110944062Y-68034030D02*
X111004671Y-68027296D01*
X111004671Y-68027296D02*
X111098952Y-67986890D01*
X111098952Y-67986890D02*
X111166296Y-67919546D01*
X111166296Y-67919546D02*
X111206702Y-67825265D01*
X111206702Y-67825265D02*
X111213436Y-67764656D01*
X111213436Y-67764656D02*
X111193233Y-67677109D01*
X111193233Y-67677109D02*
X111119155Y-67535688D01*
X111119155Y-67535688D02*
X111098952Y-67448142D01*
X111098952Y-67448142D02*
X111105687Y-67387532D01*
X111105687Y-67387532D02*
X111146093Y-67293251D01*
X111146093Y-67293251D02*
X111213436Y-67225908D01*
X111213436Y-67225908D02*
X111307717Y-67185502D01*
X111307717Y-67185502D02*
X111368326Y-67178768D01*
X111368326Y-67178768D02*
X111455873Y-67198971D01*
X111455873Y-67198971D02*
X111590560Y-67333658D01*
X111590560Y-67333658D02*
X111637700Y-67448142D01*
X115397768Y-92228209D02*
X115377565Y-92140663D01*
X115377565Y-92140663D02*
X115296753Y-92059851D01*
X115296753Y-92059851D02*
X115182269Y-92012710D01*
X115182269Y-92012710D02*
X115061051Y-92026179D01*
X115061051Y-92026179D02*
X114966770Y-92066585D01*
X114966770Y-92066585D02*
X114805145Y-92174335D01*
X114805145Y-92174335D02*
X114704130Y-92275350D01*
X114704130Y-92275350D02*
X114596380Y-92436974D01*
X114596380Y-92436974D02*
X114555974Y-92531255D01*
X114555974Y-92531255D02*
X114542506Y-92652473D01*
X114542506Y-92652473D02*
X114589646Y-92766957D01*
X114589646Y-92766957D02*
X114643521Y-92820832D01*
X114643521Y-92820832D02*
X114758005Y-92867973D01*
X114758005Y-92867973D02*
X114818614Y-92861238D01*
X114818614Y-92861238D02*
X115054316Y-92625536D01*
X115054316Y-92625536D02*
X114946567Y-92517786D01*
X114993707Y-93171018D02*
X115700814Y-92463912D01*
X115700814Y-92463912D02*
X115916313Y-92679411D01*
X115916313Y-92679411D02*
X115936516Y-92766957D01*
X115936516Y-92766957D02*
X115929782Y-92827567D01*
X115929782Y-92827567D02*
X115889376Y-92921847D01*
X115889376Y-92921847D02*
X115788360Y-93022863D01*
X115788360Y-93022863D02*
X115694080Y-93063269D01*
X115694080Y-93063269D02*
X115633470Y-93070003D01*
X115633470Y-93070003D02*
X115545924Y-93049800D01*
X115545924Y-93049800D02*
X115330425Y-92834301D01*
X116172218Y-93070003D02*
X116232828Y-93063269D01*
X116232828Y-93063269D02*
X116320374Y-93083472D01*
X116320374Y-93083472D02*
X116455061Y-93218159D01*
X116455061Y-93218159D02*
X116475264Y-93305705D01*
X116475264Y-93305705D02*
X116468530Y-93366315D01*
X116468530Y-93366315D02*
X116428124Y-93460595D01*
X116428124Y-93460595D02*
X116360780Y-93527939D01*
X116360780Y-93527939D02*
X116232828Y-93602017D01*
X116232828Y-93602017D02*
X115505518Y-93682829D01*
X115505518Y-93682829D02*
X115855704Y-94033015D01*
X107108411Y-65361509D02*
X106589866Y-66257177D01*
X106589866Y-66257177D02*
X107485534Y-65738632D01*
X107525940Y-66452473D02*
X107573081Y-66566957D01*
X107573081Y-66566957D02*
X107566346Y-66627566D01*
X107566346Y-66627566D02*
X107525940Y-66721847D01*
X107525940Y-66721847D02*
X107424925Y-66822862D01*
X107424925Y-66822862D02*
X107330644Y-66863268D01*
X107330644Y-66863268D02*
X107270035Y-66870003D01*
X107270035Y-66870003D02*
X107182488Y-66849800D01*
X107182488Y-66849800D02*
X106966989Y-66634301D01*
X106966989Y-66634301D02*
X107674096Y-65927194D01*
X107674096Y-65927194D02*
X107862658Y-66115756D01*
X107862658Y-66115756D02*
X107882861Y-66203302D01*
X107882861Y-66203302D02*
X107876127Y-66263911D01*
X107876127Y-66263911D02*
X107835720Y-66358192D01*
X107835720Y-66358192D02*
X107768377Y-66425536D01*
X107768377Y-66425536D02*
X107674096Y-66465942D01*
X107674096Y-66465942D02*
X107613487Y-66472676D01*
X107613487Y-66472676D02*
X107525940Y-66452473D01*
X107525940Y-66452473D02*
X107337379Y-66263911D01*
X108239781Y-66492879D02*
X107667362Y-67065299D01*
X107667362Y-67065299D02*
X107626956Y-67159580D01*
X107626956Y-67159580D02*
X107620221Y-67220189D01*
X107620221Y-67220189D02*
X107640424Y-67307736D01*
X107640424Y-67307736D02*
X107748174Y-67415485D01*
X107748174Y-67415485D02*
X107835720Y-67435688D01*
X107835720Y-67435688D02*
X107896330Y-67428954D01*
X107896330Y-67428954D02*
X107990610Y-67388548D01*
X107990610Y-67388548D02*
X108563030Y-66816128D01*
X108132032Y-67731999D02*
X108179172Y-67846483D01*
X108179172Y-67846483D02*
X108313859Y-67981170D01*
X108313859Y-67981170D02*
X108401406Y-68001373D01*
X108401406Y-68001373D02*
X108462015Y-67994639D01*
X108462015Y-67994639D02*
X108556296Y-67954233D01*
X108556296Y-67954233D02*
X108623639Y-67886889D01*
X108623639Y-67886889D02*
X108664045Y-67792609D01*
X108664045Y-67792609D02*
X108670780Y-67731999D01*
X108670780Y-67731999D02*
X108650577Y-67644453D01*
X108650577Y-67644453D02*
X108576499Y-67503032D01*
X108576499Y-67503032D02*
X108556296Y-67415485D01*
X108556296Y-67415485D02*
X108563030Y-67354876D01*
X108563030Y-67354876D02*
X108603436Y-67260595D01*
X108603436Y-67260595D02*
X108670780Y-67193251D01*
X108670780Y-67193251D02*
X108765061Y-67152845D01*
X108765061Y-67152845D02*
X108825670Y-67146111D01*
X108825670Y-67146111D02*
X108913216Y-67166314D01*
X108913216Y-67166314D02*
X109047903Y-67301001D01*
X109047903Y-67301001D02*
X109095044Y-67415485D01*
X120477768Y-92128209D02*
X120457565Y-92040663D01*
X120457565Y-92040663D02*
X120376753Y-91959851D01*
X120376753Y-91959851D02*
X120262269Y-91912710D01*
X120262269Y-91912710D02*
X120141051Y-91926179D01*
X120141051Y-91926179D02*
X120046770Y-91966585D01*
X120046770Y-91966585D02*
X119885145Y-92074335D01*
X119885145Y-92074335D02*
X119784130Y-92175350D01*
X119784130Y-92175350D02*
X119676380Y-92336974D01*
X119676380Y-92336974D02*
X119635974Y-92431255D01*
X119635974Y-92431255D02*
X119622506Y-92552473D01*
X119622506Y-92552473D02*
X119669646Y-92666957D01*
X119669646Y-92666957D02*
X119723521Y-92720832D01*
X119723521Y-92720832D02*
X119838005Y-92767973D01*
X119838005Y-92767973D02*
X119898614Y-92761238D01*
X119898614Y-92761238D02*
X120134316Y-92525536D01*
X120134316Y-92525536D02*
X120026567Y-92417786D01*
X120073707Y-93071018D02*
X120780814Y-92363912D01*
X120780814Y-92363912D02*
X120996313Y-92579411D01*
X120996313Y-92579411D02*
X121016516Y-92666957D01*
X121016516Y-92666957D02*
X121009782Y-92727567D01*
X121009782Y-92727567D02*
X120969376Y-92821847D01*
X120969376Y-92821847D02*
X120868360Y-92922863D01*
X120868360Y-92922863D02*
X120774080Y-92963269D01*
X120774080Y-92963269D02*
X120713470Y-92970003D01*
X120713470Y-92970003D02*
X120625924Y-92949800D01*
X120625924Y-92949800D02*
X120410425Y-92734301D01*
X121353234Y-93407736D02*
X120881829Y-93879140D01*
X121487921Y-93003675D02*
X120848157Y-93374064D01*
X120848157Y-93374064D02*
X121198344Y-93724250D01*
X145930894Y-92258835D02*
X145910691Y-92171288D01*
X145910691Y-92171288D02*
X145829878Y-92090476D01*
X145829878Y-92090476D02*
X145715394Y-92043336D01*
X145715394Y-92043336D02*
X145594176Y-92056804D01*
X145594176Y-92056804D02*
X145499895Y-92097210D01*
X145499895Y-92097210D02*
X145338271Y-92204960D01*
X145338271Y-92204960D02*
X145237256Y-92305975D01*
X145237256Y-92305975D02*
X145129506Y-92467600D01*
X145129506Y-92467600D02*
X145089100Y-92561881D01*
X145089100Y-92561881D02*
X145075631Y-92683099D01*
X145075631Y-92683099D02*
X145122772Y-92797583D01*
X145122772Y-92797583D02*
X145176646Y-92851458D01*
X145176646Y-92851458D02*
X145291130Y-92898598D01*
X145291130Y-92898598D02*
X145351740Y-92891864D01*
X145351740Y-92891864D02*
X145587442Y-92656162D01*
X145587442Y-92656162D02*
X145479692Y-92548412D01*
X145526833Y-93201644D02*
X146233939Y-92494537D01*
X146233939Y-92494537D02*
X146449439Y-92710036D01*
X146449439Y-92710036D02*
X146469642Y-92797583D01*
X146469642Y-92797583D02*
X146462907Y-92858192D01*
X146462907Y-92858192D02*
X146422501Y-92952473D01*
X146422501Y-92952473D02*
X146321486Y-93053488D01*
X146321486Y-93053488D02*
X146227205Y-93093894D01*
X146227205Y-93093894D02*
X146166596Y-93100629D01*
X146166596Y-93100629D02*
X146079049Y-93080426D01*
X146079049Y-93080426D02*
X145863550Y-92864926D01*
X146388830Y-94063641D02*
X146065581Y-93740392D01*
X146227205Y-93902016D02*
X146934312Y-93194910D01*
X146934312Y-93194910D02*
X146779422Y-93242050D01*
X146779422Y-93242050D02*
X146658204Y-93255519D01*
X146658204Y-93255519D02*
X146570657Y-93235316D01*
X147244092Y-93639377D02*
X147304701Y-93632643D01*
X147304701Y-93632643D02*
X147392248Y-93652846D01*
X147392248Y-93652846D02*
X147526935Y-93787533D01*
X147526935Y-93787533D02*
X147547138Y-93875079D01*
X147547138Y-93875079D02*
X147540404Y-93935688D01*
X147540404Y-93935688D02*
X147499997Y-94029969D01*
X147499997Y-94029969D02*
X147432654Y-94097313D01*
X147432654Y-94097313D02*
X147304701Y-94171391D01*
X147304701Y-94171391D02*
X146577391Y-94252203D01*
X146577391Y-94252203D02*
X146927578Y-94602389D01*
X150920831Y-92217172D02*
X150900628Y-92129626D01*
X150900628Y-92129626D02*
X150819816Y-92048813D01*
X150819816Y-92048813D02*
X150705332Y-92001673D01*
X150705332Y-92001673D02*
X150584113Y-92015142D01*
X150584113Y-92015142D02*
X150489832Y-92055548D01*
X150489832Y-92055548D02*
X150328208Y-92163297D01*
X150328208Y-92163297D02*
X150227193Y-92264313D01*
X150227193Y-92264313D02*
X150119443Y-92425937D01*
X150119443Y-92425937D02*
X150079037Y-92520218D01*
X150079037Y-92520218D02*
X150065568Y-92641436D01*
X150065568Y-92641436D02*
X150112709Y-92755920D01*
X150112709Y-92755920D02*
X150166584Y-92809795D01*
X150166584Y-92809795D02*
X150281068Y-92856935D01*
X150281068Y-92856935D02*
X150341677Y-92850201D01*
X150341677Y-92850201D02*
X150577379Y-92614499D01*
X150577379Y-92614499D02*
X150469629Y-92506749D01*
X150516770Y-93159981D02*
X151223877Y-92452874D01*
X151223877Y-92452874D02*
X150840019Y-93483230D01*
X150840019Y-93483230D02*
X151547125Y-92776123D01*
X151109393Y-93752604D02*
X151816499Y-93045497D01*
X151816499Y-93045497D02*
X151951186Y-93180184D01*
X151951186Y-93180184D02*
X151998327Y-93294668D01*
X151998327Y-93294668D02*
X151984858Y-93415886D01*
X151984858Y-93415886D02*
X151944452Y-93510167D01*
X151944452Y-93510167D02*
X151836702Y-93671792D01*
X151836702Y-93671792D02*
X151735687Y-93772807D01*
X151735687Y-93772807D02*
X151574063Y-93880556D01*
X151574063Y-93880556D02*
X151479782Y-93920963D01*
X151479782Y-93920963D02*
X151358564Y-93934431D01*
X151358564Y-93934431D02*
X151244080Y-93887291D01*
X151244080Y-93887291D02*
X151109393Y-93752604D01*
X145608394Y-66004835D02*
X145588191Y-65917288D01*
X145588191Y-65917288D02*
X145507378Y-65836476D01*
X145507378Y-65836476D02*
X145392894Y-65789336D01*
X145392894Y-65789336D02*
X145271676Y-65802804D01*
X145271676Y-65802804D02*
X145177395Y-65843210D01*
X145177395Y-65843210D02*
X145015771Y-65950960D01*
X145015771Y-65950960D02*
X144914756Y-66051975D01*
X144914756Y-66051975D02*
X144807006Y-66213600D01*
X144807006Y-66213600D02*
X144766600Y-66307881D01*
X144766600Y-66307881D02*
X144753131Y-66429099D01*
X144753131Y-66429099D02*
X144800272Y-66543583D01*
X144800272Y-66543583D02*
X144854146Y-66597458D01*
X144854146Y-66597458D02*
X144968630Y-66644598D01*
X144968630Y-66644598D02*
X145029240Y-66637864D01*
X145029240Y-66637864D02*
X145264942Y-66402162D01*
X145264942Y-66402162D02*
X145157192Y-66294412D01*
X145204333Y-66947644D02*
X145911439Y-66240537D01*
X145911439Y-66240537D02*
X146126939Y-66456036D01*
X146126939Y-66456036D02*
X146147142Y-66543583D01*
X146147142Y-66543583D02*
X146140407Y-66604192D01*
X146140407Y-66604192D02*
X146100001Y-66698473D01*
X146100001Y-66698473D02*
X145998986Y-66799488D01*
X145998986Y-66799488D02*
X145904705Y-66839894D01*
X145904705Y-66839894D02*
X145844096Y-66846629D01*
X145844096Y-66846629D02*
X145756549Y-66826426D01*
X145756549Y-66826426D02*
X145541050Y-66610926D01*
X146066330Y-67809641D02*
X145743081Y-67486392D01*
X145904705Y-67648016D02*
X146611812Y-66940910D01*
X146611812Y-66940910D02*
X146456922Y-66988050D01*
X146456922Y-66988050D02*
X146335704Y-67001519D01*
X146335704Y-67001519D02*
X146248157Y-66981316D01*
X146335704Y-68079015D02*
X146443453Y-68186765D01*
X146443453Y-68186765D02*
X146531000Y-68206968D01*
X146531000Y-68206968D02*
X146591609Y-68200233D01*
X146591609Y-68200233D02*
X146746499Y-68153093D01*
X146746499Y-68153093D02*
X146908123Y-68045343D01*
X146908123Y-68045343D02*
X147177497Y-67775969D01*
X147177497Y-67775969D02*
X147217904Y-67681688D01*
X147217904Y-67681688D02*
X147224638Y-67621079D01*
X147224638Y-67621079D02*
X147204435Y-67533533D01*
X147204435Y-67533533D02*
X147096685Y-67425783D01*
X147096685Y-67425783D02*
X147009139Y-67405580D01*
X147009139Y-67405580D02*
X146948530Y-67412314D01*
X146948530Y-67412314D02*
X146854249Y-67452720D01*
X146854249Y-67452720D02*
X146685890Y-67621079D01*
X146685890Y-67621079D02*
X146645484Y-67715360D01*
X146645484Y-67715360D02*
X146638749Y-67775969D01*
X146638749Y-67775969D02*
X146658953Y-67863516D01*
X146658953Y-67863516D02*
X146766702Y-67971265D01*
X146766702Y-67971265D02*
X146854249Y-67991468D01*
X146854249Y-67991468D02*
X146914858Y-67984734D01*
X146914858Y-67984734D02*
X147009139Y-67944328D01*
X135448394Y-66004835D02*
X135428191Y-65917288D01*
X135428191Y-65917288D02*
X135347378Y-65836476D01*
X135347378Y-65836476D02*
X135232894Y-65789336D01*
X135232894Y-65789336D02*
X135111676Y-65802804D01*
X135111676Y-65802804D02*
X135017395Y-65843210D01*
X135017395Y-65843210D02*
X134855771Y-65950960D01*
X134855771Y-65950960D02*
X134754756Y-66051975D01*
X134754756Y-66051975D02*
X134647006Y-66213600D01*
X134647006Y-66213600D02*
X134606600Y-66307881D01*
X134606600Y-66307881D02*
X134593131Y-66429099D01*
X134593131Y-66429099D02*
X134640272Y-66543583D01*
X134640272Y-66543583D02*
X134694146Y-66597458D01*
X134694146Y-66597458D02*
X134808630Y-66644598D01*
X134808630Y-66644598D02*
X134869240Y-66637864D01*
X134869240Y-66637864D02*
X135104942Y-66402162D01*
X135104942Y-66402162D02*
X134997192Y-66294412D01*
X135044333Y-66947644D02*
X135751439Y-66240537D01*
X135751439Y-66240537D02*
X135966939Y-66456036D01*
X135966939Y-66456036D02*
X135987142Y-66543583D01*
X135987142Y-66543583D02*
X135980407Y-66604192D01*
X135980407Y-66604192D02*
X135940001Y-66698473D01*
X135940001Y-66698473D02*
X135838986Y-66799488D01*
X135838986Y-66799488D02*
X135744705Y-66839894D01*
X135744705Y-66839894D02*
X135684096Y-66846629D01*
X135684096Y-66846629D02*
X135596549Y-66826426D01*
X135596549Y-66826426D02*
X135381050Y-66610926D01*
X136222844Y-66846629D02*
X136283453Y-66839894D01*
X136283453Y-66839894D02*
X136371000Y-66860097D01*
X136371000Y-66860097D02*
X136505687Y-66994784D01*
X136505687Y-66994784D02*
X136525890Y-67082331D01*
X136525890Y-67082331D02*
X136519155Y-67142940D01*
X136519155Y-67142940D02*
X136478749Y-67237221D01*
X136478749Y-67237221D02*
X136411406Y-67304565D01*
X136411406Y-67304565D02*
X136283453Y-67378642D01*
X136283453Y-67378642D02*
X135556143Y-67459455D01*
X135556143Y-67459455D02*
X135906330Y-67809641D01*
X136761592Y-67385377D02*
X136822201Y-67378643D01*
X136822201Y-67378643D02*
X136909748Y-67398846D01*
X136909748Y-67398846D02*
X137044435Y-67533533D01*
X137044435Y-67533533D02*
X137064638Y-67621079D01*
X137064638Y-67621079D02*
X137057904Y-67681688D01*
X137057904Y-67681688D02*
X137017497Y-67775969D01*
X137017497Y-67775969D02*
X136950154Y-67843313D01*
X136950154Y-67843313D02*
X136822201Y-67917391D01*
X136822201Y-67917391D02*
X136094891Y-67998203D01*
X136094891Y-67998203D02*
X136445078Y-68348389D01*
X153228394Y-66004835D02*
X153208191Y-65917288D01*
X153208191Y-65917288D02*
X153127378Y-65836476D01*
X153127378Y-65836476D02*
X153012894Y-65789336D01*
X153012894Y-65789336D02*
X152891676Y-65802804D01*
X152891676Y-65802804D02*
X152797395Y-65843210D01*
X152797395Y-65843210D02*
X152635771Y-65950960D01*
X152635771Y-65950960D02*
X152534756Y-66051975D01*
X152534756Y-66051975D02*
X152427006Y-66213600D01*
X152427006Y-66213600D02*
X152386600Y-66307881D01*
X152386600Y-66307881D02*
X152373131Y-66429099D01*
X152373131Y-66429099D02*
X152420272Y-66543583D01*
X152420272Y-66543583D02*
X152474146Y-66597458D01*
X152474146Y-66597458D02*
X152588630Y-66644598D01*
X152588630Y-66644598D02*
X152649240Y-66637864D01*
X152649240Y-66637864D02*
X152884942Y-66402162D01*
X152884942Y-66402162D02*
X152777192Y-66294412D01*
X152824333Y-66947644D02*
X153531439Y-66240537D01*
X153531439Y-66240537D02*
X153746939Y-66456036D01*
X153746939Y-66456036D02*
X153767142Y-66543583D01*
X153767142Y-66543583D02*
X153760407Y-66604192D01*
X153760407Y-66604192D02*
X153720001Y-66698473D01*
X153720001Y-66698473D02*
X153618986Y-66799488D01*
X153618986Y-66799488D02*
X153524705Y-66839894D01*
X153524705Y-66839894D02*
X153464096Y-66846629D01*
X153464096Y-66846629D02*
X153376549Y-66826426D01*
X153376549Y-66826426D02*
X153161050Y-66610926D01*
X153686330Y-67809641D02*
X153363081Y-67486392D01*
X153524705Y-67648016D02*
X154231812Y-66940910D01*
X154231812Y-66940910D02*
X154076922Y-66988050D01*
X154076922Y-66988050D02*
X153955704Y-67001519D01*
X153955704Y-67001519D02*
X153868157Y-66981316D01*
X154581998Y-67291096D02*
X154959122Y-67668220D01*
X154959122Y-67668220D02*
X154009579Y-68132890D01*
X143068394Y-66004835D02*
X143048191Y-65917288D01*
X143048191Y-65917288D02*
X142967378Y-65836476D01*
X142967378Y-65836476D02*
X142852894Y-65789336D01*
X142852894Y-65789336D02*
X142731676Y-65802804D01*
X142731676Y-65802804D02*
X142637395Y-65843210D01*
X142637395Y-65843210D02*
X142475771Y-65950960D01*
X142475771Y-65950960D02*
X142374756Y-66051975D01*
X142374756Y-66051975D02*
X142267006Y-66213600D01*
X142267006Y-66213600D02*
X142226600Y-66307881D01*
X142226600Y-66307881D02*
X142213131Y-66429099D01*
X142213131Y-66429099D02*
X142260272Y-66543583D01*
X142260272Y-66543583D02*
X142314146Y-66597458D01*
X142314146Y-66597458D02*
X142428630Y-66644598D01*
X142428630Y-66644598D02*
X142489240Y-66637864D01*
X142489240Y-66637864D02*
X142724942Y-66402162D01*
X142724942Y-66402162D02*
X142617192Y-66294412D01*
X142664333Y-66947644D02*
X143371439Y-66240537D01*
X143371439Y-66240537D02*
X143586939Y-66456036D01*
X143586939Y-66456036D02*
X143607142Y-66543583D01*
X143607142Y-66543583D02*
X143600407Y-66604192D01*
X143600407Y-66604192D02*
X143560001Y-66698473D01*
X143560001Y-66698473D02*
X143458986Y-66799488D01*
X143458986Y-66799488D02*
X143364705Y-66839894D01*
X143364705Y-66839894D02*
X143304096Y-66846629D01*
X143304096Y-66846629D02*
X143216549Y-66826426D01*
X143216549Y-66826426D02*
X143001050Y-66610926D01*
X143842844Y-66846629D02*
X143903453Y-66839894D01*
X143903453Y-66839894D02*
X143991000Y-66860097D01*
X143991000Y-66860097D02*
X144125687Y-66994784D01*
X144125687Y-66994784D02*
X144145890Y-67082331D01*
X144145890Y-67082331D02*
X144139155Y-67142940D01*
X144139155Y-67142940D02*
X144098749Y-67237221D01*
X144098749Y-67237221D02*
X144031406Y-67304565D01*
X144031406Y-67304565D02*
X143903453Y-67378642D01*
X143903453Y-67378642D02*
X143176143Y-67459455D01*
X143176143Y-67459455D02*
X143526330Y-67809641D01*
X144583623Y-67452720D02*
X144637497Y-67506595D01*
X144637497Y-67506595D02*
X144657701Y-67594142D01*
X144657701Y-67594142D02*
X144650966Y-67654751D01*
X144650966Y-67654751D02*
X144610560Y-67749032D01*
X144610560Y-67749032D02*
X144502810Y-67910656D01*
X144502810Y-67910656D02*
X144334452Y-68079015D01*
X144334452Y-68079015D02*
X144172827Y-68186765D01*
X144172827Y-68186765D02*
X144078546Y-68227171D01*
X144078546Y-68227171D02*
X144017937Y-68233905D01*
X144017937Y-68233905D02*
X143930391Y-68213702D01*
X143930391Y-68213702D02*
X143876516Y-68159827D01*
X143876516Y-68159827D02*
X143856313Y-68072281D01*
X143856313Y-68072281D02*
X143863047Y-68011671D01*
X143863047Y-68011671D02*
X143903453Y-67917391D01*
X143903453Y-67917391D02*
X144011203Y-67755766D01*
X144011203Y-67755766D02*
X144179562Y-67587407D01*
X144179562Y-67587407D02*
X144341186Y-67479658D01*
X144341186Y-67479658D02*
X144435467Y-67439252D01*
X144435467Y-67439252D02*
X144496076Y-67432517D01*
X144496076Y-67432517D02*
X144583623Y-67452720D01*
X150930831Y-66501272D02*
X150910628Y-66413726D01*
X150910628Y-66413726D02*
X150829816Y-66332913D01*
X150829816Y-66332913D02*
X150715332Y-66285773D01*
X150715332Y-66285773D02*
X150594113Y-66299242D01*
X150594113Y-66299242D02*
X150499832Y-66339648D01*
X150499832Y-66339648D02*
X150338208Y-66447397D01*
X150338208Y-66447397D02*
X150237193Y-66548413D01*
X150237193Y-66548413D02*
X150129443Y-66710037D01*
X150129443Y-66710037D02*
X150089037Y-66804318D01*
X150089037Y-66804318D02*
X150075568Y-66925536D01*
X150075568Y-66925536D02*
X150122709Y-67040020D01*
X150122709Y-67040020D02*
X150176584Y-67093895D01*
X150176584Y-67093895D02*
X150291068Y-67141035D01*
X150291068Y-67141035D02*
X150351677Y-67134301D01*
X150351677Y-67134301D02*
X150587379Y-66898599D01*
X150587379Y-66898599D02*
X150479629Y-66790849D01*
X150526770Y-67444081D02*
X151233877Y-66736974D01*
X151233877Y-66736974D02*
X150850019Y-67767330D01*
X150850019Y-67767330D02*
X151557125Y-67060223D01*
X151119393Y-68036704D02*
X151826499Y-67329597D01*
X151826499Y-67329597D02*
X151961186Y-67464284D01*
X151961186Y-67464284D02*
X152008327Y-67578768D01*
X152008327Y-67578768D02*
X151994858Y-67699986D01*
X151994858Y-67699986D02*
X151954452Y-67794267D01*
X151954452Y-67794267D02*
X151846702Y-67955892D01*
X151846702Y-67955892D02*
X151745687Y-68056907D01*
X151745687Y-68056907D02*
X151584063Y-68164656D01*
X151584063Y-68164656D02*
X151489782Y-68205063D01*
X151489782Y-68205063D02*
X151368564Y-68218531D01*
X151368564Y-68218531D02*
X151254080Y-68171391D01*
X151254080Y-68171391D02*
X151119393Y-68036704D01*
X155768394Y-66004835D02*
X155748191Y-65917288D01*
X155748191Y-65917288D02*
X155667378Y-65836476D01*
X155667378Y-65836476D02*
X155552894Y-65789336D01*
X155552894Y-65789336D02*
X155431676Y-65802804D01*
X155431676Y-65802804D02*
X155337395Y-65843210D01*
X155337395Y-65843210D02*
X155175771Y-65950960D01*
X155175771Y-65950960D02*
X155074756Y-66051975D01*
X155074756Y-66051975D02*
X154967006Y-66213600D01*
X154967006Y-66213600D02*
X154926600Y-66307881D01*
X154926600Y-66307881D02*
X154913131Y-66429099D01*
X154913131Y-66429099D02*
X154960272Y-66543583D01*
X154960272Y-66543583D02*
X155014146Y-66597458D01*
X155014146Y-66597458D02*
X155128630Y-66644598D01*
X155128630Y-66644598D02*
X155189240Y-66637864D01*
X155189240Y-66637864D02*
X155424942Y-66402162D01*
X155424942Y-66402162D02*
X155317192Y-66294412D01*
X155364333Y-66947644D02*
X156071439Y-66240537D01*
X156071439Y-66240537D02*
X156286939Y-66456036D01*
X156286939Y-66456036D02*
X156307142Y-66543583D01*
X156307142Y-66543583D02*
X156300407Y-66604192D01*
X156300407Y-66604192D02*
X156260001Y-66698473D01*
X156260001Y-66698473D02*
X156158986Y-66799488D01*
X156158986Y-66799488D02*
X156064705Y-66839894D01*
X156064705Y-66839894D02*
X156004096Y-66846629D01*
X156004096Y-66846629D02*
X155916549Y-66826426D01*
X155916549Y-66826426D02*
X155701050Y-66610926D01*
X156226330Y-67809641D02*
X155903081Y-67486392D01*
X156064705Y-67648016D02*
X156771812Y-66940910D01*
X156771812Y-66940910D02*
X156616922Y-66988050D01*
X156616922Y-66988050D02*
X156495704Y-67001519D01*
X156495704Y-67001519D02*
X156408157Y-66981316D01*
X157418310Y-67587407D02*
X157310560Y-67479658D01*
X157310560Y-67479658D02*
X157223014Y-67459455D01*
X157223014Y-67459455D02*
X157162404Y-67466189D01*
X157162404Y-67466189D02*
X157007514Y-67513330D01*
X157007514Y-67513330D02*
X156845890Y-67621079D01*
X156845890Y-67621079D02*
X156576516Y-67890453D01*
X156576516Y-67890453D02*
X156536110Y-67984734D01*
X156536110Y-67984734D02*
X156529375Y-68045343D01*
X156529375Y-68045343D02*
X156549579Y-68132890D01*
X156549579Y-68132890D02*
X156657328Y-68240639D01*
X156657328Y-68240639D02*
X156744875Y-68260842D01*
X156744875Y-68260842D02*
X156805484Y-68254108D01*
X156805484Y-68254108D02*
X156899765Y-68213702D01*
X156899765Y-68213702D02*
X157068123Y-68045343D01*
X157068123Y-68045343D02*
X157108530Y-67951062D01*
X157108530Y-67951062D02*
X157115264Y-67890453D01*
X157115264Y-67890453D02*
X157095061Y-67802907D01*
X157095061Y-67802907D02*
X156987311Y-67695157D01*
X156987311Y-67695157D02*
X156899765Y-67674954D01*
X156899765Y-67674954D02*
X156839156Y-67681688D01*
X156839156Y-67681688D02*
X156744875Y-67722094D01*
X107777768Y-92128209D02*
X107757565Y-92040663D01*
X107757565Y-92040663D02*
X107676753Y-91959851D01*
X107676753Y-91959851D02*
X107562269Y-91912710D01*
X107562269Y-91912710D02*
X107441051Y-91926179D01*
X107441051Y-91926179D02*
X107346770Y-91966585D01*
X107346770Y-91966585D02*
X107185145Y-92074335D01*
X107185145Y-92074335D02*
X107084130Y-92175350D01*
X107084130Y-92175350D02*
X106976380Y-92336974D01*
X106976380Y-92336974D02*
X106935974Y-92431255D01*
X106935974Y-92431255D02*
X106922506Y-92552473D01*
X106922506Y-92552473D02*
X106969646Y-92666957D01*
X106969646Y-92666957D02*
X107023521Y-92720832D01*
X107023521Y-92720832D02*
X107138005Y-92767973D01*
X107138005Y-92767973D02*
X107198614Y-92761238D01*
X107198614Y-92761238D02*
X107434316Y-92525536D01*
X107434316Y-92525536D02*
X107326567Y-92417786D01*
X107373707Y-93071018D02*
X108080814Y-92363912D01*
X108080814Y-92363912D02*
X108296313Y-92579411D01*
X108296313Y-92579411D02*
X108316516Y-92666957D01*
X108316516Y-92666957D02*
X108309782Y-92727567D01*
X108309782Y-92727567D02*
X108269376Y-92821847D01*
X108269376Y-92821847D02*
X108168360Y-92922863D01*
X108168360Y-92922863D02*
X108074080Y-92963269D01*
X108074080Y-92963269D02*
X108013470Y-92970003D01*
X108013470Y-92970003D02*
X107925924Y-92949800D01*
X107925924Y-92949800D02*
X107710425Y-92734301D01*
X108754249Y-93037347D02*
X108808124Y-93091221D01*
X108808124Y-93091221D02*
X108828327Y-93178768D01*
X108828327Y-93178768D02*
X108821592Y-93239377D01*
X108821592Y-93239377D02*
X108781186Y-93333658D01*
X108781186Y-93333658D02*
X108673437Y-93495282D01*
X108673437Y-93495282D02*
X108505078Y-93663641D01*
X108505078Y-93663641D02*
X108343454Y-93771391D01*
X108343454Y-93771391D02*
X108249173Y-93811797D01*
X108249173Y-93811797D02*
X108188564Y-93818531D01*
X108188564Y-93818531D02*
X108101017Y-93798328D01*
X108101017Y-93798328D02*
X108047142Y-93744453D01*
X108047142Y-93744453D02*
X108026939Y-93656907D01*
X108026939Y-93656907D02*
X108033673Y-93596298D01*
X108033673Y-93596298D02*
X108074080Y-93502017D01*
X108074080Y-93502017D02*
X108181829Y-93340392D01*
X108181829Y-93340392D02*
X108350188Y-93172034D01*
X108350188Y-93172034D02*
X108511812Y-93064284D01*
X108511812Y-93064284D02*
X108606093Y-93023878D01*
X108606093Y-93023878D02*
X108666702Y-93017144D01*
X108666702Y-93017144D02*
X108754249Y-93037347D01*
D11*
X138228992Y-66503111D02*
X138208789Y-66415564D01*
X138208789Y-66415564D02*
X138127977Y-66334752D01*
X138127977Y-66334752D02*
X138013493Y-66287611D01*
X138013493Y-66287611D02*
X137892275Y-66301080D01*
X137892275Y-66301080D02*
X137797994Y-66341486D01*
X137797994Y-66341486D02*
X137636370Y-66449236D01*
X137636370Y-66449236D02*
X137535354Y-66550251D01*
X137535354Y-66550251D02*
X137427605Y-66711875D01*
X137427605Y-66711875D02*
X137387199Y-66806156D01*
X137387199Y-66806156D02*
X137373730Y-66927375D01*
X137373730Y-66927375D02*
X137420870Y-67041859D01*
X137420870Y-67041859D02*
X137474745Y-67095733D01*
X137474745Y-67095733D02*
X137589229Y-67142874D01*
X137589229Y-67142874D02*
X137649838Y-67136140D01*
X137649838Y-67136140D02*
X137885541Y-66900437D01*
X137885541Y-66900437D02*
X137777791Y-66792688D01*
X137824931Y-67445920D02*
X138532038Y-66738813D01*
X138532038Y-66738813D02*
X138148180Y-67769168D01*
X138148180Y-67769168D02*
X138855287Y-67062062D01*
X138417554Y-68038542D02*
X139124661Y-67331436D01*
X139124661Y-67331436D02*
X139259348Y-67466123D01*
X139259348Y-67466123D02*
X139306488Y-67580606D01*
X139306488Y-67580606D02*
X139293020Y-67701825D01*
X139293020Y-67701825D02*
X139252614Y-67796106D01*
X139252614Y-67796106D02*
X139144864Y-67957730D01*
X139144864Y-67957730D02*
X139043849Y-68058745D01*
X139043849Y-68058745D02*
X138882224Y-68166495D01*
X138882224Y-68166495D02*
X138787943Y-68206901D01*
X138787943Y-68206901D02*
X138666725Y-68220370D01*
X138666725Y-68220370D02*
X138552241Y-68173229D01*
X138552241Y-68173229D02*
X138417554Y-68038542D01*
D10*
X143390894Y-92258835D02*
X143370691Y-92171288D01*
X143370691Y-92171288D02*
X143289878Y-92090476D01*
X143289878Y-92090476D02*
X143175394Y-92043336D01*
X143175394Y-92043336D02*
X143054176Y-92056804D01*
X143054176Y-92056804D02*
X142959895Y-92097210D01*
X142959895Y-92097210D02*
X142798271Y-92204960D01*
X142798271Y-92204960D02*
X142697256Y-92305975D01*
X142697256Y-92305975D02*
X142589506Y-92467600D01*
X142589506Y-92467600D02*
X142549100Y-92561881D01*
X142549100Y-92561881D02*
X142535631Y-92683099D01*
X142535631Y-92683099D02*
X142582772Y-92797583D01*
X142582772Y-92797583D02*
X142636646Y-92851458D01*
X142636646Y-92851458D02*
X142751130Y-92898598D01*
X142751130Y-92898598D02*
X142811740Y-92891864D01*
X142811740Y-92891864D02*
X143047442Y-92656162D01*
X143047442Y-92656162D02*
X142939692Y-92548412D01*
X142986833Y-93201644D02*
X143693939Y-92494537D01*
X143693939Y-92494537D02*
X143909439Y-92710036D01*
X143909439Y-92710036D02*
X143929642Y-92797583D01*
X143929642Y-92797583D02*
X143922907Y-92858192D01*
X143922907Y-92858192D02*
X143882501Y-92952473D01*
X143882501Y-92952473D02*
X143781486Y-93053488D01*
X143781486Y-93053488D02*
X143687205Y-93093894D01*
X143687205Y-93093894D02*
X143626596Y-93100629D01*
X143626596Y-93100629D02*
X143539049Y-93080426D01*
X143539049Y-93080426D02*
X143323550Y-92864926D01*
X143848830Y-94063641D02*
X143525581Y-93740392D01*
X143687205Y-93902016D02*
X144394312Y-93194910D01*
X144394312Y-93194910D02*
X144239422Y-93242050D01*
X144239422Y-93242050D02*
X144118204Y-93255519D01*
X144118204Y-93255519D02*
X144030657Y-93235316D01*
X144387578Y-94602389D02*
X144064329Y-94279140D01*
X144225953Y-94440765D02*
X144933060Y-93733658D01*
X144933060Y-93733658D02*
X144778170Y-93780798D01*
X144778170Y-93780798D02*
X144656952Y-93794267D01*
X144656952Y-93794267D02*
X144569405Y-93774064D01*
X117745128Y-66098226D02*
X118095314Y-66448412D01*
X118095314Y-66448412D02*
X117637379Y-66529224D01*
X117637379Y-66529224D02*
X117718191Y-66610036D01*
X117718191Y-66610036D02*
X117738394Y-66697583D01*
X117738394Y-66697583D02*
X117731659Y-66758192D01*
X117731659Y-66758192D02*
X117691253Y-66852473D01*
X117691253Y-66852473D02*
X117522895Y-67020832D01*
X117522895Y-67020832D02*
X117428614Y-67061238D01*
X117428614Y-67061238D02*
X117368005Y-67067972D01*
X117368005Y-67067972D02*
X117280458Y-67047769D01*
X117280458Y-67047769D02*
X117118834Y-66886145D01*
X117118834Y-66886145D02*
X117098631Y-66798598D01*
X117098631Y-66798598D02*
X117105365Y-66737989D01*
X118256939Y-66610037D02*
X117738394Y-67505705D01*
X117738394Y-67505705D02*
X118634063Y-66987160D01*
X118768749Y-67121847D02*
X119118936Y-67472033D01*
X119118936Y-67472033D02*
X118661000Y-67552845D01*
X118661000Y-67552845D02*
X118741812Y-67633658D01*
X118741812Y-67633658D02*
X118762015Y-67721204D01*
X118762015Y-67721204D02*
X118755281Y-67781813D01*
X118755281Y-67781813D02*
X118714875Y-67876094D01*
X118714875Y-67876094D02*
X118546516Y-68044453D01*
X118546516Y-68044453D02*
X118452235Y-68084859D01*
X118452235Y-68084859D02*
X118391626Y-68091594D01*
X118391626Y-68091594D02*
X118304079Y-68071390D01*
X118304079Y-68071390D02*
X118142455Y-67909766D01*
X118142455Y-67909766D02*
X118122252Y-67822219D01*
X118122252Y-67822219D02*
X118128986Y-67761610D01*
X138230831Y-92101272D02*
X138210628Y-92013726D01*
X138210628Y-92013726D02*
X138129816Y-91932913D01*
X138129816Y-91932913D02*
X138015332Y-91885773D01*
X138015332Y-91885773D02*
X137894113Y-91899242D01*
X137894113Y-91899242D02*
X137799832Y-91939648D01*
X137799832Y-91939648D02*
X137638208Y-92047397D01*
X137638208Y-92047397D02*
X137537193Y-92148413D01*
X137537193Y-92148413D02*
X137429443Y-92310037D01*
X137429443Y-92310037D02*
X137389037Y-92404318D01*
X137389037Y-92404318D02*
X137375568Y-92525536D01*
X137375568Y-92525536D02*
X137422709Y-92640020D01*
X137422709Y-92640020D02*
X137476584Y-92693895D01*
X137476584Y-92693895D02*
X137591068Y-92741035D01*
X137591068Y-92741035D02*
X137651677Y-92734301D01*
X137651677Y-92734301D02*
X137887379Y-92498599D01*
X137887379Y-92498599D02*
X137779629Y-92390849D01*
X137826770Y-93044081D02*
X138533877Y-92336974D01*
X138533877Y-92336974D02*
X138150019Y-93367330D01*
X138150019Y-93367330D02*
X138857125Y-92660223D01*
X138419393Y-93636704D02*
X139126499Y-92929597D01*
X139126499Y-92929597D02*
X139261186Y-93064284D01*
X139261186Y-93064284D02*
X139308327Y-93178768D01*
X139308327Y-93178768D02*
X139294858Y-93299986D01*
X139294858Y-93299986D02*
X139254452Y-93394267D01*
X139254452Y-93394267D02*
X139146702Y-93555892D01*
X139146702Y-93555892D02*
X139045687Y-93656907D01*
X139045687Y-93656907D02*
X138884063Y-93764656D01*
X138884063Y-93764656D02*
X138789782Y-93805063D01*
X138789782Y-93805063D02*
X138668564Y-93818531D01*
X138668564Y-93818531D02*
X138554080Y-93771391D01*
X138554080Y-93771391D02*
X138419393Y-93636704D01*
X110307768Y-92228209D02*
X110287565Y-92140663D01*
X110287565Y-92140663D02*
X110206753Y-92059851D01*
X110206753Y-92059851D02*
X110092269Y-92012710D01*
X110092269Y-92012710D02*
X109971051Y-92026179D01*
X109971051Y-92026179D02*
X109876770Y-92066585D01*
X109876770Y-92066585D02*
X109715145Y-92174335D01*
X109715145Y-92174335D02*
X109614130Y-92275350D01*
X109614130Y-92275350D02*
X109506380Y-92436974D01*
X109506380Y-92436974D02*
X109465974Y-92531255D01*
X109465974Y-92531255D02*
X109452506Y-92652473D01*
X109452506Y-92652473D02*
X109499646Y-92766957D01*
X109499646Y-92766957D02*
X109553521Y-92820832D01*
X109553521Y-92820832D02*
X109668005Y-92867973D01*
X109668005Y-92867973D02*
X109728614Y-92861238D01*
X109728614Y-92861238D02*
X109964316Y-92625536D01*
X109964316Y-92625536D02*
X109856567Y-92517786D01*
X109903707Y-93171018D02*
X110610814Y-92463912D01*
X110610814Y-92463912D02*
X110826313Y-92679411D01*
X110826313Y-92679411D02*
X110846516Y-92766957D01*
X110846516Y-92766957D02*
X110839782Y-92827567D01*
X110839782Y-92827567D02*
X110799376Y-92921847D01*
X110799376Y-92921847D02*
X110698360Y-93022863D01*
X110698360Y-93022863D02*
X110604080Y-93063269D01*
X110604080Y-93063269D02*
X110543470Y-93070003D01*
X110543470Y-93070003D02*
X110455924Y-93049800D01*
X110455924Y-93049800D02*
X110240425Y-92834301D01*
X110765704Y-94033015D02*
X110442455Y-93709766D01*
X110604080Y-93871391D02*
X111311186Y-93164284D01*
X111311186Y-93164284D02*
X111156296Y-93211424D01*
X111156296Y-93211424D02*
X111035078Y-93224893D01*
X111035078Y-93224893D02*
X110947531Y-93204690D01*
X112830831Y-92101272D02*
X112810628Y-92013726D01*
X112810628Y-92013726D02*
X112729816Y-91932913D01*
X112729816Y-91932913D02*
X112615332Y-91885773D01*
X112615332Y-91885773D02*
X112494113Y-91899242D01*
X112494113Y-91899242D02*
X112399832Y-91939648D01*
X112399832Y-91939648D02*
X112238208Y-92047397D01*
X112238208Y-92047397D02*
X112137193Y-92148413D01*
X112137193Y-92148413D02*
X112029443Y-92310037D01*
X112029443Y-92310037D02*
X111989037Y-92404318D01*
X111989037Y-92404318D02*
X111975568Y-92525536D01*
X111975568Y-92525536D02*
X112022709Y-92640020D01*
X112022709Y-92640020D02*
X112076584Y-92693895D01*
X112076584Y-92693895D02*
X112191068Y-92741035D01*
X112191068Y-92741035D02*
X112251677Y-92734301D01*
X112251677Y-92734301D02*
X112487379Y-92498599D01*
X112487379Y-92498599D02*
X112379629Y-92390849D01*
X112426770Y-93044081D02*
X113133877Y-92336974D01*
X113133877Y-92336974D02*
X112750019Y-93367330D01*
X112750019Y-93367330D02*
X113457125Y-92660223D01*
X113019393Y-93636704D02*
X113726499Y-92929597D01*
X113726499Y-92929597D02*
X113861186Y-93064284D01*
X113861186Y-93064284D02*
X113908327Y-93178768D01*
X113908327Y-93178768D02*
X113894858Y-93299986D01*
X113894858Y-93299986D02*
X113854452Y-93394267D01*
X113854452Y-93394267D02*
X113746702Y-93555892D01*
X113746702Y-93555892D02*
X113645687Y-93656907D01*
X113645687Y-93656907D02*
X113484063Y-93764656D01*
X113484063Y-93764656D02*
X113389782Y-93805063D01*
X113389782Y-93805063D02*
X113268564Y-93818531D01*
X113268564Y-93818531D02*
X113154080Y-93771391D01*
X113154080Y-93771391D02*
X113019393Y-93636704D01*
X133177768Y-92128209D02*
X133157565Y-92040663D01*
X133157565Y-92040663D02*
X133076753Y-91959851D01*
X133076753Y-91959851D02*
X132962269Y-91912710D01*
X132962269Y-91912710D02*
X132841051Y-91926179D01*
X132841051Y-91926179D02*
X132746770Y-91966585D01*
X132746770Y-91966585D02*
X132585145Y-92074335D01*
X132585145Y-92074335D02*
X132484130Y-92175350D01*
X132484130Y-92175350D02*
X132376380Y-92336974D01*
X132376380Y-92336974D02*
X132335974Y-92431255D01*
X132335974Y-92431255D02*
X132322506Y-92552473D01*
X132322506Y-92552473D02*
X132369646Y-92666957D01*
X132369646Y-92666957D02*
X132423521Y-92720832D01*
X132423521Y-92720832D02*
X132538005Y-92767973D01*
X132538005Y-92767973D02*
X132598614Y-92761238D01*
X132598614Y-92761238D02*
X132834316Y-92525536D01*
X132834316Y-92525536D02*
X132726567Y-92417786D01*
X132773707Y-93071018D02*
X133480814Y-92363912D01*
X133480814Y-92363912D02*
X133696313Y-92579411D01*
X133696313Y-92579411D02*
X133716516Y-92666957D01*
X133716516Y-92666957D02*
X133709782Y-92727567D01*
X133709782Y-92727567D02*
X133669376Y-92821847D01*
X133669376Y-92821847D02*
X133568360Y-92922863D01*
X133568360Y-92922863D02*
X133474080Y-92963269D01*
X133474080Y-92963269D02*
X133413470Y-92970003D01*
X133413470Y-92970003D02*
X133325924Y-92949800D01*
X133325924Y-92949800D02*
X133110425Y-92734301D01*
X133824266Y-93313455D02*
X133804063Y-93225908D01*
X133804063Y-93225908D02*
X133810797Y-93165299D01*
X133810797Y-93165299D02*
X133851203Y-93071018D01*
X133851203Y-93071018D02*
X133884875Y-93037347D01*
X133884875Y-93037347D02*
X133979156Y-92996941D01*
X133979156Y-92996941D02*
X134039765Y-92990206D01*
X134039765Y-92990206D02*
X134127312Y-93010409D01*
X134127312Y-93010409D02*
X134235061Y-93118159D01*
X134235061Y-93118159D02*
X134255264Y-93205705D01*
X134255264Y-93205705D02*
X134248530Y-93266315D01*
X134248530Y-93266315D02*
X134208124Y-93360595D01*
X134208124Y-93360595D02*
X134174452Y-93394267D01*
X134174452Y-93394267D02*
X134080171Y-93434673D01*
X134080171Y-93434673D02*
X134019562Y-93441408D01*
X134019562Y-93441408D02*
X133932015Y-93421205D01*
X133932015Y-93421205D02*
X133824266Y-93313455D01*
X133824266Y-93313455D02*
X133736719Y-93293252D01*
X133736719Y-93293252D02*
X133676110Y-93299986D01*
X133676110Y-93299986D02*
X133581829Y-93340392D01*
X133581829Y-93340392D02*
X133447142Y-93475079D01*
X133447142Y-93475079D02*
X133406736Y-93569360D01*
X133406736Y-93569360D02*
X133400002Y-93629969D01*
X133400002Y-93629969D02*
X133420205Y-93717516D01*
X133420205Y-93717516D02*
X133527954Y-93825266D01*
X133527954Y-93825266D02*
X133615501Y-93845469D01*
X133615501Y-93845469D02*
X133676110Y-93838734D01*
X133676110Y-93838734D02*
X133770391Y-93798328D01*
X133770391Y-93798328D02*
X133905078Y-93663641D01*
X133905078Y-93663641D02*
X133945484Y-93569360D01*
X133945484Y-93569360D02*
X133952218Y-93508751D01*
X133952218Y-93508751D02*
X133932015Y-93421205D01*
X119633254Y-65661352D02*
X119114709Y-66557021D01*
X119114709Y-66557021D02*
X120010378Y-66038476D01*
X119815081Y-67257393D02*
X119963237Y-66732113D01*
X119491833Y-66934144D02*
X120198939Y-66227037D01*
X120198939Y-66227037D02*
X120414439Y-66442536D01*
X120414439Y-66442536D02*
X120434642Y-66530083D01*
X120434642Y-66530083D02*
X120427907Y-66590692D01*
X120427907Y-66590692D02*
X120387501Y-66684973D01*
X120387501Y-66684973D02*
X120286486Y-66785988D01*
X120286486Y-66785988D02*
X120192205Y-66826394D01*
X120192205Y-66826394D02*
X120131596Y-66833129D01*
X120131596Y-66833129D02*
X120044049Y-66812926D01*
X120044049Y-66812926D02*
X119828550Y-66597426D01*
X120427907Y-67129440D02*
X120616469Y-67318002D01*
X120326892Y-67769203D02*
X120057518Y-67499829D01*
X120057518Y-67499829D02*
X120764625Y-66792723D01*
X120764625Y-66792723D02*
X121033999Y-67062097D01*
X121128280Y-67829813D02*
X120939718Y-67641251D01*
X120569329Y-68011640D02*
X121276436Y-67304534D01*
X121276436Y-67304534D02*
X121545810Y-67573908D01*
X155768394Y-92112835D02*
X155748191Y-92025288D01*
X155748191Y-92025288D02*
X155667378Y-91944476D01*
X155667378Y-91944476D02*
X155552894Y-91897336D01*
X155552894Y-91897336D02*
X155431676Y-91910804D01*
X155431676Y-91910804D02*
X155337395Y-91951210D01*
X155337395Y-91951210D02*
X155175771Y-92058960D01*
X155175771Y-92058960D02*
X155074756Y-92159975D01*
X155074756Y-92159975D02*
X154967006Y-92321600D01*
X154967006Y-92321600D02*
X154926600Y-92415881D01*
X154926600Y-92415881D02*
X154913131Y-92537099D01*
X154913131Y-92537099D02*
X154960272Y-92651583D01*
X154960272Y-92651583D02*
X155014146Y-92705458D01*
X155014146Y-92705458D02*
X155128630Y-92752598D01*
X155128630Y-92752598D02*
X155189240Y-92745864D01*
X155189240Y-92745864D02*
X155424942Y-92510162D01*
X155424942Y-92510162D02*
X155317192Y-92402412D01*
X155364333Y-93055644D02*
X156071439Y-92348537D01*
X156071439Y-92348537D02*
X156286939Y-92564036D01*
X156286939Y-92564036D02*
X156307142Y-92651583D01*
X156307142Y-92651583D02*
X156300407Y-92712192D01*
X156300407Y-92712192D02*
X156260001Y-92806473D01*
X156260001Y-92806473D02*
X156158986Y-92907488D01*
X156158986Y-92907488D02*
X156064705Y-92947894D01*
X156064705Y-92947894D02*
X156004096Y-92954629D01*
X156004096Y-92954629D02*
X155916549Y-92934426D01*
X155916549Y-92934426D02*
X155701050Y-92718926D01*
X156226330Y-93917641D02*
X155903081Y-93594392D01*
X156064705Y-93756016D02*
X156771812Y-93048910D01*
X156771812Y-93048910D02*
X156616922Y-93096050D01*
X156616922Y-93096050D02*
X156495704Y-93109519D01*
X156495704Y-93109519D02*
X156408157Y-93089316D01*
X157445247Y-93722345D02*
X157175873Y-93452971D01*
X157175873Y-93452971D02*
X156812218Y-93762751D01*
X156812218Y-93762751D02*
X156872827Y-93756017D01*
X156872827Y-93756017D02*
X156960374Y-93776220D01*
X156960374Y-93776220D02*
X157095061Y-93910907D01*
X157095061Y-93910907D02*
X157115264Y-93998453D01*
X157115264Y-93998453D02*
X157108530Y-94059062D01*
X157108530Y-94059062D02*
X157068123Y-94153343D01*
X157068123Y-94153343D02*
X156899765Y-94321702D01*
X156899765Y-94321702D02*
X156805484Y-94362108D01*
X156805484Y-94362108D02*
X156744875Y-94368842D01*
X156744875Y-94368842D02*
X156657328Y-94348639D01*
X156657328Y-94348639D02*
X156522641Y-94213952D01*
X156522641Y-94213952D02*
X156502438Y-94126406D01*
X156502438Y-94126406D02*
X156509172Y-94065797D01*
X148470894Y-92112835D02*
X148450691Y-92025288D01*
X148450691Y-92025288D02*
X148369878Y-91944476D01*
X148369878Y-91944476D02*
X148255394Y-91897336D01*
X148255394Y-91897336D02*
X148134176Y-91910804D01*
X148134176Y-91910804D02*
X148039895Y-91951210D01*
X148039895Y-91951210D02*
X147878271Y-92058960D01*
X147878271Y-92058960D02*
X147777256Y-92159975D01*
X147777256Y-92159975D02*
X147669506Y-92321600D01*
X147669506Y-92321600D02*
X147629100Y-92415881D01*
X147629100Y-92415881D02*
X147615631Y-92537099D01*
X147615631Y-92537099D02*
X147662772Y-92651583D01*
X147662772Y-92651583D02*
X147716646Y-92705458D01*
X147716646Y-92705458D02*
X147831130Y-92752598D01*
X147831130Y-92752598D02*
X147891740Y-92745864D01*
X147891740Y-92745864D02*
X148127442Y-92510162D01*
X148127442Y-92510162D02*
X148019692Y-92402412D01*
X148066833Y-93055644D02*
X148773939Y-92348537D01*
X148773939Y-92348537D02*
X148989439Y-92564036D01*
X148989439Y-92564036D02*
X149009642Y-92651583D01*
X149009642Y-92651583D02*
X149002907Y-92712192D01*
X149002907Y-92712192D02*
X148962501Y-92806473D01*
X148962501Y-92806473D02*
X148861486Y-92907488D01*
X148861486Y-92907488D02*
X148767205Y-92947894D01*
X148767205Y-92947894D02*
X148706596Y-92954629D01*
X148706596Y-92954629D02*
X148619049Y-92934426D01*
X148619049Y-92934426D02*
X148403550Y-92718926D01*
X148928830Y-93917641D02*
X148605581Y-93594392D01*
X148767205Y-93756016D02*
X149474312Y-93048910D01*
X149474312Y-93048910D02*
X149319422Y-93096050D01*
X149319422Y-93096050D02*
X149198204Y-93109519D01*
X149198204Y-93109519D02*
X149110657Y-93089316D01*
X149824498Y-93399096D02*
X150174684Y-93749282D01*
X150174684Y-93749282D02*
X149716749Y-93830094D01*
X149716749Y-93830094D02*
X149797561Y-93910907D01*
X149797561Y-93910907D02*
X149817764Y-93998453D01*
X149817764Y-93998453D02*
X149811030Y-94059062D01*
X149811030Y-94059062D02*
X149770623Y-94153343D01*
X149770623Y-94153343D02*
X149602265Y-94321702D01*
X149602265Y-94321702D02*
X149507984Y-94362108D01*
X149507984Y-94362108D02*
X149447375Y-94368842D01*
X149447375Y-94368842D02*
X149359828Y-94348639D01*
X149359828Y-94348639D02*
X149198204Y-94187015D01*
X149198204Y-94187015D02*
X149178001Y-94099468D01*
X149178001Y-94099468D02*
X149184735Y-94038859D01*
X124493741Y-66152991D02*
X124763115Y-66422365D01*
X124237836Y-66301147D02*
X125133504Y-65782602D01*
X125133504Y-65782602D02*
X124614959Y-66678271D01*
X125773267Y-66489709D02*
X125753064Y-66402162D01*
X125753064Y-66402162D02*
X125672252Y-66321350D01*
X125672252Y-66321350D02*
X125557768Y-66274209D01*
X125557768Y-66274209D02*
X125436550Y-66287678D01*
X125436550Y-66287678D02*
X125342269Y-66328084D01*
X125342269Y-66328084D02*
X125180645Y-66435834D01*
X125180645Y-66435834D02*
X125079629Y-66536849D01*
X125079629Y-66536849D02*
X124971880Y-66698473D01*
X124971880Y-66698473D02*
X124931474Y-66792754D01*
X124931474Y-66792754D02*
X124918005Y-66913973D01*
X124918005Y-66913973D02*
X124965145Y-67028457D01*
X124965145Y-67028457D02*
X125019020Y-67082331D01*
X125019020Y-67082331D02*
X125133504Y-67129472D01*
X125133504Y-67129472D02*
X125194113Y-67122738D01*
X125194113Y-67122738D02*
X125429816Y-66887035D01*
X125429816Y-66887035D02*
X125322066Y-66779286D01*
X125369206Y-67432518D02*
X126076313Y-66725411D01*
X126076313Y-66725411D02*
X125692455Y-67755766D01*
X125692455Y-67755766D02*
X126399562Y-67048660D01*
X125961829Y-68025140D02*
X126668936Y-67318034D01*
X126668936Y-67318034D02*
X126803623Y-67452721D01*
X126803623Y-67452721D02*
X126850763Y-67567205D01*
X126850763Y-67567205D02*
X126837295Y-67688423D01*
X126837295Y-67688423D02*
X126796889Y-67782704D01*
X126796889Y-67782704D02*
X126689139Y-67944328D01*
X126689139Y-67944328D02*
X126588124Y-68045343D01*
X126588124Y-68045343D02*
X126426499Y-68153093D01*
X126426499Y-68153093D02*
X126332218Y-68193499D01*
X126332218Y-68193499D02*
X126211000Y-68206968D01*
X126211000Y-68206968D02*
X126096516Y-68159827D01*
X126096516Y-68159827D02*
X125961829Y-68025140D01*
X127838394Y-66004835D02*
X127818191Y-65917288D01*
X127818191Y-65917288D02*
X127737378Y-65836476D01*
X127737378Y-65836476D02*
X127622894Y-65789336D01*
X127622894Y-65789336D02*
X127501676Y-65802804D01*
X127501676Y-65802804D02*
X127407395Y-65843210D01*
X127407395Y-65843210D02*
X127245771Y-65950960D01*
X127245771Y-65950960D02*
X127144756Y-66051975D01*
X127144756Y-66051975D02*
X127037006Y-66213600D01*
X127037006Y-66213600D02*
X126996600Y-66307881D01*
X126996600Y-66307881D02*
X126983131Y-66429099D01*
X126983131Y-66429099D02*
X127030272Y-66543583D01*
X127030272Y-66543583D02*
X127084146Y-66597458D01*
X127084146Y-66597458D02*
X127198630Y-66644598D01*
X127198630Y-66644598D02*
X127259240Y-66637864D01*
X127259240Y-66637864D02*
X127494942Y-66402162D01*
X127494942Y-66402162D02*
X127387192Y-66294412D01*
X127434333Y-66947644D02*
X128141439Y-66240537D01*
X128141439Y-66240537D02*
X128356939Y-66456036D01*
X128356939Y-66456036D02*
X128377142Y-66543583D01*
X128377142Y-66543583D02*
X128370407Y-66604192D01*
X128370407Y-66604192D02*
X128330001Y-66698473D01*
X128330001Y-66698473D02*
X128228986Y-66799488D01*
X128228986Y-66799488D02*
X128134705Y-66839894D01*
X128134705Y-66839894D02*
X128074096Y-66846629D01*
X128074096Y-66846629D02*
X127986549Y-66826426D01*
X127986549Y-66826426D02*
X127771050Y-66610926D01*
X128612844Y-66846629D02*
X128673453Y-66839894D01*
X128673453Y-66839894D02*
X128761000Y-66860097D01*
X128761000Y-66860097D02*
X128895687Y-66994784D01*
X128895687Y-66994784D02*
X128915890Y-67082331D01*
X128915890Y-67082331D02*
X128909155Y-67142940D01*
X128909155Y-67142940D02*
X128868749Y-67237221D01*
X128868749Y-67237221D02*
X128801406Y-67304565D01*
X128801406Y-67304565D02*
X128673453Y-67378642D01*
X128673453Y-67378642D02*
X127946143Y-67459455D01*
X127946143Y-67459455D02*
X128296330Y-67809641D01*
X129191998Y-67291096D02*
X129569122Y-67668220D01*
X129569122Y-67668220D02*
X128619579Y-68132890D01*
X112830831Y-66501272D02*
X112810628Y-66413726D01*
X112810628Y-66413726D02*
X112729816Y-66332913D01*
X112729816Y-66332913D02*
X112615332Y-66285773D01*
X112615332Y-66285773D02*
X112494113Y-66299242D01*
X112494113Y-66299242D02*
X112399832Y-66339648D01*
X112399832Y-66339648D02*
X112238208Y-66447397D01*
X112238208Y-66447397D02*
X112137193Y-66548413D01*
X112137193Y-66548413D02*
X112029443Y-66710037D01*
X112029443Y-66710037D02*
X111989037Y-66804318D01*
X111989037Y-66804318D02*
X111975568Y-66925536D01*
X111975568Y-66925536D02*
X112022709Y-67040020D01*
X112022709Y-67040020D02*
X112076584Y-67093895D01*
X112076584Y-67093895D02*
X112191068Y-67141035D01*
X112191068Y-67141035D02*
X112251677Y-67134301D01*
X112251677Y-67134301D02*
X112487379Y-66898599D01*
X112487379Y-66898599D02*
X112379629Y-66790849D01*
X112426770Y-67444081D02*
X113133877Y-66736974D01*
X113133877Y-66736974D02*
X112750019Y-67767330D01*
X112750019Y-67767330D02*
X113457125Y-67060223D01*
X113019393Y-68036704D02*
X113726499Y-67329597D01*
X113726499Y-67329597D02*
X113861186Y-67464284D01*
X113861186Y-67464284D02*
X113908327Y-67578768D01*
X113908327Y-67578768D02*
X113894858Y-67699986D01*
X113894858Y-67699986D02*
X113854452Y-67794267D01*
X113854452Y-67794267D02*
X113746702Y-67955892D01*
X113746702Y-67955892D02*
X113645687Y-68056907D01*
X113645687Y-68056907D02*
X113484063Y-68164656D01*
X113484063Y-68164656D02*
X113389782Y-68205063D01*
X113389782Y-68205063D02*
X113268564Y-68218531D01*
X113268564Y-68218531D02*
X113154080Y-68171391D01*
X113154080Y-68171391D02*
X113019393Y-68036704D01*
X125530831Y-92101272D02*
X125510628Y-92013726D01*
X125510628Y-92013726D02*
X125429816Y-91932913D01*
X125429816Y-91932913D02*
X125315332Y-91885773D01*
X125315332Y-91885773D02*
X125194113Y-91899242D01*
X125194113Y-91899242D02*
X125099832Y-91939648D01*
X125099832Y-91939648D02*
X124938208Y-92047397D01*
X124938208Y-92047397D02*
X124837193Y-92148413D01*
X124837193Y-92148413D02*
X124729443Y-92310037D01*
X124729443Y-92310037D02*
X124689037Y-92404318D01*
X124689037Y-92404318D02*
X124675568Y-92525536D01*
X124675568Y-92525536D02*
X124722709Y-92640020D01*
X124722709Y-92640020D02*
X124776584Y-92693895D01*
X124776584Y-92693895D02*
X124891068Y-92741035D01*
X124891068Y-92741035D02*
X124951677Y-92734301D01*
X124951677Y-92734301D02*
X125187379Y-92498599D01*
X125187379Y-92498599D02*
X125079629Y-92390849D01*
X125126770Y-93044081D02*
X125833877Y-92336974D01*
X125833877Y-92336974D02*
X125450019Y-93367330D01*
X125450019Y-93367330D02*
X126157125Y-92660223D01*
X125719393Y-93636704D02*
X126426499Y-92929597D01*
X126426499Y-92929597D02*
X126561186Y-93064284D01*
X126561186Y-93064284D02*
X126608327Y-93178768D01*
X126608327Y-93178768D02*
X126594858Y-93299986D01*
X126594858Y-93299986D02*
X126554452Y-93394267D01*
X126554452Y-93394267D02*
X126446702Y-93555892D01*
X126446702Y-93555892D02*
X126345687Y-93656907D01*
X126345687Y-93656907D02*
X126184063Y-93764656D01*
X126184063Y-93764656D02*
X126089782Y-93805063D01*
X126089782Y-93805063D02*
X125968564Y-93818531D01*
X125968564Y-93818531D02*
X125854080Y-93771391D01*
X125854080Y-93771391D02*
X125719393Y-93636704D01*
X140528394Y-92112835D02*
X140508191Y-92025288D01*
X140508191Y-92025288D02*
X140427378Y-91944476D01*
X140427378Y-91944476D02*
X140312894Y-91897336D01*
X140312894Y-91897336D02*
X140191676Y-91910804D01*
X140191676Y-91910804D02*
X140097395Y-91951210D01*
X140097395Y-91951210D02*
X139935771Y-92058960D01*
X139935771Y-92058960D02*
X139834756Y-92159975D01*
X139834756Y-92159975D02*
X139727006Y-92321600D01*
X139727006Y-92321600D02*
X139686600Y-92415881D01*
X139686600Y-92415881D02*
X139673131Y-92537099D01*
X139673131Y-92537099D02*
X139720272Y-92651583D01*
X139720272Y-92651583D02*
X139774146Y-92705458D01*
X139774146Y-92705458D02*
X139888630Y-92752598D01*
X139888630Y-92752598D02*
X139949240Y-92745864D01*
X139949240Y-92745864D02*
X140184942Y-92510162D01*
X140184942Y-92510162D02*
X140077192Y-92402412D01*
X140124333Y-93055644D02*
X140831439Y-92348537D01*
X140831439Y-92348537D02*
X141046939Y-92564036D01*
X141046939Y-92564036D02*
X141067142Y-92651583D01*
X141067142Y-92651583D02*
X141060407Y-92712192D01*
X141060407Y-92712192D02*
X141020001Y-92806473D01*
X141020001Y-92806473D02*
X140918986Y-92907488D01*
X140918986Y-92907488D02*
X140824705Y-92947894D01*
X140824705Y-92947894D02*
X140764096Y-92954629D01*
X140764096Y-92954629D02*
X140676549Y-92934426D01*
X140676549Y-92934426D02*
X140461050Y-92718926D01*
X140986330Y-93917641D02*
X140663081Y-93594392D01*
X140824705Y-93756016D02*
X141531812Y-93048910D01*
X141531812Y-93048910D02*
X141376922Y-93096050D01*
X141376922Y-93096050D02*
X141255704Y-93109519D01*
X141255704Y-93109519D02*
X141168157Y-93089316D01*
X142043623Y-93560720D02*
X142097497Y-93614595D01*
X142097497Y-93614595D02*
X142117701Y-93702142D01*
X142117701Y-93702142D02*
X142110966Y-93762751D01*
X142110966Y-93762751D02*
X142070560Y-93857032D01*
X142070560Y-93857032D02*
X141962810Y-94018656D01*
X141962810Y-94018656D02*
X141794452Y-94187015D01*
X141794452Y-94187015D02*
X141632827Y-94294765D01*
X141632827Y-94294765D02*
X141538546Y-94335171D01*
X141538546Y-94335171D02*
X141477937Y-94341905D01*
X141477937Y-94341905D02*
X141390391Y-94321702D01*
X141390391Y-94321702D02*
X141336516Y-94267827D01*
X141336516Y-94267827D02*
X141316313Y-94180281D01*
X141316313Y-94180281D02*
X141323047Y-94119671D01*
X141323047Y-94119671D02*
X141363453Y-94025391D01*
X141363453Y-94025391D02*
X141471203Y-93863766D01*
X141471203Y-93863766D02*
X141639562Y-93695407D01*
X141639562Y-93695407D02*
X141801186Y-93587658D01*
X141801186Y-93587658D02*
X141895467Y-93547252D01*
X141895467Y-93547252D02*
X141956076Y-93540517D01*
X141956076Y-93540517D02*
X142043623Y-93560720D01*
X123017768Y-92128209D02*
X122997565Y-92040663D01*
X122997565Y-92040663D02*
X122916753Y-91959851D01*
X122916753Y-91959851D02*
X122802269Y-91912710D01*
X122802269Y-91912710D02*
X122681051Y-91926179D01*
X122681051Y-91926179D02*
X122586770Y-91966585D01*
X122586770Y-91966585D02*
X122425145Y-92074335D01*
X122425145Y-92074335D02*
X122324130Y-92175350D01*
X122324130Y-92175350D02*
X122216380Y-92336974D01*
X122216380Y-92336974D02*
X122175974Y-92431255D01*
X122175974Y-92431255D02*
X122162506Y-92552473D01*
X122162506Y-92552473D02*
X122209646Y-92666957D01*
X122209646Y-92666957D02*
X122263521Y-92720832D01*
X122263521Y-92720832D02*
X122378005Y-92767973D01*
X122378005Y-92767973D02*
X122438614Y-92761238D01*
X122438614Y-92761238D02*
X122674316Y-92525536D01*
X122674316Y-92525536D02*
X122566567Y-92417786D01*
X122613707Y-93071018D02*
X123320814Y-92363912D01*
X123320814Y-92363912D02*
X123536313Y-92579411D01*
X123536313Y-92579411D02*
X123556516Y-92666957D01*
X123556516Y-92666957D02*
X123549782Y-92727567D01*
X123549782Y-92727567D02*
X123509376Y-92821847D01*
X123509376Y-92821847D02*
X123408360Y-92922863D01*
X123408360Y-92922863D02*
X123314080Y-92963269D01*
X123314080Y-92963269D02*
X123253470Y-92970003D01*
X123253470Y-92970003D02*
X123165924Y-92949800D01*
X123165924Y-92949800D02*
X122950425Y-92734301D01*
X124155873Y-93198971D02*
X123886499Y-92929597D01*
X123886499Y-92929597D02*
X123522844Y-93239377D01*
X123522844Y-93239377D02*
X123583454Y-93232643D01*
X123583454Y-93232643D02*
X123671000Y-93252846D01*
X123671000Y-93252846D02*
X123805687Y-93387533D01*
X123805687Y-93387533D02*
X123825890Y-93475079D01*
X123825890Y-93475079D02*
X123819156Y-93535689D01*
X123819156Y-93535689D02*
X123778750Y-93629969D01*
X123778750Y-93629969D02*
X123610391Y-93798328D01*
X123610391Y-93798328D02*
X123516110Y-93838734D01*
X123516110Y-93838734D02*
X123455501Y-93845469D01*
X123455501Y-93845469D02*
X123367954Y-93825266D01*
X123367954Y-93825266D02*
X123233267Y-93690579D01*
X123233267Y-93690579D02*
X123213064Y-93603032D01*
X123213064Y-93603032D02*
X123219799Y-93542423D01*
X139867200Y-82893624D02*
X139914819Y-82779338D01*
X139914819Y-82779338D02*
X139914819Y-82588862D01*
X139914819Y-82588862D02*
X139867200Y-82512671D01*
X139867200Y-82512671D02*
X139819580Y-82474576D01*
X139819580Y-82474576D02*
X139724342Y-82436481D01*
X139724342Y-82436481D02*
X139629104Y-82436481D01*
X139629104Y-82436481D02*
X139533866Y-82474576D01*
X139533866Y-82474576D02*
X139486247Y-82512671D01*
X139486247Y-82512671D02*
X139438628Y-82588862D01*
X139438628Y-82588862D02*
X139391009Y-82741243D01*
X139391009Y-82741243D02*
X139343390Y-82817433D01*
X139343390Y-82817433D02*
X139295771Y-82855528D01*
X139295771Y-82855528D02*
X139200533Y-82893624D01*
X139200533Y-82893624D02*
X139105295Y-82893624D01*
X139105295Y-82893624D02*
X139010057Y-82855528D01*
X139010057Y-82855528D02*
X138962438Y-82817433D01*
X138962438Y-82817433D02*
X138914819Y-82741243D01*
X138914819Y-82741243D02*
X138914819Y-82550766D01*
X138914819Y-82550766D02*
X138962438Y-82436481D01*
X138914819Y-82169814D02*
X139914819Y-81979338D01*
X139914819Y-81979338D02*
X139200533Y-81826957D01*
X139200533Y-81826957D02*
X139914819Y-81674576D01*
X139914819Y-81674576D02*
X138914819Y-81484100D01*
X139819580Y-80722194D02*
X139867200Y-80760290D01*
X139867200Y-80760290D02*
X139914819Y-80874575D01*
X139914819Y-80874575D02*
X139914819Y-80950766D01*
X139914819Y-80950766D02*
X139867200Y-81065052D01*
X139867200Y-81065052D02*
X139771961Y-81141242D01*
X139771961Y-81141242D02*
X139676723Y-81179337D01*
X139676723Y-81179337D02*
X139486247Y-81217433D01*
X139486247Y-81217433D02*
X139343390Y-81217433D01*
X139343390Y-81217433D02*
X139152914Y-81179337D01*
X139152914Y-81179337D02*
X139057676Y-81141242D01*
X139057676Y-81141242D02*
X138962438Y-81065052D01*
X138962438Y-81065052D02*
X138914819Y-80950766D01*
X138914819Y-80950766D02*
X138914819Y-80874575D01*
X138914819Y-80874575D02*
X138962438Y-80760290D01*
X138962438Y-80760290D02*
X139010057Y-80722194D01*
X139914819Y-79998385D02*
X139914819Y-80379337D01*
X139914819Y-80379337D02*
X138914819Y-80379337D01*
X139914819Y-79731718D02*
X138914819Y-79731718D01*
X139914819Y-79274575D02*
X139343390Y-79617433D01*
X138914819Y-79274575D02*
X139486247Y-79731718D01*
X135717768Y-92128209D02*
X135697565Y-92040663D01*
X135697565Y-92040663D02*
X135616753Y-91959851D01*
X135616753Y-91959851D02*
X135502269Y-91912710D01*
X135502269Y-91912710D02*
X135381051Y-91926179D01*
X135381051Y-91926179D02*
X135286770Y-91966585D01*
X135286770Y-91966585D02*
X135125145Y-92074335D01*
X135125145Y-92074335D02*
X135024130Y-92175350D01*
X135024130Y-92175350D02*
X134916380Y-92336974D01*
X134916380Y-92336974D02*
X134875974Y-92431255D01*
X134875974Y-92431255D02*
X134862506Y-92552473D01*
X134862506Y-92552473D02*
X134909646Y-92666957D01*
X134909646Y-92666957D02*
X134963521Y-92720832D01*
X134963521Y-92720832D02*
X135078005Y-92767973D01*
X135078005Y-92767973D02*
X135138614Y-92761238D01*
X135138614Y-92761238D02*
X135374316Y-92525536D01*
X135374316Y-92525536D02*
X135266567Y-92417786D01*
X135313707Y-93071018D02*
X136020814Y-92363912D01*
X136020814Y-92363912D02*
X136236313Y-92579411D01*
X136236313Y-92579411D02*
X136256516Y-92666957D01*
X136256516Y-92666957D02*
X136249782Y-92727567D01*
X136249782Y-92727567D02*
X136209376Y-92821847D01*
X136209376Y-92821847D02*
X136108360Y-92922863D01*
X136108360Y-92922863D02*
X136014080Y-92963269D01*
X136014080Y-92963269D02*
X135953470Y-92970003D01*
X135953470Y-92970003D02*
X135865924Y-92949800D01*
X135865924Y-92949800D02*
X135650425Y-92734301D01*
X135906330Y-93663641D02*
X136014080Y-93771391D01*
X136014080Y-93771391D02*
X136101626Y-93791594D01*
X136101626Y-93791594D02*
X136162235Y-93784860D01*
X136162235Y-93784860D02*
X136317125Y-93737719D01*
X136317125Y-93737719D02*
X136478750Y-93629969D01*
X136478750Y-93629969D02*
X136748124Y-93360595D01*
X136748124Y-93360595D02*
X136788530Y-93266315D01*
X136788530Y-93266315D02*
X136795264Y-93205705D01*
X136795264Y-93205705D02*
X136775061Y-93118159D01*
X136775061Y-93118159D02*
X136667312Y-93010409D01*
X136667312Y-93010409D02*
X136579765Y-92990206D01*
X136579765Y-92990206D02*
X136519156Y-92996941D01*
X136519156Y-92996941D02*
X136424875Y-93037347D01*
X136424875Y-93037347D02*
X136256516Y-93205705D01*
X136256516Y-93205705D02*
X136216110Y-93299986D01*
X136216110Y-93299986D02*
X136209376Y-93360595D01*
X136209376Y-93360595D02*
X136229579Y-93448142D01*
X136229579Y-93448142D02*
X136337328Y-93555892D01*
X136337328Y-93555892D02*
X136424875Y-93576095D01*
X136424875Y-93576095D02*
X136485484Y-93569360D01*
X136485484Y-93569360D02*
X136579765Y-93528954D01*
X140538394Y-66004835D02*
X140518191Y-65917288D01*
X140518191Y-65917288D02*
X140437378Y-65836476D01*
X140437378Y-65836476D02*
X140322894Y-65789336D01*
X140322894Y-65789336D02*
X140201676Y-65802804D01*
X140201676Y-65802804D02*
X140107395Y-65843210D01*
X140107395Y-65843210D02*
X139945771Y-65950960D01*
X139945771Y-65950960D02*
X139844756Y-66051975D01*
X139844756Y-66051975D02*
X139737006Y-66213600D01*
X139737006Y-66213600D02*
X139696600Y-66307881D01*
X139696600Y-66307881D02*
X139683131Y-66429099D01*
X139683131Y-66429099D02*
X139730272Y-66543583D01*
X139730272Y-66543583D02*
X139784146Y-66597458D01*
X139784146Y-66597458D02*
X139898630Y-66644598D01*
X139898630Y-66644598D02*
X139959240Y-66637864D01*
X139959240Y-66637864D02*
X140194942Y-66402162D01*
X140194942Y-66402162D02*
X140087192Y-66294412D01*
X140134333Y-66947644D02*
X140841439Y-66240537D01*
X140841439Y-66240537D02*
X141056939Y-66456036D01*
X141056939Y-66456036D02*
X141077142Y-66543583D01*
X141077142Y-66543583D02*
X141070407Y-66604192D01*
X141070407Y-66604192D02*
X141030001Y-66698473D01*
X141030001Y-66698473D02*
X140928986Y-66799488D01*
X140928986Y-66799488D02*
X140834705Y-66839894D01*
X140834705Y-66839894D02*
X140774096Y-66846629D01*
X140774096Y-66846629D02*
X140686549Y-66826426D01*
X140686549Y-66826426D02*
X140471050Y-66610926D01*
X141312844Y-66846629D02*
X141373453Y-66839894D01*
X141373453Y-66839894D02*
X141461000Y-66860097D01*
X141461000Y-66860097D02*
X141595687Y-66994784D01*
X141595687Y-66994784D02*
X141615890Y-67082331D01*
X141615890Y-67082331D02*
X141609155Y-67142940D01*
X141609155Y-67142940D02*
X141568749Y-67237221D01*
X141568749Y-67237221D02*
X141501406Y-67304565D01*
X141501406Y-67304565D02*
X141373453Y-67378642D01*
X141373453Y-67378642D02*
X140646143Y-67459455D01*
X140646143Y-67459455D02*
X140996330Y-67809641D01*
X141535078Y-68348389D02*
X141211829Y-68025140D01*
X141373453Y-68186765D02*
X142080560Y-67479658D01*
X142080560Y-67479658D02*
X141925670Y-67526798D01*
X141925670Y-67526798D02*
X141804452Y-67540267D01*
X141804452Y-67540267D02*
X141716905Y-67520064D01*
X140367200Y-76279338D02*
X140414819Y-76165052D01*
X140414819Y-76165052D02*
X140414819Y-75974576D01*
X140414819Y-75974576D02*
X140367200Y-75898385D01*
X140367200Y-75898385D02*
X140319580Y-75860290D01*
X140319580Y-75860290D02*
X140224342Y-75822195D01*
X140224342Y-75822195D02*
X140129104Y-75822195D01*
X140129104Y-75822195D02*
X140033866Y-75860290D01*
X140033866Y-75860290D02*
X139986247Y-75898385D01*
X139986247Y-75898385D02*
X139938628Y-75974576D01*
X139938628Y-75974576D02*
X139891009Y-76126957D01*
X139891009Y-76126957D02*
X139843390Y-76203147D01*
X139843390Y-76203147D02*
X139795771Y-76241242D01*
X139795771Y-76241242D02*
X139700533Y-76279338D01*
X139700533Y-76279338D02*
X139605295Y-76279338D01*
X139605295Y-76279338D02*
X139510057Y-76241242D01*
X139510057Y-76241242D02*
X139462438Y-76203147D01*
X139462438Y-76203147D02*
X139414819Y-76126957D01*
X139414819Y-76126957D02*
X139414819Y-75936480D01*
X139414819Y-75936480D02*
X139462438Y-75822195D01*
X139414819Y-75555528D02*
X140414819Y-75365052D01*
X140414819Y-75365052D02*
X139700533Y-75212671D01*
X139700533Y-75212671D02*
X140414819Y-75060290D01*
X140414819Y-75060290D02*
X139414819Y-74869814D01*
X140414819Y-74565051D02*
X139414819Y-74565051D01*
X139414819Y-74565051D02*
X139414819Y-74374575D01*
X139414819Y-74374575D02*
X139462438Y-74260289D01*
X139462438Y-74260289D02*
X139557676Y-74184099D01*
X139557676Y-74184099D02*
X139652914Y-74146004D01*
X139652914Y-74146004D02*
X139843390Y-74107908D01*
X139843390Y-74107908D02*
X139986247Y-74107908D01*
X139986247Y-74107908D02*
X140176723Y-74146004D01*
X140176723Y-74146004D02*
X140271961Y-74184099D01*
X140271961Y-74184099D02*
X140367200Y-74260289D01*
X140367200Y-74260289D02*
X140414819Y-74374575D01*
X140414819Y-74374575D02*
X140414819Y-74565051D01*
X140414819Y-73765051D02*
X139414819Y-73765051D01*
X139414819Y-73231718D02*
X139414819Y-73079337D01*
X139414819Y-73079337D02*
X139462438Y-73003147D01*
X139462438Y-73003147D02*
X139557676Y-72926956D01*
X139557676Y-72926956D02*
X139748152Y-72888861D01*
X139748152Y-72888861D02*
X140081485Y-72888861D01*
X140081485Y-72888861D02*
X140271961Y-72926956D01*
X140271961Y-72926956D02*
X140367200Y-73003147D01*
X140367200Y-73003147D02*
X140414819Y-73079337D01*
X140414819Y-73079337D02*
X140414819Y-73231718D01*
X140414819Y-73231718D02*
X140367200Y-73307909D01*
X140367200Y-73307909D02*
X140271961Y-73384099D01*
X140271961Y-73384099D02*
X140081485Y-73422195D01*
X140081485Y-73422195D02*
X139748152Y-73422195D01*
X139748152Y-73422195D02*
X139557676Y-73384099D01*
X139557676Y-73384099D02*
X139462438Y-73307909D01*
X139462438Y-73307909D02*
X139414819Y-73231718D01*
X117937768Y-92128209D02*
X117917565Y-92040663D01*
X117917565Y-92040663D02*
X117836753Y-91959851D01*
X117836753Y-91959851D02*
X117722269Y-91912710D01*
X117722269Y-91912710D02*
X117601051Y-91926179D01*
X117601051Y-91926179D02*
X117506770Y-91966585D01*
X117506770Y-91966585D02*
X117345145Y-92074335D01*
X117345145Y-92074335D02*
X117244130Y-92175350D01*
X117244130Y-92175350D02*
X117136380Y-92336974D01*
X117136380Y-92336974D02*
X117095974Y-92431255D01*
X117095974Y-92431255D02*
X117082506Y-92552473D01*
X117082506Y-92552473D02*
X117129646Y-92666957D01*
X117129646Y-92666957D02*
X117183521Y-92720832D01*
X117183521Y-92720832D02*
X117298005Y-92767973D01*
X117298005Y-92767973D02*
X117358614Y-92761238D01*
X117358614Y-92761238D02*
X117594316Y-92525536D01*
X117594316Y-92525536D02*
X117486567Y-92417786D01*
X117533707Y-93071018D02*
X118240814Y-92363912D01*
X118240814Y-92363912D02*
X118456313Y-92579411D01*
X118456313Y-92579411D02*
X118476516Y-92666957D01*
X118476516Y-92666957D02*
X118469782Y-92727567D01*
X118469782Y-92727567D02*
X118429376Y-92821847D01*
X118429376Y-92821847D02*
X118328360Y-92922863D01*
X118328360Y-92922863D02*
X118234080Y-92963269D01*
X118234080Y-92963269D02*
X118173470Y-92970003D01*
X118173470Y-92970003D02*
X118085924Y-92949800D01*
X118085924Y-92949800D02*
X117870425Y-92734301D01*
X118752625Y-92875722D02*
X119102811Y-93225908D01*
X119102811Y-93225908D02*
X118644875Y-93306721D01*
X118644875Y-93306721D02*
X118725687Y-93387533D01*
X118725687Y-93387533D02*
X118745890Y-93475079D01*
X118745890Y-93475079D02*
X118739156Y-93535689D01*
X118739156Y-93535689D02*
X118698750Y-93629969D01*
X118698750Y-93629969D02*
X118530391Y-93798328D01*
X118530391Y-93798328D02*
X118436110Y-93838734D01*
X118436110Y-93838734D02*
X118375501Y-93845469D01*
X118375501Y-93845469D02*
X118287954Y-93825266D01*
X118287954Y-93825266D02*
X118126330Y-93663641D01*
X118126330Y-93663641D02*
X118106127Y-93576095D01*
X118106127Y-93576095D02*
X118112861Y-93515486D01*
X122494394Y-66004835D02*
X122474191Y-65917288D01*
X122474191Y-65917288D02*
X122393378Y-65836476D01*
X122393378Y-65836476D02*
X122278894Y-65789336D01*
X122278894Y-65789336D02*
X122157676Y-65802804D01*
X122157676Y-65802804D02*
X122063395Y-65843210D01*
X122063395Y-65843210D02*
X121901771Y-65950960D01*
X121901771Y-65950960D02*
X121800756Y-66051975D01*
X121800756Y-66051975D02*
X121693006Y-66213600D01*
X121693006Y-66213600D02*
X121652600Y-66307881D01*
X121652600Y-66307881D02*
X121639131Y-66429099D01*
X121639131Y-66429099D02*
X121686272Y-66543583D01*
X121686272Y-66543583D02*
X121740146Y-66597458D01*
X121740146Y-66597458D02*
X121854630Y-66644598D01*
X121854630Y-66644598D02*
X121915240Y-66637864D01*
X121915240Y-66637864D02*
X122150942Y-66402162D01*
X122150942Y-66402162D02*
X122043192Y-66294412D01*
X122090333Y-66947644D02*
X122797439Y-66240537D01*
X122797439Y-66240537D02*
X123012939Y-66456036D01*
X123012939Y-66456036D02*
X123033142Y-66543583D01*
X123033142Y-66543583D02*
X123026407Y-66604192D01*
X123026407Y-66604192D02*
X122986001Y-66698473D01*
X122986001Y-66698473D02*
X122884986Y-66799488D01*
X122884986Y-66799488D02*
X122790705Y-66839894D01*
X122790705Y-66839894D02*
X122730096Y-66846629D01*
X122730096Y-66846629D02*
X122642549Y-66826426D01*
X122642549Y-66826426D02*
X122427050Y-66610926D01*
X123268844Y-66846629D02*
X123329453Y-66839894D01*
X123329453Y-66839894D02*
X123417000Y-66860097D01*
X123417000Y-66860097D02*
X123551687Y-66994784D01*
X123551687Y-66994784D02*
X123571890Y-67082331D01*
X123571890Y-67082331D02*
X123565155Y-67142940D01*
X123565155Y-67142940D02*
X123524749Y-67237221D01*
X123524749Y-67237221D02*
X123457406Y-67304565D01*
X123457406Y-67304565D02*
X123329453Y-67378642D01*
X123329453Y-67378642D02*
X122602143Y-67459455D01*
X122602143Y-67459455D02*
X122952330Y-67809641D01*
X123679640Y-67728829D02*
X123659436Y-67641282D01*
X123659436Y-67641282D02*
X123666171Y-67580673D01*
X123666171Y-67580673D02*
X123706577Y-67486392D01*
X123706577Y-67486392D02*
X123740249Y-67452720D01*
X123740249Y-67452720D02*
X123834530Y-67412314D01*
X123834530Y-67412314D02*
X123895139Y-67405580D01*
X123895139Y-67405580D02*
X123982685Y-67425783D01*
X123982685Y-67425783D02*
X124090435Y-67533533D01*
X124090435Y-67533533D02*
X124110638Y-67621079D01*
X124110638Y-67621079D02*
X124103904Y-67681688D01*
X124103904Y-67681688D02*
X124063497Y-67775969D01*
X124063497Y-67775969D02*
X124029826Y-67809641D01*
X124029826Y-67809641D02*
X123935545Y-67850047D01*
X123935545Y-67850047D02*
X123874936Y-67856781D01*
X123874936Y-67856781D02*
X123787389Y-67836578D01*
X123787389Y-67836578D02*
X123679640Y-67728829D01*
X123679640Y-67728829D02*
X123592093Y-67708626D01*
X123592093Y-67708626D02*
X123531484Y-67715360D01*
X123531484Y-67715360D02*
X123437203Y-67755766D01*
X123437203Y-67755766D02*
X123302516Y-67890453D01*
X123302516Y-67890453D02*
X123262110Y-67984734D01*
X123262110Y-67984734D02*
X123255375Y-68045343D01*
X123255375Y-68045343D02*
X123275579Y-68132890D01*
X123275579Y-68132890D02*
X123383328Y-68240639D01*
X123383328Y-68240639D02*
X123470875Y-68260842D01*
X123470875Y-68260842D02*
X123531484Y-68254108D01*
X123531484Y-68254108D02*
X123625765Y-68213702D01*
X123625765Y-68213702D02*
X123760452Y-68079015D01*
X123760452Y-68079015D02*
X123800858Y-67984734D01*
X123800858Y-67984734D02*
X123807592Y-67924125D01*
X123807592Y-67924125D02*
X123787389Y-67836578D01*
X132490864Y-66988176D02*
X132639020Y-66462896D01*
X132167616Y-66664927D02*
X132874722Y-65957820D01*
X132874722Y-65957820D02*
X133090221Y-66173319D01*
X133090221Y-66173319D02*
X133110425Y-66260866D01*
X133110425Y-66260866D02*
X133103690Y-66321475D01*
X133103690Y-66321475D02*
X133063284Y-66415756D01*
X133063284Y-66415756D02*
X132962269Y-66516771D01*
X132962269Y-66516771D02*
X132867988Y-66557177D01*
X132867988Y-66557177D02*
X132807379Y-66563912D01*
X132807379Y-66563912D02*
X132719832Y-66543708D01*
X132719832Y-66543708D02*
X132504333Y-66328209D01*
X133440408Y-66523505D02*
X132867988Y-67095925D01*
X132867988Y-67095925D02*
X132827582Y-67190206D01*
X132827582Y-67190206D02*
X132820847Y-67250815D01*
X132820847Y-67250815D02*
X132841051Y-67338362D01*
X132841051Y-67338362D02*
X132948800Y-67446111D01*
X132948800Y-67446111D02*
X133036347Y-67466314D01*
X133036347Y-67466314D02*
X133096956Y-67459580D01*
X133096956Y-67459580D02*
X133191237Y-67419174D01*
X133191237Y-67419174D02*
X133763657Y-66846754D01*
X133325924Y-67823235D02*
X134033030Y-67116128D01*
X134033030Y-67116128D02*
X133649172Y-68146484D01*
X133649172Y-68146484D02*
X134356279Y-67439377D01*
X153228394Y-92158835D02*
X153208191Y-92071288D01*
X153208191Y-92071288D02*
X153127378Y-91990476D01*
X153127378Y-91990476D02*
X153012894Y-91943336D01*
X153012894Y-91943336D02*
X152891676Y-91956804D01*
X152891676Y-91956804D02*
X152797395Y-91997210D01*
X152797395Y-91997210D02*
X152635771Y-92104960D01*
X152635771Y-92104960D02*
X152534756Y-92205975D01*
X152534756Y-92205975D02*
X152427006Y-92367600D01*
X152427006Y-92367600D02*
X152386600Y-92461881D01*
X152386600Y-92461881D02*
X152373131Y-92583099D01*
X152373131Y-92583099D02*
X152420272Y-92697583D01*
X152420272Y-92697583D02*
X152474146Y-92751458D01*
X152474146Y-92751458D02*
X152588630Y-92798598D01*
X152588630Y-92798598D02*
X152649240Y-92791864D01*
X152649240Y-92791864D02*
X152884942Y-92556162D01*
X152884942Y-92556162D02*
X152777192Y-92448412D01*
X152824333Y-93101644D02*
X153531439Y-92394537D01*
X153531439Y-92394537D02*
X153746939Y-92610036D01*
X153746939Y-92610036D02*
X153767142Y-92697583D01*
X153767142Y-92697583D02*
X153760407Y-92758192D01*
X153760407Y-92758192D02*
X153720001Y-92852473D01*
X153720001Y-92852473D02*
X153618986Y-92953488D01*
X153618986Y-92953488D02*
X153524705Y-92993894D01*
X153524705Y-92993894D02*
X153464096Y-93000629D01*
X153464096Y-93000629D02*
X153376549Y-92980426D01*
X153376549Y-92980426D02*
X153161050Y-92764926D01*
X153686330Y-93963641D02*
X153363081Y-93640392D01*
X153524705Y-93802016D02*
X154231812Y-93094910D01*
X154231812Y-93094910D02*
X154076922Y-93142050D01*
X154076922Y-93142050D02*
X153955704Y-93155519D01*
X153955704Y-93155519D02*
X153868157Y-93135316D01*
X154642607Y-93977110D02*
X154171203Y-94448514D01*
X154777294Y-93573049D02*
X154137531Y-93943438D01*
X154137531Y-93943438D02*
X154487717Y-94293624D01*
X113677412Y-64530510D02*
X114027599Y-64880696D01*
X114027599Y-64880696D02*
X113569663Y-64961509D01*
X113569663Y-64961509D02*
X113650475Y-65042321D01*
X113650475Y-65042321D02*
X113670678Y-65129867D01*
X113670678Y-65129867D02*
X113663944Y-65190476D01*
X113663944Y-65190476D02*
X113623538Y-65284757D01*
X113623538Y-65284757D02*
X113455179Y-65453116D01*
X113455179Y-65453116D02*
X113360898Y-65493522D01*
X113360898Y-65493522D02*
X113300289Y-65500257D01*
X113300289Y-65500257D02*
X113212742Y-65480054D01*
X113212742Y-65480054D02*
X113051118Y-65318429D01*
X113051118Y-65318429D02*
X113030915Y-65230883D01*
X113030915Y-65230883D02*
X113037649Y-65170273D01*
X114189223Y-65042321D02*
X113670678Y-65937990D01*
X113670678Y-65937990D02*
X114566347Y-65419445D01*
X114701034Y-65554131D02*
X115051220Y-65904318D01*
X115051220Y-65904318D02*
X114593284Y-65985130D01*
X114593284Y-65985130D02*
X114674096Y-66065942D01*
X114674096Y-66065942D02*
X114694299Y-66153489D01*
X114694299Y-66153489D02*
X114687565Y-66214098D01*
X114687565Y-66214098D02*
X114647159Y-66308379D01*
X114647159Y-66308379D02*
X114478800Y-66476737D01*
X114478800Y-66476737D02*
X114384519Y-66517143D01*
X114384519Y-66517143D02*
X114323910Y-66523878D01*
X114323910Y-66523878D02*
X114236363Y-66503675D01*
X114236363Y-66503675D02*
X114074739Y-66342050D01*
X114074739Y-66342050D02*
X114054536Y-66254504D01*
X114054536Y-66254504D02*
X114061270Y-66193895D01*
X114384519Y-66786518D02*
X114815518Y-67217516D01*
X115387938Y-66914470D02*
X115576499Y-67103032D01*
X115286922Y-67554234D02*
X115017548Y-67284860D01*
X115017548Y-67284860D02*
X115724655Y-66577753D01*
X115724655Y-66577753D02*
X115994029Y-66847127D01*
X115529359Y-67796671D02*
X116236466Y-67089564D01*
X116236466Y-67089564D02*
X115852608Y-68119919D01*
X115852608Y-68119919D02*
X116559715Y-67412813D01*
X128097768Y-92128209D02*
X128077565Y-92040663D01*
X128077565Y-92040663D02*
X127996753Y-91959851D01*
X127996753Y-91959851D02*
X127882269Y-91912710D01*
X127882269Y-91912710D02*
X127761051Y-91926179D01*
X127761051Y-91926179D02*
X127666770Y-91966585D01*
X127666770Y-91966585D02*
X127505145Y-92074335D01*
X127505145Y-92074335D02*
X127404130Y-92175350D01*
X127404130Y-92175350D02*
X127296380Y-92336974D01*
X127296380Y-92336974D02*
X127255974Y-92431255D01*
X127255974Y-92431255D02*
X127242506Y-92552473D01*
X127242506Y-92552473D02*
X127289646Y-92666957D01*
X127289646Y-92666957D02*
X127343521Y-92720832D01*
X127343521Y-92720832D02*
X127458005Y-92767973D01*
X127458005Y-92767973D02*
X127518614Y-92761238D01*
X127518614Y-92761238D02*
X127754316Y-92525536D01*
X127754316Y-92525536D02*
X127646567Y-92417786D01*
X127693707Y-93071018D02*
X128400814Y-92363912D01*
X128400814Y-92363912D02*
X128616313Y-92579411D01*
X128616313Y-92579411D02*
X128636516Y-92666957D01*
X128636516Y-92666957D02*
X128629782Y-92727567D01*
X128629782Y-92727567D02*
X128589376Y-92821847D01*
X128589376Y-92821847D02*
X128488360Y-92922863D01*
X128488360Y-92922863D02*
X128394080Y-92963269D01*
X128394080Y-92963269D02*
X128333470Y-92970003D01*
X128333470Y-92970003D02*
X128245924Y-92949800D01*
X128245924Y-92949800D02*
X128030425Y-92734301D01*
X129208936Y-93172034D02*
X129101186Y-93064284D01*
X129101186Y-93064284D02*
X129013640Y-93044081D01*
X129013640Y-93044081D02*
X128953031Y-93050815D01*
X128953031Y-93050815D02*
X128798141Y-93097956D01*
X128798141Y-93097956D02*
X128636516Y-93205705D01*
X128636516Y-93205705D02*
X128367142Y-93475079D01*
X128367142Y-93475079D02*
X128326736Y-93569360D01*
X128326736Y-93569360D02*
X128320002Y-93629969D01*
X128320002Y-93629969D02*
X128340205Y-93717516D01*
X128340205Y-93717516D02*
X128447954Y-93825266D01*
X128447954Y-93825266D02*
X128535501Y-93845469D01*
X128535501Y-93845469D02*
X128596110Y-93838734D01*
X128596110Y-93838734D02*
X128690391Y-93798328D01*
X128690391Y-93798328D02*
X128858750Y-93629969D01*
X128858750Y-93629969D02*
X128899156Y-93535689D01*
X128899156Y-93535689D02*
X128905890Y-93475079D01*
X128905890Y-93475079D02*
X128885687Y-93387533D01*
X128885687Y-93387533D02*
X128777938Y-93279783D01*
X128777938Y-93279783D02*
X128690391Y-93259580D01*
X128690391Y-93259580D02*
X128629782Y-93266315D01*
X128629782Y-93266315D02*
X128535501Y-93306721D01*
X130607768Y-92028209D02*
X130587565Y-91940663D01*
X130587565Y-91940663D02*
X130506753Y-91859851D01*
X130506753Y-91859851D02*
X130392269Y-91812710D01*
X130392269Y-91812710D02*
X130271051Y-91826179D01*
X130271051Y-91826179D02*
X130176770Y-91866585D01*
X130176770Y-91866585D02*
X130015145Y-91974335D01*
X130015145Y-91974335D02*
X129914130Y-92075350D01*
X129914130Y-92075350D02*
X129806380Y-92236974D01*
X129806380Y-92236974D02*
X129765974Y-92331255D01*
X129765974Y-92331255D02*
X129752506Y-92452473D01*
X129752506Y-92452473D02*
X129799646Y-92566957D01*
X129799646Y-92566957D02*
X129853521Y-92620832D01*
X129853521Y-92620832D02*
X129968005Y-92667973D01*
X129968005Y-92667973D02*
X130028614Y-92661238D01*
X130028614Y-92661238D02*
X130264316Y-92425536D01*
X130264316Y-92425536D02*
X130156567Y-92317786D01*
X130203707Y-92971018D02*
X130910814Y-92263912D01*
X130910814Y-92263912D02*
X131126313Y-92479411D01*
X131126313Y-92479411D02*
X131146516Y-92566957D01*
X131146516Y-92566957D02*
X131139782Y-92627567D01*
X131139782Y-92627567D02*
X131099376Y-92721847D01*
X131099376Y-92721847D02*
X130998360Y-92822863D01*
X130998360Y-92822863D02*
X130904080Y-92863269D01*
X130904080Y-92863269D02*
X130843470Y-92870003D01*
X130843470Y-92870003D02*
X130755924Y-92849800D01*
X130755924Y-92849800D02*
X130540425Y-92634301D01*
X131422625Y-92775722D02*
X131799748Y-93152846D01*
X131799748Y-93152846D02*
X130850205Y-93617516D01*
X130368394Y-66004835D02*
X130348191Y-65917288D01*
X130348191Y-65917288D02*
X130267378Y-65836476D01*
X130267378Y-65836476D02*
X130152894Y-65789336D01*
X130152894Y-65789336D02*
X130031676Y-65802804D01*
X130031676Y-65802804D02*
X129937395Y-65843210D01*
X129937395Y-65843210D02*
X129775771Y-65950960D01*
X129775771Y-65950960D02*
X129674756Y-66051975D01*
X129674756Y-66051975D02*
X129567006Y-66213600D01*
X129567006Y-66213600D02*
X129526600Y-66307881D01*
X129526600Y-66307881D02*
X129513131Y-66429099D01*
X129513131Y-66429099D02*
X129560272Y-66543583D01*
X129560272Y-66543583D02*
X129614146Y-66597458D01*
X129614146Y-66597458D02*
X129728630Y-66644598D01*
X129728630Y-66644598D02*
X129789240Y-66637864D01*
X129789240Y-66637864D02*
X130024942Y-66402162D01*
X130024942Y-66402162D02*
X129917192Y-66294412D01*
X129964333Y-66947644D02*
X130671439Y-66240537D01*
X130671439Y-66240537D02*
X130886939Y-66456036D01*
X130886939Y-66456036D02*
X130907142Y-66543583D01*
X130907142Y-66543583D02*
X130900407Y-66604192D01*
X130900407Y-66604192D02*
X130860001Y-66698473D01*
X130860001Y-66698473D02*
X130758986Y-66799488D01*
X130758986Y-66799488D02*
X130664705Y-66839894D01*
X130664705Y-66839894D02*
X130604096Y-66846629D01*
X130604096Y-66846629D02*
X130516549Y-66826426D01*
X130516549Y-66826426D02*
X130301050Y-66610926D01*
X131142844Y-66846629D02*
X131203453Y-66839894D01*
X131203453Y-66839894D02*
X131291000Y-66860097D01*
X131291000Y-66860097D02*
X131425687Y-66994784D01*
X131425687Y-66994784D02*
X131445890Y-67082331D01*
X131445890Y-67082331D02*
X131439155Y-67142940D01*
X131439155Y-67142940D02*
X131398749Y-67237221D01*
X131398749Y-67237221D02*
X131331406Y-67304565D01*
X131331406Y-67304565D02*
X131203453Y-67378642D01*
X131203453Y-67378642D02*
X130476143Y-67459455D01*
X130476143Y-67459455D02*
X130826330Y-67809641D01*
X132018310Y-67587407D02*
X131910560Y-67479658D01*
X131910560Y-67479658D02*
X131823014Y-67459455D01*
X131823014Y-67459455D02*
X131762404Y-67466189D01*
X131762404Y-67466189D02*
X131607514Y-67513330D01*
X131607514Y-67513330D02*
X131445890Y-67621079D01*
X131445890Y-67621079D02*
X131176516Y-67890453D01*
X131176516Y-67890453D02*
X131136110Y-67984734D01*
X131136110Y-67984734D02*
X131129375Y-68045343D01*
X131129375Y-68045343D02*
X131149579Y-68132890D01*
X131149579Y-68132890D02*
X131257328Y-68240639D01*
X131257328Y-68240639D02*
X131344875Y-68260842D01*
X131344875Y-68260842D02*
X131405484Y-68254108D01*
X131405484Y-68254108D02*
X131499765Y-68213702D01*
X131499765Y-68213702D02*
X131668123Y-68045343D01*
X131668123Y-68045343D02*
X131708530Y-67951062D01*
X131708530Y-67951062D02*
X131715264Y-67890453D01*
X131715264Y-67890453D02*
X131695061Y-67802907D01*
X131695061Y-67802907D02*
X131587311Y-67695157D01*
X131587311Y-67695157D02*
X131499765Y-67674954D01*
X131499765Y-67674954D02*
X131439156Y-67681688D01*
X131439156Y-67681688D02*
X131344875Y-67722094D01*
X148148394Y-66004835D02*
X148128191Y-65917288D01*
X148128191Y-65917288D02*
X148047378Y-65836476D01*
X148047378Y-65836476D02*
X147932894Y-65789336D01*
X147932894Y-65789336D02*
X147811676Y-65802804D01*
X147811676Y-65802804D02*
X147717395Y-65843210D01*
X147717395Y-65843210D02*
X147555771Y-65950960D01*
X147555771Y-65950960D02*
X147454756Y-66051975D01*
X147454756Y-66051975D02*
X147347006Y-66213600D01*
X147347006Y-66213600D02*
X147306600Y-66307881D01*
X147306600Y-66307881D02*
X147293131Y-66429099D01*
X147293131Y-66429099D02*
X147340272Y-66543583D01*
X147340272Y-66543583D02*
X147394146Y-66597458D01*
X147394146Y-66597458D02*
X147508630Y-66644598D01*
X147508630Y-66644598D02*
X147569240Y-66637864D01*
X147569240Y-66637864D02*
X147804942Y-66402162D01*
X147804942Y-66402162D02*
X147697192Y-66294412D01*
X147744333Y-66947644D02*
X148451439Y-66240537D01*
X148451439Y-66240537D02*
X148666939Y-66456036D01*
X148666939Y-66456036D02*
X148687142Y-66543583D01*
X148687142Y-66543583D02*
X148680407Y-66604192D01*
X148680407Y-66604192D02*
X148640001Y-66698473D01*
X148640001Y-66698473D02*
X148538986Y-66799488D01*
X148538986Y-66799488D02*
X148444705Y-66839894D01*
X148444705Y-66839894D02*
X148384096Y-66846629D01*
X148384096Y-66846629D02*
X148296549Y-66826426D01*
X148296549Y-66826426D02*
X148081050Y-66610926D01*
X148606330Y-67809641D02*
X148283081Y-67486392D01*
X148444705Y-67648016D02*
X149151812Y-66940910D01*
X149151812Y-66940910D02*
X148996922Y-66988050D01*
X148996922Y-66988050D02*
X148875704Y-67001519D01*
X148875704Y-67001519D02*
X148788157Y-66981316D01*
X149333640Y-67728829D02*
X149313436Y-67641282D01*
X149313436Y-67641282D02*
X149320171Y-67580673D01*
X149320171Y-67580673D02*
X149360577Y-67486392D01*
X149360577Y-67486392D02*
X149394249Y-67452720D01*
X149394249Y-67452720D02*
X149488530Y-67412314D01*
X149488530Y-67412314D02*
X149549139Y-67405580D01*
X149549139Y-67405580D02*
X149636685Y-67425783D01*
X149636685Y-67425783D02*
X149744435Y-67533533D01*
X149744435Y-67533533D02*
X149764638Y-67621079D01*
X149764638Y-67621079D02*
X149757904Y-67681688D01*
X149757904Y-67681688D02*
X149717497Y-67775969D01*
X149717497Y-67775969D02*
X149683826Y-67809641D01*
X149683826Y-67809641D02*
X149589545Y-67850047D01*
X149589545Y-67850047D02*
X149528936Y-67856781D01*
X149528936Y-67856781D02*
X149441389Y-67836578D01*
X149441389Y-67836578D02*
X149333640Y-67728829D01*
X149333640Y-67728829D02*
X149246093Y-67708626D01*
X149246093Y-67708626D02*
X149185484Y-67715360D01*
X149185484Y-67715360D02*
X149091203Y-67755766D01*
X149091203Y-67755766D02*
X148956516Y-67890453D01*
X148956516Y-67890453D02*
X148916110Y-67984734D01*
X148916110Y-67984734D02*
X148909375Y-68045343D01*
X148909375Y-68045343D02*
X148929579Y-68132890D01*
X148929579Y-68132890D02*
X149037328Y-68240639D01*
X149037328Y-68240639D02*
X149124875Y-68260842D01*
X149124875Y-68260842D02*
X149185484Y-68254108D01*
X149185484Y-68254108D02*
X149279765Y-68213702D01*
X149279765Y-68213702D02*
X149414452Y-68079015D01*
X149414452Y-68079015D02*
X149454858Y-67984734D01*
X149454858Y-67984734D02*
X149461592Y-67924125D01*
X149461592Y-67924125D02*
X149441389Y-67836578D01*
D12*
X120360436Y-95765000D02*
X120814564Y-95765000D01*
X120360436Y-97235000D02*
X120814564Y-97235000D01*
X124360436Y-94765000D02*
X124814564Y-94765000D01*
X124360436Y-96235000D02*
X124814564Y-96235000D01*
X136765000Y-55311252D02*
X136765000Y-54788748D01*
X138235000Y-55311252D02*
X138235000Y-54788748D01*
D13*
X106355000Y-33300000D02*
X133025000Y-33300000D01*
X106355000Y-56160000D02*
X106355000Y-33300000D01*
X133025000Y-58700000D02*
X108895000Y-58700000D01*
X135565000Y-35840000D02*
X135565000Y-56160000D01*
X108895000Y-58700000D02*
G75*
G02*
X106355000Y-56160000I0J2540000D01*
G01*
X133025000Y-33300000D02*
G75*
G02*
X135565000Y-35840000I-1J-2540001D01*
G01*
X135565000Y-56160000D02*
G75*
G02*
X133025000Y-58700000I-2540001J1D01*
G01*
D14*
X105810000Y-56160000D02*
G75*
G02*
X105610000Y-56160000I-100000J0D01*
G01*
X105610000Y-56160000D02*
G75*
G02*
X105810000Y-56160000I100000J0D01*
G01*
D12*
X116360436Y-96765000D02*
X116814564Y-96765000D01*
X116360436Y-98235000D02*
X116814564Y-98235000D01*
X157062500Y-48940000D02*
X156412500Y-48940000D01*
X157062500Y-48940000D02*
X157712500Y-48940000D01*
X157062500Y-52060000D02*
X156412500Y-52060000D01*
X157062500Y-52060000D02*
X157712500Y-52060000D01*
X155900000Y-48990000D02*
X155660000Y-48660000D01*
X156140000Y-48660000D01*
X155900000Y-48990000D01*
G36*
X155900000Y-48990000D02*
G01*
X155660000Y-48660000D01*
X156140000Y-48660000D01*
X155900000Y-48990000D01*
G37*
X157360436Y-57265000D02*
X157814564Y-57265000D01*
X157360436Y-58735000D02*
X157814564Y-58735000D01*
X158760000Y-43590000D02*
X158760000Y-41850000D01*
X159000000Y-34150000D02*
X161000000Y-34150000D01*
X159000000Y-36950000D02*
X159000000Y-34150000D01*
X159000000Y-43350000D02*
X159000000Y-40550000D01*
X160500000Y-43590000D02*
X158760000Y-43590000D01*
X164600000Y-34150000D02*
X173600000Y-34150000D01*
X173600000Y-34150000D02*
X173600000Y-43350000D01*
X173600000Y-43350000D02*
X159000000Y-43350000D01*
X106460000Y-69584100D02*
X106760000Y-69584100D01*
X106460000Y-90584100D02*
X106460000Y-69584100D01*
X106460000Y-90584100D02*
X106760000Y-90584100D01*
X108860000Y-69584100D02*
X109260000Y-69584100D01*
X108860000Y-90584100D02*
X109260000Y-90584100D01*
X109127000Y-87577100D02*
X106460000Y-87577100D01*
X109127000Y-90584100D02*
X109127000Y-87577100D01*
X111460000Y-69584100D02*
X111860000Y-69584100D01*
X111460000Y-90584100D02*
X111860000Y-90584100D01*
X113960000Y-69584100D02*
X114360000Y-69584100D01*
X113960000Y-90584100D02*
X114360000Y-90584100D01*
X116560000Y-69584100D02*
X116960000Y-69584100D01*
X116560000Y-90584100D02*
X116960000Y-90584100D01*
X119060000Y-69584100D02*
X119460000Y-69584100D01*
X119060000Y-90584100D02*
X119460000Y-90584100D01*
X121560000Y-69584100D02*
X121960000Y-69584100D01*
X121560000Y-90584100D02*
X121960000Y-90584100D01*
X124160000Y-69584100D02*
X124560000Y-69584100D01*
X124160000Y-90584100D02*
X124560000Y-90584100D01*
X126660000Y-69584100D02*
X127060000Y-69584100D01*
X126660000Y-90584100D02*
X127060000Y-90584100D01*
X129260000Y-69584100D02*
X129660000Y-69584100D01*
X129260000Y-90584100D02*
X129660000Y-90584100D01*
X131760000Y-69584100D02*
X132160000Y-69584100D01*
X131760000Y-90584100D02*
X132160000Y-90584100D01*
X134260000Y-69584100D02*
X134660000Y-69584100D01*
X134260000Y-90584100D02*
X134660000Y-90584100D01*
X136860000Y-69584100D02*
X137260000Y-69584100D01*
X136860000Y-90584100D02*
X137260000Y-90584100D01*
X139360000Y-69584100D02*
X139760000Y-69584100D01*
X139360000Y-90584100D02*
X139760000Y-90584100D01*
X141960000Y-69584100D02*
X142360000Y-69584100D01*
X141960000Y-90584100D02*
X142360000Y-90584100D01*
X144460000Y-69584100D02*
X144860000Y-69584100D01*
X144460000Y-90584100D02*
X144860000Y-90584100D01*
X147060000Y-69584100D02*
X147460000Y-69584100D01*
X147060000Y-90584100D02*
X147460000Y-90584100D01*
X149560000Y-69584100D02*
X149960000Y-69584100D01*
X149560000Y-90584100D02*
X149960000Y-90584100D01*
X152060000Y-69584100D02*
X152460000Y-69584100D01*
X152060000Y-90584100D02*
X152460000Y-90584100D01*
X154660000Y-69584100D02*
X155060000Y-69584100D01*
X154660000Y-90584100D02*
X155060000Y-90584100D01*
X157460000Y-69584100D02*
X157460000Y-76384100D01*
X157460000Y-78984100D02*
X157460000Y-78584100D01*
X157460000Y-81584100D02*
X157460000Y-81184100D01*
X157460000Y-83784100D02*
X157460000Y-90584100D01*
%LPC*%
D15*
X167500000Y-102500000D03*
D16*
X119675000Y-96500000D03*
X121500000Y-96500000D03*
X123675000Y-95500000D03*
X125500000Y-95500000D03*
D17*
X137500000Y-56000000D03*
X137500000Y-54100000D03*
D15*
X112500000Y-102500000D03*
D18*
X107625000Y-56414000D03*
X107625000Y-53874000D03*
X107625000Y-51334000D03*
X107625000Y-48794000D03*
X107625000Y-46254000D03*
X133025000Y-56414000D03*
X133025000Y-53874000D03*
X133025000Y-51334000D03*
X133025000Y-48794000D03*
X133025000Y-46254000D03*
X133025000Y-43714000D03*
X133025000Y-41174000D03*
X133025000Y-38634000D03*
X133025000Y-36094000D03*
D15*
X167500000Y-27500000D03*
D16*
X115675000Y-97500000D03*
X117500000Y-97500000D03*
D19*
X156125000Y-49550000D03*
X156125000Y-51450000D03*
X158000000Y-50500000D03*
D15*
X112500000Y-27500000D03*
D16*
X156675000Y-58000000D03*
X158500000Y-58000000D03*
D20*
X159800000Y-38750000D03*
D21*
X165800000Y-38750000D03*
X162800000Y-34050000D03*
D22*
X107960000Y-82809100D03*
D23*
X110990000Y-82509100D03*
X110990000Y-77659100D03*
D22*
X107960000Y-77359100D03*
D24*
X107830000Y-88974100D03*
D25*
X107830000Y-89874100D03*
D24*
X110370000Y-88974100D03*
D25*
X110370000Y-89874100D03*
D26*
X112910000Y-88974100D03*
D25*
X112910000Y-89874100D03*
D24*
X115450000Y-88974100D03*
D25*
X115450000Y-89874100D03*
D24*
X117990000Y-88974100D03*
D25*
X117990000Y-89874100D03*
D24*
X120530000Y-88974100D03*
D25*
X120530000Y-89874100D03*
D24*
X123070000Y-88974100D03*
D25*
X123070000Y-89874100D03*
D26*
X125610000Y-88974100D03*
D25*
X125610000Y-89874100D03*
D24*
X128150000Y-88974100D03*
D25*
X128150000Y-89874100D03*
D24*
X130690000Y-88974100D03*
D25*
X130690000Y-89874100D03*
D24*
X133230000Y-88974100D03*
D25*
X133230000Y-89874100D03*
D24*
X135770000Y-88974100D03*
D25*
X135770000Y-89874100D03*
D26*
X138310000Y-88974100D03*
D25*
X138310000Y-89874100D03*
D24*
X140850000Y-88974100D03*
D25*
X140850000Y-89874100D03*
D24*
X143390000Y-88974100D03*
D25*
X143390000Y-89874100D03*
D24*
X145930000Y-88974100D03*
D25*
X145930000Y-89874100D03*
D24*
X148470000Y-88974100D03*
D25*
X148470000Y-89874100D03*
D26*
X151010000Y-88974100D03*
D25*
X151010000Y-89874100D03*
D24*
X153550000Y-88974100D03*
D25*
X153550000Y-89874100D03*
D24*
X156090000Y-88974100D03*
D25*
X156090000Y-89874100D03*
D24*
X156090000Y-71194100D03*
D25*
X156090000Y-70294100D03*
D24*
X153550000Y-71194100D03*
D25*
X153550000Y-70294100D03*
D26*
X151010000Y-71194100D03*
D25*
X151010000Y-70294100D03*
D24*
X148470000Y-71194100D03*
D25*
X148470000Y-70294100D03*
D24*
X145930000Y-71194100D03*
D25*
X145930000Y-70294100D03*
D24*
X143390000Y-71194100D03*
D25*
X143390000Y-70294100D03*
D24*
X140850000Y-71194100D03*
D25*
X140850000Y-70294100D03*
D26*
X138310000Y-71194100D03*
D25*
X138310000Y-70294100D03*
D24*
X135770000Y-71194100D03*
D25*
X135770000Y-70294100D03*
D24*
X133230000Y-71194100D03*
D25*
X133230000Y-70294100D03*
D24*
X130690000Y-71194100D03*
D25*
X130690000Y-70294100D03*
D24*
X128150000Y-71194100D03*
D25*
X128150000Y-70294100D03*
D26*
X125610000Y-71194100D03*
D25*
X125610000Y-70294100D03*
D24*
X123070000Y-71194100D03*
D25*
X123070000Y-70294100D03*
D24*
X120530000Y-71194100D03*
D25*
X120530000Y-70294100D03*
D24*
X117990000Y-71194100D03*
D25*
X117990000Y-70294100D03*
D24*
X115450000Y-71194100D03*
D25*
X115450000Y-70294100D03*
D26*
X112910000Y-71194100D03*
D25*
X112910000Y-70294100D03*
D24*
X110370000Y-71194100D03*
D25*
X110370000Y-70294100D03*
D24*
X107830000Y-71194100D03*
D25*
X107830000Y-70294100D03*
D24*
X137560000Y-79500000D03*
D26*
X137560000Y-76960000D03*
D24*
X137560000Y-74420000D03*
D27*
X165475000Y-72000000D03*
D28*
X168015000Y-72000000D03*
D27*
X165460000Y-82500000D03*
D28*
X168000000Y-82500000D03*
D27*
X165460000Y-92500000D03*
D28*
X168000000Y-92500000D03*
D29*
X163250000Y-62750000D03*
X169750000Y-62750000D03*
X163250000Y-58250000D03*
X169750000Y-58250000D03*
D30*
X170305000Y-50052500D03*
D31*
X162685000Y-50052500D03*
%LPD*%
M02*
