M48
; DRILL file {KiCad 9.0.0} date 2025-04-18T14:19:36-0400
; FORMAT={-:-/ absolute / metric / decimal}
; #@! TF.CreationDate,2025-04-18T14:19:36-04:00
; #@! TF.GenerationSoftware,Kicad,Pcbnew,9.0.0
; #@! TF.FileFunction,Plated,1,4,PTH
FMAT,2
METRIC
; #@! TA.AperFunction,Plated,PTH,ComponentDrill
T1C0.800
; #@! TA.AperFunction,Plated,PTH,ComponentDrill
T2C0.900
; #@! TA.AperFunction,Plated,PTH,ComponentDrill
T3C1.000
; #@! TA.AperFunction,Plated,PTH,ComponentDrill
T4C1.020
; #@! TA.AperFunction,Plated,PTH,ComponentDrill
T5C1.100
; #@! TA.AperFunction,Plated,PTH,ComponentDrill
T6C1.600
%
G90
G05
T1
X162.685Y-50.052
X170.305Y-50.052
T2
X165.46Y-82.5
X165.46Y-92.5
X165.475Y-72.0
X168.0Y-82.5
X168.0Y-92.5
X168.015Y-72.0
T3
X107.625Y-46.254
X107.625Y-48.794
X107.625Y-51.334
X107.625Y-53.874
X107.625Y-56.414
X133.025Y-36.094
X133.025Y-38.634
X133.025Y-41.174
X133.025Y-43.714
X133.025Y-46.254
X133.025Y-48.794
X133.025Y-51.334
X133.025Y-53.874
X133.025Y-56.414
T4
X107.83Y-71.194
X107.83Y-88.974
X110.37Y-71.194
X110.37Y-88.974
X112.91Y-71.194
X112.91Y-88.974
X115.45Y-71.194
X115.45Y-88.974
X117.99Y-71.194
X117.99Y-88.974
X120.53Y-71.194
X120.53Y-88.974
X123.07Y-71.194
X123.07Y-88.974
X125.61Y-71.194
X125.61Y-88.974
X128.15Y-71.194
X128.15Y-88.974
X130.69Y-71.194
X130.69Y-88.974
X133.23Y-71.194
X133.23Y-88.974
X135.77Y-71.194
X135.77Y-88.974
X137.56Y-74.42
X137.56Y-76.96
X137.56Y-79.5
X138.31Y-71.194
X138.31Y-88.974
X140.85Y-71.194
X140.85Y-88.974
X143.39Y-71.194
X143.39Y-88.974
X145.93Y-71.194
X145.93Y-88.974
X148.47Y-71.194
X148.47Y-88.974
X151.01Y-71.194
X151.01Y-88.974
X153.55Y-71.194
X153.55Y-88.974
X156.09Y-71.194
X156.09Y-88.974
T5
X163.25Y-58.25
X163.25Y-62.75
X169.75Y-58.25
X169.75Y-62.75
T6
X159.8Y-38.75
X162.8Y-34.05
X165.8Y-38.75
M30
