G04 #@! TF.GenerationSoftware,KiCad,Pcbnew,9.0.0*
G04 #@! TF.CreationDate,2025-04-18T21:38:45-04:00*
G04 #@! TF.ProjectId,blood_pressure,626c6f6f-645f-4707-9265-73737572652e,rev?*
G04 #@! TF.SameCoordinates,Original*
G04 #@! TF.FileFunction,Copper,L4,Bot*
G04 #@! TF.FilePolarity,Positive*
%FSLAX46Y46*%
G04 Gerber Fmt 4.6, Leading zero omitted, Abs format (unit mm)*
G04 Created by KiCad (PCBNEW 9.0.0) date 2025-04-18 21:38:45*
%MOMM*%
%LPD*%
G01*
G04 APERTURE LIST*
G04 Aperture macros list*
%AMRoundRect*
0 Rectangle with rounded corners*
0 $1 Rounding radius*
0 $2 $3 $4 $5 $6 $7 $8 $9 X,Y pos of 4 corners*
0 Add a 4 corners polygon primitive as box body*
4,1,4,$2,$3,$4,$5,$6,$7,$8,$9,$2,$3,0*
0 Add four circle primitives for the rounded corners*
1,1,$1+$1,$2,$3*
1,1,$1+$1,$4,$5*
1,1,$1+$1,$6,$7*
1,1,$1+$1,$8,$9*
0 Add four rect primitives between the rounded corners*
20,1,$1+$1,$2,$3,$4,$5,0*
20,1,$1+$1,$4,$5,$6,$7,0*
20,1,$1+$1,$6,$7,$8,$9,0*
20,1,$1+$1,$8,$9,$2,$3,0*%
G04 Aperture macros list end*
G04 #@! TA.AperFunction,ComponentPad*
%ADD10C,1.508000*%
G04 #@! TD*
G04 #@! TA.AperFunction,ComponentPad*
%ADD11R,2.600000X2.600000*%
G04 #@! TD*
G04 #@! TA.AperFunction,ComponentPad*
%ADD12C,2.600000*%
G04 #@! TD*
G04 #@! TA.AperFunction,ComponentPad*
%ADD13O,1.700000X1.700000*%
G04 #@! TD*
G04 #@! TA.AperFunction,ComponentPad*
%ADD14R,1.700000X1.700000*%
G04 #@! TD*
G04 #@! TA.AperFunction,ComponentPad*
%ADD15R,1.800000X1.800000*%
G04 #@! TD*
G04 #@! TA.AperFunction,ComponentPad*
%ADD16C,1.800000*%
G04 #@! TD*
G04 #@! TA.AperFunction,ComponentPad*
%ADD17C,2.000000*%
G04 #@! TD*
G04 #@! TA.AperFunction,ComponentPad*
%ADD18RoundRect,0.250000X0.550000X0.550000X-0.550000X0.550000X-0.550000X-0.550000X0.550000X-0.550000X0*%
G04 #@! TD*
G04 #@! TA.AperFunction,ComponentPad*
%ADD19C,1.600000*%
G04 #@! TD*
G04 APERTURE END LIST*
D10*
X107625000Y-56414000D03*
X107625000Y-53874000D03*
X107625000Y-51334000D03*
X107625000Y-48794000D03*
X107625000Y-46254000D03*
X133025000Y-56414000D03*
X133025000Y-53874000D03*
X133025000Y-51334000D03*
X133025000Y-48794000D03*
X133025000Y-46254000D03*
X133025000Y-43714000D03*
X133025000Y-41174000D03*
X133025000Y-38634000D03*
X133025000Y-36094000D03*
D11*
X159800000Y-38750000D03*
D12*
X165800000Y-38750000D03*
X162800000Y-34050000D03*
D13*
X107830000Y-88974100D03*
X110370000Y-88974100D03*
D14*
X112910000Y-88974100D03*
D13*
X115450000Y-88974100D03*
X117990000Y-88974100D03*
X120530000Y-88974100D03*
X123070000Y-88974100D03*
D14*
X125610000Y-88974100D03*
D13*
X128150000Y-88974100D03*
X130690000Y-88974100D03*
X133230000Y-88974100D03*
X135770000Y-88974100D03*
D14*
X138310000Y-88974100D03*
D13*
X140850000Y-88974100D03*
X143390000Y-88974100D03*
X145930000Y-88974100D03*
X148470000Y-88974100D03*
D14*
X151010000Y-88974100D03*
D13*
X153550000Y-88974100D03*
X156090000Y-88974100D03*
X156090000Y-71194100D03*
X153550000Y-71194100D03*
D14*
X151010000Y-71194100D03*
D13*
X148470000Y-71194100D03*
X145930000Y-71194100D03*
X143390000Y-71194100D03*
X140850000Y-71194100D03*
D14*
X138310000Y-71194100D03*
D13*
X135770000Y-71194100D03*
X133230000Y-71194100D03*
X130690000Y-71194100D03*
X128150000Y-71194100D03*
D14*
X125610000Y-71194100D03*
D13*
X123070000Y-71194100D03*
X120530000Y-71194100D03*
X117990000Y-71194100D03*
X115450000Y-71194100D03*
D14*
X112910000Y-71194100D03*
D13*
X110370000Y-71194100D03*
X107830000Y-71194100D03*
X137560000Y-79500000D03*
D14*
X137560000Y-76960000D03*
D13*
X137560000Y-74420000D03*
D15*
X165475000Y-72000000D03*
D16*
X168015000Y-72000000D03*
D15*
X165460000Y-82500000D03*
D16*
X168000000Y-82500000D03*
D15*
X165460000Y-92500000D03*
D16*
X168000000Y-92500000D03*
D17*
X163250000Y-62750000D03*
X169750000Y-62750000D03*
X163250000Y-58250000D03*
X169750000Y-58250000D03*
D18*
X170305000Y-50052500D03*
D19*
X162685000Y-50052500D03*
G04 #@! TA.AperFunction,Conductor*
G36*
X173942539Y-22520185D02*
G01*
X173988294Y-22572989D01*
X173999500Y-22624500D01*
X173999500Y-107875500D01*
X173979815Y-107942539D01*
X173927011Y-107988294D01*
X173875500Y-107999500D01*
X106124000Y-107999500D01*
X106056961Y-107979815D01*
X106011206Y-107927011D01*
X106000000Y-107875500D01*
X106000000Y-102374038D01*
X110899500Y-102374038D01*
X110899500Y-102625961D01*
X110938910Y-102874785D01*
X111016760Y-103114383D01*
X111131132Y-103338848D01*
X111279201Y-103542649D01*
X111279205Y-103542654D01*
X111457345Y-103720794D01*
X111457350Y-103720798D01*
X111635117Y-103849952D01*
X111661155Y-103868870D01*
X111804184Y-103941747D01*
X111885616Y-103983239D01*
X111885618Y-103983239D01*
X111885621Y-103983241D01*
X112125215Y-104061090D01*
X112374038Y-104100500D01*
X112374039Y-104100500D01*
X112625961Y-104100500D01*
X112625962Y-104100500D01*
X112874785Y-104061090D01*
X113114379Y-103983241D01*
X113338845Y-103868870D01*
X113542656Y-103720793D01*
X113720793Y-103542656D01*
X113868870Y-103338845D01*
X113983241Y-103114379D01*
X114061090Y-102874785D01*
X114100500Y-102625962D01*
X114100500Y-102374038D01*
X165899500Y-102374038D01*
X165899500Y-102625961D01*
X165938910Y-102874785D01*
X166016760Y-103114383D01*
X166131132Y-103338848D01*
X166279201Y-103542649D01*
X166279205Y-103542654D01*
X166457345Y-103720794D01*
X166457350Y-103720798D01*
X166635117Y-103849952D01*
X166661155Y-103868870D01*
X166804184Y-103941747D01*
X166885616Y-103983239D01*
X166885618Y-103983239D01*
X166885621Y-103983241D01*
X167125215Y-104061090D01*
X167374038Y-104100500D01*
X167374039Y-104100500D01*
X167625961Y-104100500D01*
X167625962Y-104100500D01*
X167874785Y-104061090D01*
X168114379Y-103983241D01*
X168338845Y-103868870D01*
X168542656Y-103720793D01*
X168720793Y-103542656D01*
X168868870Y-103338845D01*
X168983241Y-103114379D01*
X169061090Y-102874785D01*
X169100500Y-102625962D01*
X169100500Y-102374038D01*
X169061090Y-102125215D01*
X168983241Y-101885621D01*
X168983239Y-101885618D01*
X168983239Y-101885616D01*
X168941747Y-101804184D01*
X168868870Y-101661155D01*
X168849952Y-101635117D01*
X168720798Y-101457350D01*
X168720794Y-101457345D01*
X168542654Y-101279205D01*
X168542649Y-101279201D01*
X168338848Y-101131132D01*
X168338847Y-101131131D01*
X168338845Y-101131130D01*
X168268747Y-101095413D01*
X168114383Y-101016760D01*
X167874785Y-100938910D01*
X167625962Y-100899500D01*
X167374038Y-100899500D01*
X167249626Y-100919205D01*
X167125214Y-100938910D01*
X166885616Y-101016760D01*
X166661151Y-101131132D01*
X166457350Y-101279201D01*
X166457345Y-101279205D01*
X166279205Y-101457345D01*
X166279201Y-101457350D01*
X166131132Y-101661151D01*
X166016760Y-101885616D01*
X165938910Y-102125214D01*
X165899500Y-102374038D01*
X114100500Y-102374038D01*
X114061090Y-102125215D01*
X113983241Y-101885621D01*
X113983239Y-101885618D01*
X113983239Y-101885616D01*
X113941747Y-101804184D01*
X113868870Y-101661155D01*
X113849952Y-101635117D01*
X113720798Y-101457350D01*
X113720794Y-101457345D01*
X113542654Y-101279205D01*
X113542649Y-101279201D01*
X113338848Y-101131132D01*
X113338847Y-101131131D01*
X113338845Y-101131130D01*
X113268747Y-101095413D01*
X113114383Y-101016760D01*
X112874785Y-100938910D01*
X112625962Y-100899500D01*
X112374038Y-100899500D01*
X112249626Y-100919205D01*
X112125214Y-100938910D01*
X111885616Y-101016760D01*
X111661151Y-101131132D01*
X111457350Y-101279201D01*
X111457345Y-101279205D01*
X111279205Y-101457345D01*
X111279201Y-101457350D01*
X111131132Y-101661151D01*
X111016760Y-101885616D01*
X110938910Y-102125214D01*
X110899500Y-102374038D01*
X106000000Y-102374038D01*
X106000000Y-92389778D01*
X166599500Y-92389778D01*
X166599500Y-92610221D01*
X166633985Y-92827952D01*
X166702103Y-93037603D01*
X166702104Y-93037606D01*
X166802187Y-93234025D01*
X166931752Y-93412358D01*
X166931756Y-93412363D01*
X167087636Y-93568243D01*
X167087641Y-93568247D01*
X167243192Y-93681260D01*
X167265978Y-93697815D01*
X167394375Y-93763237D01*
X167462393Y-93797895D01*
X167462396Y-93797896D01*
X167567221Y-93831955D01*
X167672049Y-93866015D01*
X167889778Y-93900500D01*
X167889779Y-93900500D01*
X168110221Y-93900500D01*
X168110222Y-93900500D01*
X168327951Y-93866015D01*
X168537606Y-93797895D01*
X168734022Y-93697815D01*
X168912365Y-93568242D01*
X169068242Y-93412365D01*
X169197815Y-93234022D01*
X169297895Y-93037606D01*
X169366015Y-92827951D01*
X169400500Y-92610222D01*
X169400500Y-92389778D01*
X169366015Y-92172049D01*
X169297895Y-91962394D01*
X169297895Y-91962393D01*
X169263237Y-91894375D01*
X169197815Y-91765978D01*
X169181260Y-91743192D01*
X169068247Y-91587641D01*
X169068243Y-91587636D01*
X168912363Y-91431756D01*
X168912358Y-91431752D01*
X168734025Y-91302187D01*
X168734024Y-91302186D01*
X168734022Y-91302185D01*
X168671096Y-91270122D01*
X168537606Y-91202104D01*
X168537603Y-91202103D01*
X168327952Y-91133985D01*
X168219086Y-91116742D01*
X168110222Y-91099500D01*
X167889778Y-91099500D01*
X167817201Y-91110995D01*
X167672047Y-91133985D01*
X167462396Y-91202103D01*
X167462393Y-91202104D01*
X167265974Y-91302187D01*
X167087641Y-91431752D01*
X167087636Y-91431756D01*
X166931756Y-91587636D01*
X166931752Y-91587641D01*
X166802187Y-91765974D01*
X166702104Y-91962393D01*
X166702103Y-91962396D01*
X166633985Y-92172047D01*
X166599500Y-92389778D01*
X106000000Y-92389778D01*
X106000000Y-88867813D01*
X106479500Y-88867813D01*
X106479500Y-89080386D01*
X106512753Y-89290339D01*
X106578444Y-89492514D01*
X106674951Y-89681920D01*
X106799890Y-89853886D01*
X106950213Y-90004209D01*
X107122179Y-90129148D01*
X107122181Y-90129149D01*
X107122184Y-90129151D01*
X107311588Y-90225657D01*
X107513757Y-90291346D01*
X107723713Y-90324600D01*
X107723714Y-90324600D01*
X107936286Y-90324600D01*
X107936287Y-90324600D01*
X108146243Y-90291346D01*
X108348412Y-90225657D01*
X108537816Y-90129151D01*
X108559789Y-90113186D01*
X108709786Y-90004209D01*
X108709788Y-90004206D01*
X108709792Y-90004204D01*
X108860104Y-89853892D01*
X108860106Y-89853888D01*
X108860109Y-89853886D01*
X108985048Y-89681920D01*
X108985047Y-89681920D01*
X108985051Y-89681916D01*
X108989514Y-89673154D01*
X109037488Y-89622359D01*
X109105308Y-89605563D01*
X109171444Y-89628099D01*
X109210486Y-89673156D01*
X109214951Y-89681920D01*
X109339890Y-89853886D01*
X109490213Y-90004209D01*
X109662179Y-90129148D01*
X109662181Y-90129149D01*
X109662184Y-90129151D01*
X109851588Y-90225657D01*
X110053757Y-90291346D01*
X110263713Y-90324600D01*
X110263714Y-90324600D01*
X110476286Y-90324600D01*
X110476287Y-90324600D01*
X110686243Y-90291346D01*
X110888412Y-90225657D01*
X111077816Y-90129151D01*
X111099789Y-90113186D01*
X111249786Y-90004209D01*
X111249788Y-90004206D01*
X111249792Y-90004204D01*
X111400104Y-89853892D01*
X111400106Y-89853888D01*
X111400109Y-89853886D01*
X111525048Y-89681920D01*
X111525047Y-89681920D01*
X111525051Y-89681916D01*
X111621557Y-89492512D01*
X111687246Y-89290343D01*
X111720500Y-89080387D01*
X111720500Y-88867813D01*
X114099500Y-88867813D01*
X114099500Y-89080386D01*
X114132753Y-89290339D01*
X114198444Y-89492514D01*
X114294951Y-89681920D01*
X114419890Y-89853886D01*
X114570213Y-90004209D01*
X114742179Y-90129148D01*
X114742181Y-90129149D01*
X114742184Y-90129151D01*
X114931588Y-90225657D01*
X115133757Y-90291346D01*
X115343713Y-90324600D01*
X115343714Y-90324600D01*
X115556286Y-90324600D01*
X115556287Y-90324600D01*
X115766243Y-90291346D01*
X115968412Y-90225657D01*
X116157816Y-90129151D01*
X116179789Y-90113186D01*
X116329786Y-90004209D01*
X116329788Y-90004206D01*
X116329792Y-90004204D01*
X116480104Y-89853892D01*
X116480106Y-89853888D01*
X116480109Y-89853886D01*
X116605048Y-89681920D01*
X116605047Y-89681920D01*
X116605051Y-89681916D01*
X116609514Y-89673154D01*
X116657488Y-89622359D01*
X116725308Y-89605563D01*
X116791444Y-89628099D01*
X116830486Y-89673156D01*
X116834951Y-89681920D01*
X116959890Y-89853886D01*
X117110213Y-90004209D01*
X117282179Y-90129148D01*
X117282181Y-90129149D01*
X117282184Y-90129151D01*
X117471588Y-90225657D01*
X117673757Y-90291346D01*
X117883713Y-90324600D01*
X117883714Y-90324600D01*
X118096286Y-90324600D01*
X118096287Y-90324600D01*
X118306243Y-90291346D01*
X118508412Y-90225657D01*
X118697816Y-90129151D01*
X118719789Y-90113186D01*
X118869786Y-90004209D01*
X118869788Y-90004206D01*
X118869792Y-90004204D01*
X119020104Y-89853892D01*
X119020106Y-89853888D01*
X119020109Y-89853886D01*
X119145048Y-89681920D01*
X119145047Y-89681920D01*
X119145051Y-89681916D01*
X119149514Y-89673154D01*
X119197488Y-89622359D01*
X119265308Y-89605563D01*
X119331444Y-89628099D01*
X119370486Y-89673156D01*
X119374951Y-89681920D01*
X119499890Y-89853886D01*
X119650213Y-90004209D01*
X119822179Y-90129148D01*
X119822181Y-90129149D01*
X119822184Y-90129151D01*
X120011588Y-90225657D01*
X120213757Y-90291346D01*
X120423713Y-90324600D01*
X120423714Y-90324600D01*
X120636286Y-90324600D01*
X120636287Y-90324600D01*
X120846243Y-90291346D01*
X121048412Y-90225657D01*
X121237816Y-90129151D01*
X121259789Y-90113186D01*
X121409786Y-90004209D01*
X121409788Y-90004206D01*
X121409792Y-90004204D01*
X121560104Y-89853892D01*
X121560106Y-89853888D01*
X121560109Y-89853886D01*
X121685048Y-89681920D01*
X121685047Y-89681920D01*
X121685051Y-89681916D01*
X121689514Y-89673154D01*
X121737488Y-89622359D01*
X121805308Y-89605563D01*
X121871444Y-89628099D01*
X121910486Y-89673156D01*
X121914951Y-89681920D01*
X122039890Y-89853886D01*
X122190213Y-90004209D01*
X122362179Y-90129148D01*
X122362181Y-90129149D01*
X122362184Y-90129151D01*
X122551588Y-90225657D01*
X122753757Y-90291346D01*
X122963713Y-90324600D01*
X122963714Y-90324600D01*
X123176286Y-90324600D01*
X123176287Y-90324600D01*
X123386243Y-90291346D01*
X123588412Y-90225657D01*
X123777816Y-90129151D01*
X123799789Y-90113186D01*
X123949786Y-90004209D01*
X123949788Y-90004206D01*
X123949792Y-90004204D01*
X124100104Y-89853892D01*
X124100106Y-89853888D01*
X124100109Y-89853886D01*
X124225048Y-89681920D01*
X124225047Y-89681920D01*
X124225051Y-89681916D01*
X124321557Y-89492512D01*
X124387246Y-89290343D01*
X124420500Y-89080387D01*
X124420500Y-88867813D01*
X126799500Y-88867813D01*
X126799500Y-89080386D01*
X126832753Y-89290339D01*
X126898444Y-89492514D01*
X126994951Y-89681920D01*
X127119890Y-89853886D01*
X127270213Y-90004209D01*
X127442179Y-90129148D01*
X127442181Y-90129149D01*
X127442184Y-90129151D01*
X127631588Y-90225657D01*
X127833757Y-90291346D01*
X128043713Y-90324600D01*
X128043714Y-90324600D01*
X128256286Y-90324600D01*
X128256287Y-90324600D01*
X128466243Y-90291346D01*
X128668412Y-90225657D01*
X128857816Y-90129151D01*
X128879789Y-90113186D01*
X129029786Y-90004209D01*
X129029788Y-90004206D01*
X129029792Y-90004204D01*
X129180104Y-89853892D01*
X129180106Y-89853888D01*
X129180109Y-89853886D01*
X129305048Y-89681920D01*
X129305047Y-89681920D01*
X129305051Y-89681916D01*
X129309514Y-89673154D01*
X129357488Y-89622359D01*
X129425308Y-89605563D01*
X129491444Y-89628099D01*
X129530486Y-89673156D01*
X129534951Y-89681920D01*
X129659890Y-89853886D01*
X129810213Y-90004209D01*
X129982179Y-90129148D01*
X129982181Y-90129149D01*
X129982184Y-90129151D01*
X130171588Y-90225657D01*
X130373757Y-90291346D01*
X130583713Y-90324600D01*
X130583714Y-90324600D01*
X130796286Y-90324600D01*
X130796287Y-90324600D01*
X131006243Y-90291346D01*
X131208412Y-90225657D01*
X131397816Y-90129151D01*
X131419789Y-90113186D01*
X131569786Y-90004209D01*
X131569788Y-90004206D01*
X131569792Y-90004204D01*
X131720104Y-89853892D01*
X131720106Y-89853888D01*
X131720109Y-89853886D01*
X131845048Y-89681920D01*
X131845047Y-89681920D01*
X131845051Y-89681916D01*
X131849514Y-89673154D01*
X131897488Y-89622359D01*
X131965308Y-89605563D01*
X132031444Y-89628099D01*
X132070486Y-89673156D01*
X132074951Y-89681920D01*
X132199890Y-89853886D01*
X132350213Y-90004209D01*
X132522179Y-90129148D01*
X132522181Y-90129149D01*
X132522184Y-90129151D01*
X132711588Y-90225657D01*
X132913757Y-90291346D01*
X133123713Y-90324600D01*
X133123714Y-90324600D01*
X133336286Y-90324600D01*
X133336287Y-90324600D01*
X133546243Y-90291346D01*
X133748412Y-90225657D01*
X133937816Y-90129151D01*
X133959789Y-90113186D01*
X134109786Y-90004209D01*
X134109788Y-90004206D01*
X134109792Y-90004204D01*
X134260104Y-89853892D01*
X134260106Y-89853888D01*
X134260109Y-89853886D01*
X134385048Y-89681920D01*
X134385047Y-89681920D01*
X134385051Y-89681916D01*
X134389514Y-89673154D01*
X134437488Y-89622359D01*
X134505308Y-89605563D01*
X134571444Y-89628099D01*
X134610486Y-89673156D01*
X134614951Y-89681920D01*
X134739890Y-89853886D01*
X134890213Y-90004209D01*
X135062179Y-90129148D01*
X135062181Y-90129149D01*
X135062184Y-90129151D01*
X135251588Y-90225657D01*
X135453757Y-90291346D01*
X135663713Y-90324600D01*
X135663714Y-90324600D01*
X135876286Y-90324600D01*
X135876287Y-90324600D01*
X136086243Y-90291346D01*
X136288412Y-90225657D01*
X136477816Y-90129151D01*
X136499789Y-90113186D01*
X136649786Y-90004209D01*
X136649788Y-90004206D01*
X136649792Y-90004204D01*
X136800104Y-89853892D01*
X136800106Y-89853888D01*
X136800109Y-89853886D01*
X136925048Y-89681920D01*
X136925047Y-89681920D01*
X136925051Y-89681916D01*
X137021557Y-89492512D01*
X137087246Y-89290343D01*
X137120500Y-89080387D01*
X137120500Y-88867813D01*
X139499500Y-88867813D01*
X139499500Y-89080386D01*
X139532753Y-89290339D01*
X139598444Y-89492514D01*
X139694951Y-89681920D01*
X139819890Y-89853886D01*
X139970213Y-90004209D01*
X140142179Y-90129148D01*
X140142181Y-90129149D01*
X140142184Y-90129151D01*
X140331588Y-90225657D01*
X140533757Y-90291346D01*
X140743713Y-90324600D01*
X140743714Y-90324600D01*
X140956286Y-90324600D01*
X140956287Y-90324600D01*
X141166243Y-90291346D01*
X141368412Y-90225657D01*
X141557816Y-90129151D01*
X141579789Y-90113186D01*
X141729786Y-90004209D01*
X141729788Y-90004206D01*
X141729792Y-90004204D01*
X141880104Y-89853892D01*
X141880106Y-89853888D01*
X141880109Y-89853886D01*
X142005048Y-89681920D01*
X142005047Y-89681920D01*
X142005051Y-89681916D01*
X142009514Y-89673154D01*
X142057488Y-89622359D01*
X142125308Y-89605563D01*
X142191444Y-89628099D01*
X142230486Y-89673156D01*
X142234951Y-89681920D01*
X142359890Y-89853886D01*
X142510213Y-90004209D01*
X142682179Y-90129148D01*
X142682181Y-90129149D01*
X142682184Y-90129151D01*
X142871588Y-90225657D01*
X143073757Y-90291346D01*
X143283713Y-90324600D01*
X143283714Y-90324600D01*
X143496286Y-90324600D01*
X143496287Y-90324600D01*
X143706243Y-90291346D01*
X143908412Y-90225657D01*
X144097816Y-90129151D01*
X144119789Y-90113186D01*
X144269786Y-90004209D01*
X144269788Y-90004206D01*
X144269792Y-90004204D01*
X144420104Y-89853892D01*
X144420106Y-89853888D01*
X144420109Y-89853886D01*
X144545048Y-89681920D01*
X144545047Y-89681920D01*
X144545051Y-89681916D01*
X144549514Y-89673154D01*
X144597488Y-89622359D01*
X144665308Y-89605563D01*
X144731444Y-89628099D01*
X144770486Y-89673156D01*
X144774951Y-89681920D01*
X144899890Y-89853886D01*
X145050213Y-90004209D01*
X145222179Y-90129148D01*
X145222181Y-90129149D01*
X145222184Y-90129151D01*
X145411588Y-90225657D01*
X145613757Y-90291346D01*
X145823713Y-90324600D01*
X145823714Y-90324600D01*
X146036286Y-90324600D01*
X146036287Y-90324600D01*
X146246243Y-90291346D01*
X146448412Y-90225657D01*
X146637816Y-90129151D01*
X146659789Y-90113186D01*
X146809786Y-90004209D01*
X146809788Y-90004206D01*
X146809792Y-90004204D01*
X146960104Y-89853892D01*
X146960106Y-89853888D01*
X146960109Y-89853886D01*
X147085048Y-89681920D01*
X147085047Y-89681920D01*
X147085051Y-89681916D01*
X147089514Y-89673154D01*
X147137488Y-89622359D01*
X147205308Y-89605563D01*
X147271444Y-89628099D01*
X147310486Y-89673156D01*
X147314951Y-89681920D01*
X147439890Y-89853886D01*
X147590213Y-90004209D01*
X147762179Y-90129148D01*
X147762181Y-90129149D01*
X147762184Y-90129151D01*
X147951588Y-90225657D01*
X148153757Y-90291346D01*
X148363713Y-90324600D01*
X148363714Y-90324600D01*
X148576286Y-90324600D01*
X148576287Y-90324600D01*
X148786243Y-90291346D01*
X148988412Y-90225657D01*
X149177816Y-90129151D01*
X149199789Y-90113186D01*
X149349786Y-90004209D01*
X149349788Y-90004206D01*
X149349792Y-90004204D01*
X149500104Y-89853892D01*
X149500106Y-89853888D01*
X149500109Y-89853886D01*
X149625048Y-89681920D01*
X149625047Y-89681920D01*
X149625051Y-89681916D01*
X149721557Y-89492512D01*
X149787246Y-89290343D01*
X149820500Y-89080387D01*
X149820500Y-88867813D01*
X152199500Y-88867813D01*
X152199500Y-89080386D01*
X152232753Y-89290339D01*
X152298444Y-89492514D01*
X152394951Y-89681920D01*
X152519890Y-89853886D01*
X152670213Y-90004209D01*
X152842179Y-90129148D01*
X152842181Y-90129149D01*
X152842184Y-90129151D01*
X153031588Y-90225657D01*
X153233757Y-90291346D01*
X153443713Y-90324600D01*
X153443714Y-90324600D01*
X153656286Y-90324600D01*
X153656287Y-90324600D01*
X153866243Y-90291346D01*
X154068412Y-90225657D01*
X154257816Y-90129151D01*
X154279789Y-90113186D01*
X154429786Y-90004209D01*
X154429788Y-90004206D01*
X154429792Y-90004204D01*
X154580104Y-89853892D01*
X154580106Y-89853888D01*
X154580109Y-89853886D01*
X154705048Y-89681920D01*
X154705047Y-89681920D01*
X154705051Y-89681916D01*
X154709514Y-89673154D01*
X154757488Y-89622359D01*
X154825308Y-89605563D01*
X154891444Y-89628099D01*
X154930486Y-89673156D01*
X154934951Y-89681920D01*
X155059890Y-89853886D01*
X155210213Y-90004209D01*
X155382179Y-90129148D01*
X155382181Y-90129149D01*
X155382184Y-90129151D01*
X155571588Y-90225657D01*
X155773757Y-90291346D01*
X155983713Y-90324600D01*
X155983714Y-90324600D01*
X156196286Y-90324600D01*
X156196287Y-90324600D01*
X156406243Y-90291346D01*
X156608412Y-90225657D01*
X156797816Y-90129151D01*
X156819789Y-90113186D01*
X156969786Y-90004209D01*
X156969788Y-90004206D01*
X156969792Y-90004204D01*
X157120104Y-89853892D01*
X157120106Y-89853888D01*
X157120109Y-89853886D01*
X157245048Y-89681920D01*
X157245047Y-89681920D01*
X157245051Y-89681916D01*
X157341557Y-89492512D01*
X157407246Y-89290343D01*
X157440500Y-89080387D01*
X157440500Y-88867813D01*
X157407246Y-88657857D01*
X157341557Y-88455688D01*
X157245051Y-88266284D01*
X157245049Y-88266281D01*
X157245048Y-88266279D01*
X157120109Y-88094313D01*
X156969786Y-87943990D01*
X156797820Y-87819051D01*
X156608414Y-87722544D01*
X156608413Y-87722543D01*
X156608412Y-87722543D01*
X156406243Y-87656854D01*
X156406241Y-87656853D01*
X156406240Y-87656853D01*
X156244957Y-87631308D01*
X156196287Y-87623600D01*
X155983713Y-87623600D01*
X155935042Y-87631308D01*
X155773760Y-87656853D01*
X155571585Y-87722544D01*
X155382179Y-87819051D01*
X155210213Y-87943990D01*
X155059890Y-88094313D01*
X154934949Y-88266282D01*
X154930484Y-88275046D01*
X154882509Y-88325842D01*
X154814688Y-88342636D01*
X154748553Y-88320098D01*
X154709516Y-88275046D01*
X154705050Y-88266282D01*
X154580109Y-88094313D01*
X154429786Y-87943990D01*
X154257820Y-87819051D01*
X154068414Y-87722544D01*
X154068413Y-87722543D01*
X154068412Y-87722543D01*
X153866243Y-87656854D01*
X153866241Y-87656853D01*
X153866240Y-87656853D01*
X153704957Y-87631308D01*
X153656287Y-87623600D01*
X153443713Y-87623600D01*
X153395042Y-87631308D01*
X153233760Y-87656853D01*
X153031585Y-87722544D01*
X152842179Y-87819051D01*
X152670213Y-87943990D01*
X152519890Y-88094313D01*
X152394951Y-88266279D01*
X152298444Y-88455685D01*
X152232753Y-88657860D01*
X152199500Y-88867813D01*
X149820500Y-88867813D01*
X149787246Y-88657857D01*
X149721557Y-88455688D01*
X149625051Y-88266284D01*
X149625049Y-88266281D01*
X149625048Y-88266279D01*
X149500109Y-88094313D01*
X149349786Y-87943990D01*
X149177820Y-87819051D01*
X148988414Y-87722544D01*
X148988413Y-87722543D01*
X148988412Y-87722543D01*
X148786243Y-87656854D01*
X148786241Y-87656853D01*
X148786240Y-87656853D01*
X148624957Y-87631308D01*
X148576287Y-87623600D01*
X148363713Y-87623600D01*
X148315042Y-87631308D01*
X148153760Y-87656853D01*
X147951585Y-87722544D01*
X147762179Y-87819051D01*
X147590213Y-87943990D01*
X147439890Y-88094313D01*
X147314949Y-88266282D01*
X147310484Y-88275046D01*
X147262509Y-88325842D01*
X147194688Y-88342636D01*
X147128553Y-88320098D01*
X147089516Y-88275046D01*
X147085050Y-88266282D01*
X146960109Y-88094313D01*
X146809786Y-87943990D01*
X146637820Y-87819051D01*
X146448414Y-87722544D01*
X146448413Y-87722543D01*
X146448412Y-87722543D01*
X146246243Y-87656854D01*
X146246241Y-87656853D01*
X146246240Y-87656853D01*
X146084957Y-87631308D01*
X146036287Y-87623600D01*
X145823713Y-87623600D01*
X145775042Y-87631308D01*
X145613760Y-87656853D01*
X145411585Y-87722544D01*
X145222179Y-87819051D01*
X145050213Y-87943990D01*
X144899890Y-88094313D01*
X144774949Y-88266282D01*
X144770484Y-88275046D01*
X144722509Y-88325842D01*
X144654688Y-88342636D01*
X144588553Y-88320098D01*
X144549516Y-88275046D01*
X144545050Y-88266282D01*
X144420109Y-88094313D01*
X144269786Y-87943990D01*
X144097820Y-87819051D01*
X143908414Y-87722544D01*
X143908413Y-87722543D01*
X143908412Y-87722543D01*
X143706243Y-87656854D01*
X143706241Y-87656853D01*
X143706240Y-87656853D01*
X143544957Y-87631308D01*
X143496287Y-87623600D01*
X143283713Y-87623600D01*
X143235042Y-87631308D01*
X143073760Y-87656853D01*
X142871585Y-87722544D01*
X142682179Y-87819051D01*
X142510213Y-87943990D01*
X142359890Y-88094313D01*
X142234949Y-88266282D01*
X142230484Y-88275046D01*
X142182509Y-88325842D01*
X142114688Y-88342636D01*
X142048553Y-88320098D01*
X142009516Y-88275046D01*
X142005050Y-88266282D01*
X141880109Y-88094313D01*
X141729786Y-87943990D01*
X141557820Y-87819051D01*
X141368414Y-87722544D01*
X141368413Y-87722543D01*
X141368412Y-87722543D01*
X141166243Y-87656854D01*
X141166241Y-87656853D01*
X141166240Y-87656853D01*
X141004957Y-87631308D01*
X140956287Y-87623600D01*
X140743713Y-87623600D01*
X140695042Y-87631308D01*
X140533760Y-87656853D01*
X140331585Y-87722544D01*
X140142179Y-87819051D01*
X139970213Y-87943990D01*
X139819890Y-88094313D01*
X139694951Y-88266279D01*
X139598444Y-88455685D01*
X139532753Y-88657860D01*
X139499500Y-88867813D01*
X137120500Y-88867813D01*
X137087246Y-88657857D01*
X137021557Y-88455688D01*
X136925051Y-88266284D01*
X136925049Y-88266281D01*
X136925048Y-88266279D01*
X136800109Y-88094313D01*
X136649786Y-87943990D01*
X136477820Y-87819051D01*
X136288414Y-87722544D01*
X136288413Y-87722543D01*
X136288412Y-87722543D01*
X136086243Y-87656854D01*
X136086241Y-87656853D01*
X136086240Y-87656853D01*
X135924957Y-87631308D01*
X135876287Y-87623600D01*
X135663713Y-87623600D01*
X135615042Y-87631308D01*
X135453760Y-87656853D01*
X135251585Y-87722544D01*
X135062179Y-87819051D01*
X134890213Y-87943990D01*
X134739890Y-88094313D01*
X134614949Y-88266282D01*
X134610484Y-88275046D01*
X134562509Y-88325842D01*
X134494688Y-88342636D01*
X134428553Y-88320098D01*
X134389516Y-88275046D01*
X134385050Y-88266282D01*
X134260109Y-88094313D01*
X134109786Y-87943990D01*
X133937820Y-87819051D01*
X133748414Y-87722544D01*
X133748413Y-87722543D01*
X133748412Y-87722543D01*
X133546243Y-87656854D01*
X133546241Y-87656853D01*
X133546240Y-87656853D01*
X133384957Y-87631308D01*
X133336287Y-87623600D01*
X133123713Y-87623600D01*
X133075042Y-87631308D01*
X132913760Y-87656853D01*
X132711585Y-87722544D01*
X132522179Y-87819051D01*
X132350213Y-87943990D01*
X132199890Y-88094313D01*
X132074949Y-88266282D01*
X132070484Y-88275046D01*
X132022509Y-88325842D01*
X131954688Y-88342636D01*
X131888553Y-88320098D01*
X131849516Y-88275046D01*
X131845050Y-88266282D01*
X131720109Y-88094313D01*
X131569786Y-87943990D01*
X131397820Y-87819051D01*
X131208414Y-87722544D01*
X131208413Y-87722543D01*
X131208412Y-87722543D01*
X131006243Y-87656854D01*
X131006241Y-87656853D01*
X131006240Y-87656853D01*
X130844957Y-87631308D01*
X130796287Y-87623600D01*
X130583713Y-87623600D01*
X130535042Y-87631308D01*
X130373760Y-87656853D01*
X130171585Y-87722544D01*
X129982179Y-87819051D01*
X129810213Y-87943990D01*
X129659890Y-88094313D01*
X129534949Y-88266282D01*
X129530484Y-88275046D01*
X129482509Y-88325842D01*
X129414688Y-88342636D01*
X129348553Y-88320098D01*
X129309516Y-88275046D01*
X129305050Y-88266282D01*
X129180109Y-88094313D01*
X129029786Y-87943990D01*
X128857820Y-87819051D01*
X128668414Y-87722544D01*
X128668413Y-87722543D01*
X128668412Y-87722543D01*
X128466243Y-87656854D01*
X128466241Y-87656853D01*
X128466240Y-87656853D01*
X128304957Y-87631308D01*
X128256287Y-87623600D01*
X128043713Y-87623600D01*
X127995042Y-87631308D01*
X127833760Y-87656853D01*
X127631585Y-87722544D01*
X127442179Y-87819051D01*
X127270213Y-87943990D01*
X127119890Y-88094313D01*
X126994951Y-88266279D01*
X126898444Y-88455685D01*
X126832753Y-88657860D01*
X126799500Y-88867813D01*
X124420500Y-88867813D01*
X124387246Y-88657857D01*
X124321557Y-88455688D01*
X124225051Y-88266284D01*
X124225049Y-88266281D01*
X124225048Y-88266279D01*
X124100109Y-88094313D01*
X123949786Y-87943990D01*
X123777820Y-87819051D01*
X123588414Y-87722544D01*
X123588413Y-87722543D01*
X123588412Y-87722543D01*
X123386243Y-87656854D01*
X123386241Y-87656853D01*
X123386240Y-87656853D01*
X123224957Y-87631308D01*
X123176287Y-87623600D01*
X122963713Y-87623600D01*
X122915042Y-87631308D01*
X122753760Y-87656853D01*
X122551585Y-87722544D01*
X122362179Y-87819051D01*
X122190213Y-87943990D01*
X122039890Y-88094313D01*
X121914949Y-88266282D01*
X121910484Y-88275046D01*
X121862509Y-88325842D01*
X121794688Y-88342636D01*
X121728553Y-88320098D01*
X121689516Y-88275046D01*
X121685050Y-88266282D01*
X121560109Y-88094313D01*
X121409786Y-87943990D01*
X121237820Y-87819051D01*
X121048414Y-87722544D01*
X121048413Y-87722543D01*
X121048412Y-87722543D01*
X120846243Y-87656854D01*
X120846241Y-87656853D01*
X120846240Y-87656853D01*
X120684957Y-87631308D01*
X120636287Y-87623600D01*
X120423713Y-87623600D01*
X120375042Y-87631308D01*
X120213760Y-87656853D01*
X120011585Y-87722544D01*
X119822179Y-87819051D01*
X119650213Y-87943990D01*
X119499890Y-88094313D01*
X119374949Y-88266282D01*
X119370484Y-88275046D01*
X119322509Y-88325842D01*
X119254688Y-88342636D01*
X119188553Y-88320098D01*
X119149516Y-88275046D01*
X119145050Y-88266282D01*
X119020109Y-88094313D01*
X118869786Y-87943990D01*
X118697820Y-87819051D01*
X118508414Y-87722544D01*
X118508413Y-87722543D01*
X118508412Y-87722543D01*
X118306243Y-87656854D01*
X118306241Y-87656853D01*
X118306240Y-87656853D01*
X118144957Y-87631308D01*
X118096287Y-87623600D01*
X117883713Y-87623600D01*
X117835042Y-87631308D01*
X117673760Y-87656853D01*
X117471585Y-87722544D01*
X117282179Y-87819051D01*
X117110213Y-87943990D01*
X116959890Y-88094313D01*
X116834949Y-88266282D01*
X116830484Y-88275046D01*
X116782509Y-88325842D01*
X116714688Y-88342636D01*
X116648553Y-88320098D01*
X116609516Y-88275046D01*
X116605050Y-88266282D01*
X116480109Y-88094313D01*
X116329786Y-87943990D01*
X116157820Y-87819051D01*
X115968414Y-87722544D01*
X115968413Y-87722543D01*
X115968412Y-87722543D01*
X115766243Y-87656854D01*
X115766241Y-87656853D01*
X115766240Y-87656853D01*
X115604957Y-87631308D01*
X115556287Y-87623600D01*
X115343713Y-87623600D01*
X115295042Y-87631308D01*
X115133760Y-87656853D01*
X114931585Y-87722544D01*
X114742179Y-87819051D01*
X114570213Y-87943990D01*
X114419890Y-88094313D01*
X114294951Y-88266279D01*
X114198444Y-88455685D01*
X114132753Y-88657860D01*
X114099500Y-88867813D01*
X111720500Y-88867813D01*
X111687246Y-88657857D01*
X111621557Y-88455688D01*
X111525051Y-88266284D01*
X111525049Y-88266281D01*
X111525048Y-88266279D01*
X111400109Y-88094313D01*
X111249786Y-87943990D01*
X111077820Y-87819051D01*
X110888414Y-87722544D01*
X110888413Y-87722543D01*
X110888412Y-87722543D01*
X110686243Y-87656854D01*
X110686241Y-87656853D01*
X110686240Y-87656853D01*
X110524957Y-87631308D01*
X110476287Y-87623600D01*
X110263713Y-87623600D01*
X110215042Y-87631308D01*
X110053760Y-87656853D01*
X109851585Y-87722544D01*
X109662179Y-87819051D01*
X109490213Y-87943990D01*
X109339890Y-88094313D01*
X109214949Y-88266282D01*
X109210484Y-88275046D01*
X109162509Y-88325842D01*
X109094688Y-88342636D01*
X109028553Y-88320098D01*
X108989516Y-88275046D01*
X108985050Y-88266282D01*
X108860109Y-88094313D01*
X108709786Y-87943990D01*
X108537820Y-87819051D01*
X108348414Y-87722544D01*
X108348413Y-87722543D01*
X108348412Y-87722543D01*
X108146243Y-87656854D01*
X108146241Y-87656853D01*
X108146240Y-87656853D01*
X107984957Y-87631308D01*
X107936287Y-87623600D01*
X107723713Y-87623600D01*
X107675042Y-87631308D01*
X107513760Y-87656853D01*
X107311585Y-87722544D01*
X107122179Y-87819051D01*
X106950213Y-87943990D01*
X106799890Y-88094313D01*
X106674951Y-88266279D01*
X106578444Y-88455685D01*
X106512753Y-88657860D01*
X106479500Y-88867813D01*
X106000000Y-88867813D01*
X106000000Y-82698878D01*
X106559500Y-82698878D01*
X106559500Y-82919321D01*
X106593985Y-83137052D01*
X106662103Y-83346703D01*
X106662104Y-83346706D01*
X106762187Y-83543125D01*
X106891752Y-83721458D01*
X106891756Y-83721463D01*
X107047636Y-83877343D01*
X107047641Y-83877347D01*
X107079509Y-83900500D01*
X107225978Y-84006915D01*
X107354375Y-84072337D01*
X107422393Y-84106995D01*
X107422396Y-84106996D01*
X107527221Y-84141055D01*
X107632049Y-84175115D01*
X107849778Y-84209600D01*
X107849779Y-84209600D01*
X108070221Y-84209600D01*
X108070222Y-84209600D01*
X108287951Y-84175115D01*
X108497606Y-84106995D01*
X108694022Y-84006915D01*
X108872365Y-83877342D01*
X109028242Y-83721465D01*
X109157815Y-83543122D01*
X109257895Y-83346706D01*
X109326015Y-83137051D01*
X109360500Y-82919322D01*
X109360500Y-82698878D01*
X109326015Y-82481149D01*
X109303118Y-82410677D01*
X109739500Y-82410677D01*
X109739500Y-82607522D01*
X109770290Y-82801926D01*
X109831117Y-82989129D01*
X109906488Y-83137052D01*
X109920476Y-83164505D01*
X110036172Y-83323746D01*
X110175354Y-83462928D01*
X110334595Y-83578624D01*
X110417455Y-83620843D01*
X110509970Y-83667982D01*
X110509972Y-83667982D01*
X110509975Y-83667984D01*
X110601776Y-83697812D01*
X110697173Y-83728809D01*
X110891578Y-83759600D01*
X110891583Y-83759600D01*
X111088422Y-83759600D01*
X111282826Y-83728809D01*
X111305428Y-83721465D01*
X111470025Y-83667984D01*
X111645405Y-83578624D01*
X111804646Y-83462928D01*
X111943828Y-83323746D01*
X112059524Y-83164505D01*
X112148884Y-82989125D01*
X112209709Y-82801926D01*
X112240072Y-82610222D01*
X112240500Y-82607522D01*
X112240500Y-82410677D01*
X112239490Y-82404299D01*
X112239490Y-82404298D01*
X112237190Y-82389778D01*
X166599500Y-82389778D01*
X166599500Y-82610221D01*
X166633985Y-82827952D01*
X166702103Y-83037603D01*
X166702104Y-83037606D01*
X166802187Y-83234025D01*
X166931752Y-83412358D01*
X166931756Y-83412363D01*
X167087636Y-83568243D01*
X167087641Y-83568247D01*
X167224916Y-83667982D01*
X167265978Y-83697815D01*
X167387237Y-83759600D01*
X167462393Y-83797895D01*
X167462396Y-83797896D01*
X167567221Y-83831955D01*
X167672049Y-83866015D01*
X167889778Y-83900500D01*
X167889779Y-83900500D01*
X168110221Y-83900500D01*
X168110222Y-83900500D01*
X168327951Y-83866015D01*
X168537606Y-83797895D01*
X168734022Y-83697815D01*
X168912365Y-83568242D01*
X169068242Y-83412365D01*
X169197815Y-83234022D01*
X169297895Y-83037606D01*
X169366015Y-82827951D01*
X169400500Y-82610222D01*
X169400500Y-82389778D01*
X169366015Y-82172049D01*
X169297895Y-81962394D01*
X169297895Y-81962393D01*
X169263237Y-81894375D01*
X169197815Y-81765978D01*
X169145848Y-81694451D01*
X169068247Y-81587641D01*
X169068243Y-81587636D01*
X168912363Y-81431756D01*
X168912358Y-81431752D01*
X168734025Y-81302187D01*
X168734024Y-81302186D01*
X168734022Y-81302185D01*
X168648483Y-81258600D01*
X168537606Y-81202104D01*
X168537603Y-81202103D01*
X168327952Y-81133985D01*
X168219086Y-81116742D01*
X168110222Y-81099500D01*
X167889778Y-81099500D01*
X167817201Y-81110995D01*
X167672047Y-81133985D01*
X167462396Y-81202103D01*
X167462393Y-81202104D01*
X167265974Y-81302187D01*
X167087641Y-81431752D01*
X167087636Y-81431756D01*
X166931756Y-81587636D01*
X166931752Y-81587641D01*
X166802187Y-81765974D01*
X166702104Y-81962393D01*
X166702103Y-81962396D01*
X166633985Y-82172047D01*
X166599500Y-82389778D01*
X112237190Y-82389778D01*
X112209709Y-82216273D01*
X112148882Y-82029070D01*
X112059523Y-81853694D01*
X111943828Y-81694454D01*
X111804646Y-81555272D01*
X111645405Y-81439576D01*
X111630057Y-81431756D01*
X111470029Y-81350217D01*
X111282826Y-81289390D01*
X111088422Y-81258600D01*
X111088417Y-81258600D01*
X110891583Y-81258600D01*
X110891578Y-81258600D01*
X110697173Y-81289390D01*
X110509970Y-81350217D01*
X110334594Y-81439576D01*
X110243741Y-81505585D01*
X110175354Y-81555272D01*
X110175352Y-81555274D01*
X110175351Y-81555274D01*
X110036174Y-81694451D01*
X110036174Y-81694452D01*
X110036172Y-81694454D01*
X109986485Y-81762841D01*
X109920476Y-81853694D01*
X109831117Y-82029070D01*
X109770290Y-82216273D01*
X109739500Y-82410677D01*
X109303118Y-82410677D01*
X109257896Y-82271496D01*
X109257895Y-82271493D01*
X109223237Y-82203475D01*
X109157815Y-82075078D01*
X109124392Y-82029075D01*
X109028247Y-81896741D01*
X109028243Y-81896736D01*
X108872363Y-81740856D01*
X108872358Y-81740852D01*
X108694025Y-81611287D01*
X108694024Y-81611286D01*
X108694022Y-81611285D01*
X108631096Y-81579222D01*
X108497606Y-81511204D01*
X108497603Y-81511203D01*
X108287952Y-81443085D01*
X108179086Y-81425842D01*
X108070222Y-81408600D01*
X107849778Y-81408600D01*
X107777201Y-81420095D01*
X107632047Y-81443085D01*
X107422396Y-81511203D01*
X107422393Y-81511204D01*
X107225974Y-81611287D01*
X107047641Y-81740852D01*
X107047636Y-81740856D01*
X106891756Y-81896736D01*
X106891752Y-81896741D01*
X106762187Y-82075074D01*
X106662104Y-82271493D01*
X106662103Y-82271496D01*
X106593985Y-82481147D01*
X106559500Y-82698878D01*
X106000000Y-82698878D01*
X106000000Y-79393713D01*
X136209500Y-79393713D01*
X136209500Y-79606286D01*
X136242753Y-79816239D01*
X136308444Y-80018414D01*
X136404951Y-80207820D01*
X136529890Y-80379786D01*
X136680213Y-80530109D01*
X136852179Y-80655048D01*
X136852181Y-80655049D01*
X136852184Y-80655051D01*
X137041588Y-80751557D01*
X137243757Y-80817246D01*
X137453713Y-80850500D01*
X137453714Y-80850500D01*
X137666286Y-80850500D01*
X137666287Y-80850500D01*
X137876243Y-80817246D01*
X138078412Y-80751557D01*
X138267816Y-80655051D01*
X138289789Y-80639086D01*
X138439786Y-80530109D01*
X138439788Y-80530106D01*
X138439792Y-80530104D01*
X138590104Y-80379792D01*
X138590106Y-80379788D01*
X138590109Y-80379786D01*
X138715048Y-80207820D01*
X138715047Y-80207820D01*
X138715051Y-80207816D01*
X138811557Y-80018412D01*
X138877246Y-79816243D01*
X138910500Y-79606287D01*
X138910500Y-79393713D01*
X138877246Y-79183757D01*
X138811557Y-78981588D01*
X138715051Y-78792184D01*
X138715049Y-78792181D01*
X138715048Y-78792179D01*
X138590109Y-78620213D01*
X138439786Y-78469890D01*
X138267820Y-78344951D01*
X138078414Y-78248444D01*
X138078413Y-78248443D01*
X138078412Y-78248443D01*
X137876243Y-78182754D01*
X137876241Y-78182753D01*
X137876240Y-78182753D01*
X137714957Y-78157208D01*
X137666287Y-78149500D01*
X137453713Y-78149500D01*
X137405042Y-78157208D01*
X137243760Y-78182753D01*
X137041585Y-78248444D01*
X136852179Y-78344951D01*
X136680213Y-78469890D01*
X136529890Y-78620213D01*
X136404951Y-78792179D01*
X136308444Y-78981585D01*
X136242753Y-79183760D01*
X136209500Y-79393713D01*
X106000000Y-79393713D01*
X106000000Y-77248878D01*
X106559500Y-77248878D01*
X106559500Y-77469321D01*
X106593985Y-77687052D01*
X106662103Y-77896703D01*
X106662104Y-77896706D01*
X106762187Y-78093125D01*
X106891752Y-78271458D01*
X106891756Y-78271463D01*
X107047636Y-78427343D01*
X107047641Y-78427347D01*
X107203192Y-78540360D01*
X107225978Y-78556915D01*
X107335903Y-78612925D01*
X107422393Y-78656995D01*
X107422396Y-78656996D01*
X107527221Y-78691055D01*
X107632049Y-78725115D01*
X107849778Y-78759600D01*
X107849779Y-78759600D01*
X108070221Y-78759600D01*
X108070222Y-78759600D01*
X108287951Y-78725115D01*
X108497606Y-78656995D01*
X108694022Y-78556915D01*
X108872365Y-78427342D01*
X109028242Y-78271465D01*
X109157815Y-78093122D01*
X109257895Y-77896706D01*
X109326015Y-77687051D01*
X109346031Y-77560677D01*
X109739500Y-77560677D01*
X109739500Y-77757522D01*
X109770290Y-77951926D01*
X109831117Y-78139129D01*
X109898545Y-78271463D01*
X109920476Y-78314505D01*
X110036172Y-78473746D01*
X110175354Y-78612928D01*
X110334595Y-78728624D01*
X110395389Y-78759600D01*
X110509970Y-78817982D01*
X110509972Y-78817982D01*
X110509975Y-78817984D01*
X110610317Y-78850587D01*
X110697173Y-78878809D01*
X110891578Y-78909600D01*
X110891583Y-78909600D01*
X111088422Y-78909600D01*
X111282826Y-78878809D01*
X111470025Y-78817984D01*
X111645405Y-78728624D01*
X111804646Y-78612928D01*
X111943828Y-78473746D01*
X112059524Y-78314505D01*
X112148884Y-78139125D01*
X112209709Y-77951926D01*
X112218455Y-77896706D01*
X112240500Y-77757522D01*
X112240500Y-77560677D01*
X112209709Y-77366273D01*
X112181487Y-77279417D01*
X112148884Y-77179075D01*
X112148882Y-77179072D01*
X112148882Y-77179070D01*
X112059523Y-77003694D01*
X111943828Y-76844454D01*
X111804646Y-76705272D01*
X111645405Y-76589576D01*
X111470029Y-76500217D01*
X111282826Y-76439390D01*
X111088422Y-76408600D01*
X111088417Y-76408600D01*
X110891583Y-76408600D01*
X110891578Y-76408600D01*
X110697173Y-76439390D01*
X110509970Y-76500217D01*
X110334594Y-76589576D01*
X110243741Y-76655585D01*
X110175354Y-76705272D01*
X110175352Y-76705274D01*
X110175351Y-76705274D01*
X110036174Y-76844451D01*
X110036174Y-76844452D01*
X110036172Y-76844454D01*
X109986485Y-76912841D01*
X109920476Y-77003694D01*
X109831117Y-77179070D01*
X109770290Y-77366273D01*
X109739500Y-77560677D01*
X109346031Y-77560677D01*
X109360500Y-77469322D01*
X109360500Y-77248878D01*
X109326015Y-77031149D01*
X109265355Y-76844454D01*
X109257896Y-76821496D01*
X109257895Y-76821493D01*
X109198676Y-76705272D01*
X109157815Y-76625078D01*
X109067098Y-76500216D01*
X109028247Y-76446741D01*
X109028243Y-76446736D01*
X108872363Y-76290856D01*
X108872358Y-76290852D01*
X108694025Y-76161287D01*
X108694024Y-76161286D01*
X108694022Y-76161285D01*
X108631096Y-76129222D01*
X108497606Y-76061204D01*
X108497603Y-76061203D01*
X108287952Y-75993085D01*
X108179086Y-75975842D01*
X108070222Y-75958600D01*
X107849778Y-75958600D01*
X107777201Y-75970095D01*
X107632047Y-75993085D01*
X107422396Y-76061203D01*
X107422393Y-76061204D01*
X107225974Y-76161287D01*
X107047641Y-76290852D01*
X107047636Y-76290856D01*
X106891756Y-76446736D01*
X106891752Y-76446741D01*
X106762187Y-76625074D01*
X106662104Y-76821493D01*
X106662103Y-76821496D01*
X106593985Y-77031147D01*
X106559500Y-77248878D01*
X106000000Y-77248878D01*
X106000000Y-74313713D01*
X136209500Y-74313713D01*
X136209500Y-74526286D01*
X136242753Y-74736239D01*
X136308444Y-74938414D01*
X136404951Y-75127820D01*
X136529890Y-75299786D01*
X136680213Y-75450109D01*
X136852179Y-75575048D01*
X136852181Y-75575049D01*
X136852184Y-75575051D01*
X137041588Y-75671557D01*
X137243757Y-75737246D01*
X137453713Y-75770500D01*
X137453714Y-75770500D01*
X137666286Y-75770500D01*
X137666287Y-75770500D01*
X137876243Y-75737246D01*
X138078412Y-75671557D01*
X138267816Y-75575051D01*
X138289789Y-75559086D01*
X138439786Y-75450109D01*
X138439788Y-75450106D01*
X138439792Y-75450104D01*
X138590104Y-75299792D01*
X138590106Y-75299788D01*
X138590109Y-75299786D01*
X138715048Y-75127820D01*
X138715047Y-75127820D01*
X138715051Y-75127816D01*
X138811557Y-74938412D01*
X138877246Y-74736243D01*
X138910500Y-74526287D01*
X138910500Y-74313713D01*
X138877246Y-74103757D01*
X138811557Y-73901588D01*
X138715051Y-73712184D01*
X138715049Y-73712181D01*
X138715048Y-73712179D01*
X138590109Y-73540213D01*
X138439786Y-73389890D01*
X138267820Y-73264951D01*
X138078414Y-73168444D01*
X138078413Y-73168443D01*
X138078412Y-73168443D01*
X137876243Y-73102754D01*
X137876241Y-73102753D01*
X137876240Y-73102753D01*
X137714957Y-73077208D01*
X137666287Y-73069500D01*
X137453713Y-73069500D01*
X137405042Y-73077208D01*
X137243760Y-73102753D01*
X137041585Y-73168444D01*
X136852179Y-73264951D01*
X136680213Y-73389890D01*
X136529890Y-73540213D01*
X136404951Y-73712179D01*
X136308444Y-73901585D01*
X136242753Y-74103760D01*
X136209500Y-74313713D01*
X106000000Y-74313713D01*
X106000000Y-71087813D01*
X106479500Y-71087813D01*
X106479500Y-71300386D01*
X106512753Y-71510339D01*
X106578444Y-71712514D01*
X106674951Y-71901920D01*
X106799890Y-72073886D01*
X106950213Y-72224209D01*
X107122179Y-72349148D01*
X107122181Y-72349149D01*
X107122184Y-72349151D01*
X107311588Y-72445657D01*
X107513757Y-72511346D01*
X107723713Y-72544600D01*
X107723714Y-72544600D01*
X107936286Y-72544600D01*
X107936287Y-72544600D01*
X108146243Y-72511346D01*
X108348412Y-72445657D01*
X108537816Y-72349151D01*
X108566996Y-72327951D01*
X108709786Y-72224209D01*
X108709788Y-72224206D01*
X108709792Y-72224204D01*
X108860104Y-72073892D01*
X108860106Y-72073888D01*
X108860109Y-72073886D01*
X108985048Y-71901920D01*
X108985049Y-71901919D01*
X108985051Y-71901916D01*
X108989514Y-71893154D01*
X109037488Y-71842359D01*
X109105308Y-71825563D01*
X109171444Y-71848099D01*
X109210486Y-71893156D01*
X109214951Y-71901920D01*
X109339890Y-72073886D01*
X109490213Y-72224209D01*
X109662179Y-72349148D01*
X109662181Y-72349149D01*
X109662184Y-72349151D01*
X109851588Y-72445657D01*
X110053757Y-72511346D01*
X110263713Y-72544600D01*
X110263714Y-72544600D01*
X110476286Y-72544600D01*
X110476287Y-72544600D01*
X110686243Y-72511346D01*
X110888412Y-72445657D01*
X111077816Y-72349151D01*
X111106996Y-72327951D01*
X111249786Y-72224209D01*
X111249788Y-72224206D01*
X111249792Y-72224204D01*
X111400104Y-72073892D01*
X111400106Y-72073888D01*
X111400109Y-72073886D01*
X111525048Y-71901920D01*
X111525049Y-71901919D01*
X111525051Y-71901916D01*
X111621557Y-71712512D01*
X111687246Y-71510343D01*
X111720500Y-71300387D01*
X111720500Y-71087813D01*
X114099500Y-71087813D01*
X114099500Y-71300386D01*
X114132753Y-71510339D01*
X114198444Y-71712514D01*
X114294951Y-71901920D01*
X114419890Y-72073886D01*
X114570213Y-72224209D01*
X114742179Y-72349148D01*
X114742181Y-72349149D01*
X114742184Y-72349151D01*
X114931588Y-72445657D01*
X115133757Y-72511346D01*
X115343713Y-72544600D01*
X115343714Y-72544600D01*
X115556286Y-72544600D01*
X115556287Y-72544600D01*
X115766243Y-72511346D01*
X115968412Y-72445657D01*
X116157816Y-72349151D01*
X116186996Y-72327951D01*
X116329786Y-72224209D01*
X116329788Y-72224206D01*
X116329792Y-72224204D01*
X116480104Y-72073892D01*
X116480106Y-72073888D01*
X116480109Y-72073886D01*
X116605048Y-71901920D01*
X116605049Y-71901919D01*
X116605051Y-71901916D01*
X116609514Y-71893154D01*
X116657488Y-71842359D01*
X116725308Y-71825563D01*
X116791444Y-71848099D01*
X116830486Y-71893156D01*
X116834951Y-71901920D01*
X116959890Y-72073886D01*
X117110213Y-72224209D01*
X117282179Y-72349148D01*
X117282181Y-72349149D01*
X117282184Y-72349151D01*
X117471588Y-72445657D01*
X117673757Y-72511346D01*
X117883713Y-72544600D01*
X117883714Y-72544600D01*
X118096286Y-72544600D01*
X118096287Y-72544600D01*
X118306243Y-72511346D01*
X118508412Y-72445657D01*
X118697816Y-72349151D01*
X118726996Y-72327951D01*
X118869786Y-72224209D01*
X118869788Y-72224206D01*
X118869792Y-72224204D01*
X119020104Y-72073892D01*
X119020106Y-72073888D01*
X119020109Y-72073886D01*
X119145048Y-71901920D01*
X119145049Y-71901919D01*
X119145051Y-71901916D01*
X119149514Y-71893154D01*
X119197488Y-71842359D01*
X119265308Y-71825563D01*
X119331444Y-71848099D01*
X119370486Y-71893156D01*
X119374951Y-71901920D01*
X119499890Y-72073886D01*
X119650213Y-72224209D01*
X119822179Y-72349148D01*
X119822181Y-72349149D01*
X119822184Y-72349151D01*
X120011588Y-72445657D01*
X120213757Y-72511346D01*
X120423713Y-72544600D01*
X120423714Y-72544600D01*
X120636286Y-72544600D01*
X120636287Y-72544600D01*
X120846243Y-72511346D01*
X121048412Y-72445657D01*
X121237816Y-72349151D01*
X121266996Y-72327951D01*
X121409786Y-72224209D01*
X121409788Y-72224206D01*
X121409792Y-72224204D01*
X121560104Y-72073892D01*
X121560106Y-72073888D01*
X121560109Y-72073886D01*
X121685048Y-71901920D01*
X121685049Y-71901919D01*
X121685051Y-71901916D01*
X121689514Y-71893154D01*
X121737488Y-71842359D01*
X121805308Y-71825563D01*
X121871444Y-71848099D01*
X121910486Y-71893156D01*
X121914951Y-71901920D01*
X122039890Y-72073886D01*
X122190213Y-72224209D01*
X122362179Y-72349148D01*
X122362181Y-72349149D01*
X122362184Y-72349151D01*
X122551588Y-72445657D01*
X122753757Y-72511346D01*
X122963713Y-72544600D01*
X122963714Y-72544600D01*
X123176286Y-72544600D01*
X123176287Y-72544600D01*
X123386243Y-72511346D01*
X123588412Y-72445657D01*
X123777816Y-72349151D01*
X123806996Y-72327951D01*
X123949786Y-72224209D01*
X123949788Y-72224206D01*
X123949792Y-72224204D01*
X124100104Y-72073892D01*
X124100106Y-72073888D01*
X124100109Y-72073886D01*
X124225048Y-71901920D01*
X124225049Y-71901919D01*
X124225051Y-71901916D01*
X124321557Y-71712512D01*
X124387246Y-71510343D01*
X124420500Y-71300387D01*
X124420500Y-71087813D01*
X126799500Y-71087813D01*
X126799500Y-71300386D01*
X126832753Y-71510339D01*
X126898444Y-71712514D01*
X126994951Y-71901920D01*
X127119890Y-72073886D01*
X127270213Y-72224209D01*
X127442179Y-72349148D01*
X127442181Y-72349149D01*
X127442184Y-72349151D01*
X127631588Y-72445657D01*
X127833757Y-72511346D01*
X128043713Y-72544600D01*
X128043714Y-72544600D01*
X128256286Y-72544600D01*
X128256287Y-72544600D01*
X128466243Y-72511346D01*
X128668412Y-72445657D01*
X128857816Y-72349151D01*
X128886996Y-72327951D01*
X129029786Y-72224209D01*
X129029788Y-72224206D01*
X129029792Y-72224204D01*
X129180104Y-72073892D01*
X129180106Y-72073888D01*
X129180109Y-72073886D01*
X129305048Y-71901920D01*
X129305049Y-71901919D01*
X129305051Y-71901916D01*
X129309514Y-71893154D01*
X129357488Y-71842359D01*
X129425308Y-71825563D01*
X129491444Y-71848099D01*
X129530486Y-71893156D01*
X129534951Y-71901920D01*
X129659890Y-72073886D01*
X129810213Y-72224209D01*
X129982179Y-72349148D01*
X129982181Y-72349149D01*
X129982184Y-72349151D01*
X130171588Y-72445657D01*
X130373757Y-72511346D01*
X130583713Y-72544600D01*
X130583714Y-72544600D01*
X130796286Y-72544600D01*
X130796287Y-72544600D01*
X131006243Y-72511346D01*
X131208412Y-72445657D01*
X131397816Y-72349151D01*
X131426996Y-72327951D01*
X131569786Y-72224209D01*
X131569788Y-72224206D01*
X131569792Y-72224204D01*
X131720104Y-72073892D01*
X131720106Y-72073888D01*
X131720109Y-72073886D01*
X131845048Y-71901920D01*
X131845049Y-71901919D01*
X131845051Y-71901916D01*
X131849514Y-71893154D01*
X131897488Y-71842359D01*
X131965308Y-71825563D01*
X132031444Y-71848099D01*
X132070486Y-71893156D01*
X132074951Y-71901920D01*
X132199890Y-72073886D01*
X132350213Y-72224209D01*
X132522179Y-72349148D01*
X132522181Y-72349149D01*
X132522184Y-72349151D01*
X132711588Y-72445657D01*
X132913757Y-72511346D01*
X133123713Y-72544600D01*
X133123714Y-72544600D01*
X133336286Y-72544600D01*
X133336287Y-72544600D01*
X133546243Y-72511346D01*
X133748412Y-72445657D01*
X133937816Y-72349151D01*
X133966996Y-72327951D01*
X134109786Y-72224209D01*
X134109788Y-72224206D01*
X134109792Y-72224204D01*
X134260104Y-72073892D01*
X134260106Y-72073888D01*
X134260109Y-72073886D01*
X134385048Y-71901920D01*
X134385049Y-71901919D01*
X134385051Y-71901916D01*
X134389514Y-71893154D01*
X134437488Y-71842359D01*
X134505308Y-71825563D01*
X134571444Y-71848099D01*
X134610486Y-71893156D01*
X134614951Y-71901920D01*
X134739890Y-72073886D01*
X134890213Y-72224209D01*
X135062179Y-72349148D01*
X135062181Y-72349149D01*
X135062184Y-72349151D01*
X135251588Y-72445657D01*
X135453757Y-72511346D01*
X135663713Y-72544600D01*
X135663714Y-72544600D01*
X135876286Y-72544600D01*
X135876287Y-72544600D01*
X136086243Y-72511346D01*
X136288412Y-72445657D01*
X136477816Y-72349151D01*
X136506996Y-72327951D01*
X136649786Y-72224209D01*
X136649788Y-72224206D01*
X136649792Y-72224204D01*
X136800104Y-72073892D01*
X136800106Y-72073888D01*
X136800109Y-72073886D01*
X136925048Y-71901920D01*
X136925049Y-71901919D01*
X136925051Y-71901916D01*
X137021557Y-71712512D01*
X137087246Y-71510343D01*
X137120500Y-71300387D01*
X137120500Y-71087813D01*
X139499500Y-71087813D01*
X139499500Y-71300386D01*
X139532753Y-71510339D01*
X139598444Y-71712514D01*
X139694951Y-71901920D01*
X139819890Y-72073886D01*
X139970213Y-72224209D01*
X140142179Y-72349148D01*
X140142181Y-72349149D01*
X140142184Y-72349151D01*
X140331588Y-72445657D01*
X140533757Y-72511346D01*
X140743713Y-72544600D01*
X140743714Y-72544600D01*
X140956286Y-72544600D01*
X140956287Y-72544600D01*
X141166243Y-72511346D01*
X141368412Y-72445657D01*
X141557816Y-72349151D01*
X141586996Y-72327951D01*
X141729786Y-72224209D01*
X141729788Y-72224206D01*
X141729792Y-72224204D01*
X141880104Y-72073892D01*
X141880106Y-72073888D01*
X141880109Y-72073886D01*
X142005048Y-71901920D01*
X142005049Y-71901919D01*
X142005051Y-71901916D01*
X142009514Y-71893154D01*
X142057488Y-71842359D01*
X142125308Y-71825563D01*
X142191444Y-71848099D01*
X142230486Y-71893156D01*
X142234951Y-71901920D01*
X142359890Y-72073886D01*
X142510213Y-72224209D01*
X142682179Y-72349148D01*
X142682181Y-72349149D01*
X142682184Y-72349151D01*
X142871588Y-72445657D01*
X143073757Y-72511346D01*
X143283713Y-72544600D01*
X143283714Y-72544600D01*
X143496286Y-72544600D01*
X143496287Y-72544600D01*
X143706243Y-72511346D01*
X143908412Y-72445657D01*
X144097816Y-72349151D01*
X144126996Y-72327951D01*
X144269786Y-72224209D01*
X144269788Y-72224206D01*
X144269792Y-72224204D01*
X144420104Y-72073892D01*
X144420106Y-72073888D01*
X144420109Y-72073886D01*
X144545048Y-71901920D01*
X144545049Y-71901919D01*
X144545051Y-71901916D01*
X144549514Y-71893154D01*
X144597488Y-71842359D01*
X144665308Y-71825563D01*
X144731444Y-71848099D01*
X144770486Y-71893156D01*
X144774951Y-71901920D01*
X144899890Y-72073886D01*
X145050213Y-72224209D01*
X145222179Y-72349148D01*
X145222181Y-72349149D01*
X145222184Y-72349151D01*
X145411588Y-72445657D01*
X145613757Y-72511346D01*
X145823713Y-72544600D01*
X145823714Y-72544600D01*
X146036286Y-72544600D01*
X146036287Y-72544600D01*
X146246243Y-72511346D01*
X146448412Y-72445657D01*
X146637816Y-72349151D01*
X146666996Y-72327951D01*
X146809786Y-72224209D01*
X146809788Y-72224206D01*
X146809792Y-72224204D01*
X146960104Y-72073892D01*
X146960106Y-72073888D01*
X146960109Y-72073886D01*
X147085048Y-71901920D01*
X147085049Y-71901919D01*
X147085051Y-71901916D01*
X147089514Y-71893154D01*
X147137488Y-71842359D01*
X147205308Y-71825563D01*
X147271444Y-71848099D01*
X147310486Y-71893156D01*
X147314951Y-71901920D01*
X147439890Y-72073886D01*
X147590213Y-72224209D01*
X147762179Y-72349148D01*
X147762181Y-72349149D01*
X147762184Y-72349151D01*
X147951588Y-72445657D01*
X148153757Y-72511346D01*
X148363713Y-72544600D01*
X148363714Y-72544600D01*
X148576286Y-72544600D01*
X148576287Y-72544600D01*
X148786243Y-72511346D01*
X148988412Y-72445657D01*
X149177816Y-72349151D01*
X149206996Y-72327951D01*
X149349786Y-72224209D01*
X149349788Y-72224206D01*
X149349792Y-72224204D01*
X149500104Y-72073892D01*
X149500106Y-72073888D01*
X149500109Y-72073886D01*
X149625048Y-71901920D01*
X149625049Y-71901919D01*
X149625051Y-71901916D01*
X149721557Y-71712512D01*
X149787246Y-71510343D01*
X149820500Y-71300387D01*
X149820500Y-71087813D01*
X152199500Y-71087813D01*
X152199500Y-71300386D01*
X152232753Y-71510339D01*
X152298444Y-71712514D01*
X152394951Y-71901920D01*
X152519890Y-72073886D01*
X152670213Y-72224209D01*
X152842179Y-72349148D01*
X152842181Y-72349149D01*
X152842184Y-72349151D01*
X153031588Y-72445657D01*
X153233757Y-72511346D01*
X153443713Y-72544600D01*
X153443714Y-72544600D01*
X153656286Y-72544600D01*
X153656287Y-72544600D01*
X153866243Y-72511346D01*
X154068412Y-72445657D01*
X154257816Y-72349151D01*
X154286996Y-72327951D01*
X154429786Y-72224209D01*
X154429788Y-72224206D01*
X154429792Y-72224204D01*
X154580104Y-72073892D01*
X154580106Y-72073888D01*
X154580109Y-72073886D01*
X154705048Y-71901920D01*
X154705049Y-71901919D01*
X154705051Y-71901916D01*
X154709514Y-71893154D01*
X154757488Y-71842359D01*
X154825308Y-71825563D01*
X154891444Y-71848099D01*
X154930486Y-71893156D01*
X154934951Y-71901920D01*
X155059890Y-72073886D01*
X155210213Y-72224209D01*
X155382179Y-72349148D01*
X155382181Y-72349149D01*
X155382184Y-72349151D01*
X155571588Y-72445657D01*
X155773757Y-72511346D01*
X155983713Y-72544600D01*
X155983714Y-72544600D01*
X156196286Y-72544600D01*
X156196287Y-72544600D01*
X156406243Y-72511346D01*
X156608412Y-72445657D01*
X156797816Y-72349151D01*
X156826996Y-72327951D01*
X156969786Y-72224209D01*
X156969788Y-72224206D01*
X156969792Y-72224204D01*
X157120104Y-72073892D01*
X157120106Y-72073888D01*
X157120109Y-72073886D01*
X157174899Y-71998471D01*
X157245051Y-71901916D01*
X157251236Y-71889778D01*
X166614500Y-71889778D01*
X166614500Y-72110221D01*
X166648985Y-72327952D01*
X166717103Y-72537603D01*
X166717104Y-72537606D01*
X166817187Y-72734025D01*
X166946752Y-72912358D01*
X166946756Y-72912363D01*
X167102636Y-73068243D01*
X167102641Y-73068247D01*
X167240551Y-73168443D01*
X167280978Y-73197815D01*
X167409375Y-73263237D01*
X167477393Y-73297895D01*
X167477396Y-73297896D01*
X167582221Y-73331955D01*
X167687049Y-73366015D01*
X167904778Y-73400500D01*
X167904779Y-73400500D01*
X168125221Y-73400500D01*
X168125222Y-73400500D01*
X168342951Y-73366015D01*
X168552606Y-73297895D01*
X168749022Y-73197815D01*
X168927365Y-73068242D01*
X169083242Y-72912365D01*
X169212815Y-72734022D01*
X169312895Y-72537606D01*
X169381015Y-72327951D01*
X169415500Y-72110222D01*
X169415500Y-71889778D01*
X169381015Y-71672049D01*
X169346955Y-71567221D01*
X169312896Y-71462396D01*
X169312895Y-71462393D01*
X169230347Y-71300387D01*
X169212815Y-71265978D01*
X169196260Y-71243192D01*
X169083247Y-71087641D01*
X169083243Y-71087636D01*
X168927363Y-70931756D01*
X168927358Y-70931752D01*
X168749025Y-70802187D01*
X168749024Y-70802186D01*
X168749022Y-70802185D01*
X168686096Y-70770122D01*
X168552606Y-70702104D01*
X168552603Y-70702103D01*
X168342952Y-70633985D01*
X168234086Y-70616742D01*
X168125222Y-70599500D01*
X167904778Y-70599500D01*
X167832201Y-70610995D01*
X167687047Y-70633985D01*
X167477396Y-70702103D01*
X167477393Y-70702104D01*
X167280974Y-70802187D01*
X167102641Y-70931752D01*
X167102636Y-70931756D01*
X166946756Y-71087636D01*
X166946752Y-71087641D01*
X166817187Y-71265974D01*
X166717104Y-71462393D01*
X166717103Y-71462396D01*
X166648985Y-71672047D01*
X166614500Y-71889778D01*
X157251236Y-71889778D01*
X157341557Y-71712512D01*
X157407246Y-71510343D01*
X157440500Y-71300387D01*
X157440500Y-71087813D01*
X157407246Y-70877857D01*
X157341557Y-70675688D01*
X157245051Y-70486284D01*
X157245049Y-70486281D01*
X157245048Y-70486279D01*
X157120109Y-70314313D01*
X156969786Y-70163990D01*
X156797820Y-70039051D01*
X156608414Y-69942544D01*
X156608413Y-69942543D01*
X156608412Y-69942543D01*
X156406243Y-69876854D01*
X156406241Y-69876853D01*
X156406240Y-69876853D01*
X156244957Y-69851308D01*
X156196287Y-69843600D01*
X155983713Y-69843600D01*
X155935042Y-69851308D01*
X155773760Y-69876853D01*
X155571585Y-69942544D01*
X155382179Y-70039051D01*
X155210213Y-70163990D01*
X155059890Y-70314313D01*
X154934949Y-70486282D01*
X154930484Y-70495046D01*
X154882509Y-70545842D01*
X154814688Y-70562636D01*
X154748553Y-70540098D01*
X154709516Y-70495046D01*
X154705050Y-70486282D01*
X154580109Y-70314313D01*
X154429786Y-70163990D01*
X154257820Y-70039051D01*
X154068414Y-69942544D01*
X154068413Y-69942543D01*
X154068412Y-69942543D01*
X153866243Y-69876854D01*
X153866241Y-69876853D01*
X153866240Y-69876853D01*
X153704957Y-69851308D01*
X153656287Y-69843600D01*
X153443713Y-69843600D01*
X153395042Y-69851308D01*
X153233760Y-69876853D01*
X153031585Y-69942544D01*
X152842179Y-70039051D01*
X152670213Y-70163990D01*
X152519890Y-70314313D01*
X152394951Y-70486279D01*
X152298444Y-70675685D01*
X152232753Y-70877860D01*
X152199500Y-71087813D01*
X149820500Y-71087813D01*
X149787246Y-70877857D01*
X149721557Y-70675688D01*
X149625051Y-70486284D01*
X149625049Y-70486281D01*
X149625048Y-70486279D01*
X149500109Y-70314313D01*
X149349786Y-70163990D01*
X149177820Y-70039051D01*
X148988414Y-69942544D01*
X148988413Y-69942543D01*
X148988412Y-69942543D01*
X148786243Y-69876854D01*
X148786241Y-69876853D01*
X148786240Y-69876853D01*
X148624957Y-69851308D01*
X148576287Y-69843600D01*
X148363713Y-69843600D01*
X148315042Y-69851308D01*
X148153760Y-69876853D01*
X147951585Y-69942544D01*
X147762179Y-70039051D01*
X147590213Y-70163990D01*
X147439890Y-70314313D01*
X147314949Y-70486282D01*
X147310484Y-70495046D01*
X147262509Y-70545842D01*
X147194688Y-70562636D01*
X147128553Y-70540098D01*
X147089516Y-70495046D01*
X147085050Y-70486282D01*
X146960109Y-70314313D01*
X146809786Y-70163990D01*
X146637820Y-70039051D01*
X146448414Y-69942544D01*
X146448413Y-69942543D01*
X146448412Y-69942543D01*
X146246243Y-69876854D01*
X146246241Y-69876853D01*
X146246240Y-69876853D01*
X146084957Y-69851308D01*
X146036287Y-69843600D01*
X145823713Y-69843600D01*
X145775042Y-69851308D01*
X145613760Y-69876853D01*
X145411585Y-69942544D01*
X145222179Y-70039051D01*
X145050213Y-70163990D01*
X144899890Y-70314313D01*
X144774949Y-70486282D01*
X144770484Y-70495046D01*
X144722509Y-70545842D01*
X144654688Y-70562636D01*
X144588553Y-70540098D01*
X144549516Y-70495046D01*
X144545050Y-70486282D01*
X144420109Y-70314313D01*
X144269786Y-70163990D01*
X144097820Y-70039051D01*
X143908414Y-69942544D01*
X143908413Y-69942543D01*
X143908412Y-69942543D01*
X143706243Y-69876854D01*
X143706241Y-69876853D01*
X143706240Y-69876853D01*
X143544957Y-69851308D01*
X143496287Y-69843600D01*
X143283713Y-69843600D01*
X143235042Y-69851308D01*
X143073760Y-69876853D01*
X142871585Y-69942544D01*
X142682179Y-70039051D01*
X142510213Y-70163990D01*
X142359890Y-70314313D01*
X142234949Y-70486282D01*
X142230484Y-70495046D01*
X142182509Y-70545842D01*
X142114688Y-70562636D01*
X142048553Y-70540098D01*
X142009516Y-70495046D01*
X142005050Y-70486282D01*
X141880109Y-70314313D01*
X141729786Y-70163990D01*
X141557820Y-70039051D01*
X141368414Y-69942544D01*
X141368413Y-69942543D01*
X141368412Y-69942543D01*
X141166243Y-69876854D01*
X141166241Y-69876853D01*
X141166240Y-69876853D01*
X141004957Y-69851308D01*
X140956287Y-69843600D01*
X140743713Y-69843600D01*
X140695042Y-69851308D01*
X140533760Y-69876853D01*
X140331585Y-69942544D01*
X140142179Y-70039051D01*
X139970213Y-70163990D01*
X139819890Y-70314313D01*
X139694951Y-70486279D01*
X139598444Y-70675685D01*
X139532753Y-70877860D01*
X139499500Y-71087813D01*
X137120500Y-71087813D01*
X137087246Y-70877857D01*
X137021557Y-70675688D01*
X136925051Y-70486284D01*
X136925049Y-70486281D01*
X136925048Y-70486279D01*
X136800109Y-70314313D01*
X136649786Y-70163990D01*
X136477820Y-70039051D01*
X136288414Y-69942544D01*
X136288413Y-69942543D01*
X136288412Y-69942543D01*
X136086243Y-69876854D01*
X136086241Y-69876853D01*
X136086240Y-69876853D01*
X135924957Y-69851308D01*
X135876287Y-69843600D01*
X135663713Y-69843600D01*
X135615042Y-69851308D01*
X135453760Y-69876853D01*
X135251585Y-69942544D01*
X135062179Y-70039051D01*
X134890213Y-70163990D01*
X134739890Y-70314313D01*
X134614949Y-70486282D01*
X134610484Y-70495046D01*
X134562509Y-70545842D01*
X134494688Y-70562636D01*
X134428553Y-70540098D01*
X134389516Y-70495046D01*
X134385050Y-70486282D01*
X134260109Y-70314313D01*
X134109786Y-70163990D01*
X133937820Y-70039051D01*
X133748414Y-69942544D01*
X133748413Y-69942543D01*
X133748412Y-69942543D01*
X133546243Y-69876854D01*
X133546241Y-69876853D01*
X133546240Y-69876853D01*
X133384957Y-69851308D01*
X133336287Y-69843600D01*
X133123713Y-69843600D01*
X133075042Y-69851308D01*
X132913760Y-69876853D01*
X132711585Y-69942544D01*
X132522179Y-70039051D01*
X132350213Y-70163990D01*
X132199890Y-70314313D01*
X132074949Y-70486282D01*
X132070484Y-70495046D01*
X132022509Y-70545842D01*
X131954688Y-70562636D01*
X131888553Y-70540098D01*
X131849516Y-70495046D01*
X131845050Y-70486282D01*
X131720109Y-70314313D01*
X131569786Y-70163990D01*
X131397820Y-70039051D01*
X131208414Y-69942544D01*
X131208413Y-69942543D01*
X131208412Y-69942543D01*
X131006243Y-69876854D01*
X131006241Y-69876853D01*
X131006240Y-69876853D01*
X130844957Y-69851308D01*
X130796287Y-69843600D01*
X130583713Y-69843600D01*
X130535042Y-69851308D01*
X130373760Y-69876853D01*
X130171585Y-69942544D01*
X129982179Y-70039051D01*
X129810213Y-70163990D01*
X129659890Y-70314313D01*
X129534949Y-70486282D01*
X129530484Y-70495046D01*
X129482509Y-70545842D01*
X129414688Y-70562636D01*
X129348553Y-70540098D01*
X129309516Y-70495046D01*
X129305050Y-70486282D01*
X129180109Y-70314313D01*
X129029786Y-70163990D01*
X128857820Y-70039051D01*
X128668414Y-69942544D01*
X128668413Y-69942543D01*
X128668412Y-69942543D01*
X128466243Y-69876854D01*
X128466241Y-69876853D01*
X128466240Y-69876853D01*
X128304957Y-69851308D01*
X128256287Y-69843600D01*
X128043713Y-69843600D01*
X127995042Y-69851308D01*
X127833760Y-69876853D01*
X127631585Y-69942544D01*
X127442179Y-70039051D01*
X127270213Y-70163990D01*
X127119890Y-70314313D01*
X126994951Y-70486279D01*
X126898444Y-70675685D01*
X126832753Y-70877860D01*
X126799500Y-71087813D01*
X124420500Y-71087813D01*
X124387246Y-70877857D01*
X124321557Y-70675688D01*
X124225051Y-70486284D01*
X124225049Y-70486281D01*
X124225048Y-70486279D01*
X124100109Y-70314313D01*
X123949786Y-70163990D01*
X123777820Y-70039051D01*
X123588414Y-69942544D01*
X123588413Y-69942543D01*
X123588412Y-69942543D01*
X123386243Y-69876854D01*
X123386241Y-69876853D01*
X123386240Y-69876853D01*
X123224957Y-69851308D01*
X123176287Y-69843600D01*
X122963713Y-69843600D01*
X122915042Y-69851308D01*
X122753760Y-69876853D01*
X122551585Y-69942544D01*
X122362179Y-70039051D01*
X122190213Y-70163990D01*
X122039890Y-70314313D01*
X121914949Y-70486282D01*
X121910484Y-70495046D01*
X121862509Y-70545842D01*
X121794688Y-70562636D01*
X121728553Y-70540098D01*
X121689516Y-70495046D01*
X121685050Y-70486282D01*
X121560109Y-70314313D01*
X121409786Y-70163990D01*
X121237820Y-70039051D01*
X121048414Y-69942544D01*
X121048413Y-69942543D01*
X121048412Y-69942543D01*
X120846243Y-69876854D01*
X120846241Y-69876853D01*
X120846240Y-69876853D01*
X120684957Y-69851308D01*
X120636287Y-69843600D01*
X120423713Y-69843600D01*
X120375042Y-69851308D01*
X120213760Y-69876853D01*
X120011585Y-69942544D01*
X119822179Y-70039051D01*
X119650213Y-70163990D01*
X119499890Y-70314313D01*
X119374949Y-70486282D01*
X119370484Y-70495046D01*
X119322509Y-70545842D01*
X119254688Y-70562636D01*
X119188553Y-70540098D01*
X119149516Y-70495046D01*
X119145050Y-70486282D01*
X119020109Y-70314313D01*
X118869786Y-70163990D01*
X118697820Y-70039051D01*
X118508414Y-69942544D01*
X118508413Y-69942543D01*
X118508412Y-69942543D01*
X118306243Y-69876854D01*
X118306241Y-69876853D01*
X118306240Y-69876853D01*
X118144957Y-69851308D01*
X118096287Y-69843600D01*
X117883713Y-69843600D01*
X117835042Y-69851308D01*
X117673760Y-69876853D01*
X117471585Y-69942544D01*
X117282179Y-70039051D01*
X117110213Y-70163990D01*
X116959890Y-70314313D01*
X116834949Y-70486282D01*
X116830484Y-70495046D01*
X116782509Y-70545842D01*
X116714688Y-70562636D01*
X116648553Y-70540098D01*
X116609516Y-70495046D01*
X116605050Y-70486282D01*
X116480109Y-70314313D01*
X116329786Y-70163990D01*
X116157820Y-70039051D01*
X115968414Y-69942544D01*
X115968413Y-69942543D01*
X115968412Y-69942543D01*
X115766243Y-69876854D01*
X115766241Y-69876853D01*
X115766240Y-69876853D01*
X115604957Y-69851308D01*
X115556287Y-69843600D01*
X115343713Y-69843600D01*
X115295042Y-69851308D01*
X115133760Y-69876853D01*
X114931585Y-69942544D01*
X114742179Y-70039051D01*
X114570213Y-70163990D01*
X114419890Y-70314313D01*
X114294951Y-70486279D01*
X114198444Y-70675685D01*
X114132753Y-70877860D01*
X114099500Y-71087813D01*
X111720500Y-71087813D01*
X111687246Y-70877857D01*
X111621557Y-70675688D01*
X111525051Y-70486284D01*
X111525049Y-70486281D01*
X111525048Y-70486279D01*
X111400109Y-70314313D01*
X111249786Y-70163990D01*
X111077820Y-70039051D01*
X110888414Y-69942544D01*
X110888413Y-69942543D01*
X110888412Y-69942543D01*
X110686243Y-69876854D01*
X110686241Y-69876853D01*
X110686240Y-69876853D01*
X110524957Y-69851308D01*
X110476287Y-69843600D01*
X110263713Y-69843600D01*
X110215042Y-69851308D01*
X110053760Y-69876853D01*
X109851585Y-69942544D01*
X109662179Y-70039051D01*
X109490213Y-70163990D01*
X109339890Y-70314313D01*
X109214949Y-70486282D01*
X109210484Y-70495046D01*
X109162509Y-70545842D01*
X109094688Y-70562636D01*
X109028553Y-70540098D01*
X108989516Y-70495046D01*
X108985050Y-70486282D01*
X108860109Y-70314313D01*
X108709786Y-70163990D01*
X108537820Y-70039051D01*
X108348414Y-69942544D01*
X108348413Y-69942543D01*
X108348412Y-69942543D01*
X108146243Y-69876854D01*
X108146241Y-69876853D01*
X108146240Y-69876853D01*
X107984957Y-69851308D01*
X107936287Y-69843600D01*
X107723713Y-69843600D01*
X107675042Y-69851308D01*
X107513760Y-69876853D01*
X107311585Y-69942544D01*
X107122179Y-70039051D01*
X106950213Y-70163990D01*
X106799890Y-70314313D01*
X106674951Y-70486279D01*
X106578444Y-70675685D01*
X106512753Y-70877860D01*
X106479500Y-71087813D01*
X106000000Y-71087813D01*
X106000000Y-62631902D01*
X161749500Y-62631902D01*
X161749500Y-62868097D01*
X161786446Y-63101368D01*
X161859433Y-63325996D01*
X161966657Y-63536433D01*
X162105483Y-63727510D01*
X162272490Y-63894517D01*
X162463567Y-64033343D01*
X162562991Y-64084002D01*
X162674003Y-64140566D01*
X162674005Y-64140566D01*
X162674008Y-64140568D01*
X162794412Y-64179689D01*
X162898631Y-64213553D01*
X163131903Y-64250500D01*
X163131908Y-64250500D01*
X163368097Y-64250500D01*
X163601368Y-64213553D01*
X163825992Y-64140568D01*
X164036433Y-64033343D01*
X164227510Y-63894517D01*
X164394517Y-63727510D01*
X164533343Y-63536433D01*
X164640568Y-63325992D01*
X164713553Y-63101368D01*
X164750500Y-62868097D01*
X164750500Y-62631902D01*
X168249500Y-62631902D01*
X168249500Y-62868097D01*
X168286446Y-63101368D01*
X168359433Y-63325996D01*
X168466657Y-63536433D01*
X168605483Y-63727510D01*
X168772490Y-63894517D01*
X168963567Y-64033343D01*
X169062991Y-64084002D01*
X169174003Y-64140566D01*
X169174005Y-64140566D01*
X169174008Y-64140568D01*
X169294412Y-64179689D01*
X169398631Y-64213553D01*
X169631903Y-64250500D01*
X169631908Y-64250500D01*
X169868097Y-64250500D01*
X170101368Y-64213553D01*
X170325992Y-64140568D01*
X170536433Y-64033343D01*
X170727510Y-63894517D01*
X170894517Y-63727510D01*
X171033343Y-63536433D01*
X171140568Y-63325992D01*
X171213553Y-63101368D01*
X171250500Y-62868097D01*
X171250500Y-62631902D01*
X171213553Y-62398631D01*
X171140566Y-62174003D01*
X171033342Y-61963566D01*
X170894517Y-61772490D01*
X170727510Y-61605483D01*
X170536433Y-61466657D01*
X170325996Y-61359433D01*
X170101368Y-61286446D01*
X169868097Y-61249500D01*
X169868092Y-61249500D01*
X169631908Y-61249500D01*
X169631903Y-61249500D01*
X169398631Y-61286446D01*
X169174003Y-61359433D01*
X168963566Y-61466657D01*
X168854550Y-61545862D01*
X168772490Y-61605483D01*
X168772488Y-61605485D01*
X168772487Y-61605485D01*
X168605485Y-61772487D01*
X168605485Y-61772488D01*
X168605483Y-61772490D01*
X168545862Y-61854550D01*
X168466657Y-61963566D01*
X168359433Y-62174003D01*
X168286446Y-62398631D01*
X168249500Y-62631902D01*
X164750500Y-62631902D01*
X164713553Y-62398631D01*
X164640566Y-62174003D01*
X164533342Y-61963566D01*
X164394517Y-61772490D01*
X164227510Y-61605483D01*
X164036433Y-61466657D01*
X163825996Y-61359433D01*
X163601368Y-61286446D01*
X163368097Y-61249500D01*
X163368092Y-61249500D01*
X163131908Y-61249500D01*
X163131903Y-61249500D01*
X162898631Y-61286446D01*
X162674003Y-61359433D01*
X162463566Y-61466657D01*
X162354550Y-61545862D01*
X162272490Y-61605483D01*
X162272488Y-61605485D01*
X162272487Y-61605485D01*
X162105485Y-61772487D01*
X162105485Y-61772488D01*
X162105483Y-61772490D01*
X162045862Y-61854550D01*
X161966657Y-61963566D01*
X161859433Y-62174003D01*
X161786446Y-62398631D01*
X161749500Y-62631902D01*
X106000000Y-62631902D01*
X106000000Y-58131902D01*
X161749500Y-58131902D01*
X161749500Y-58368097D01*
X161786446Y-58601368D01*
X161859433Y-58825996D01*
X161966657Y-59036433D01*
X162105483Y-59227510D01*
X162272490Y-59394517D01*
X162463567Y-59533343D01*
X162562991Y-59584002D01*
X162674003Y-59640566D01*
X162674005Y-59640566D01*
X162674008Y-59640568D01*
X162794412Y-59679689D01*
X162898631Y-59713553D01*
X163131903Y-59750500D01*
X163131908Y-59750500D01*
X163368097Y-59750500D01*
X163601368Y-59713553D01*
X163825992Y-59640568D01*
X164036433Y-59533343D01*
X164227510Y-59394517D01*
X164394517Y-59227510D01*
X164533343Y-59036433D01*
X164640568Y-58825992D01*
X164713553Y-58601368D01*
X164750500Y-58368097D01*
X164750500Y-58131902D01*
X168249500Y-58131902D01*
X168249500Y-58368097D01*
X168286446Y-58601368D01*
X168359433Y-58825996D01*
X168466657Y-59036433D01*
X168605483Y-59227510D01*
X168772490Y-59394517D01*
X168963567Y-59533343D01*
X169062991Y-59584002D01*
X169174003Y-59640566D01*
X169174005Y-59640566D01*
X169174008Y-59640568D01*
X169294412Y-59679689D01*
X169398631Y-59713553D01*
X169631903Y-59750500D01*
X169631908Y-59750500D01*
X169868097Y-59750500D01*
X170101368Y-59713553D01*
X170325992Y-59640568D01*
X170536433Y-59533343D01*
X170727510Y-59394517D01*
X170894517Y-59227510D01*
X171033343Y-59036433D01*
X171140568Y-58825992D01*
X171213553Y-58601368D01*
X171250500Y-58368097D01*
X171250500Y-58131902D01*
X171213553Y-57898631D01*
X171140566Y-57674003D01*
X171045254Y-57486944D01*
X171033343Y-57463567D01*
X170894517Y-57272490D01*
X170727510Y-57105483D01*
X170536433Y-56966657D01*
X170325996Y-56859433D01*
X170101368Y-56786446D01*
X169868097Y-56749500D01*
X169868092Y-56749500D01*
X169631908Y-56749500D01*
X169631903Y-56749500D01*
X169398631Y-56786446D01*
X169174003Y-56859433D01*
X168963566Y-56966657D01*
X168854550Y-57045862D01*
X168772490Y-57105483D01*
X168772488Y-57105485D01*
X168772487Y-57105485D01*
X168605485Y-57272487D01*
X168605485Y-57272488D01*
X168605483Y-57272490D01*
X168545862Y-57354550D01*
X168466657Y-57463566D01*
X168359433Y-57674003D01*
X168286446Y-57898631D01*
X168249500Y-58131902D01*
X164750500Y-58131902D01*
X164713553Y-57898631D01*
X164640566Y-57674003D01*
X164545254Y-57486944D01*
X164533343Y-57463567D01*
X164394517Y-57272490D01*
X164227510Y-57105483D01*
X164036433Y-56966657D01*
X163825996Y-56859433D01*
X163601368Y-56786446D01*
X163368097Y-56749500D01*
X163368092Y-56749500D01*
X163131908Y-56749500D01*
X163131903Y-56749500D01*
X162898631Y-56786446D01*
X162674003Y-56859433D01*
X162463566Y-56966657D01*
X162354550Y-57045862D01*
X162272490Y-57105483D01*
X162272488Y-57105485D01*
X162272487Y-57105485D01*
X162105485Y-57272487D01*
X162105485Y-57272488D01*
X162105483Y-57272490D01*
X162045862Y-57354550D01*
X161966657Y-57463566D01*
X161859433Y-57674003D01*
X161786446Y-57898631D01*
X161749500Y-58131902D01*
X106000000Y-58131902D01*
X106000000Y-46155263D01*
X106370500Y-46155263D01*
X106370500Y-46352736D01*
X106401389Y-46547763D01*
X106462408Y-46735558D01*
X106462409Y-46735561D01*
X106552056Y-46911501D01*
X106552058Y-46911504D01*
X106668115Y-47071246D01*
X106807753Y-47210884D01*
X106957234Y-47319486D01*
X106967499Y-47326944D01*
X107137404Y-47413516D01*
X107188199Y-47461490D01*
X107204994Y-47529311D01*
X107182456Y-47595446D01*
X107137404Y-47634483D01*
X106980321Y-47714522D01*
X106967495Y-47721058D01*
X106807753Y-47837115D01*
X106668115Y-47976753D01*
X106552058Y-48136495D01*
X106462408Y-48312441D01*
X106401389Y-48500236D01*
X106370500Y-48695263D01*
X106370500Y-48892736D01*
X106401389Y-49087763D01*
X106439575Y-49205286D01*
X106462409Y-49275561D01*
X106552056Y-49451501D01*
X106552058Y-49451504D01*
X106668115Y-49611246D01*
X106807753Y-49750884D01*
X106957234Y-49859486D01*
X106967499Y-49866944D01*
X107137404Y-49953516D01*
X107188199Y-50001490D01*
X107204994Y-50069311D01*
X107182456Y-50135446D01*
X107137404Y-50174483D01*
X106980321Y-50254522D01*
X106967495Y-50261058D01*
X106807753Y-50377115D01*
X106668115Y-50516753D01*
X106552058Y-50676495D01*
X106462408Y-50852441D01*
X106401389Y-51040236D01*
X106370500Y-51235263D01*
X106370500Y-51432736D01*
X106401389Y-51627763D01*
X106462408Y-51815558D01*
X106462409Y-51815561D01*
X106552056Y-51991501D01*
X106552058Y-51991504D01*
X106668115Y-52151246D01*
X106807753Y-52290884D01*
X106957234Y-52399486D01*
X106967499Y-52406944D01*
X107137404Y-52493516D01*
X107188199Y-52541490D01*
X107204994Y-52609311D01*
X107182456Y-52675446D01*
X107137404Y-52714483D01*
X106980321Y-52794522D01*
X106967495Y-52801058D01*
X106807753Y-52917115D01*
X106668115Y-53056753D01*
X106552058Y-53216495D01*
X106462408Y-53392441D01*
X106401389Y-53580236D01*
X106370500Y-53775263D01*
X106370500Y-53972736D01*
X106401389Y-54167763D01*
X106462408Y-54355558D01*
X106462409Y-54355561D01*
X106552056Y-54531501D01*
X106552058Y-54531504D01*
X106668115Y-54691246D01*
X106807753Y-54830884D01*
X106957234Y-54939486D01*
X106967499Y-54946944D01*
X107137404Y-55033516D01*
X107188199Y-55081490D01*
X107204994Y-55149311D01*
X107182456Y-55215446D01*
X107137404Y-55254483D01*
X106980321Y-55334522D01*
X106967495Y-55341058D01*
X106807753Y-55457115D01*
X106668115Y-55596753D01*
X106552058Y-55756495D01*
X106462408Y-55932441D01*
X106401389Y-56120236D01*
X106370500Y-56315263D01*
X106370500Y-56512736D01*
X106401389Y-56707763D01*
X106450670Y-56859432D01*
X106462409Y-56895561D01*
X106498635Y-56966657D01*
X106552058Y-57071504D01*
X106668115Y-57231246D01*
X106807753Y-57370884D01*
X106935323Y-57463567D01*
X106967499Y-57486944D01*
X107143439Y-57576591D01*
X107268637Y-57617270D01*
X107331236Y-57637610D01*
X107526264Y-57668500D01*
X107526269Y-57668500D01*
X107723736Y-57668500D01*
X107918763Y-57637610D01*
X108106561Y-57576591D01*
X108282501Y-57486944D01*
X108372192Y-57421779D01*
X108442246Y-57370884D01*
X108442248Y-57370881D01*
X108442252Y-57370879D01*
X108581879Y-57231252D01*
X108581881Y-57231248D01*
X108581884Y-57231246D01*
X108673253Y-57105485D01*
X108697944Y-57071501D01*
X108787591Y-56895561D01*
X108848610Y-56707763D01*
X108879500Y-56512736D01*
X108879500Y-56315263D01*
X131770500Y-56315263D01*
X131770500Y-56512736D01*
X131801389Y-56707763D01*
X131850670Y-56859432D01*
X131862409Y-56895561D01*
X131898635Y-56966657D01*
X131952058Y-57071504D01*
X132068115Y-57231246D01*
X132207753Y-57370884D01*
X132335323Y-57463567D01*
X132367499Y-57486944D01*
X132543439Y-57576591D01*
X132668637Y-57617270D01*
X132731236Y-57637610D01*
X132926264Y-57668500D01*
X132926269Y-57668500D01*
X133123736Y-57668500D01*
X133318763Y-57637610D01*
X133506561Y-57576591D01*
X133682501Y-57486944D01*
X133772192Y-57421779D01*
X133842246Y-57370884D01*
X133842248Y-57370881D01*
X133842252Y-57370879D01*
X133981879Y-57231252D01*
X133981881Y-57231248D01*
X133981884Y-57231246D01*
X134073253Y-57105485D01*
X134097944Y-57071501D01*
X134187591Y-56895561D01*
X134248610Y-56707763D01*
X134279500Y-56512736D01*
X134279500Y-56315263D01*
X134248610Y-56120236D01*
X134228270Y-56057637D01*
X134187591Y-55932439D01*
X134097944Y-55756499D01*
X134090486Y-55746234D01*
X133981884Y-55596753D01*
X133842246Y-55457115D01*
X133682504Y-55341058D01*
X133682503Y-55341057D01*
X133682501Y-55341056D01*
X133506561Y-55251409D01*
X133506558Y-55251408D01*
X133318763Y-55190389D01*
X133123736Y-55159500D01*
X133123731Y-55159500D01*
X132926269Y-55159500D01*
X132926264Y-55159500D01*
X132731236Y-55190389D01*
X132543441Y-55251408D01*
X132367495Y-55341058D01*
X132207753Y-55457115D01*
X132068115Y-55596753D01*
X131952058Y-55756495D01*
X131862408Y-55932441D01*
X131801389Y-56120236D01*
X131770500Y-56315263D01*
X108879500Y-56315263D01*
X108848610Y-56120236D01*
X108828270Y-56057637D01*
X108787591Y-55932439D01*
X108697944Y-55756499D01*
X108690486Y-55746234D01*
X108581884Y-55596753D01*
X108442246Y-55457115D01*
X108282505Y-55341058D01*
X108276119Y-55337804D01*
X108112593Y-55254482D01*
X108061800Y-55206510D01*
X108045005Y-55138689D01*
X108067542Y-55072554D01*
X108112593Y-55033517D01*
X108282501Y-54946944D01*
X108302912Y-54932114D01*
X108442246Y-54830884D01*
X108442248Y-54830881D01*
X108442252Y-54830879D01*
X108581879Y-54691252D01*
X108581881Y-54691248D01*
X108581884Y-54691246D01*
X108632779Y-54621192D01*
X108697944Y-54531501D01*
X108787591Y-54355561D01*
X108848610Y-54167763D01*
X108879500Y-53972736D01*
X108879500Y-53775263D01*
X108848610Y-53580236D01*
X108828270Y-53517637D01*
X108787591Y-53392439D01*
X108697944Y-53216499D01*
X108690486Y-53206234D01*
X108581884Y-53056753D01*
X108442246Y-52917115D01*
X108282505Y-52801058D01*
X108276119Y-52797804D01*
X108112593Y-52714482D01*
X108061800Y-52666510D01*
X108045005Y-52598689D01*
X108067542Y-52532554D01*
X108112593Y-52493517D01*
X108282501Y-52406944D01*
X108302912Y-52392114D01*
X108442246Y-52290884D01*
X108442248Y-52290881D01*
X108442252Y-52290879D01*
X108581879Y-52151252D01*
X108581881Y-52151248D01*
X108581884Y-52151246D01*
X108632779Y-52081192D01*
X108697944Y-51991501D01*
X108787591Y-51815561D01*
X108848610Y-51627763D01*
X108879500Y-51432736D01*
X108879500Y-51235263D01*
X108848610Y-51040236D01*
X108810139Y-50921836D01*
X108787591Y-50852439D01*
X108697944Y-50676499D01*
X108680521Y-50652518D01*
X108581884Y-50516753D01*
X108442246Y-50377115D01*
X108282505Y-50261058D01*
X108276119Y-50257804D01*
X108112593Y-50174482D01*
X108061800Y-50126510D01*
X108045005Y-50058689D01*
X108067542Y-49992554D01*
X108112593Y-49953517D01*
X108282501Y-49866944D01*
X108319150Y-49840317D01*
X108442246Y-49750884D01*
X108442248Y-49750881D01*
X108442252Y-49750879D01*
X108581879Y-49611252D01*
X108581881Y-49611248D01*
X108581884Y-49611246D01*
X108658618Y-49505629D01*
X108697944Y-49451501D01*
X108787591Y-49275561D01*
X108848610Y-49087763D01*
X108857150Y-49033842D01*
X108879500Y-48892736D01*
X108879500Y-48695263D01*
X108848610Y-48500236D01*
X108828270Y-48437637D01*
X108787591Y-48312439D01*
X108697944Y-48136499D01*
X108690486Y-48126234D01*
X108581884Y-47976753D01*
X108442246Y-47837115D01*
X108282505Y-47721058D01*
X108276119Y-47717804D01*
X108112593Y-47634482D01*
X108061800Y-47586510D01*
X108045005Y-47518689D01*
X108067542Y-47452554D01*
X108112593Y-47413517D01*
X108282501Y-47326944D01*
X108302912Y-47312114D01*
X108442246Y-47210884D01*
X108442248Y-47210881D01*
X108442252Y-47210879D01*
X108581879Y-47071252D01*
X108581881Y-47071248D01*
X108581884Y-47071246D01*
X108632779Y-47001192D01*
X108697944Y-46911501D01*
X108787591Y-46735561D01*
X108848610Y-46547763D01*
X108879500Y-46352736D01*
X108879500Y-46155263D01*
X108848610Y-45960236D01*
X108828270Y-45897637D01*
X108787591Y-45772439D01*
X108697944Y-45596499D01*
X108690486Y-45586234D01*
X108581884Y-45436753D01*
X108442246Y-45297115D01*
X108282504Y-45181058D01*
X108282503Y-45181057D01*
X108282501Y-45181056D01*
X108106561Y-45091409D01*
X108106558Y-45091408D01*
X107918763Y-45030389D01*
X107723736Y-44999500D01*
X107723731Y-44999500D01*
X107526269Y-44999500D01*
X107526264Y-44999500D01*
X107331236Y-45030389D01*
X107143441Y-45091408D01*
X106967495Y-45181058D01*
X106807753Y-45297115D01*
X106668115Y-45436753D01*
X106552058Y-45596495D01*
X106462408Y-45772441D01*
X106401389Y-45960236D01*
X106370500Y-46155263D01*
X106000000Y-46155263D01*
X106000000Y-35995263D01*
X131770500Y-35995263D01*
X131770500Y-36192736D01*
X131801389Y-36387763D01*
X131862408Y-36575558D01*
X131862409Y-36575561D01*
X131952056Y-36751501D01*
X131952058Y-36751504D01*
X132068115Y-36911246D01*
X132207753Y-37050884D01*
X132357234Y-37159486D01*
X132367499Y-37166944D01*
X132537404Y-37253516D01*
X132588199Y-37301490D01*
X132604994Y-37369311D01*
X132582456Y-37435446D01*
X132537404Y-37474483D01*
X132380321Y-37554522D01*
X132367495Y-37561058D01*
X132207753Y-37677115D01*
X132068115Y-37816753D01*
X131952058Y-37976495D01*
X131862408Y-38152441D01*
X131801389Y-38340236D01*
X131770500Y-38535263D01*
X131770500Y-38732736D01*
X131801389Y-38927763D01*
X131862408Y-39115558D01*
X131862409Y-39115561D01*
X131952056Y-39291501D01*
X131952058Y-39291504D01*
X132068115Y-39451246D01*
X132207753Y-39590884D01*
X132357234Y-39699486D01*
X132367499Y-39706944D01*
X132537404Y-39793516D01*
X132588199Y-39841490D01*
X132604994Y-39909311D01*
X132582456Y-39975446D01*
X132537404Y-40014483D01*
X132380321Y-40094522D01*
X132367495Y-40101058D01*
X132207753Y-40217115D01*
X132068115Y-40356753D01*
X131952058Y-40516495D01*
X131862408Y-40692441D01*
X131801389Y-40880236D01*
X131770500Y-41075263D01*
X131770500Y-41272736D01*
X131801389Y-41467763D01*
X131862408Y-41655558D01*
X131862409Y-41655561D01*
X131952056Y-41831501D01*
X131952058Y-41831504D01*
X132068115Y-41991246D01*
X132207753Y-42130884D01*
X132357234Y-42239486D01*
X132367499Y-42246944D01*
X132537404Y-42333516D01*
X132588199Y-42381490D01*
X132604994Y-42449311D01*
X132582456Y-42515446D01*
X132537404Y-42554483D01*
X132380321Y-42634522D01*
X132367495Y-42641058D01*
X132207753Y-42757115D01*
X132068115Y-42896753D01*
X131952058Y-43056495D01*
X131862408Y-43232441D01*
X131801389Y-43420236D01*
X131770500Y-43615263D01*
X131770500Y-43812736D01*
X131801389Y-44007763D01*
X131862408Y-44195558D01*
X131862409Y-44195561D01*
X131952056Y-44371501D01*
X131952058Y-44371504D01*
X132068115Y-44531246D01*
X132207753Y-44670884D01*
X132357234Y-44779486D01*
X132367499Y-44786944D01*
X132537404Y-44873516D01*
X132588199Y-44921490D01*
X132604994Y-44989311D01*
X132582456Y-45055446D01*
X132537404Y-45094483D01*
X132380321Y-45174522D01*
X132367495Y-45181058D01*
X132207753Y-45297115D01*
X132068115Y-45436753D01*
X131952058Y-45596495D01*
X131862408Y-45772441D01*
X131801389Y-45960236D01*
X131770500Y-46155263D01*
X131770500Y-46352736D01*
X131801389Y-46547763D01*
X131862408Y-46735558D01*
X131862409Y-46735561D01*
X131952056Y-46911501D01*
X131952058Y-46911504D01*
X132068115Y-47071246D01*
X132207753Y-47210884D01*
X132357234Y-47319486D01*
X132367499Y-47326944D01*
X132537404Y-47413516D01*
X132588199Y-47461490D01*
X132604994Y-47529311D01*
X132582456Y-47595446D01*
X132537404Y-47634483D01*
X132380321Y-47714522D01*
X132367495Y-47721058D01*
X132207753Y-47837115D01*
X132068115Y-47976753D01*
X131952058Y-48136495D01*
X131862408Y-48312441D01*
X131801389Y-48500236D01*
X131770500Y-48695263D01*
X131770500Y-48892736D01*
X131801389Y-49087763D01*
X131839575Y-49205286D01*
X131862409Y-49275561D01*
X131952056Y-49451501D01*
X131952058Y-49451504D01*
X132068115Y-49611246D01*
X132207753Y-49750884D01*
X132357234Y-49859486D01*
X132367499Y-49866944D01*
X132537404Y-49953516D01*
X132588199Y-50001490D01*
X132604994Y-50069311D01*
X132582456Y-50135446D01*
X132537404Y-50174483D01*
X132380321Y-50254522D01*
X132367495Y-50261058D01*
X132207753Y-50377115D01*
X132068115Y-50516753D01*
X131952058Y-50676495D01*
X131862408Y-50852441D01*
X131801389Y-51040236D01*
X131770500Y-51235263D01*
X131770500Y-51432736D01*
X131801389Y-51627763D01*
X131862408Y-51815558D01*
X131862409Y-51815561D01*
X131952056Y-51991501D01*
X131952058Y-51991504D01*
X132068115Y-52151246D01*
X132207753Y-52290884D01*
X132357234Y-52399486D01*
X132367499Y-52406944D01*
X132543439Y-52496591D01*
X132654122Y-52532554D01*
X132731236Y-52557610D01*
X132926264Y-52588500D01*
X132926269Y-52588500D01*
X133123736Y-52588500D01*
X133318763Y-52557610D01*
X133368375Y-52541490D01*
X133506561Y-52496591D01*
X133682501Y-52406944D01*
X133772192Y-52341779D01*
X133842246Y-52290884D01*
X133842248Y-52290881D01*
X133842252Y-52290879D01*
X133981879Y-52151252D01*
X133981881Y-52151248D01*
X133981884Y-52151246D01*
X134032779Y-52081192D01*
X134097944Y-51991501D01*
X134187591Y-51815561D01*
X134248610Y-51627763D01*
X134279500Y-51432736D01*
X134279500Y-51235263D01*
X134248610Y-51040236D01*
X134210139Y-50921836D01*
X134187591Y-50852439D01*
X134097944Y-50676499D01*
X134080521Y-50652518D01*
X133981884Y-50516753D01*
X133842246Y-50377115D01*
X133682505Y-50261058D01*
X133676119Y-50257804D01*
X133512593Y-50174482D01*
X133504783Y-50167106D01*
X133494710Y-50163364D01*
X133479826Y-50143535D01*
X133461800Y-50126510D01*
X133459216Y-50116077D01*
X133452766Y-50107484D01*
X133450965Y-50082757D01*
X133445005Y-50058689D01*
X133448471Y-50048516D01*
X133447691Y-50037799D01*
X133459543Y-50016025D01*
X133467542Y-49992554D01*
X133476840Y-49984251D01*
X133481096Y-49976433D01*
X133505385Y-49958760D01*
X133509323Y-49955245D01*
X133510928Y-49954365D01*
X133519204Y-49950148D01*
X161384500Y-49950148D01*
X161384500Y-50154851D01*
X161416522Y-50357034D01*
X161479781Y-50551723D01*
X161572715Y-50734113D01*
X161693028Y-50899713D01*
X161837786Y-51044471D01*
X161992749Y-51157056D01*
X162003390Y-51164787D01*
X162119607Y-51224003D01*
X162185776Y-51257718D01*
X162185778Y-51257718D01*
X162185781Y-51257720D01*
X162276856Y-51287312D01*
X162380465Y-51320977D01*
X162481557Y-51336988D01*
X162582648Y-51353000D01*
X162582649Y-51353000D01*
X162787351Y-51353000D01*
X162787352Y-51353000D01*
X162989534Y-51320977D01*
X163184219Y-51257720D01*
X163366610Y-51164787D01*
X163495482Y-51071157D01*
X163532213Y-51044471D01*
X163532215Y-51044468D01*
X163532219Y-51044466D01*
X163676966Y-50899719D01*
X163676968Y-50899715D01*
X163676971Y-50899713D01*
X163781892Y-50755299D01*
X163797287Y-50734110D01*
X163890220Y-50551719D01*
X163953477Y-50357034D01*
X163985500Y-50154852D01*
X163985500Y-49950148D01*
X163953939Y-49750884D01*
X163953477Y-49747965D01*
X163890218Y-49553276D01*
X163865940Y-49505629D01*
X163838861Y-49452483D01*
X169004500Y-49452483D01*
X169004500Y-50652501D01*
X169004501Y-50652518D01*
X169015000Y-50755296D01*
X169015001Y-50755299D01*
X169047191Y-50852441D01*
X169070186Y-50921834D01*
X169162288Y-51071156D01*
X169286344Y-51195212D01*
X169435666Y-51287314D01*
X169602203Y-51342499D01*
X169704991Y-51353000D01*
X170905008Y-51352999D01*
X171007797Y-51342499D01*
X171174334Y-51287314D01*
X171323656Y-51195212D01*
X171447712Y-51071156D01*
X171539814Y-50921834D01*
X171594999Y-50755297D01*
X171605500Y-50652509D01*
X171605499Y-49452492D01*
X171594999Y-49349703D01*
X171539814Y-49183166D01*
X171447712Y-49033844D01*
X171323656Y-48909788D01*
X171174334Y-48817686D01*
X171007797Y-48762501D01*
X171007795Y-48762500D01*
X170905010Y-48752000D01*
X169704998Y-48752000D01*
X169704981Y-48752001D01*
X169602203Y-48762500D01*
X169602200Y-48762501D01*
X169435668Y-48817685D01*
X169435663Y-48817687D01*
X169286342Y-48909789D01*
X169162289Y-49033842D01*
X169070187Y-49183163D01*
X169070186Y-49183166D01*
X169015001Y-49349703D01*
X169015001Y-49349704D01*
X169015000Y-49349704D01*
X169004500Y-49452483D01*
X163838861Y-49452483D01*
X163797284Y-49370885D01*
X163676971Y-49205286D01*
X163532213Y-49060528D01*
X163366613Y-48940215D01*
X163366612Y-48940214D01*
X163366610Y-48940213D01*
X163306898Y-48909788D01*
X163184223Y-48847281D01*
X162989534Y-48784022D01*
X162814995Y-48756378D01*
X162787352Y-48752000D01*
X162582648Y-48752000D01*
X162558329Y-48755851D01*
X162380465Y-48784022D01*
X162185776Y-48847281D01*
X162003386Y-48940215D01*
X161837786Y-49060528D01*
X161693028Y-49205286D01*
X161572715Y-49370886D01*
X161479781Y-49553276D01*
X161416522Y-49747965D01*
X161384500Y-49950148D01*
X133519204Y-49950148D01*
X133682501Y-49866944D01*
X133842252Y-49750879D01*
X133981879Y-49611252D01*
X133981881Y-49611248D01*
X133981884Y-49611246D01*
X134058618Y-49505629D01*
X134097944Y-49451501D01*
X134187591Y-49275561D01*
X134248610Y-49087763D01*
X134257150Y-49033842D01*
X134279500Y-48892736D01*
X134279500Y-48695263D01*
X134248610Y-48500236D01*
X134228270Y-48437637D01*
X134187591Y-48312439D01*
X134097944Y-48136499D01*
X134090486Y-48126234D01*
X133981884Y-47976753D01*
X133842246Y-47837115D01*
X133682505Y-47721058D01*
X133676119Y-47717804D01*
X133512593Y-47634482D01*
X133461800Y-47586510D01*
X133445005Y-47518689D01*
X133467542Y-47452554D01*
X133512593Y-47413517D01*
X133682501Y-47326944D01*
X133702912Y-47312114D01*
X133842246Y-47210884D01*
X133842248Y-47210881D01*
X133842252Y-47210879D01*
X133981879Y-47071252D01*
X133981881Y-47071248D01*
X133981884Y-47071246D01*
X134032779Y-47001192D01*
X134097944Y-46911501D01*
X134187591Y-46735561D01*
X134248610Y-46547763D01*
X134279500Y-46352736D01*
X134279500Y-46155263D01*
X134248610Y-45960236D01*
X134228270Y-45897637D01*
X134187591Y-45772439D01*
X134097944Y-45596499D01*
X134090486Y-45586234D01*
X133981884Y-45436753D01*
X133842246Y-45297115D01*
X133682505Y-45181058D01*
X133676119Y-45177804D01*
X133512593Y-45094482D01*
X133461800Y-45046510D01*
X133445005Y-44978689D01*
X133467542Y-44912554D01*
X133512593Y-44873517D01*
X133682501Y-44786944D01*
X133702912Y-44772114D01*
X133842246Y-44670884D01*
X133842248Y-44670881D01*
X133842252Y-44670879D01*
X133981879Y-44531252D01*
X133981881Y-44531248D01*
X133981884Y-44531246D01*
X134032779Y-44461192D01*
X134097944Y-44371501D01*
X134187591Y-44195561D01*
X134248610Y-44007763D01*
X134279500Y-43812736D01*
X134279500Y-43615263D01*
X134248610Y-43420236D01*
X134228270Y-43357637D01*
X134187591Y-43232439D01*
X134097944Y-43056499D01*
X134090486Y-43046234D01*
X133981884Y-42896753D01*
X133842246Y-42757115D01*
X133682505Y-42641058D01*
X133676119Y-42637804D01*
X133512593Y-42554482D01*
X133461800Y-42506510D01*
X133445005Y-42438689D01*
X133467542Y-42372554D01*
X133512593Y-42333517D01*
X133682501Y-42246944D01*
X133702912Y-42232114D01*
X133842246Y-42130884D01*
X133842248Y-42130881D01*
X133842252Y-42130879D01*
X133981879Y-41991252D01*
X133981881Y-41991248D01*
X133981884Y-41991246D01*
X134032779Y-41921192D01*
X134097944Y-41831501D01*
X134187591Y-41655561D01*
X134248610Y-41467763D01*
X134279500Y-41272736D01*
X134279500Y-41075263D01*
X134248610Y-40880236D01*
X134228270Y-40817637D01*
X134187591Y-40692439D01*
X134097944Y-40516499D01*
X134081450Y-40493797D01*
X133981884Y-40356753D01*
X133842246Y-40217115D01*
X133682505Y-40101058D01*
X133676119Y-40097804D01*
X133512593Y-40014482D01*
X133461800Y-39966510D01*
X133445005Y-39898689D01*
X133467542Y-39832554D01*
X133512593Y-39793517D01*
X133682501Y-39706944D01*
X133702912Y-39692114D01*
X133842246Y-39590884D01*
X133842248Y-39590881D01*
X133842252Y-39590879D01*
X133981879Y-39451252D01*
X133981881Y-39451248D01*
X133981884Y-39451246D01*
X134032779Y-39381192D01*
X134097944Y-39291501D01*
X134187591Y-39115561D01*
X134248610Y-38927763D01*
X134279500Y-38732736D01*
X134279500Y-38535263D01*
X134248610Y-38340236D01*
X134228270Y-38277637D01*
X134187591Y-38152439D01*
X134097944Y-37976499D01*
X134090486Y-37966234D01*
X133981884Y-37816753D01*
X133842246Y-37677115D01*
X133682505Y-37561058D01*
X133678234Y-37558881D01*
X133512593Y-37474482D01*
X133461800Y-37426510D01*
X133455764Y-37402135D01*
X157999500Y-37402135D01*
X157999500Y-40097870D01*
X157999501Y-40097876D01*
X158005908Y-40157483D01*
X158056202Y-40292328D01*
X158056206Y-40292335D01*
X158142452Y-40407544D01*
X158142455Y-40407547D01*
X158257664Y-40493793D01*
X158257671Y-40493797D01*
X158392517Y-40544091D01*
X158392516Y-40544091D01*
X158399444Y-40544835D01*
X158452127Y-40550500D01*
X161147872Y-40550499D01*
X161207483Y-40544091D01*
X161342331Y-40493796D01*
X161457546Y-40407546D01*
X161543796Y-40292331D01*
X161594091Y-40157483D01*
X161600500Y-40097873D01*
X161600499Y-37402128D01*
X161594091Y-37342517D01*
X161584801Y-37317610D01*
X161543797Y-37207671D01*
X161543793Y-37207664D01*
X161457547Y-37092455D01*
X161457544Y-37092452D01*
X161342335Y-37006206D01*
X161342328Y-37006202D01*
X161207482Y-36955908D01*
X161207483Y-36955908D01*
X161147883Y-36949501D01*
X161147881Y-36949500D01*
X161147873Y-36949500D01*
X161147864Y-36949500D01*
X158452129Y-36949500D01*
X158452123Y-36949501D01*
X158392516Y-36955908D01*
X158257671Y-37006202D01*
X158257664Y-37006206D01*
X158142455Y-37092452D01*
X158142452Y-37092455D01*
X158056206Y-37207664D01*
X158056202Y-37207671D01*
X158005908Y-37342517D01*
X157999501Y-37402116D01*
X157999501Y-37402123D01*
X157999500Y-37402135D01*
X133455764Y-37402135D01*
X133445005Y-37358689D01*
X133467543Y-37292554D01*
X133512593Y-37253517D01*
X133682501Y-37166944D01*
X133702912Y-37152114D01*
X133842246Y-37050884D01*
X133842248Y-37050881D01*
X133842252Y-37050879D01*
X133981879Y-36911252D01*
X133981881Y-36911248D01*
X133981884Y-36911246D01*
X134032779Y-36841192D01*
X134097944Y-36751501D01*
X134187591Y-36575561D01*
X134248610Y-36387763D01*
X134279500Y-36192736D01*
X134279500Y-35995263D01*
X134248610Y-35800236D01*
X134205736Y-35668284D01*
X134187591Y-35612439D01*
X134097944Y-35436499D01*
X134076216Y-35406593D01*
X133981884Y-35276753D01*
X133842246Y-35137115D01*
X133682504Y-35021058D01*
X133682503Y-35021057D01*
X133682501Y-35021056D01*
X133506561Y-34931409D01*
X133506558Y-34931408D01*
X133318763Y-34870389D01*
X133123736Y-34839500D01*
X133123731Y-34839500D01*
X132926269Y-34839500D01*
X132926264Y-34839500D01*
X132731236Y-34870389D01*
X132543441Y-34931408D01*
X132367495Y-35021058D01*
X132207753Y-35137115D01*
X132068115Y-35276753D01*
X131952058Y-35436495D01*
X131862408Y-35612441D01*
X131801389Y-35800236D01*
X131770500Y-35995263D01*
X106000000Y-35995263D01*
X106000000Y-33931995D01*
X160999500Y-33931995D01*
X160999500Y-34168004D01*
X160999501Y-34168020D01*
X161030306Y-34402010D01*
X161091394Y-34629993D01*
X161181714Y-34848045D01*
X161181719Y-34848056D01*
X161229843Y-34931408D01*
X161299727Y-35052450D01*
X161299729Y-35052453D01*
X161299730Y-35052454D01*
X161443406Y-35239697D01*
X161443412Y-35239704D01*
X161610295Y-35406587D01*
X161610302Y-35406593D01*
X161720306Y-35491001D01*
X161797550Y-35550273D01*
X161905225Y-35612439D01*
X162001943Y-35668280D01*
X162001948Y-35668282D01*
X162001951Y-35668284D01*
X162220007Y-35758606D01*
X162447986Y-35819693D01*
X162681989Y-35850500D01*
X162681996Y-35850500D01*
X162918004Y-35850500D01*
X162918011Y-35850500D01*
X163152014Y-35819693D01*
X163379993Y-35758606D01*
X163598049Y-35668284D01*
X163802450Y-35550273D01*
X163989699Y-35406592D01*
X164156592Y-35239699D01*
X164300273Y-35052450D01*
X164418284Y-34848049D01*
X164508606Y-34629993D01*
X164569693Y-34402014D01*
X164600500Y-34168011D01*
X164600500Y-33931989D01*
X164569693Y-33697986D01*
X164508606Y-33470007D01*
X164418284Y-33251951D01*
X164418282Y-33251948D01*
X164418280Y-33251943D01*
X164376118Y-33178918D01*
X164300273Y-33047550D01*
X164156592Y-32860301D01*
X164156587Y-32860295D01*
X163989704Y-32693412D01*
X163989697Y-32693406D01*
X163802454Y-32549730D01*
X163802453Y-32549729D01*
X163802450Y-32549727D01*
X163720957Y-32502677D01*
X163598056Y-32431719D01*
X163598045Y-32431714D01*
X163379993Y-32341394D01*
X163152010Y-32280306D01*
X162918020Y-32249501D01*
X162918017Y-32249500D01*
X162918011Y-32249500D01*
X162681989Y-32249500D01*
X162681983Y-32249500D01*
X162681979Y-32249501D01*
X162447989Y-32280306D01*
X162220006Y-32341394D01*
X162001954Y-32431714D01*
X162001943Y-32431719D01*
X161797545Y-32549730D01*
X161610302Y-32693406D01*
X161610295Y-32693412D01*
X161443412Y-32860295D01*
X161443406Y-32860302D01*
X161299730Y-33047545D01*
X161181719Y-33251943D01*
X161181714Y-33251954D01*
X161091394Y-33470006D01*
X161030306Y-33697989D01*
X160999501Y-33931979D01*
X160999500Y-33931995D01*
X106000000Y-33931995D01*
X106000000Y-27374038D01*
X110899500Y-27374038D01*
X110899500Y-27625961D01*
X110938910Y-27874785D01*
X111016760Y-28114383D01*
X111131132Y-28338848D01*
X111279201Y-28542649D01*
X111279205Y-28542654D01*
X111457345Y-28720794D01*
X111457350Y-28720798D01*
X111635117Y-28849952D01*
X111661155Y-28868870D01*
X111804184Y-28941747D01*
X111885616Y-28983239D01*
X111885618Y-28983239D01*
X111885621Y-28983241D01*
X112125215Y-29061090D01*
X112374038Y-29100500D01*
X112374039Y-29100500D01*
X112625961Y-29100500D01*
X112625962Y-29100500D01*
X112874785Y-29061090D01*
X113114379Y-28983241D01*
X113338845Y-28868870D01*
X113542656Y-28720793D01*
X113720793Y-28542656D01*
X113868870Y-28338845D01*
X113983241Y-28114379D01*
X114061090Y-27874785D01*
X114100500Y-27625962D01*
X114100500Y-27374038D01*
X165899500Y-27374038D01*
X165899500Y-27625961D01*
X165938910Y-27874785D01*
X166016760Y-28114383D01*
X166131132Y-28338848D01*
X166279201Y-28542649D01*
X166279205Y-28542654D01*
X166457345Y-28720794D01*
X166457350Y-28720798D01*
X166635117Y-28849952D01*
X166661155Y-28868870D01*
X166804184Y-28941747D01*
X166885616Y-28983239D01*
X166885618Y-28983239D01*
X166885621Y-28983241D01*
X167125215Y-29061090D01*
X167374038Y-29100500D01*
X167374039Y-29100500D01*
X167625961Y-29100500D01*
X167625962Y-29100500D01*
X167874785Y-29061090D01*
X168114379Y-28983241D01*
X168338845Y-28868870D01*
X168542656Y-28720793D01*
X168720793Y-28542656D01*
X168868870Y-28338845D01*
X168983241Y-28114379D01*
X169061090Y-27874785D01*
X169100500Y-27625962D01*
X169100500Y-27374038D01*
X169061090Y-27125215D01*
X168983241Y-26885621D01*
X168983239Y-26885618D01*
X168983239Y-26885616D01*
X168941747Y-26804184D01*
X168868870Y-26661155D01*
X168849952Y-26635117D01*
X168720798Y-26457350D01*
X168720794Y-26457345D01*
X168542654Y-26279205D01*
X168542649Y-26279201D01*
X168338848Y-26131132D01*
X168338847Y-26131131D01*
X168338845Y-26131130D01*
X168268747Y-26095413D01*
X168114383Y-26016760D01*
X167874785Y-25938910D01*
X167625962Y-25899500D01*
X167374038Y-25899500D01*
X167249626Y-25919205D01*
X167125214Y-25938910D01*
X166885616Y-26016760D01*
X166661151Y-26131132D01*
X166457350Y-26279201D01*
X166457345Y-26279205D01*
X166279205Y-26457345D01*
X166279201Y-26457350D01*
X166131132Y-26661151D01*
X166016760Y-26885616D01*
X165938910Y-27125214D01*
X165899500Y-27374038D01*
X114100500Y-27374038D01*
X114061090Y-27125215D01*
X113983241Y-26885621D01*
X113983239Y-26885618D01*
X113983239Y-26885616D01*
X113941747Y-26804184D01*
X113868870Y-26661155D01*
X113849952Y-26635117D01*
X113720798Y-26457350D01*
X113720794Y-26457345D01*
X113542654Y-26279205D01*
X113542649Y-26279201D01*
X113338848Y-26131132D01*
X113338847Y-26131131D01*
X113338845Y-26131130D01*
X113268747Y-26095413D01*
X113114383Y-26016760D01*
X112874785Y-25938910D01*
X112625962Y-25899500D01*
X112374038Y-25899500D01*
X112249626Y-25919205D01*
X112125214Y-25938910D01*
X111885616Y-26016760D01*
X111661151Y-26131132D01*
X111457350Y-26279201D01*
X111457345Y-26279205D01*
X111279205Y-26457345D01*
X111279201Y-26457350D01*
X111131132Y-26661151D01*
X111016760Y-26885616D01*
X110938910Y-27125214D01*
X110899500Y-27374038D01*
X106000000Y-27374038D01*
X106000000Y-22624500D01*
X106019685Y-22557461D01*
X106072489Y-22511706D01*
X106124000Y-22500500D01*
X173875500Y-22500500D01*
X173942539Y-22520185D01*
G37*
G04 #@! TD.AperFunction*
M02*
