%TF.GenerationSoftware,KiCad,Pcbnew,9.0.0*%
%TF.CreationDate,2025-05-15T15:19:50-04:00*%
%TF.ProjectId,blood_pressure,626c6f6f-645f-4707-9265-73737572652e,rev?*%
%TF.SameCoordinates,Original*%
%TF.FileFunction,Drillmap*%
%TF.FilePolarity,Positive*%
%FSLAX45Y45*%
G04 Gerber Fmt 4.5, Leading zero omitted, Abs format (unit mm)*
G04 Created by KiCad (PCBNEW 9.0.0) date 2025-05-15 15:19:50*
%MOMM*%
%LPD*%
G01*
G04 APERTURE LIST*
%ADD10C,0.050000*%
%ADD11C,0.200000*%
%ADD12C,0.100000*%
%ADD13C,0.102000*%
%ADD14C,0.110000*%
%ADD15C,0.160000*%
G04 APERTURE END LIST*
D10*
X10596000Y-2250000D02*
X10596000Y-10800000D01*
X10596000Y-2250000D02*
X17400000Y-2250000D01*
X17400000Y-10800000D02*
X17400000Y-2250000D01*
X10596000Y-10800000D02*
X17400000Y-10800000D01*
D11*
D12*
X16228500Y-4965250D02*
X16308500Y-5045250D01*
X16308500Y-4965250D02*
X16228500Y-5045250D01*
X16990500Y-4965250D02*
X17070500Y-5045250D01*
X17070500Y-4965250D02*
X16990500Y-5045250D01*
X16591000Y-8250000D02*
G75*
G02*
X16501000Y-8250000I-45000J0D01*
G01*
X16501000Y-8250000D02*
G75*
G02*
X16591000Y-8250000I45000J0D01*
G01*
X16591000Y-9250000D02*
G75*
G02*
X16501000Y-9250000I-45000J0D01*
G01*
X16501000Y-9250000D02*
G75*
G02*
X16591000Y-9250000I45000J0D01*
G01*
X16592500Y-7200000D02*
G75*
G02*
X16502500Y-7200000I-45000J0D01*
G01*
X16502500Y-7200000D02*
G75*
G02*
X16592500Y-7200000I45000J0D01*
G01*
X16845000Y-8250000D02*
G75*
G02*
X16755000Y-8250000I-45000J0D01*
G01*
X16755000Y-8250000D02*
G75*
G02*
X16845000Y-8250000I45000J0D01*
G01*
X16845000Y-9250000D02*
G75*
G02*
X16755000Y-9250000I-45000J0D01*
G01*
X16755000Y-9250000D02*
G75*
G02*
X16845000Y-9250000I45000J0D01*
G01*
X16846500Y-7200000D02*
G75*
G02*
X16756500Y-7200000I-45000J0D01*
G01*
X16756500Y-7200000D02*
G75*
G02*
X16846500Y-7200000I45000J0D01*
G01*
X10762500Y-4575400D02*
X10762500Y-4675400D01*
X10712500Y-4625400D02*
X10812500Y-4625400D01*
X10762500Y-4829400D02*
X10762500Y-4929400D01*
X10712500Y-4879400D02*
X10812500Y-4879400D01*
X10762500Y-5083400D02*
X10762500Y-5183400D01*
X10712500Y-5133400D02*
X10812500Y-5133400D01*
X10762500Y-5337400D02*
X10762500Y-5437400D01*
X10712500Y-5387400D02*
X10812500Y-5387400D01*
X10762500Y-5591400D02*
X10762500Y-5691400D01*
X10712500Y-5641400D02*
X10812500Y-5641400D01*
X13302500Y-3559400D02*
X13302500Y-3659400D01*
X13252500Y-3609400D02*
X13352500Y-3609400D01*
X13302500Y-3813400D02*
X13302500Y-3913400D01*
X13252500Y-3863400D02*
X13352500Y-3863400D01*
X13302500Y-4067400D02*
X13302500Y-4167400D01*
X13252500Y-4117400D02*
X13352500Y-4117400D01*
X13302500Y-4321400D02*
X13302500Y-4421400D01*
X13252500Y-4371400D02*
X13352500Y-4371400D01*
X13302500Y-4575400D02*
X13302500Y-4675400D01*
X13252500Y-4625400D02*
X13352500Y-4625400D01*
X13302500Y-4829400D02*
X13302500Y-4929400D01*
X13252500Y-4879400D02*
X13352500Y-4879400D01*
X13302500Y-5083400D02*
X13302500Y-5183400D01*
X13252500Y-5133400D02*
X13352500Y-5133400D01*
X13302500Y-5337400D02*
X13302500Y-5437400D01*
X13252500Y-5387400D02*
X13352500Y-5387400D01*
X13302500Y-5591400D02*
X13302500Y-5691400D01*
X13252500Y-5641400D02*
X13352500Y-5641400D01*
D13*
X10819063Y-7155473D02*
X10819063Y-7083347D01*
X10746937Y-7083347D01*
X10746937Y-7155473D01*
X10819063Y-7155473D01*
X10819063Y-8933473D02*
X10819063Y-8861347D01*
X10746937Y-8861347D01*
X10746937Y-8933473D01*
X10819063Y-8933473D01*
X11073063Y-7155473D02*
X11073063Y-7083347D01*
X11000937Y-7083347D01*
X11000937Y-7155473D01*
X11073063Y-7155473D01*
X11073063Y-8933473D02*
X11073063Y-8861347D01*
X11000937Y-8861347D01*
X11000937Y-8933473D01*
X11073063Y-8933473D01*
X11327063Y-7155473D02*
X11327063Y-7083347D01*
X11254937Y-7083347D01*
X11254937Y-7155473D01*
X11327063Y-7155473D01*
X11327063Y-8933473D02*
X11327063Y-8861347D01*
X11254937Y-8861347D01*
X11254937Y-8933473D01*
X11327063Y-8933473D01*
X11581063Y-7155473D02*
X11581063Y-7083347D01*
X11508937Y-7083347D01*
X11508937Y-7155473D01*
X11581063Y-7155473D01*
X11581063Y-8933473D02*
X11581063Y-8861347D01*
X11508937Y-8861347D01*
X11508937Y-8933473D01*
X11581063Y-8933473D01*
X11835063Y-7155473D02*
X11835063Y-7083347D01*
X11762937Y-7083347D01*
X11762937Y-7155473D01*
X11835063Y-7155473D01*
X11835063Y-8933473D02*
X11835063Y-8861347D01*
X11762937Y-8861347D01*
X11762937Y-8933473D01*
X11835063Y-8933473D01*
X12089063Y-7155473D02*
X12089063Y-7083347D01*
X12016937Y-7083347D01*
X12016937Y-7155473D01*
X12089063Y-7155473D01*
X12089063Y-8933473D02*
X12089063Y-8861347D01*
X12016937Y-8861347D01*
X12016937Y-8933473D01*
X12089063Y-8933473D01*
X12343063Y-7155473D02*
X12343063Y-7083347D01*
X12270937Y-7083347D01*
X12270937Y-7155473D01*
X12343063Y-7155473D01*
X12343063Y-8933473D02*
X12343063Y-8861347D01*
X12270937Y-8861347D01*
X12270937Y-8933473D01*
X12343063Y-8933473D01*
X12597063Y-7155473D02*
X12597063Y-7083347D01*
X12524937Y-7083347D01*
X12524937Y-7155473D01*
X12597063Y-7155473D01*
X12597063Y-8933473D02*
X12597063Y-8861347D01*
X12524937Y-8861347D01*
X12524937Y-8933473D01*
X12597063Y-8933473D01*
X12851063Y-7155473D02*
X12851063Y-7083347D01*
X12778937Y-7083347D01*
X12778937Y-7155473D01*
X12851063Y-7155473D01*
X12851063Y-8933473D02*
X12851063Y-8861347D01*
X12778937Y-8861347D01*
X12778937Y-8933473D01*
X12851063Y-8933473D01*
X13105063Y-7155473D02*
X13105063Y-7083347D01*
X13032937Y-7083347D01*
X13032937Y-7155473D01*
X13105063Y-7155473D01*
X13105063Y-8933473D02*
X13105063Y-8861347D01*
X13032937Y-8861347D01*
X13032937Y-8933473D01*
X13105063Y-8933473D01*
X13359063Y-7155473D02*
X13359063Y-7083347D01*
X13286937Y-7083347D01*
X13286937Y-7155473D01*
X13359063Y-7155473D01*
X13359063Y-8933473D02*
X13359063Y-8861347D01*
X13286937Y-8861347D01*
X13286937Y-8933473D01*
X13359063Y-8933473D01*
X13613063Y-7155473D02*
X13613063Y-7083347D01*
X13540937Y-7083347D01*
X13540937Y-7155473D01*
X13613063Y-7155473D01*
X13613063Y-8933473D02*
X13613063Y-8861347D01*
X13540937Y-8861347D01*
X13540937Y-8933473D01*
X13613063Y-8933473D01*
X13792063Y-7478063D02*
X13792063Y-7405937D01*
X13719937Y-7405937D01*
X13719937Y-7478063D01*
X13792063Y-7478063D01*
X13792063Y-7732063D02*
X13792063Y-7659937D01*
X13719937Y-7659937D01*
X13719937Y-7732063D01*
X13792063Y-7732063D01*
X13792063Y-7986063D02*
X13792063Y-7913937D01*
X13719937Y-7913937D01*
X13719937Y-7986063D01*
X13792063Y-7986063D01*
X13867063Y-7155473D02*
X13867063Y-7083347D01*
X13794937Y-7083347D01*
X13794937Y-7155473D01*
X13867063Y-7155473D01*
X13867063Y-8933473D02*
X13867063Y-8861347D01*
X13794937Y-8861347D01*
X13794937Y-8933473D01*
X13867063Y-8933473D01*
X14121063Y-7155473D02*
X14121063Y-7083347D01*
X14048937Y-7083347D01*
X14048937Y-7155473D01*
X14121063Y-7155473D01*
X14121063Y-8933473D02*
X14121063Y-8861347D01*
X14048937Y-8861347D01*
X14048937Y-8933473D01*
X14121063Y-8933473D01*
X14375063Y-7155473D02*
X14375063Y-7083347D01*
X14302937Y-7083347D01*
X14302937Y-7155473D01*
X14375063Y-7155473D01*
X14375063Y-8933473D02*
X14375063Y-8861347D01*
X14302937Y-8861347D01*
X14302937Y-8933473D01*
X14375063Y-8933473D01*
X14629063Y-7155473D02*
X14629063Y-7083347D01*
X14556937Y-7083347D01*
X14556937Y-7155473D01*
X14629063Y-7155473D01*
X14629063Y-8933473D02*
X14629063Y-8861347D01*
X14556937Y-8861347D01*
X14556937Y-8933473D01*
X14629063Y-8933473D01*
X14883063Y-7155473D02*
X14883063Y-7083347D01*
X14810937Y-7083347D01*
X14810937Y-7155473D01*
X14883063Y-7155473D01*
X14883063Y-8933473D02*
X14883063Y-8861347D01*
X14810937Y-8861347D01*
X14810937Y-8933473D01*
X14883063Y-8933473D01*
X15137063Y-7155473D02*
X15137063Y-7083347D01*
X15064937Y-7083347D01*
X15064937Y-7155473D01*
X15137063Y-7155473D01*
X15137063Y-8933473D02*
X15137063Y-8861347D01*
X15064937Y-8861347D01*
X15064937Y-8933473D01*
X15137063Y-8933473D01*
X15391063Y-7155473D02*
X15391063Y-7083347D01*
X15318937Y-7083347D01*
X15318937Y-7155473D01*
X15391063Y-7155473D01*
X15391063Y-8933473D02*
X15391063Y-8861347D01*
X15318937Y-8861347D01*
X15318937Y-8933473D01*
X15391063Y-8933473D01*
X15645063Y-7155473D02*
X15645063Y-7083347D01*
X15572937Y-7083347D01*
X15572937Y-7155473D01*
X15645063Y-7155473D01*
X15645063Y-8933473D02*
X15645063Y-8861347D01*
X15572937Y-8861347D01*
X15572937Y-8933473D01*
X15645063Y-8933473D01*
D14*
X16325000Y-5880000D02*
X16380000Y-5825000D01*
X16325000Y-5770000D01*
X16270000Y-5825000D01*
X16325000Y-5880000D01*
X16325000Y-6330000D02*
X16380000Y-6275000D01*
X16325000Y-6220000D01*
X16270000Y-6275000D01*
X16325000Y-6330000D01*
X16975000Y-5880000D02*
X17030000Y-5825000D01*
X16975000Y-5770000D01*
X16920000Y-5825000D01*
X16975000Y-5880000D01*
X16975000Y-6330000D02*
X17030000Y-6275000D01*
X16975000Y-6220000D01*
X16920000Y-6275000D01*
X16975000Y-6330000D01*
D15*
X15900000Y-3795000D02*
X16060000Y-3955000D01*
X16060000Y-3795000D02*
X15900000Y-3955000D01*
X16060000Y-3875000D02*
G75*
G02*
X15900000Y-3875000I-80000J0D01*
G01*
X15900000Y-3875000D02*
G75*
G02*
X16060000Y-3875000I80000J0D01*
G01*
X16200000Y-3325000D02*
X16360000Y-3485000D01*
X16360000Y-3325000D02*
X16200000Y-3485000D01*
X16360000Y-3405000D02*
G75*
G02*
X16200000Y-3405000I-80000J0D01*
G01*
X16200000Y-3405000D02*
G75*
G02*
X16360000Y-3405000I80000J0D01*
G01*
X16500000Y-3795000D02*
X16660000Y-3955000D01*
X16660000Y-3795000D02*
X16500000Y-3955000D01*
X16660000Y-3875000D02*
G75*
G02*
X16500000Y-3875000I-80000J0D01*
G01*
X16500000Y-3875000D02*
G75*
G02*
X16660000Y-3875000I80000J0D01*
G01*
D11*
X10854277Y-11113984D02*
X10854277Y-10913984D01*
X10854277Y-10913984D02*
X10901896Y-10913984D01*
X10901896Y-10913984D02*
X10930467Y-10923508D01*
X10930467Y-10923508D02*
X10949515Y-10942555D01*
X10949515Y-10942555D02*
X10959039Y-10961603D01*
X10959039Y-10961603D02*
X10968563Y-10999698D01*
X10968563Y-10999698D02*
X10968563Y-11028270D01*
X10968563Y-11028270D02*
X10959039Y-11066365D01*
X10959039Y-11066365D02*
X10949515Y-11085412D01*
X10949515Y-11085412D02*
X10930467Y-11104460D01*
X10930467Y-11104460D02*
X10901896Y-11113984D01*
X10901896Y-11113984D02*
X10854277Y-11113984D01*
X11054277Y-11113984D02*
X11054277Y-10980650D01*
X11054277Y-11018746D02*
X11063801Y-10999698D01*
X11063801Y-10999698D02*
X11073324Y-10990174D01*
X11073324Y-10990174D02*
X11092372Y-10980650D01*
X11092372Y-10980650D02*
X11111420Y-10980650D01*
X11178086Y-11113984D02*
X11178086Y-10980650D01*
X11178086Y-10913984D02*
X11168563Y-10923508D01*
X11168563Y-10923508D02*
X11178086Y-10933031D01*
X11178086Y-10933031D02*
X11187610Y-10923508D01*
X11187610Y-10923508D02*
X11178086Y-10913984D01*
X11178086Y-10913984D02*
X11178086Y-10933031D01*
X11301896Y-11113984D02*
X11282848Y-11104460D01*
X11282848Y-11104460D02*
X11273324Y-11085412D01*
X11273324Y-11085412D02*
X11273324Y-10913984D01*
X11406658Y-11113984D02*
X11387610Y-11104460D01*
X11387610Y-11104460D02*
X11378086Y-11085412D01*
X11378086Y-11085412D02*
X11378086Y-10913984D01*
X11635229Y-11113984D02*
X11635229Y-10913984D01*
X11635229Y-10913984D02*
X11701896Y-11056841D01*
X11701896Y-11056841D02*
X11768562Y-10913984D01*
X11768562Y-10913984D02*
X11768562Y-11113984D01*
X11949515Y-11113984D02*
X11949515Y-11009222D01*
X11949515Y-11009222D02*
X11939991Y-10990174D01*
X11939991Y-10990174D02*
X11920943Y-10980650D01*
X11920943Y-10980650D02*
X11882848Y-10980650D01*
X11882848Y-10980650D02*
X11863801Y-10990174D01*
X11949515Y-11104460D02*
X11930467Y-11113984D01*
X11930467Y-11113984D02*
X11882848Y-11113984D01*
X11882848Y-11113984D02*
X11863801Y-11104460D01*
X11863801Y-11104460D02*
X11854277Y-11085412D01*
X11854277Y-11085412D02*
X11854277Y-11066365D01*
X11854277Y-11066365D02*
X11863801Y-11047317D01*
X11863801Y-11047317D02*
X11882848Y-11037793D01*
X11882848Y-11037793D02*
X11930467Y-11037793D01*
X11930467Y-11037793D02*
X11949515Y-11028270D01*
X12044753Y-10980650D02*
X12044753Y-11180650D01*
X12044753Y-10990174D02*
X12063801Y-10980650D01*
X12063801Y-10980650D02*
X12101896Y-10980650D01*
X12101896Y-10980650D02*
X12120943Y-10990174D01*
X12120943Y-10990174D02*
X12130467Y-10999698D01*
X12130467Y-10999698D02*
X12139991Y-11018746D01*
X12139991Y-11018746D02*
X12139991Y-11075889D01*
X12139991Y-11075889D02*
X12130467Y-11094936D01*
X12130467Y-11094936D02*
X12120943Y-11104460D01*
X12120943Y-11104460D02*
X12101896Y-11113984D01*
X12101896Y-11113984D02*
X12063801Y-11113984D01*
X12063801Y-11113984D02*
X12044753Y-11104460D01*
X12225705Y-11094936D02*
X12235229Y-11104460D01*
X12235229Y-11104460D02*
X12225705Y-11113984D01*
X12225705Y-11113984D02*
X12216182Y-11104460D01*
X12216182Y-11104460D02*
X12225705Y-11094936D01*
X12225705Y-11094936D02*
X12225705Y-11113984D01*
X12225705Y-10990174D02*
X12235229Y-10999698D01*
X12235229Y-10999698D02*
X12225705Y-11009222D01*
X12225705Y-11009222D02*
X12216182Y-10999698D01*
X12216182Y-10999698D02*
X12225705Y-10990174D01*
X12225705Y-10990174D02*
X12225705Y-11009222D01*
D12*
X10513500Y-11402500D02*
X10593500Y-11482500D01*
X10593500Y-11402500D02*
X10513500Y-11482500D01*
D11*
X10892372Y-11333984D02*
X10911420Y-11333984D01*
X10911420Y-11333984D02*
X10930467Y-11343508D01*
X10930467Y-11343508D02*
X10939991Y-11353031D01*
X10939991Y-11353031D02*
X10949515Y-11372079D01*
X10949515Y-11372079D02*
X10959039Y-11410174D01*
X10959039Y-11410174D02*
X10959039Y-11457793D01*
X10959039Y-11457793D02*
X10949515Y-11495888D01*
X10949515Y-11495888D02*
X10939991Y-11514936D01*
X10939991Y-11514936D02*
X10930467Y-11524460D01*
X10930467Y-11524460D02*
X10911420Y-11533984D01*
X10911420Y-11533984D02*
X10892372Y-11533984D01*
X10892372Y-11533984D02*
X10873324Y-11524460D01*
X10873324Y-11524460D02*
X10863801Y-11514936D01*
X10863801Y-11514936D02*
X10854277Y-11495888D01*
X10854277Y-11495888D02*
X10844753Y-11457793D01*
X10844753Y-11457793D02*
X10844753Y-11410174D01*
X10844753Y-11410174D02*
X10854277Y-11372079D01*
X10854277Y-11372079D02*
X10863801Y-11353031D01*
X10863801Y-11353031D02*
X10873324Y-11343508D01*
X10873324Y-11343508D02*
X10892372Y-11333984D01*
X11044753Y-11514936D02*
X11054277Y-11524460D01*
X11054277Y-11524460D02*
X11044753Y-11533984D01*
X11044753Y-11533984D02*
X11035229Y-11524460D01*
X11035229Y-11524460D02*
X11044753Y-11514936D01*
X11044753Y-11514936D02*
X11044753Y-11533984D01*
X11168563Y-11419698D02*
X11149515Y-11410174D01*
X11149515Y-11410174D02*
X11139991Y-11400650D01*
X11139991Y-11400650D02*
X11130467Y-11381603D01*
X11130467Y-11381603D02*
X11130467Y-11372079D01*
X11130467Y-11372079D02*
X11139991Y-11353031D01*
X11139991Y-11353031D02*
X11149515Y-11343508D01*
X11149515Y-11343508D02*
X11168563Y-11333984D01*
X11168563Y-11333984D02*
X11206658Y-11333984D01*
X11206658Y-11333984D02*
X11225705Y-11343508D01*
X11225705Y-11343508D02*
X11235229Y-11353031D01*
X11235229Y-11353031D02*
X11244753Y-11372079D01*
X11244753Y-11372079D02*
X11244753Y-11381603D01*
X11244753Y-11381603D02*
X11235229Y-11400650D01*
X11235229Y-11400650D02*
X11225705Y-11410174D01*
X11225705Y-11410174D02*
X11206658Y-11419698D01*
X11206658Y-11419698D02*
X11168563Y-11419698D01*
X11168563Y-11419698D02*
X11149515Y-11429222D01*
X11149515Y-11429222D02*
X11139991Y-11438746D01*
X11139991Y-11438746D02*
X11130467Y-11457793D01*
X11130467Y-11457793D02*
X11130467Y-11495888D01*
X11130467Y-11495888D02*
X11139991Y-11514936D01*
X11139991Y-11514936D02*
X11149515Y-11524460D01*
X11149515Y-11524460D02*
X11168563Y-11533984D01*
X11168563Y-11533984D02*
X11206658Y-11533984D01*
X11206658Y-11533984D02*
X11225705Y-11524460D01*
X11225705Y-11524460D02*
X11235229Y-11514936D01*
X11235229Y-11514936D02*
X11244753Y-11495888D01*
X11244753Y-11495888D02*
X11244753Y-11457793D01*
X11244753Y-11457793D02*
X11235229Y-11438746D01*
X11235229Y-11438746D02*
X11225705Y-11429222D01*
X11225705Y-11429222D02*
X11206658Y-11419698D01*
X11368562Y-11333984D02*
X11387610Y-11333984D01*
X11387610Y-11333984D02*
X11406658Y-11343508D01*
X11406658Y-11343508D02*
X11416182Y-11353031D01*
X11416182Y-11353031D02*
X11425705Y-11372079D01*
X11425705Y-11372079D02*
X11435229Y-11410174D01*
X11435229Y-11410174D02*
X11435229Y-11457793D01*
X11435229Y-11457793D02*
X11425705Y-11495888D01*
X11425705Y-11495888D02*
X11416182Y-11514936D01*
X11416182Y-11514936D02*
X11406658Y-11524460D01*
X11406658Y-11524460D02*
X11387610Y-11533984D01*
X11387610Y-11533984D02*
X11368562Y-11533984D01*
X11368562Y-11533984D02*
X11349515Y-11524460D01*
X11349515Y-11524460D02*
X11339991Y-11514936D01*
X11339991Y-11514936D02*
X11330467Y-11495888D01*
X11330467Y-11495888D02*
X11320943Y-11457793D01*
X11320943Y-11457793D02*
X11320943Y-11410174D01*
X11320943Y-11410174D02*
X11330467Y-11372079D01*
X11330467Y-11372079D02*
X11339991Y-11353031D01*
X11339991Y-11353031D02*
X11349515Y-11343508D01*
X11349515Y-11343508D02*
X11368562Y-11333984D01*
X11559039Y-11333984D02*
X11578086Y-11333984D01*
X11578086Y-11333984D02*
X11597134Y-11343508D01*
X11597134Y-11343508D02*
X11606658Y-11353031D01*
X11606658Y-11353031D02*
X11616182Y-11372079D01*
X11616182Y-11372079D02*
X11625705Y-11410174D01*
X11625705Y-11410174D02*
X11625705Y-11457793D01*
X11625705Y-11457793D02*
X11616182Y-11495888D01*
X11616182Y-11495888D02*
X11606658Y-11514936D01*
X11606658Y-11514936D02*
X11597134Y-11524460D01*
X11597134Y-11524460D02*
X11578086Y-11533984D01*
X11578086Y-11533984D02*
X11559039Y-11533984D01*
X11559039Y-11533984D02*
X11539991Y-11524460D01*
X11539991Y-11524460D02*
X11530467Y-11514936D01*
X11530467Y-11514936D02*
X11520943Y-11495888D01*
X11520943Y-11495888D02*
X11511420Y-11457793D01*
X11511420Y-11457793D02*
X11511420Y-11410174D01*
X11511420Y-11410174D02*
X11520943Y-11372079D01*
X11520943Y-11372079D02*
X11530467Y-11353031D01*
X11530467Y-11353031D02*
X11539991Y-11343508D01*
X11539991Y-11343508D02*
X11559039Y-11333984D01*
X11711420Y-11533984D02*
X11711420Y-11400650D01*
X11711420Y-11419698D02*
X11720943Y-11410174D01*
X11720943Y-11410174D02*
X11739991Y-11400650D01*
X11739991Y-11400650D02*
X11768563Y-11400650D01*
X11768563Y-11400650D02*
X11787610Y-11410174D01*
X11787610Y-11410174D02*
X11797134Y-11429222D01*
X11797134Y-11429222D02*
X11797134Y-11533984D01*
X11797134Y-11429222D02*
X11806658Y-11410174D01*
X11806658Y-11410174D02*
X11825705Y-11400650D01*
X11825705Y-11400650D02*
X11854277Y-11400650D01*
X11854277Y-11400650D02*
X11873324Y-11410174D01*
X11873324Y-11410174D02*
X11882848Y-11429222D01*
X11882848Y-11429222D02*
X11882848Y-11533984D01*
X11978086Y-11533984D02*
X11978086Y-11400650D01*
X11978086Y-11419698D02*
X11987610Y-11410174D01*
X11987610Y-11410174D02*
X12006658Y-11400650D01*
X12006658Y-11400650D02*
X12035229Y-11400650D01*
X12035229Y-11400650D02*
X12054277Y-11410174D01*
X12054277Y-11410174D02*
X12063801Y-11429222D01*
X12063801Y-11429222D02*
X12063801Y-11533984D01*
X12063801Y-11429222D02*
X12073324Y-11410174D01*
X12073324Y-11410174D02*
X12092372Y-11400650D01*
X12092372Y-11400650D02*
X12120943Y-11400650D01*
X12120943Y-11400650D02*
X12139991Y-11410174D01*
X12139991Y-11410174D02*
X12149515Y-11429222D01*
X12149515Y-11429222D02*
X12149515Y-11533984D01*
X12539991Y-11324460D02*
X12368563Y-11581603D01*
X12797134Y-11333984D02*
X12816182Y-11333984D01*
X12816182Y-11333984D02*
X12835229Y-11343508D01*
X12835229Y-11343508D02*
X12844753Y-11353031D01*
X12844753Y-11353031D02*
X12854277Y-11372079D01*
X12854277Y-11372079D02*
X12863801Y-11410174D01*
X12863801Y-11410174D02*
X12863801Y-11457793D01*
X12863801Y-11457793D02*
X12854277Y-11495888D01*
X12854277Y-11495888D02*
X12844753Y-11514936D01*
X12844753Y-11514936D02*
X12835229Y-11524460D01*
X12835229Y-11524460D02*
X12816182Y-11533984D01*
X12816182Y-11533984D02*
X12797134Y-11533984D01*
X12797134Y-11533984D02*
X12778086Y-11524460D01*
X12778086Y-11524460D02*
X12768563Y-11514936D01*
X12768563Y-11514936D02*
X12759039Y-11495888D01*
X12759039Y-11495888D02*
X12749515Y-11457793D01*
X12749515Y-11457793D02*
X12749515Y-11410174D01*
X12749515Y-11410174D02*
X12759039Y-11372079D01*
X12759039Y-11372079D02*
X12768563Y-11353031D01*
X12768563Y-11353031D02*
X12778086Y-11343508D01*
X12778086Y-11343508D02*
X12797134Y-11333984D01*
X12949515Y-11514936D02*
X12959039Y-11524460D01*
X12959039Y-11524460D02*
X12949515Y-11533984D01*
X12949515Y-11533984D02*
X12939991Y-11524460D01*
X12939991Y-11524460D02*
X12949515Y-11514936D01*
X12949515Y-11514936D02*
X12949515Y-11533984D01*
X13082848Y-11333984D02*
X13101896Y-11333984D01*
X13101896Y-11333984D02*
X13120944Y-11343508D01*
X13120944Y-11343508D02*
X13130467Y-11353031D01*
X13130467Y-11353031D02*
X13139991Y-11372079D01*
X13139991Y-11372079D02*
X13149515Y-11410174D01*
X13149515Y-11410174D02*
X13149515Y-11457793D01*
X13149515Y-11457793D02*
X13139991Y-11495888D01*
X13139991Y-11495888D02*
X13130467Y-11514936D01*
X13130467Y-11514936D02*
X13120944Y-11524460D01*
X13120944Y-11524460D02*
X13101896Y-11533984D01*
X13101896Y-11533984D02*
X13082848Y-11533984D01*
X13082848Y-11533984D02*
X13063801Y-11524460D01*
X13063801Y-11524460D02*
X13054277Y-11514936D01*
X13054277Y-11514936D02*
X13044753Y-11495888D01*
X13044753Y-11495888D02*
X13035229Y-11457793D01*
X13035229Y-11457793D02*
X13035229Y-11410174D01*
X13035229Y-11410174D02*
X13044753Y-11372079D01*
X13044753Y-11372079D02*
X13054277Y-11353031D01*
X13054277Y-11353031D02*
X13063801Y-11343508D01*
X13063801Y-11343508D02*
X13082848Y-11333984D01*
X13216182Y-11333984D02*
X13339991Y-11333984D01*
X13339991Y-11333984D02*
X13273325Y-11410174D01*
X13273325Y-11410174D02*
X13301896Y-11410174D01*
X13301896Y-11410174D02*
X13320944Y-11419698D01*
X13320944Y-11419698D02*
X13330467Y-11429222D01*
X13330467Y-11429222D02*
X13339991Y-11448269D01*
X13339991Y-11448269D02*
X13339991Y-11495888D01*
X13339991Y-11495888D02*
X13330467Y-11514936D01*
X13330467Y-11514936D02*
X13320944Y-11524460D01*
X13320944Y-11524460D02*
X13301896Y-11533984D01*
X13301896Y-11533984D02*
X13244753Y-11533984D01*
X13244753Y-11533984D02*
X13225706Y-11524460D01*
X13225706Y-11524460D02*
X13216182Y-11514936D01*
X13530467Y-11533984D02*
X13416182Y-11533984D01*
X13473325Y-11533984D02*
X13473325Y-11333984D01*
X13473325Y-11333984D02*
X13454277Y-11362555D01*
X13454277Y-11362555D02*
X13435229Y-11381603D01*
X13435229Y-11381603D02*
X13416182Y-11391127D01*
X13711420Y-11333984D02*
X13616182Y-11333984D01*
X13616182Y-11333984D02*
X13606658Y-11429222D01*
X13606658Y-11429222D02*
X13616182Y-11419698D01*
X13616182Y-11419698D02*
X13635229Y-11410174D01*
X13635229Y-11410174D02*
X13682848Y-11410174D01*
X13682848Y-11410174D02*
X13701896Y-11419698D01*
X13701896Y-11419698D02*
X13711420Y-11429222D01*
X13711420Y-11429222D02*
X13720944Y-11448269D01*
X13720944Y-11448269D02*
X13720944Y-11495888D01*
X13720944Y-11495888D02*
X13711420Y-11514936D01*
X13711420Y-11514936D02*
X13701896Y-11524460D01*
X13701896Y-11524460D02*
X13682848Y-11533984D01*
X13682848Y-11533984D02*
X13635229Y-11533984D01*
X13635229Y-11533984D02*
X13616182Y-11524460D01*
X13616182Y-11524460D02*
X13606658Y-11514936D01*
X13797134Y-11333984D02*
X13797134Y-11372079D01*
X13873325Y-11333984D02*
X13873325Y-11372079D01*
X14168563Y-11610174D02*
X14159039Y-11600650D01*
X14159039Y-11600650D02*
X14139991Y-11572079D01*
X14139991Y-11572079D02*
X14130468Y-11553031D01*
X14130468Y-11553031D02*
X14120944Y-11524460D01*
X14120944Y-11524460D02*
X14111420Y-11476841D01*
X14111420Y-11476841D02*
X14111420Y-11438746D01*
X14111420Y-11438746D02*
X14120944Y-11391127D01*
X14120944Y-11391127D02*
X14130468Y-11362555D01*
X14130468Y-11362555D02*
X14139991Y-11343508D01*
X14139991Y-11343508D02*
X14159039Y-11314936D01*
X14159039Y-11314936D02*
X14168563Y-11305412D01*
X14235229Y-11353031D02*
X14244753Y-11343508D01*
X14244753Y-11343508D02*
X14263801Y-11333984D01*
X14263801Y-11333984D02*
X14311420Y-11333984D01*
X14311420Y-11333984D02*
X14330468Y-11343508D01*
X14330468Y-11343508D02*
X14339991Y-11353031D01*
X14339991Y-11353031D02*
X14349515Y-11372079D01*
X14349515Y-11372079D02*
X14349515Y-11391127D01*
X14349515Y-11391127D02*
X14339991Y-11419698D01*
X14339991Y-11419698D02*
X14225706Y-11533984D01*
X14225706Y-11533984D02*
X14349515Y-11533984D01*
X14587610Y-11533984D02*
X14587610Y-11333984D01*
X14673325Y-11533984D02*
X14673325Y-11429222D01*
X14673325Y-11429222D02*
X14663801Y-11410174D01*
X14663801Y-11410174D02*
X14644753Y-11400650D01*
X14644753Y-11400650D02*
X14616182Y-11400650D01*
X14616182Y-11400650D02*
X14597134Y-11410174D01*
X14597134Y-11410174D02*
X14587610Y-11419698D01*
X14797134Y-11533984D02*
X14778087Y-11524460D01*
X14778087Y-11524460D02*
X14768563Y-11514936D01*
X14768563Y-11514936D02*
X14759039Y-11495888D01*
X14759039Y-11495888D02*
X14759039Y-11438746D01*
X14759039Y-11438746D02*
X14768563Y-11419698D01*
X14768563Y-11419698D02*
X14778087Y-11410174D01*
X14778087Y-11410174D02*
X14797134Y-11400650D01*
X14797134Y-11400650D02*
X14825706Y-11400650D01*
X14825706Y-11400650D02*
X14844753Y-11410174D01*
X14844753Y-11410174D02*
X14854277Y-11419698D01*
X14854277Y-11419698D02*
X14863801Y-11438746D01*
X14863801Y-11438746D02*
X14863801Y-11495888D01*
X14863801Y-11495888D02*
X14854277Y-11514936D01*
X14854277Y-11514936D02*
X14844753Y-11524460D01*
X14844753Y-11524460D02*
X14825706Y-11533984D01*
X14825706Y-11533984D02*
X14797134Y-11533984D01*
X14978087Y-11533984D02*
X14959039Y-11524460D01*
X14959039Y-11524460D02*
X14949515Y-11505412D01*
X14949515Y-11505412D02*
X14949515Y-11333984D01*
X15130468Y-11524460D02*
X15111420Y-11533984D01*
X15111420Y-11533984D02*
X15073325Y-11533984D01*
X15073325Y-11533984D02*
X15054277Y-11524460D01*
X15054277Y-11524460D02*
X15044753Y-11505412D01*
X15044753Y-11505412D02*
X15044753Y-11429222D01*
X15044753Y-11429222D02*
X15054277Y-11410174D01*
X15054277Y-11410174D02*
X15073325Y-11400650D01*
X15073325Y-11400650D02*
X15111420Y-11400650D01*
X15111420Y-11400650D02*
X15130468Y-11410174D01*
X15130468Y-11410174D02*
X15139991Y-11429222D01*
X15139991Y-11429222D02*
X15139991Y-11448269D01*
X15139991Y-11448269D02*
X15044753Y-11467317D01*
X15216182Y-11524460D02*
X15235230Y-11533984D01*
X15235230Y-11533984D02*
X15273325Y-11533984D01*
X15273325Y-11533984D02*
X15292372Y-11524460D01*
X15292372Y-11524460D02*
X15301896Y-11505412D01*
X15301896Y-11505412D02*
X15301896Y-11495888D01*
X15301896Y-11495888D02*
X15292372Y-11476841D01*
X15292372Y-11476841D02*
X15273325Y-11467317D01*
X15273325Y-11467317D02*
X15244753Y-11467317D01*
X15244753Y-11467317D02*
X15225706Y-11457793D01*
X15225706Y-11457793D02*
X15216182Y-11438746D01*
X15216182Y-11438746D02*
X15216182Y-11429222D01*
X15216182Y-11429222D02*
X15225706Y-11410174D01*
X15225706Y-11410174D02*
X15244753Y-11400650D01*
X15244753Y-11400650D02*
X15273325Y-11400650D01*
X15273325Y-11400650D02*
X15292372Y-11410174D01*
X15368563Y-11610174D02*
X15378087Y-11600650D01*
X15378087Y-11600650D02*
X15397134Y-11572079D01*
X15397134Y-11572079D02*
X15406658Y-11553031D01*
X15406658Y-11553031D02*
X15416182Y-11524460D01*
X15416182Y-11524460D02*
X15425706Y-11476841D01*
X15425706Y-11476841D02*
X15425706Y-11438746D01*
X15425706Y-11438746D02*
X15416182Y-11391127D01*
X15416182Y-11391127D02*
X15406658Y-11362555D01*
X15406658Y-11362555D02*
X15397134Y-11343508D01*
X15397134Y-11343508D02*
X15378087Y-11314936D01*
X15378087Y-11314936D02*
X15368563Y-11305412D01*
D12*
X10593500Y-11706500D02*
G75*
G02*
X10503500Y-11706500I-45000J0D01*
G01*
X10503500Y-11706500D02*
G75*
G02*
X10593500Y-11706500I45000J0D01*
G01*
D11*
X10892372Y-11597984D02*
X10911420Y-11597984D01*
X10911420Y-11597984D02*
X10930467Y-11607508D01*
X10930467Y-11607508D02*
X10939991Y-11617031D01*
X10939991Y-11617031D02*
X10949515Y-11636079D01*
X10949515Y-11636079D02*
X10959039Y-11674174D01*
X10959039Y-11674174D02*
X10959039Y-11721793D01*
X10959039Y-11721793D02*
X10949515Y-11759888D01*
X10949515Y-11759888D02*
X10939991Y-11778936D01*
X10939991Y-11778936D02*
X10930467Y-11788460D01*
X10930467Y-11788460D02*
X10911420Y-11797984D01*
X10911420Y-11797984D02*
X10892372Y-11797984D01*
X10892372Y-11797984D02*
X10873324Y-11788460D01*
X10873324Y-11788460D02*
X10863801Y-11778936D01*
X10863801Y-11778936D02*
X10854277Y-11759888D01*
X10854277Y-11759888D02*
X10844753Y-11721793D01*
X10844753Y-11721793D02*
X10844753Y-11674174D01*
X10844753Y-11674174D02*
X10854277Y-11636079D01*
X10854277Y-11636079D02*
X10863801Y-11617031D01*
X10863801Y-11617031D02*
X10873324Y-11607508D01*
X10873324Y-11607508D02*
X10892372Y-11597984D01*
X11044753Y-11778936D02*
X11054277Y-11788460D01*
X11054277Y-11788460D02*
X11044753Y-11797984D01*
X11044753Y-11797984D02*
X11035229Y-11788460D01*
X11035229Y-11788460D02*
X11044753Y-11778936D01*
X11044753Y-11778936D02*
X11044753Y-11797984D01*
X11149515Y-11797984D02*
X11187610Y-11797984D01*
X11187610Y-11797984D02*
X11206658Y-11788460D01*
X11206658Y-11788460D02*
X11216182Y-11778936D01*
X11216182Y-11778936D02*
X11235229Y-11750365D01*
X11235229Y-11750365D02*
X11244753Y-11712269D01*
X11244753Y-11712269D02*
X11244753Y-11636079D01*
X11244753Y-11636079D02*
X11235229Y-11617031D01*
X11235229Y-11617031D02*
X11225705Y-11607508D01*
X11225705Y-11607508D02*
X11206658Y-11597984D01*
X11206658Y-11597984D02*
X11168563Y-11597984D01*
X11168563Y-11597984D02*
X11149515Y-11607508D01*
X11149515Y-11607508D02*
X11139991Y-11617031D01*
X11139991Y-11617031D02*
X11130467Y-11636079D01*
X11130467Y-11636079D02*
X11130467Y-11683698D01*
X11130467Y-11683698D02*
X11139991Y-11702746D01*
X11139991Y-11702746D02*
X11149515Y-11712269D01*
X11149515Y-11712269D02*
X11168563Y-11721793D01*
X11168563Y-11721793D02*
X11206658Y-11721793D01*
X11206658Y-11721793D02*
X11225705Y-11712269D01*
X11225705Y-11712269D02*
X11235229Y-11702746D01*
X11235229Y-11702746D02*
X11244753Y-11683698D01*
X11368562Y-11597984D02*
X11387610Y-11597984D01*
X11387610Y-11597984D02*
X11406658Y-11607508D01*
X11406658Y-11607508D02*
X11416182Y-11617031D01*
X11416182Y-11617031D02*
X11425705Y-11636079D01*
X11425705Y-11636079D02*
X11435229Y-11674174D01*
X11435229Y-11674174D02*
X11435229Y-11721793D01*
X11435229Y-11721793D02*
X11425705Y-11759888D01*
X11425705Y-11759888D02*
X11416182Y-11778936D01*
X11416182Y-11778936D02*
X11406658Y-11788460D01*
X11406658Y-11788460D02*
X11387610Y-11797984D01*
X11387610Y-11797984D02*
X11368562Y-11797984D01*
X11368562Y-11797984D02*
X11349515Y-11788460D01*
X11349515Y-11788460D02*
X11339991Y-11778936D01*
X11339991Y-11778936D02*
X11330467Y-11759888D01*
X11330467Y-11759888D02*
X11320943Y-11721793D01*
X11320943Y-11721793D02*
X11320943Y-11674174D01*
X11320943Y-11674174D02*
X11330467Y-11636079D01*
X11330467Y-11636079D02*
X11339991Y-11617031D01*
X11339991Y-11617031D02*
X11349515Y-11607508D01*
X11349515Y-11607508D02*
X11368562Y-11597984D01*
X11559039Y-11597984D02*
X11578086Y-11597984D01*
X11578086Y-11597984D02*
X11597134Y-11607508D01*
X11597134Y-11607508D02*
X11606658Y-11617031D01*
X11606658Y-11617031D02*
X11616182Y-11636079D01*
X11616182Y-11636079D02*
X11625705Y-11674174D01*
X11625705Y-11674174D02*
X11625705Y-11721793D01*
X11625705Y-11721793D02*
X11616182Y-11759888D01*
X11616182Y-11759888D02*
X11606658Y-11778936D01*
X11606658Y-11778936D02*
X11597134Y-11788460D01*
X11597134Y-11788460D02*
X11578086Y-11797984D01*
X11578086Y-11797984D02*
X11559039Y-11797984D01*
X11559039Y-11797984D02*
X11539991Y-11788460D01*
X11539991Y-11788460D02*
X11530467Y-11778936D01*
X11530467Y-11778936D02*
X11520943Y-11759888D01*
X11520943Y-11759888D02*
X11511420Y-11721793D01*
X11511420Y-11721793D02*
X11511420Y-11674174D01*
X11511420Y-11674174D02*
X11520943Y-11636079D01*
X11520943Y-11636079D02*
X11530467Y-11617031D01*
X11530467Y-11617031D02*
X11539991Y-11607508D01*
X11539991Y-11607508D02*
X11559039Y-11597984D01*
X11711420Y-11797984D02*
X11711420Y-11664650D01*
X11711420Y-11683698D02*
X11720943Y-11674174D01*
X11720943Y-11674174D02*
X11739991Y-11664650D01*
X11739991Y-11664650D02*
X11768563Y-11664650D01*
X11768563Y-11664650D02*
X11787610Y-11674174D01*
X11787610Y-11674174D02*
X11797134Y-11693222D01*
X11797134Y-11693222D02*
X11797134Y-11797984D01*
X11797134Y-11693222D02*
X11806658Y-11674174D01*
X11806658Y-11674174D02*
X11825705Y-11664650D01*
X11825705Y-11664650D02*
X11854277Y-11664650D01*
X11854277Y-11664650D02*
X11873324Y-11674174D01*
X11873324Y-11674174D02*
X11882848Y-11693222D01*
X11882848Y-11693222D02*
X11882848Y-11797984D01*
X11978086Y-11797984D02*
X11978086Y-11664650D01*
X11978086Y-11683698D02*
X11987610Y-11674174D01*
X11987610Y-11674174D02*
X12006658Y-11664650D01*
X12006658Y-11664650D02*
X12035229Y-11664650D01*
X12035229Y-11664650D02*
X12054277Y-11674174D01*
X12054277Y-11674174D02*
X12063801Y-11693222D01*
X12063801Y-11693222D02*
X12063801Y-11797984D01*
X12063801Y-11693222D02*
X12073324Y-11674174D01*
X12073324Y-11674174D02*
X12092372Y-11664650D01*
X12092372Y-11664650D02*
X12120943Y-11664650D01*
X12120943Y-11664650D02*
X12139991Y-11674174D01*
X12139991Y-11674174D02*
X12149515Y-11693222D01*
X12149515Y-11693222D02*
X12149515Y-11797984D01*
X12539991Y-11588460D02*
X12368563Y-11845603D01*
X12797134Y-11597984D02*
X12816182Y-11597984D01*
X12816182Y-11597984D02*
X12835229Y-11607508D01*
X12835229Y-11607508D02*
X12844753Y-11617031D01*
X12844753Y-11617031D02*
X12854277Y-11636079D01*
X12854277Y-11636079D02*
X12863801Y-11674174D01*
X12863801Y-11674174D02*
X12863801Y-11721793D01*
X12863801Y-11721793D02*
X12854277Y-11759888D01*
X12854277Y-11759888D02*
X12844753Y-11778936D01*
X12844753Y-11778936D02*
X12835229Y-11788460D01*
X12835229Y-11788460D02*
X12816182Y-11797984D01*
X12816182Y-11797984D02*
X12797134Y-11797984D01*
X12797134Y-11797984D02*
X12778086Y-11788460D01*
X12778086Y-11788460D02*
X12768563Y-11778936D01*
X12768563Y-11778936D02*
X12759039Y-11759888D01*
X12759039Y-11759888D02*
X12749515Y-11721793D01*
X12749515Y-11721793D02*
X12749515Y-11674174D01*
X12749515Y-11674174D02*
X12759039Y-11636079D01*
X12759039Y-11636079D02*
X12768563Y-11617031D01*
X12768563Y-11617031D02*
X12778086Y-11607508D01*
X12778086Y-11607508D02*
X12797134Y-11597984D01*
X12949515Y-11778936D02*
X12959039Y-11788460D01*
X12959039Y-11788460D02*
X12949515Y-11797984D01*
X12949515Y-11797984D02*
X12939991Y-11788460D01*
X12939991Y-11788460D02*
X12949515Y-11778936D01*
X12949515Y-11778936D02*
X12949515Y-11797984D01*
X13082848Y-11597984D02*
X13101896Y-11597984D01*
X13101896Y-11597984D02*
X13120944Y-11607508D01*
X13120944Y-11607508D02*
X13130467Y-11617031D01*
X13130467Y-11617031D02*
X13139991Y-11636079D01*
X13139991Y-11636079D02*
X13149515Y-11674174D01*
X13149515Y-11674174D02*
X13149515Y-11721793D01*
X13149515Y-11721793D02*
X13139991Y-11759888D01*
X13139991Y-11759888D02*
X13130467Y-11778936D01*
X13130467Y-11778936D02*
X13120944Y-11788460D01*
X13120944Y-11788460D02*
X13101896Y-11797984D01*
X13101896Y-11797984D02*
X13082848Y-11797984D01*
X13082848Y-11797984D02*
X13063801Y-11788460D01*
X13063801Y-11788460D02*
X13054277Y-11778936D01*
X13054277Y-11778936D02*
X13044753Y-11759888D01*
X13044753Y-11759888D02*
X13035229Y-11721793D01*
X13035229Y-11721793D02*
X13035229Y-11674174D01*
X13035229Y-11674174D02*
X13044753Y-11636079D01*
X13044753Y-11636079D02*
X13054277Y-11617031D01*
X13054277Y-11617031D02*
X13063801Y-11607508D01*
X13063801Y-11607508D02*
X13082848Y-11597984D01*
X13216182Y-11597984D02*
X13339991Y-11597984D01*
X13339991Y-11597984D02*
X13273325Y-11674174D01*
X13273325Y-11674174D02*
X13301896Y-11674174D01*
X13301896Y-11674174D02*
X13320944Y-11683698D01*
X13320944Y-11683698D02*
X13330467Y-11693222D01*
X13330467Y-11693222D02*
X13339991Y-11712269D01*
X13339991Y-11712269D02*
X13339991Y-11759888D01*
X13339991Y-11759888D02*
X13330467Y-11778936D01*
X13330467Y-11778936D02*
X13320944Y-11788460D01*
X13320944Y-11788460D02*
X13301896Y-11797984D01*
X13301896Y-11797984D02*
X13244753Y-11797984D01*
X13244753Y-11797984D02*
X13225706Y-11788460D01*
X13225706Y-11788460D02*
X13216182Y-11778936D01*
X13520944Y-11597984D02*
X13425706Y-11597984D01*
X13425706Y-11597984D02*
X13416182Y-11693222D01*
X13416182Y-11693222D02*
X13425706Y-11683698D01*
X13425706Y-11683698D02*
X13444753Y-11674174D01*
X13444753Y-11674174D02*
X13492372Y-11674174D01*
X13492372Y-11674174D02*
X13511420Y-11683698D01*
X13511420Y-11683698D02*
X13520944Y-11693222D01*
X13520944Y-11693222D02*
X13530467Y-11712269D01*
X13530467Y-11712269D02*
X13530467Y-11759888D01*
X13530467Y-11759888D02*
X13520944Y-11778936D01*
X13520944Y-11778936D02*
X13511420Y-11788460D01*
X13511420Y-11788460D02*
X13492372Y-11797984D01*
X13492372Y-11797984D02*
X13444753Y-11797984D01*
X13444753Y-11797984D02*
X13425706Y-11788460D01*
X13425706Y-11788460D02*
X13416182Y-11778936D01*
X13701896Y-11664650D02*
X13701896Y-11797984D01*
X13654277Y-11588460D02*
X13606658Y-11731317D01*
X13606658Y-11731317D02*
X13730467Y-11731317D01*
X13797134Y-11597984D02*
X13797134Y-11636079D01*
X13873325Y-11597984D02*
X13873325Y-11636079D01*
X14168563Y-11874174D02*
X14159039Y-11864650D01*
X14159039Y-11864650D02*
X14139991Y-11836079D01*
X14139991Y-11836079D02*
X14130468Y-11817031D01*
X14130468Y-11817031D02*
X14120944Y-11788460D01*
X14120944Y-11788460D02*
X14111420Y-11740841D01*
X14111420Y-11740841D02*
X14111420Y-11702746D01*
X14111420Y-11702746D02*
X14120944Y-11655127D01*
X14120944Y-11655127D02*
X14130468Y-11626555D01*
X14130468Y-11626555D02*
X14139991Y-11607508D01*
X14139991Y-11607508D02*
X14159039Y-11578936D01*
X14159039Y-11578936D02*
X14168563Y-11569412D01*
X14330468Y-11597984D02*
X14292372Y-11597984D01*
X14292372Y-11597984D02*
X14273325Y-11607508D01*
X14273325Y-11607508D02*
X14263801Y-11617031D01*
X14263801Y-11617031D02*
X14244753Y-11645603D01*
X14244753Y-11645603D02*
X14235229Y-11683698D01*
X14235229Y-11683698D02*
X14235229Y-11759888D01*
X14235229Y-11759888D02*
X14244753Y-11778936D01*
X14244753Y-11778936D02*
X14254277Y-11788460D01*
X14254277Y-11788460D02*
X14273325Y-11797984D01*
X14273325Y-11797984D02*
X14311420Y-11797984D01*
X14311420Y-11797984D02*
X14330468Y-11788460D01*
X14330468Y-11788460D02*
X14339991Y-11778936D01*
X14339991Y-11778936D02*
X14349515Y-11759888D01*
X14349515Y-11759888D02*
X14349515Y-11712269D01*
X14349515Y-11712269D02*
X14339991Y-11693222D01*
X14339991Y-11693222D02*
X14330468Y-11683698D01*
X14330468Y-11683698D02*
X14311420Y-11674174D01*
X14311420Y-11674174D02*
X14273325Y-11674174D01*
X14273325Y-11674174D02*
X14254277Y-11683698D01*
X14254277Y-11683698D02*
X14244753Y-11693222D01*
X14244753Y-11693222D02*
X14235229Y-11712269D01*
X14587610Y-11797984D02*
X14587610Y-11597984D01*
X14673325Y-11797984D02*
X14673325Y-11693222D01*
X14673325Y-11693222D02*
X14663801Y-11674174D01*
X14663801Y-11674174D02*
X14644753Y-11664650D01*
X14644753Y-11664650D02*
X14616182Y-11664650D01*
X14616182Y-11664650D02*
X14597134Y-11674174D01*
X14597134Y-11674174D02*
X14587610Y-11683698D01*
X14797134Y-11797984D02*
X14778087Y-11788460D01*
X14778087Y-11788460D02*
X14768563Y-11778936D01*
X14768563Y-11778936D02*
X14759039Y-11759888D01*
X14759039Y-11759888D02*
X14759039Y-11702746D01*
X14759039Y-11702746D02*
X14768563Y-11683698D01*
X14768563Y-11683698D02*
X14778087Y-11674174D01*
X14778087Y-11674174D02*
X14797134Y-11664650D01*
X14797134Y-11664650D02*
X14825706Y-11664650D01*
X14825706Y-11664650D02*
X14844753Y-11674174D01*
X14844753Y-11674174D02*
X14854277Y-11683698D01*
X14854277Y-11683698D02*
X14863801Y-11702746D01*
X14863801Y-11702746D02*
X14863801Y-11759888D01*
X14863801Y-11759888D02*
X14854277Y-11778936D01*
X14854277Y-11778936D02*
X14844753Y-11788460D01*
X14844753Y-11788460D02*
X14825706Y-11797984D01*
X14825706Y-11797984D02*
X14797134Y-11797984D01*
X14978087Y-11797984D02*
X14959039Y-11788460D01*
X14959039Y-11788460D02*
X14949515Y-11769412D01*
X14949515Y-11769412D02*
X14949515Y-11597984D01*
X15130468Y-11788460D02*
X15111420Y-11797984D01*
X15111420Y-11797984D02*
X15073325Y-11797984D01*
X15073325Y-11797984D02*
X15054277Y-11788460D01*
X15054277Y-11788460D02*
X15044753Y-11769412D01*
X15044753Y-11769412D02*
X15044753Y-11693222D01*
X15044753Y-11693222D02*
X15054277Y-11674174D01*
X15054277Y-11674174D02*
X15073325Y-11664650D01*
X15073325Y-11664650D02*
X15111420Y-11664650D01*
X15111420Y-11664650D02*
X15130468Y-11674174D01*
X15130468Y-11674174D02*
X15139991Y-11693222D01*
X15139991Y-11693222D02*
X15139991Y-11712269D01*
X15139991Y-11712269D02*
X15044753Y-11731317D01*
X15216182Y-11788460D02*
X15235230Y-11797984D01*
X15235230Y-11797984D02*
X15273325Y-11797984D01*
X15273325Y-11797984D02*
X15292372Y-11788460D01*
X15292372Y-11788460D02*
X15301896Y-11769412D01*
X15301896Y-11769412D02*
X15301896Y-11759888D01*
X15301896Y-11759888D02*
X15292372Y-11740841D01*
X15292372Y-11740841D02*
X15273325Y-11731317D01*
X15273325Y-11731317D02*
X15244753Y-11731317D01*
X15244753Y-11731317D02*
X15225706Y-11721793D01*
X15225706Y-11721793D02*
X15216182Y-11702746D01*
X15216182Y-11702746D02*
X15216182Y-11693222D01*
X15216182Y-11693222D02*
X15225706Y-11674174D01*
X15225706Y-11674174D02*
X15244753Y-11664650D01*
X15244753Y-11664650D02*
X15273325Y-11664650D01*
X15273325Y-11664650D02*
X15292372Y-11674174D01*
X15368563Y-11874174D02*
X15378087Y-11864650D01*
X15378087Y-11864650D02*
X15397134Y-11836079D01*
X15397134Y-11836079D02*
X15406658Y-11817031D01*
X15406658Y-11817031D02*
X15416182Y-11788460D01*
X15416182Y-11788460D02*
X15425706Y-11740841D01*
X15425706Y-11740841D02*
X15425706Y-11702746D01*
X15425706Y-11702746D02*
X15416182Y-11655127D01*
X15416182Y-11655127D02*
X15406658Y-11626555D01*
X15406658Y-11626555D02*
X15397134Y-11607508D01*
X15397134Y-11607508D02*
X15378087Y-11578936D01*
X15378087Y-11578936D02*
X15368563Y-11569412D01*
D12*
X10543500Y-11920500D02*
X10543500Y-12020500D01*
X10493500Y-11970500D02*
X10593500Y-11970500D01*
D11*
X10959039Y-12061984D02*
X10844753Y-12061984D01*
X10901896Y-12061984D02*
X10901896Y-11861984D01*
X10901896Y-11861984D02*
X10882848Y-11890555D01*
X10882848Y-11890555D02*
X10863801Y-11909603D01*
X10863801Y-11909603D02*
X10844753Y-11919127D01*
X11044753Y-12042936D02*
X11054277Y-12052460D01*
X11054277Y-12052460D02*
X11044753Y-12061984D01*
X11044753Y-12061984D02*
X11035229Y-12052460D01*
X11035229Y-12052460D02*
X11044753Y-12042936D01*
X11044753Y-12042936D02*
X11044753Y-12061984D01*
X11178086Y-11861984D02*
X11197134Y-11861984D01*
X11197134Y-11861984D02*
X11216182Y-11871508D01*
X11216182Y-11871508D02*
X11225705Y-11881031D01*
X11225705Y-11881031D02*
X11235229Y-11900079D01*
X11235229Y-11900079D02*
X11244753Y-11938174D01*
X11244753Y-11938174D02*
X11244753Y-11985793D01*
X11244753Y-11985793D02*
X11235229Y-12023888D01*
X11235229Y-12023888D02*
X11225705Y-12042936D01*
X11225705Y-12042936D02*
X11216182Y-12052460D01*
X11216182Y-12052460D02*
X11197134Y-12061984D01*
X11197134Y-12061984D02*
X11178086Y-12061984D01*
X11178086Y-12061984D02*
X11159039Y-12052460D01*
X11159039Y-12052460D02*
X11149515Y-12042936D01*
X11149515Y-12042936D02*
X11139991Y-12023888D01*
X11139991Y-12023888D02*
X11130467Y-11985793D01*
X11130467Y-11985793D02*
X11130467Y-11938174D01*
X11130467Y-11938174D02*
X11139991Y-11900079D01*
X11139991Y-11900079D02*
X11149515Y-11881031D01*
X11149515Y-11881031D02*
X11159039Y-11871508D01*
X11159039Y-11871508D02*
X11178086Y-11861984D01*
X11368562Y-11861984D02*
X11387610Y-11861984D01*
X11387610Y-11861984D02*
X11406658Y-11871508D01*
X11406658Y-11871508D02*
X11416182Y-11881031D01*
X11416182Y-11881031D02*
X11425705Y-11900079D01*
X11425705Y-11900079D02*
X11435229Y-11938174D01*
X11435229Y-11938174D02*
X11435229Y-11985793D01*
X11435229Y-11985793D02*
X11425705Y-12023888D01*
X11425705Y-12023888D02*
X11416182Y-12042936D01*
X11416182Y-12042936D02*
X11406658Y-12052460D01*
X11406658Y-12052460D02*
X11387610Y-12061984D01*
X11387610Y-12061984D02*
X11368562Y-12061984D01*
X11368562Y-12061984D02*
X11349515Y-12052460D01*
X11349515Y-12052460D02*
X11339991Y-12042936D01*
X11339991Y-12042936D02*
X11330467Y-12023888D01*
X11330467Y-12023888D02*
X11320943Y-11985793D01*
X11320943Y-11985793D02*
X11320943Y-11938174D01*
X11320943Y-11938174D02*
X11330467Y-11900079D01*
X11330467Y-11900079D02*
X11339991Y-11881031D01*
X11339991Y-11881031D02*
X11349515Y-11871508D01*
X11349515Y-11871508D02*
X11368562Y-11861984D01*
X11559039Y-11861984D02*
X11578086Y-11861984D01*
X11578086Y-11861984D02*
X11597134Y-11871508D01*
X11597134Y-11871508D02*
X11606658Y-11881031D01*
X11606658Y-11881031D02*
X11616182Y-11900079D01*
X11616182Y-11900079D02*
X11625705Y-11938174D01*
X11625705Y-11938174D02*
X11625705Y-11985793D01*
X11625705Y-11985793D02*
X11616182Y-12023888D01*
X11616182Y-12023888D02*
X11606658Y-12042936D01*
X11606658Y-12042936D02*
X11597134Y-12052460D01*
X11597134Y-12052460D02*
X11578086Y-12061984D01*
X11578086Y-12061984D02*
X11559039Y-12061984D01*
X11559039Y-12061984D02*
X11539991Y-12052460D01*
X11539991Y-12052460D02*
X11530467Y-12042936D01*
X11530467Y-12042936D02*
X11520943Y-12023888D01*
X11520943Y-12023888D02*
X11511420Y-11985793D01*
X11511420Y-11985793D02*
X11511420Y-11938174D01*
X11511420Y-11938174D02*
X11520943Y-11900079D01*
X11520943Y-11900079D02*
X11530467Y-11881031D01*
X11530467Y-11881031D02*
X11539991Y-11871508D01*
X11539991Y-11871508D02*
X11559039Y-11861984D01*
X11711420Y-12061984D02*
X11711420Y-11928650D01*
X11711420Y-11947698D02*
X11720943Y-11938174D01*
X11720943Y-11938174D02*
X11739991Y-11928650D01*
X11739991Y-11928650D02*
X11768563Y-11928650D01*
X11768563Y-11928650D02*
X11787610Y-11938174D01*
X11787610Y-11938174D02*
X11797134Y-11957222D01*
X11797134Y-11957222D02*
X11797134Y-12061984D01*
X11797134Y-11957222D02*
X11806658Y-11938174D01*
X11806658Y-11938174D02*
X11825705Y-11928650D01*
X11825705Y-11928650D02*
X11854277Y-11928650D01*
X11854277Y-11928650D02*
X11873324Y-11938174D01*
X11873324Y-11938174D02*
X11882848Y-11957222D01*
X11882848Y-11957222D02*
X11882848Y-12061984D01*
X11978086Y-12061984D02*
X11978086Y-11928650D01*
X11978086Y-11947698D02*
X11987610Y-11938174D01*
X11987610Y-11938174D02*
X12006658Y-11928650D01*
X12006658Y-11928650D02*
X12035229Y-11928650D01*
X12035229Y-11928650D02*
X12054277Y-11938174D01*
X12054277Y-11938174D02*
X12063801Y-11957222D01*
X12063801Y-11957222D02*
X12063801Y-12061984D01*
X12063801Y-11957222D02*
X12073324Y-11938174D01*
X12073324Y-11938174D02*
X12092372Y-11928650D01*
X12092372Y-11928650D02*
X12120943Y-11928650D01*
X12120943Y-11928650D02*
X12139991Y-11938174D01*
X12139991Y-11938174D02*
X12149515Y-11957222D01*
X12149515Y-11957222D02*
X12149515Y-12061984D01*
X12539991Y-11852460D02*
X12368563Y-12109603D01*
X12797134Y-11861984D02*
X12816182Y-11861984D01*
X12816182Y-11861984D02*
X12835229Y-11871508D01*
X12835229Y-11871508D02*
X12844753Y-11881031D01*
X12844753Y-11881031D02*
X12854277Y-11900079D01*
X12854277Y-11900079D02*
X12863801Y-11938174D01*
X12863801Y-11938174D02*
X12863801Y-11985793D01*
X12863801Y-11985793D02*
X12854277Y-12023888D01*
X12854277Y-12023888D02*
X12844753Y-12042936D01*
X12844753Y-12042936D02*
X12835229Y-12052460D01*
X12835229Y-12052460D02*
X12816182Y-12061984D01*
X12816182Y-12061984D02*
X12797134Y-12061984D01*
X12797134Y-12061984D02*
X12778086Y-12052460D01*
X12778086Y-12052460D02*
X12768563Y-12042936D01*
X12768563Y-12042936D02*
X12759039Y-12023888D01*
X12759039Y-12023888D02*
X12749515Y-11985793D01*
X12749515Y-11985793D02*
X12749515Y-11938174D01*
X12749515Y-11938174D02*
X12759039Y-11900079D01*
X12759039Y-11900079D02*
X12768563Y-11881031D01*
X12768563Y-11881031D02*
X12778086Y-11871508D01*
X12778086Y-11871508D02*
X12797134Y-11861984D01*
X12949515Y-12042936D02*
X12959039Y-12052460D01*
X12959039Y-12052460D02*
X12949515Y-12061984D01*
X12949515Y-12061984D02*
X12939991Y-12052460D01*
X12939991Y-12052460D02*
X12949515Y-12042936D01*
X12949515Y-12042936D02*
X12949515Y-12061984D01*
X13082848Y-11861984D02*
X13101896Y-11861984D01*
X13101896Y-11861984D02*
X13120944Y-11871508D01*
X13120944Y-11871508D02*
X13130467Y-11881031D01*
X13130467Y-11881031D02*
X13139991Y-11900079D01*
X13139991Y-11900079D02*
X13149515Y-11938174D01*
X13149515Y-11938174D02*
X13149515Y-11985793D01*
X13149515Y-11985793D02*
X13139991Y-12023888D01*
X13139991Y-12023888D02*
X13130467Y-12042936D01*
X13130467Y-12042936D02*
X13120944Y-12052460D01*
X13120944Y-12052460D02*
X13101896Y-12061984D01*
X13101896Y-12061984D02*
X13082848Y-12061984D01*
X13082848Y-12061984D02*
X13063801Y-12052460D01*
X13063801Y-12052460D02*
X13054277Y-12042936D01*
X13054277Y-12042936D02*
X13044753Y-12023888D01*
X13044753Y-12023888D02*
X13035229Y-11985793D01*
X13035229Y-11985793D02*
X13035229Y-11938174D01*
X13035229Y-11938174D02*
X13044753Y-11900079D01*
X13044753Y-11900079D02*
X13054277Y-11881031D01*
X13054277Y-11881031D02*
X13063801Y-11871508D01*
X13063801Y-11871508D02*
X13082848Y-11861984D01*
X13216182Y-11861984D02*
X13339991Y-11861984D01*
X13339991Y-11861984D02*
X13273325Y-11938174D01*
X13273325Y-11938174D02*
X13301896Y-11938174D01*
X13301896Y-11938174D02*
X13320944Y-11947698D01*
X13320944Y-11947698D02*
X13330467Y-11957222D01*
X13330467Y-11957222D02*
X13339991Y-11976269D01*
X13339991Y-11976269D02*
X13339991Y-12023888D01*
X13339991Y-12023888D02*
X13330467Y-12042936D01*
X13330467Y-12042936D02*
X13320944Y-12052460D01*
X13320944Y-12052460D02*
X13301896Y-12061984D01*
X13301896Y-12061984D02*
X13244753Y-12061984D01*
X13244753Y-12061984D02*
X13225706Y-12052460D01*
X13225706Y-12052460D02*
X13216182Y-12042936D01*
X13435229Y-12061984D02*
X13473325Y-12061984D01*
X13473325Y-12061984D02*
X13492372Y-12052460D01*
X13492372Y-12052460D02*
X13501896Y-12042936D01*
X13501896Y-12042936D02*
X13520944Y-12014365D01*
X13520944Y-12014365D02*
X13530467Y-11976269D01*
X13530467Y-11976269D02*
X13530467Y-11900079D01*
X13530467Y-11900079D02*
X13520944Y-11881031D01*
X13520944Y-11881031D02*
X13511420Y-11871508D01*
X13511420Y-11871508D02*
X13492372Y-11861984D01*
X13492372Y-11861984D02*
X13454277Y-11861984D01*
X13454277Y-11861984D02*
X13435229Y-11871508D01*
X13435229Y-11871508D02*
X13425706Y-11881031D01*
X13425706Y-11881031D02*
X13416182Y-11900079D01*
X13416182Y-11900079D02*
X13416182Y-11947698D01*
X13416182Y-11947698D02*
X13425706Y-11966746D01*
X13425706Y-11966746D02*
X13435229Y-11976269D01*
X13435229Y-11976269D02*
X13454277Y-11985793D01*
X13454277Y-11985793D02*
X13492372Y-11985793D01*
X13492372Y-11985793D02*
X13511420Y-11976269D01*
X13511420Y-11976269D02*
X13520944Y-11966746D01*
X13520944Y-11966746D02*
X13530467Y-11947698D01*
X13701896Y-11928650D02*
X13701896Y-12061984D01*
X13654277Y-11852460D02*
X13606658Y-11995317D01*
X13606658Y-11995317D02*
X13730467Y-11995317D01*
X13797134Y-11861984D02*
X13797134Y-11900079D01*
X13873325Y-11861984D02*
X13873325Y-11900079D01*
X14168563Y-12138174D02*
X14159039Y-12128650D01*
X14159039Y-12128650D02*
X14139991Y-12100079D01*
X14139991Y-12100079D02*
X14130468Y-12081031D01*
X14130468Y-12081031D02*
X14120944Y-12052460D01*
X14120944Y-12052460D02*
X14111420Y-12004841D01*
X14111420Y-12004841D02*
X14111420Y-11966746D01*
X14111420Y-11966746D02*
X14120944Y-11919127D01*
X14120944Y-11919127D02*
X14130468Y-11890555D01*
X14130468Y-11890555D02*
X14139991Y-11871508D01*
X14139991Y-11871508D02*
X14159039Y-11842936D01*
X14159039Y-11842936D02*
X14168563Y-11833412D01*
X14349515Y-12061984D02*
X14235229Y-12061984D01*
X14292372Y-12061984D02*
X14292372Y-11861984D01*
X14292372Y-11861984D02*
X14273325Y-11890555D01*
X14273325Y-11890555D02*
X14254277Y-11909603D01*
X14254277Y-11909603D02*
X14235229Y-11919127D01*
X14520944Y-11928650D02*
X14520944Y-12061984D01*
X14473325Y-11852460D02*
X14425706Y-11995317D01*
X14425706Y-11995317D02*
X14549515Y-11995317D01*
X14778087Y-12061984D02*
X14778087Y-11861984D01*
X14863801Y-12061984D02*
X14863801Y-11957222D01*
X14863801Y-11957222D02*
X14854277Y-11938174D01*
X14854277Y-11938174D02*
X14835230Y-11928650D01*
X14835230Y-11928650D02*
X14806658Y-11928650D01*
X14806658Y-11928650D02*
X14787610Y-11938174D01*
X14787610Y-11938174D02*
X14778087Y-11947698D01*
X14987610Y-12061984D02*
X14968563Y-12052460D01*
X14968563Y-12052460D02*
X14959039Y-12042936D01*
X14959039Y-12042936D02*
X14949515Y-12023888D01*
X14949515Y-12023888D02*
X14949515Y-11966746D01*
X14949515Y-11966746D02*
X14959039Y-11947698D01*
X14959039Y-11947698D02*
X14968563Y-11938174D01*
X14968563Y-11938174D02*
X14987610Y-11928650D01*
X14987610Y-11928650D02*
X15016182Y-11928650D01*
X15016182Y-11928650D02*
X15035230Y-11938174D01*
X15035230Y-11938174D02*
X15044753Y-11947698D01*
X15044753Y-11947698D02*
X15054277Y-11966746D01*
X15054277Y-11966746D02*
X15054277Y-12023888D01*
X15054277Y-12023888D02*
X15044753Y-12042936D01*
X15044753Y-12042936D02*
X15035230Y-12052460D01*
X15035230Y-12052460D02*
X15016182Y-12061984D01*
X15016182Y-12061984D02*
X14987610Y-12061984D01*
X15168563Y-12061984D02*
X15149515Y-12052460D01*
X15149515Y-12052460D02*
X15139991Y-12033412D01*
X15139991Y-12033412D02*
X15139991Y-11861984D01*
X15320944Y-12052460D02*
X15301896Y-12061984D01*
X15301896Y-12061984D02*
X15263801Y-12061984D01*
X15263801Y-12061984D02*
X15244753Y-12052460D01*
X15244753Y-12052460D02*
X15235230Y-12033412D01*
X15235230Y-12033412D02*
X15235230Y-11957222D01*
X15235230Y-11957222D02*
X15244753Y-11938174D01*
X15244753Y-11938174D02*
X15263801Y-11928650D01*
X15263801Y-11928650D02*
X15301896Y-11928650D01*
X15301896Y-11928650D02*
X15320944Y-11938174D01*
X15320944Y-11938174D02*
X15330468Y-11957222D01*
X15330468Y-11957222D02*
X15330468Y-11976269D01*
X15330468Y-11976269D02*
X15235230Y-11995317D01*
X15406658Y-12052460D02*
X15425706Y-12061984D01*
X15425706Y-12061984D02*
X15463801Y-12061984D01*
X15463801Y-12061984D02*
X15482849Y-12052460D01*
X15482849Y-12052460D02*
X15492372Y-12033412D01*
X15492372Y-12033412D02*
X15492372Y-12023888D01*
X15492372Y-12023888D02*
X15482849Y-12004841D01*
X15482849Y-12004841D02*
X15463801Y-11995317D01*
X15463801Y-11995317D02*
X15435230Y-11995317D01*
X15435230Y-11995317D02*
X15416182Y-11985793D01*
X15416182Y-11985793D02*
X15406658Y-11966746D01*
X15406658Y-11966746D02*
X15406658Y-11957222D01*
X15406658Y-11957222D02*
X15416182Y-11938174D01*
X15416182Y-11938174D02*
X15435230Y-11928650D01*
X15435230Y-11928650D02*
X15463801Y-11928650D01*
X15463801Y-11928650D02*
X15482849Y-11938174D01*
X15559039Y-12138174D02*
X15568563Y-12128650D01*
X15568563Y-12128650D02*
X15587611Y-12100079D01*
X15587611Y-12100079D02*
X15597134Y-12081031D01*
X15597134Y-12081031D02*
X15606658Y-12052460D01*
X15606658Y-12052460D02*
X15616182Y-12004841D01*
X15616182Y-12004841D02*
X15616182Y-11966746D01*
X15616182Y-11966746D02*
X15606658Y-11919127D01*
X15606658Y-11919127D02*
X15597134Y-11890555D01*
X15597134Y-11890555D02*
X15587611Y-11871508D01*
X15587611Y-11871508D02*
X15568563Y-11842936D01*
X15568563Y-11842936D02*
X15559039Y-11833412D01*
D13*
X10578563Y-12270563D02*
X10578563Y-12198437D01*
X10506437Y-12198437D01*
X10506437Y-12270563D01*
X10578563Y-12270563D01*
D11*
X10959039Y-12325984D02*
X10844753Y-12325984D01*
X10901896Y-12325984D02*
X10901896Y-12125984D01*
X10901896Y-12125984D02*
X10882848Y-12154555D01*
X10882848Y-12154555D02*
X10863801Y-12173603D01*
X10863801Y-12173603D02*
X10844753Y-12183127D01*
X11044753Y-12306936D02*
X11054277Y-12316460D01*
X11054277Y-12316460D02*
X11044753Y-12325984D01*
X11044753Y-12325984D02*
X11035229Y-12316460D01*
X11035229Y-12316460D02*
X11044753Y-12306936D01*
X11044753Y-12306936D02*
X11044753Y-12325984D01*
X11178086Y-12125984D02*
X11197134Y-12125984D01*
X11197134Y-12125984D02*
X11216182Y-12135508D01*
X11216182Y-12135508D02*
X11225705Y-12145031D01*
X11225705Y-12145031D02*
X11235229Y-12164079D01*
X11235229Y-12164079D02*
X11244753Y-12202174D01*
X11244753Y-12202174D02*
X11244753Y-12249793D01*
X11244753Y-12249793D02*
X11235229Y-12287888D01*
X11235229Y-12287888D02*
X11225705Y-12306936D01*
X11225705Y-12306936D02*
X11216182Y-12316460D01*
X11216182Y-12316460D02*
X11197134Y-12325984D01*
X11197134Y-12325984D02*
X11178086Y-12325984D01*
X11178086Y-12325984D02*
X11159039Y-12316460D01*
X11159039Y-12316460D02*
X11149515Y-12306936D01*
X11149515Y-12306936D02*
X11139991Y-12287888D01*
X11139991Y-12287888D02*
X11130467Y-12249793D01*
X11130467Y-12249793D02*
X11130467Y-12202174D01*
X11130467Y-12202174D02*
X11139991Y-12164079D01*
X11139991Y-12164079D02*
X11149515Y-12145031D01*
X11149515Y-12145031D02*
X11159039Y-12135508D01*
X11159039Y-12135508D02*
X11178086Y-12125984D01*
X11320943Y-12145031D02*
X11330467Y-12135508D01*
X11330467Y-12135508D02*
X11349515Y-12125984D01*
X11349515Y-12125984D02*
X11397134Y-12125984D01*
X11397134Y-12125984D02*
X11416182Y-12135508D01*
X11416182Y-12135508D02*
X11425705Y-12145031D01*
X11425705Y-12145031D02*
X11435229Y-12164079D01*
X11435229Y-12164079D02*
X11435229Y-12183127D01*
X11435229Y-12183127D02*
X11425705Y-12211698D01*
X11425705Y-12211698D02*
X11311420Y-12325984D01*
X11311420Y-12325984D02*
X11435229Y-12325984D01*
X11559039Y-12125984D02*
X11578086Y-12125984D01*
X11578086Y-12125984D02*
X11597134Y-12135508D01*
X11597134Y-12135508D02*
X11606658Y-12145031D01*
X11606658Y-12145031D02*
X11616182Y-12164079D01*
X11616182Y-12164079D02*
X11625705Y-12202174D01*
X11625705Y-12202174D02*
X11625705Y-12249793D01*
X11625705Y-12249793D02*
X11616182Y-12287888D01*
X11616182Y-12287888D02*
X11606658Y-12306936D01*
X11606658Y-12306936D02*
X11597134Y-12316460D01*
X11597134Y-12316460D02*
X11578086Y-12325984D01*
X11578086Y-12325984D02*
X11559039Y-12325984D01*
X11559039Y-12325984D02*
X11539991Y-12316460D01*
X11539991Y-12316460D02*
X11530467Y-12306936D01*
X11530467Y-12306936D02*
X11520943Y-12287888D01*
X11520943Y-12287888D02*
X11511420Y-12249793D01*
X11511420Y-12249793D02*
X11511420Y-12202174D01*
X11511420Y-12202174D02*
X11520943Y-12164079D01*
X11520943Y-12164079D02*
X11530467Y-12145031D01*
X11530467Y-12145031D02*
X11539991Y-12135508D01*
X11539991Y-12135508D02*
X11559039Y-12125984D01*
X11711420Y-12325984D02*
X11711420Y-12192650D01*
X11711420Y-12211698D02*
X11720943Y-12202174D01*
X11720943Y-12202174D02*
X11739991Y-12192650D01*
X11739991Y-12192650D02*
X11768563Y-12192650D01*
X11768563Y-12192650D02*
X11787610Y-12202174D01*
X11787610Y-12202174D02*
X11797134Y-12221222D01*
X11797134Y-12221222D02*
X11797134Y-12325984D01*
X11797134Y-12221222D02*
X11806658Y-12202174D01*
X11806658Y-12202174D02*
X11825705Y-12192650D01*
X11825705Y-12192650D02*
X11854277Y-12192650D01*
X11854277Y-12192650D02*
X11873324Y-12202174D01*
X11873324Y-12202174D02*
X11882848Y-12221222D01*
X11882848Y-12221222D02*
X11882848Y-12325984D01*
X11978086Y-12325984D02*
X11978086Y-12192650D01*
X11978086Y-12211698D02*
X11987610Y-12202174D01*
X11987610Y-12202174D02*
X12006658Y-12192650D01*
X12006658Y-12192650D02*
X12035229Y-12192650D01*
X12035229Y-12192650D02*
X12054277Y-12202174D01*
X12054277Y-12202174D02*
X12063801Y-12221222D01*
X12063801Y-12221222D02*
X12063801Y-12325984D01*
X12063801Y-12221222D02*
X12073324Y-12202174D01*
X12073324Y-12202174D02*
X12092372Y-12192650D01*
X12092372Y-12192650D02*
X12120943Y-12192650D01*
X12120943Y-12192650D02*
X12139991Y-12202174D01*
X12139991Y-12202174D02*
X12149515Y-12221222D01*
X12149515Y-12221222D02*
X12149515Y-12325984D01*
X12539991Y-12116460D02*
X12368563Y-12373603D01*
X12797134Y-12125984D02*
X12816182Y-12125984D01*
X12816182Y-12125984D02*
X12835229Y-12135508D01*
X12835229Y-12135508D02*
X12844753Y-12145031D01*
X12844753Y-12145031D02*
X12854277Y-12164079D01*
X12854277Y-12164079D02*
X12863801Y-12202174D01*
X12863801Y-12202174D02*
X12863801Y-12249793D01*
X12863801Y-12249793D02*
X12854277Y-12287888D01*
X12854277Y-12287888D02*
X12844753Y-12306936D01*
X12844753Y-12306936D02*
X12835229Y-12316460D01*
X12835229Y-12316460D02*
X12816182Y-12325984D01*
X12816182Y-12325984D02*
X12797134Y-12325984D01*
X12797134Y-12325984D02*
X12778086Y-12316460D01*
X12778086Y-12316460D02*
X12768563Y-12306936D01*
X12768563Y-12306936D02*
X12759039Y-12287888D01*
X12759039Y-12287888D02*
X12749515Y-12249793D01*
X12749515Y-12249793D02*
X12749515Y-12202174D01*
X12749515Y-12202174D02*
X12759039Y-12164079D01*
X12759039Y-12164079D02*
X12768563Y-12145031D01*
X12768563Y-12145031D02*
X12778086Y-12135508D01*
X12778086Y-12135508D02*
X12797134Y-12125984D01*
X12949515Y-12306936D02*
X12959039Y-12316460D01*
X12959039Y-12316460D02*
X12949515Y-12325984D01*
X12949515Y-12325984D02*
X12939991Y-12316460D01*
X12939991Y-12316460D02*
X12949515Y-12306936D01*
X12949515Y-12306936D02*
X12949515Y-12325984D01*
X13082848Y-12125984D02*
X13101896Y-12125984D01*
X13101896Y-12125984D02*
X13120944Y-12135508D01*
X13120944Y-12135508D02*
X13130467Y-12145031D01*
X13130467Y-12145031D02*
X13139991Y-12164079D01*
X13139991Y-12164079D02*
X13149515Y-12202174D01*
X13149515Y-12202174D02*
X13149515Y-12249793D01*
X13149515Y-12249793D02*
X13139991Y-12287888D01*
X13139991Y-12287888D02*
X13130467Y-12306936D01*
X13130467Y-12306936D02*
X13120944Y-12316460D01*
X13120944Y-12316460D02*
X13101896Y-12325984D01*
X13101896Y-12325984D02*
X13082848Y-12325984D01*
X13082848Y-12325984D02*
X13063801Y-12316460D01*
X13063801Y-12316460D02*
X13054277Y-12306936D01*
X13054277Y-12306936D02*
X13044753Y-12287888D01*
X13044753Y-12287888D02*
X13035229Y-12249793D01*
X13035229Y-12249793D02*
X13035229Y-12202174D01*
X13035229Y-12202174D02*
X13044753Y-12164079D01*
X13044753Y-12164079D02*
X13054277Y-12145031D01*
X13054277Y-12145031D02*
X13063801Y-12135508D01*
X13063801Y-12135508D02*
X13082848Y-12125984D01*
X13320944Y-12192650D02*
X13320944Y-12325984D01*
X13273325Y-12116460D02*
X13225706Y-12259317D01*
X13225706Y-12259317D02*
X13349515Y-12259317D01*
X13463801Y-12125984D02*
X13482848Y-12125984D01*
X13482848Y-12125984D02*
X13501896Y-12135508D01*
X13501896Y-12135508D02*
X13511420Y-12145031D01*
X13511420Y-12145031D02*
X13520944Y-12164079D01*
X13520944Y-12164079D02*
X13530467Y-12202174D01*
X13530467Y-12202174D02*
X13530467Y-12249793D01*
X13530467Y-12249793D02*
X13520944Y-12287888D01*
X13520944Y-12287888D02*
X13511420Y-12306936D01*
X13511420Y-12306936D02*
X13501896Y-12316460D01*
X13501896Y-12316460D02*
X13482848Y-12325984D01*
X13482848Y-12325984D02*
X13463801Y-12325984D01*
X13463801Y-12325984D02*
X13444753Y-12316460D01*
X13444753Y-12316460D02*
X13435229Y-12306936D01*
X13435229Y-12306936D02*
X13425706Y-12287888D01*
X13425706Y-12287888D02*
X13416182Y-12249793D01*
X13416182Y-12249793D02*
X13416182Y-12202174D01*
X13416182Y-12202174D02*
X13425706Y-12164079D01*
X13425706Y-12164079D02*
X13435229Y-12145031D01*
X13435229Y-12145031D02*
X13444753Y-12135508D01*
X13444753Y-12135508D02*
X13463801Y-12125984D01*
X13606658Y-12145031D02*
X13616182Y-12135508D01*
X13616182Y-12135508D02*
X13635229Y-12125984D01*
X13635229Y-12125984D02*
X13682848Y-12125984D01*
X13682848Y-12125984D02*
X13701896Y-12135508D01*
X13701896Y-12135508D02*
X13711420Y-12145031D01*
X13711420Y-12145031D02*
X13720944Y-12164079D01*
X13720944Y-12164079D02*
X13720944Y-12183127D01*
X13720944Y-12183127D02*
X13711420Y-12211698D01*
X13711420Y-12211698D02*
X13597134Y-12325984D01*
X13597134Y-12325984D02*
X13720944Y-12325984D01*
X13797134Y-12125984D02*
X13797134Y-12164079D01*
X13873325Y-12125984D02*
X13873325Y-12164079D01*
X14168563Y-12402174D02*
X14159039Y-12392650D01*
X14159039Y-12392650D02*
X14139991Y-12364079D01*
X14139991Y-12364079D02*
X14130468Y-12345031D01*
X14130468Y-12345031D02*
X14120944Y-12316460D01*
X14120944Y-12316460D02*
X14111420Y-12268841D01*
X14111420Y-12268841D02*
X14111420Y-12230746D01*
X14111420Y-12230746D02*
X14120944Y-12183127D01*
X14120944Y-12183127D02*
X14130468Y-12154555D01*
X14130468Y-12154555D02*
X14139991Y-12135508D01*
X14139991Y-12135508D02*
X14159039Y-12106936D01*
X14159039Y-12106936D02*
X14168563Y-12097412D01*
X14330468Y-12192650D02*
X14330468Y-12325984D01*
X14282848Y-12116460D02*
X14235229Y-12259317D01*
X14235229Y-12259317D02*
X14359039Y-12259317D01*
X14416182Y-12125984D02*
X14539991Y-12125984D01*
X14539991Y-12125984D02*
X14473325Y-12202174D01*
X14473325Y-12202174D02*
X14501896Y-12202174D01*
X14501896Y-12202174D02*
X14520944Y-12211698D01*
X14520944Y-12211698D02*
X14530468Y-12221222D01*
X14530468Y-12221222D02*
X14539991Y-12240269D01*
X14539991Y-12240269D02*
X14539991Y-12287888D01*
X14539991Y-12287888D02*
X14530468Y-12306936D01*
X14530468Y-12306936D02*
X14520944Y-12316460D01*
X14520944Y-12316460D02*
X14501896Y-12325984D01*
X14501896Y-12325984D02*
X14444753Y-12325984D01*
X14444753Y-12325984D02*
X14425706Y-12316460D01*
X14425706Y-12316460D02*
X14416182Y-12306936D01*
X14778087Y-12325984D02*
X14778087Y-12125984D01*
X14863801Y-12325984D02*
X14863801Y-12221222D01*
X14863801Y-12221222D02*
X14854277Y-12202174D01*
X14854277Y-12202174D02*
X14835230Y-12192650D01*
X14835230Y-12192650D02*
X14806658Y-12192650D01*
X14806658Y-12192650D02*
X14787610Y-12202174D01*
X14787610Y-12202174D02*
X14778087Y-12211698D01*
X14987610Y-12325984D02*
X14968563Y-12316460D01*
X14968563Y-12316460D02*
X14959039Y-12306936D01*
X14959039Y-12306936D02*
X14949515Y-12287888D01*
X14949515Y-12287888D02*
X14949515Y-12230746D01*
X14949515Y-12230746D02*
X14959039Y-12211698D01*
X14959039Y-12211698D02*
X14968563Y-12202174D01*
X14968563Y-12202174D02*
X14987610Y-12192650D01*
X14987610Y-12192650D02*
X15016182Y-12192650D01*
X15016182Y-12192650D02*
X15035230Y-12202174D01*
X15035230Y-12202174D02*
X15044753Y-12211698D01*
X15044753Y-12211698D02*
X15054277Y-12230746D01*
X15054277Y-12230746D02*
X15054277Y-12287888D01*
X15054277Y-12287888D02*
X15044753Y-12306936D01*
X15044753Y-12306936D02*
X15035230Y-12316460D01*
X15035230Y-12316460D02*
X15016182Y-12325984D01*
X15016182Y-12325984D02*
X14987610Y-12325984D01*
X15168563Y-12325984D02*
X15149515Y-12316460D01*
X15149515Y-12316460D02*
X15139991Y-12297412D01*
X15139991Y-12297412D02*
X15139991Y-12125984D01*
X15320944Y-12316460D02*
X15301896Y-12325984D01*
X15301896Y-12325984D02*
X15263801Y-12325984D01*
X15263801Y-12325984D02*
X15244753Y-12316460D01*
X15244753Y-12316460D02*
X15235230Y-12297412D01*
X15235230Y-12297412D02*
X15235230Y-12221222D01*
X15235230Y-12221222D02*
X15244753Y-12202174D01*
X15244753Y-12202174D02*
X15263801Y-12192650D01*
X15263801Y-12192650D02*
X15301896Y-12192650D01*
X15301896Y-12192650D02*
X15320944Y-12202174D01*
X15320944Y-12202174D02*
X15330468Y-12221222D01*
X15330468Y-12221222D02*
X15330468Y-12240269D01*
X15330468Y-12240269D02*
X15235230Y-12259317D01*
X15406658Y-12316460D02*
X15425706Y-12325984D01*
X15425706Y-12325984D02*
X15463801Y-12325984D01*
X15463801Y-12325984D02*
X15482849Y-12316460D01*
X15482849Y-12316460D02*
X15492372Y-12297412D01*
X15492372Y-12297412D02*
X15492372Y-12287888D01*
X15492372Y-12287888D02*
X15482849Y-12268841D01*
X15482849Y-12268841D02*
X15463801Y-12259317D01*
X15463801Y-12259317D02*
X15435230Y-12259317D01*
X15435230Y-12259317D02*
X15416182Y-12249793D01*
X15416182Y-12249793D02*
X15406658Y-12230746D01*
X15406658Y-12230746D02*
X15406658Y-12221222D01*
X15406658Y-12221222D02*
X15416182Y-12202174D01*
X15416182Y-12202174D02*
X15435230Y-12192650D01*
X15435230Y-12192650D02*
X15463801Y-12192650D01*
X15463801Y-12192650D02*
X15482849Y-12202174D01*
X15559039Y-12402174D02*
X15568563Y-12392650D01*
X15568563Y-12392650D02*
X15587611Y-12364079D01*
X15587611Y-12364079D02*
X15597134Y-12345031D01*
X15597134Y-12345031D02*
X15606658Y-12316460D01*
X15606658Y-12316460D02*
X15616182Y-12268841D01*
X15616182Y-12268841D02*
X15616182Y-12230746D01*
X15616182Y-12230746D02*
X15606658Y-12183127D01*
X15606658Y-12183127D02*
X15597134Y-12154555D01*
X15597134Y-12154555D02*
X15587611Y-12135508D01*
X15587611Y-12135508D02*
X15568563Y-12106936D01*
X15568563Y-12106936D02*
X15559039Y-12097412D01*
D14*
X10538500Y-12553500D02*
X10593500Y-12498500D01*
X10538500Y-12443500D01*
X10483500Y-12498500D01*
X10538500Y-12553500D01*
D11*
X10959039Y-12589984D02*
X10844753Y-12589984D01*
X10901896Y-12589984D02*
X10901896Y-12389984D01*
X10901896Y-12389984D02*
X10882848Y-12418555D01*
X10882848Y-12418555D02*
X10863801Y-12437603D01*
X10863801Y-12437603D02*
X10844753Y-12447127D01*
X11044753Y-12570936D02*
X11054277Y-12580460D01*
X11054277Y-12580460D02*
X11044753Y-12589984D01*
X11044753Y-12589984D02*
X11035229Y-12580460D01*
X11035229Y-12580460D02*
X11044753Y-12570936D01*
X11044753Y-12570936D02*
X11044753Y-12589984D01*
X11244753Y-12589984D02*
X11130467Y-12589984D01*
X11187610Y-12589984D02*
X11187610Y-12389984D01*
X11187610Y-12389984D02*
X11168563Y-12418555D01*
X11168563Y-12418555D02*
X11149515Y-12437603D01*
X11149515Y-12437603D02*
X11130467Y-12447127D01*
X11368562Y-12389984D02*
X11387610Y-12389984D01*
X11387610Y-12389984D02*
X11406658Y-12399508D01*
X11406658Y-12399508D02*
X11416182Y-12409031D01*
X11416182Y-12409031D02*
X11425705Y-12428079D01*
X11425705Y-12428079D02*
X11435229Y-12466174D01*
X11435229Y-12466174D02*
X11435229Y-12513793D01*
X11435229Y-12513793D02*
X11425705Y-12551888D01*
X11425705Y-12551888D02*
X11416182Y-12570936D01*
X11416182Y-12570936D02*
X11406658Y-12580460D01*
X11406658Y-12580460D02*
X11387610Y-12589984D01*
X11387610Y-12589984D02*
X11368562Y-12589984D01*
X11368562Y-12589984D02*
X11349515Y-12580460D01*
X11349515Y-12580460D02*
X11339991Y-12570936D01*
X11339991Y-12570936D02*
X11330467Y-12551888D01*
X11330467Y-12551888D02*
X11320943Y-12513793D01*
X11320943Y-12513793D02*
X11320943Y-12466174D01*
X11320943Y-12466174D02*
X11330467Y-12428079D01*
X11330467Y-12428079D02*
X11339991Y-12409031D01*
X11339991Y-12409031D02*
X11349515Y-12399508D01*
X11349515Y-12399508D02*
X11368562Y-12389984D01*
X11559039Y-12389984D02*
X11578086Y-12389984D01*
X11578086Y-12389984D02*
X11597134Y-12399508D01*
X11597134Y-12399508D02*
X11606658Y-12409031D01*
X11606658Y-12409031D02*
X11616182Y-12428079D01*
X11616182Y-12428079D02*
X11625705Y-12466174D01*
X11625705Y-12466174D02*
X11625705Y-12513793D01*
X11625705Y-12513793D02*
X11616182Y-12551888D01*
X11616182Y-12551888D02*
X11606658Y-12570936D01*
X11606658Y-12570936D02*
X11597134Y-12580460D01*
X11597134Y-12580460D02*
X11578086Y-12589984D01*
X11578086Y-12589984D02*
X11559039Y-12589984D01*
X11559039Y-12589984D02*
X11539991Y-12580460D01*
X11539991Y-12580460D02*
X11530467Y-12570936D01*
X11530467Y-12570936D02*
X11520943Y-12551888D01*
X11520943Y-12551888D02*
X11511420Y-12513793D01*
X11511420Y-12513793D02*
X11511420Y-12466174D01*
X11511420Y-12466174D02*
X11520943Y-12428079D01*
X11520943Y-12428079D02*
X11530467Y-12409031D01*
X11530467Y-12409031D02*
X11539991Y-12399508D01*
X11539991Y-12399508D02*
X11559039Y-12389984D01*
X11711420Y-12589984D02*
X11711420Y-12456650D01*
X11711420Y-12475698D02*
X11720943Y-12466174D01*
X11720943Y-12466174D02*
X11739991Y-12456650D01*
X11739991Y-12456650D02*
X11768563Y-12456650D01*
X11768563Y-12456650D02*
X11787610Y-12466174D01*
X11787610Y-12466174D02*
X11797134Y-12485222D01*
X11797134Y-12485222D02*
X11797134Y-12589984D01*
X11797134Y-12485222D02*
X11806658Y-12466174D01*
X11806658Y-12466174D02*
X11825705Y-12456650D01*
X11825705Y-12456650D02*
X11854277Y-12456650D01*
X11854277Y-12456650D02*
X11873324Y-12466174D01*
X11873324Y-12466174D02*
X11882848Y-12485222D01*
X11882848Y-12485222D02*
X11882848Y-12589984D01*
X11978086Y-12589984D02*
X11978086Y-12456650D01*
X11978086Y-12475698D02*
X11987610Y-12466174D01*
X11987610Y-12466174D02*
X12006658Y-12456650D01*
X12006658Y-12456650D02*
X12035229Y-12456650D01*
X12035229Y-12456650D02*
X12054277Y-12466174D01*
X12054277Y-12466174D02*
X12063801Y-12485222D01*
X12063801Y-12485222D02*
X12063801Y-12589984D01*
X12063801Y-12485222D02*
X12073324Y-12466174D01*
X12073324Y-12466174D02*
X12092372Y-12456650D01*
X12092372Y-12456650D02*
X12120943Y-12456650D01*
X12120943Y-12456650D02*
X12139991Y-12466174D01*
X12139991Y-12466174D02*
X12149515Y-12485222D01*
X12149515Y-12485222D02*
X12149515Y-12589984D01*
X12539991Y-12380460D02*
X12368563Y-12637603D01*
X12797134Y-12389984D02*
X12816182Y-12389984D01*
X12816182Y-12389984D02*
X12835229Y-12399508D01*
X12835229Y-12399508D02*
X12844753Y-12409031D01*
X12844753Y-12409031D02*
X12854277Y-12428079D01*
X12854277Y-12428079D02*
X12863801Y-12466174D01*
X12863801Y-12466174D02*
X12863801Y-12513793D01*
X12863801Y-12513793D02*
X12854277Y-12551888D01*
X12854277Y-12551888D02*
X12844753Y-12570936D01*
X12844753Y-12570936D02*
X12835229Y-12580460D01*
X12835229Y-12580460D02*
X12816182Y-12589984D01*
X12816182Y-12589984D02*
X12797134Y-12589984D01*
X12797134Y-12589984D02*
X12778086Y-12580460D01*
X12778086Y-12580460D02*
X12768563Y-12570936D01*
X12768563Y-12570936D02*
X12759039Y-12551888D01*
X12759039Y-12551888D02*
X12749515Y-12513793D01*
X12749515Y-12513793D02*
X12749515Y-12466174D01*
X12749515Y-12466174D02*
X12759039Y-12428079D01*
X12759039Y-12428079D02*
X12768563Y-12409031D01*
X12768563Y-12409031D02*
X12778086Y-12399508D01*
X12778086Y-12399508D02*
X12797134Y-12389984D01*
X12949515Y-12570936D02*
X12959039Y-12580460D01*
X12959039Y-12580460D02*
X12949515Y-12589984D01*
X12949515Y-12589984D02*
X12939991Y-12580460D01*
X12939991Y-12580460D02*
X12949515Y-12570936D01*
X12949515Y-12570936D02*
X12949515Y-12589984D01*
X13082848Y-12389984D02*
X13101896Y-12389984D01*
X13101896Y-12389984D02*
X13120944Y-12399508D01*
X13120944Y-12399508D02*
X13130467Y-12409031D01*
X13130467Y-12409031D02*
X13139991Y-12428079D01*
X13139991Y-12428079D02*
X13149515Y-12466174D01*
X13149515Y-12466174D02*
X13149515Y-12513793D01*
X13149515Y-12513793D02*
X13139991Y-12551888D01*
X13139991Y-12551888D02*
X13130467Y-12570936D01*
X13130467Y-12570936D02*
X13120944Y-12580460D01*
X13120944Y-12580460D02*
X13101896Y-12589984D01*
X13101896Y-12589984D02*
X13082848Y-12589984D01*
X13082848Y-12589984D02*
X13063801Y-12580460D01*
X13063801Y-12580460D02*
X13054277Y-12570936D01*
X13054277Y-12570936D02*
X13044753Y-12551888D01*
X13044753Y-12551888D02*
X13035229Y-12513793D01*
X13035229Y-12513793D02*
X13035229Y-12466174D01*
X13035229Y-12466174D02*
X13044753Y-12428079D01*
X13044753Y-12428079D02*
X13054277Y-12409031D01*
X13054277Y-12409031D02*
X13063801Y-12399508D01*
X13063801Y-12399508D02*
X13082848Y-12389984D01*
X13320944Y-12456650D02*
X13320944Y-12589984D01*
X13273325Y-12380460D02*
X13225706Y-12523317D01*
X13225706Y-12523317D02*
X13349515Y-12523317D01*
X13406658Y-12389984D02*
X13530467Y-12389984D01*
X13530467Y-12389984D02*
X13463801Y-12466174D01*
X13463801Y-12466174D02*
X13492372Y-12466174D01*
X13492372Y-12466174D02*
X13511420Y-12475698D01*
X13511420Y-12475698D02*
X13520944Y-12485222D01*
X13520944Y-12485222D02*
X13530467Y-12504269D01*
X13530467Y-12504269D02*
X13530467Y-12551888D01*
X13530467Y-12551888D02*
X13520944Y-12570936D01*
X13520944Y-12570936D02*
X13511420Y-12580460D01*
X13511420Y-12580460D02*
X13492372Y-12589984D01*
X13492372Y-12589984D02*
X13435229Y-12589984D01*
X13435229Y-12589984D02*
X13416182Y-12580460D01*
X13416182Y-12580460D02*
X13406658Y-12570936D01*
X13597134Y-12389984D02*
X13720944Y-12389984D01*
X13720944Y-12389984D02*
X13654277Y-12466174D01*
X13654277Y-12466174D02*
X13682848Y-12466174D01*
X13682848Y-12466174D02*
X13701896Y-12475698D01*
X13701896Y-12475698D02*
X13711420Y-12485222D01*
X13711420Y-12485222D02*
X13720944Y-12504269D01*
X13720944Y-12504269D02*
X13720944Y-12551888D01*
X13720944Y-12551888D02*
X13711420Y-12570936D01*
X13711420Y-12570936D02*
X13701896Y-12580460D01*
X13701896Y-12580460D02*
X13682848Y-12589984D01*
X13682848Y-12589984D02*
X13625706Y-12589984D01*
X13625706Y-12589984D02*
X13606658Y-12580460D01*
X13606658Y-12580460D02*
X13597134Y-12570936D01*
X13797134Y-12389984D02*
X13797134Y-12428079D01*
X13873325Y-12389984D02*
X13873325Y-12428079D01*
X14168563Y-12666174D02*
X14159039Y-12656650D01*
X14159039Y-12656650D02*
X14139991Y-12628079D01*
X14139991Y-12628079D02*
X14130468Y-12609031D01*
X14130468Y-12609031D02*
X14120944Y-12580460D01*
X14120944Y-12580460D02*
X14111420Y-12532841D01*
X14111420Y-12532841D02*
X14111420Y-12494746D01*
X14111420Y-12494746D02*
X14120944Y-12447127D01*
X14120944Y-12447127D02*
X14130468Y-12418555D01*
X14130468Y-12418555D02*
X14139991Y-12399508D01*
X14139991Y-12399508D02*
X14159039Y-12370936D01*
X14159039Y-12370936D02*
X14168563Y-12361412D01*
X14330468Y-12456650D02*
X14330468Y-12589984D01*
X14282848Y-12380460D02*
X14235229Y-12523317D01*
X14235229Y-12523317D02*
X14359039Y-12523317D01*
X14587610Y-12589984D02*
X14587610Y-12389984D01*
X14673325Y-12589984D02*
X14673325Y-12485222D01*
X14673325Y-12485222D02*
X14663801Y-12466174D01*
X14663801Y-12466174D02*
X14644753Y-12456650D01*
X14644753Y-12456650D02*
X14616182Y-12456650D01*
X14616182Y-12456650D02*
X14597134Y-12466174D01*
X14597134Y-12466174D02*
X14587610Y-12475698D01*
X14797134Y-12589984D02*
X14778087Y-12580460D01*
X14778087Y-12580460D02*
X14768563Y-12570936D01*
X14768563Y-12570936D02*
X14759039Y-12551888D01*
X14759039Y-12551888D02*
X14759039Y-12494746D01*
X14759039Y-12494746D02*
X14768563Y-12475698D01*
X14768563Y-12475698D02*
X14778087Y-12466174D01*
X14778087Y-12466174D02*
X14797134Y-12456650D01*
X14797134Y-12456650D02*
X14825706Y-12456650D01*
X14825706Y-12456650D02*
X14844753Y-12466174D01*
X14844753Y-12466174D02*
X14854277Y-12475698D01*
X14854277Y-12475698D02*
X14863801Y-12494746D01*
X14863801Y-12494746D02*
X14863801Y-12551888D01*
X14863801Y-12551888D02*
X14854277Y-12570936D01*
X14854277Y-12570936D02*
X14844753Y-12580460D01*
X14844753Y-12580460D02*
X14825706Y-12589984D01*
X14825706Y-12589984D02*
X14797134Y-12589984D01*
X14978087Y-12589984D02*
X14959039Y-12580460D01*
X14959039Y-12580460D02*
X14949515Y-12561412D01*
X14949515Y-12561412D02*
X14949515Y-12389984D01*
X15130468Y-12580460D02*
X15111420Y-12589984D01*
X15111420Y-12589984D02*
X15073325Y-12589984D01*
X15073325Y-12589984D02*
X15054277Y-12580460D01*
X15054277Y-12580460D02*
X15044753Y-12561412D01*
X15044753Y-12561412D02*
X15044753Y-12485222D01*
X15044753Y-12485222D02*
X15054277Y-12466174D01*
X15054277Y-12466174D02*
X15073325Y-12456650D01*
X15073325Y-12456650D02*
X15111420Y-12456650D01*
X15111420Y-12456650D02*
X15130468Y-12466174D01*
X15130468Y-12466174D02*
X15139991Y-12485222D01*
X15139991Y-12485222D02*
X15139991Y-12504269D01*
X15139991Y-12504269D02*
X15044753Y-12523317D01*
X15216182Y-12580460D02*
X15235230Y-12589984D01*
X15235230Y-12589984D02*
X15273325Y-12589984D01*
X15273325Y-12589984D02*
X15292372Y-12580460D01*
X15292372Y-12580460D02*
X15301896Y-12561412D01*
X15301896Y-12561412D02*
X15301896Y-12551888D01*
X15301896Y-12551888D02*
X15292372Y-12532841D01*
X15292372Y-12532841D02*
X15273325Y-12523317D01*
X15273325Y-12523317D02*
X15244753Y-12523317D01*
X15244753Y-12523317D02*
X15225706Y-12513793D01*
X15225706Y-12513793D02*
X15216182Y-12494746D01*
X15216182Y-12494746D02*
X15216182Y-12485222D01*
X15216182Y-12485222D02*
X15225706Y-12466174D01*
X15225706Y-12466174D02*
X15244753Y-12456650D01*
X15244753Y-12456650D02*
X15273325Y-12456650D01*
X15273325Y-12456650D02*
X15292372Y-12466174D01*
X15368563Y-12666174D02*
X15378087Y-12656650D01*
X15378087Y-12656650D02*
X15397134Y-12628079D01*
X15397134Y-12628079D02*
X15406658Y-12609031D01*
X15406658Y-12609031D02*
X15416182Y-12580460D01*
X15416182Y-12580460D02*
X15425706Y-12532841D01*
X15425706Y-12532841D02*
X15425706Y-12494746D01*
X15425706Y-12494746D02*
X15416182Y-12447127D01*
X15416182Y-12447127D02*
X15406658Y-12418555D01*
X15406658Y-12418555D02*
X15397134Y-12399508D01*
X15397134Y-12399508D02*
X15378087Y-12370936D01*
X15378087Y-12370936D02*
X15368563Y-12361412D01*
D15*
X10433500Y-12682500D02*
X10593500Y-12842500D01*
X10593500Y-12682500D02*
X10433500Y-12842500D01*
X10593500Y-12762500D02*
G75*
G02*
X10433500Y-12762500I-80000J0D01*
G01*
X10433500Y-12762500D02*
G75*
G02*
X10593500Y-12762500I80000J0D01*
G01*
D11*
X10959039Y-12853984D02*
X10844753Y-12853984D01*
X10901896Y-12853984D02*
X10901896Y-12653984D01*
X10901896Y-12653984D02*
X10882848Y-12682555D01*
X10882848Y-12682555D02*
X10863801Y-12701603D01*
X10863801Y-12701603D02*
X10844753Y-12711127D01*
X11044753Y-12834936D02*
X11054277Y-12844460D01*
X11054277Y-12844460D02*
X11044753Y-12853984D01*
X11044753Y-12853984D02*
X11035229Y-12844460D01*
X11035229Y-12844460D02*
X11044753Y-12834936D01*
X11044753Y-12834936D02*
X11044753Y-12853984D01*
X11225705Y-12653984D02*
X11187610Y-12653984D01*
X11187610Y-12653984D02*
X11168563Y-12663508D01*
X11168563Y-12663508D02*
X11159039Y-12673031D01*
X11159039Y-12673031D02*
X11139991Y-12701603D01*
X11139991Y-12701603D02*
X11130467Y-12739698D01*
X11130467Y-12739698D02*
X11130467Y-12815888D01*
X11130467Y-12815888D02*
X11139991Y-12834936D01*
X11139991Y-12834936D02*
X11149515Y-12844460D01*
X11149515Y-12844460D02*
X11168563Y-12853984D01*
X11168563Y-12853984D02*
X11206658Y-12853984D01*
X11206658Y-12853984D02*
X11225705Y-12844460D01*
X11225705Y-12844460D02*
X11235229Y-12834936D01*
X11235229Y-12834936D02*
X11244753Y-12815888D01*
X11244753Y-12815888D02*
X11244753Y-12768269D01*
X11244753Y-12768269D02*
X11235229Y-12749222D01*
X11235229Y-12749222D02*
X11225705Y-12739698D01*
X11225705Y-12739698D02*
X11206658Y-12730174D01*
X11206658Y-12730174D02*
X11168563Y-12730174D01*
X11168563Y-12730174D02*
X11149515Y-12739698D01*
X11149515Y-12739698D02*
X11139991Y-12749222D01*
X11139991Y-12749222D02*
X11130467Y-12768269D01*
X11368562Y-12653984D02*
X11387610Y-12653984D01*
X11387610Y-12653984D02*
X11406658Y-12663508D01*
X11406658Y-12663508D02*
X11416182Y-12673031D01*
X11416182Y-12673031D02*
X11425705Y-12692079D01*
X11425705Y-12692079D02*
X11435229Y-12730174D01*
X11435229Y-12730174D02*
X11435229Y-12777793D01*
X11435229Y-12777793D02*
X11425705Y-12815888D01*
X11425705Y-12815888D02*
X11416182Y-12834936D01*
X11416182Y-12834936D02*
X11406658Y-12844460D01*
X11406658Y-12844460D02*
X11387610Y-12853984D01*
X11387610Y-12853984D02*
X11368562Y-12853984D01*
X11368562Y-12853984D02*
X11349515Y-12844460D01*
X11349515Y-12844460D02*
X11339991Y-12834936D01*
X11339991Y-12834936D02*
X11330467Y-12815888D01*
X11330467Y-12815888D02*
X11320943Y-12777793D01*
X11320943Y-12777793D02*
X11320943Y-12730174D01*
X11320943Y-12730174D02*
X11330467Y-12692079D01*
X11330467Y-12692079D02*
X11339991Y-12673031D01*
X11339991Y-12673031D02*
X11349515Y-12663508D01*
X11349515Y-12663508D02*
X11368562Y-12653984D01*
X11559039Y-12653984D02*
X11578086Y-12653984D01*
X11578086Y-12653984D02*
X11597134Y-12663508D01*
X11597134Y-12663508D02*
X11606658Y-12673031D01*
X11606658Y-12673031D02*
X11616182Y-12692079D01*
X11616182Y-12692079D02*
X11625705Y-12730174D01*
X11625705Y-12730174D02*
X11625705Y-12777793D01*
X11625705Y-12777793D02*
X11616182Y-12815888D01*
X11616182Y-12815888D02*
X11606658Y-12834936D01*
X11606658Y-12834936D02*
X11597134Y-12844460D01*
X11597134Y-12844460D02*
X11578086Y-12853984D01*
X11578086Y-12853984D02*
X11559039Y-12853984D01*
X11559039Y-12853984D02*
X11539991Y-12844460D01*
X11539991Y-12844460D02*
X11530467Y-12834936D01*
X11530467Y-12834936D02*
X11520943Y-12815888D01*
X11520943Y-12815888D02*
X11511420Y-12777793D01*
X11511420Y-12777793D02*
X11511420Y-12730174D01*
X11511420Y-12730174D02*
X11520943Y-12692079D01*
X11520943Y-12692079D02*
X11530467Y-12673031D01*
X11530467Y-12673031D02*
X11539991Y-12663508D01*
X11539991Y-12663508D02*
X11559039Y-12653984D01*
X11711420Y-12853984D02*
X11711420Y-12720650D01*
X11711420Y-12739698D02*
X11720943Y-12730174D01*
X11720943Y-12730174D02*
X11739991Y-12720650D01*
X11739991Y-12720650D02*
X11768563Y-12720650D01*
X11768563Y-12720650D02*
X11787610Y-12730174D01*
X11787610Y-12730174D02*
X11797134Y-12749222D01*
X11797134Y-12749222D02*
X11797134Y-12853984D01*
X11797134Y-12749222D02*
X11806658Y-12730174D01*
X11806658Y-12730174D02*
X11825705Y-12720650D01*
X11825705Y-12720650D02*
X11854277Y-12720650D01*
X11854277Y-12720650D02*
X11873324Y-12730174D01*
X11873324Y-12730174D02*
X11882848Y-12749222D01*
X11882848Y-12749222D02*
X11882848Y-12853984D01*
X11978086Y-12853984D02*
X11978086Y-12720650D01*
X11978086Y-12739698D02*
X11987610Y-12730174D01*
X11987610Y-12730174D02*
X12006658Y-12720650D01*
X12006658Y-12720650D02*
X12035229Y-12720650D01*
X12035229Y-12720650D02*
X12054277Y-12730174D01*
X12054277Y-12730174D02*
X12063801Y-12749222D01*
X12063801Y-12749222D02*
X12063801Y-12853984D01*
X12063801Y-12749222D02*
X12073324Y-12730174D01*
X12073324Y-12730174D02*
X12092372Y-12720650D01*
X12092372Y-12720650D02*
X12120943Y-12720650D01*
X12120943Y-12720650D02*
X12139991Y-12730174D01*
X12139991Y-12730174D02*
X12149515Y-12749222D01*
X12149515Y-12749222D02*
X12149515Y-12853984D01*
X12539991Y-12644460D02*
X12368563Y-12901603D01*
X12797134Y-12653984D02*
X12816182Y-12653984D01*
X12816182Y-12653984D02*
X12835229Y-12663508D01*
X12835229Y-12663508D02*
X12844753Y-12673031D01*
X12844753Y-12673031D02*
X12854277Y-12692079D01*
X12854277Y-12692079D02*
X12863801Y-12730174D01*
X12863801Y-12730174D02*
X12863801Y-12777793D01*
X12863801Y-12777793D02*
X12854277Y-12815888D01*
X12854277Y-12815888D02*
X12844753Y-12834936D01*
X12844753Y-12834936D02*
X12835229Y-12844460D01*
X12835229Y-12844460D02*
X12816182Y-12853984D01*
X12816182Y-12853984D02*
X12797134Y-12853984D01*
X12797134Y-12853984D02*
X12778086Y-12844460D01*
X12778086Y-12844460D02*
X12768563Y-12834936D01*
X12768563Y-12834936D02*
X12759039Y-12815888D01*
X12759039Y-12815888D02*
X12749515Y-12777793D01*
X12749515Y-12777793D02*
X12749515Y-12730174D01*
X12749515Y-12730174D02*
X12759039Y-12692079D01*
X12759039Y-12692079D02*
X12768563Y-12673031D01*
X12768563Y-12673031D02*
X12778086Y-12663508D01*
X12778086Y-12663508D02*
X12797134Y-12653984D01*
X12949515Y-12834936D02*
X12959039Y-12844460D01*
X12959039Y-12844460D02*
X12949515Y-12853984D01*
X12949515Y-12853984D02*
X12939991Y-12844460D01*
X12939991Y-12844460D02*
X12949515Y-12834936D01*
X12949515Y-12834936D02*
X12949515Y-12853984D01*
X13082848Y-12653984D02*
X13101896Y-12653984D01*
X13101896Y-12653984D02*
X13120944Y-12663508D01*
X13120944Y-12663508D02*
X13130467Y-12673031D01*
X13130467Y-12673031D02*
X13139991Y-12692079D01*
X13139991Y-12692079D02*
X13149515Y-12730174D01*
X13149515Y-12730174D02*
X13149515Y-12777793D01*
X13149515Y-12777793D02*
X13139991Y-12815888D01*
X13139991Y-12815888D02*
X13130467Y-12834936D01*
X13130467Y-12834936D02*
X13120944Y-12844460D01*
X13120944Y-12844460D02*
X13101896Y-12853984D01*
X13101896Y-12853984D02*
X13082848Y-12853984D01*
X13082848Y-12853984D02*
X13063801Y-12844460D01*
X13063801Y-12844460D02*
X13054277Y-12834936D01*
X13054277Y-12834936D02*
X13044753Y-12815888D01*
X13044753Y-12815888D02*
X13035229Y-12777793D01*
X13035229Y-12777793D02*
X13035229Y-12730174D01*
X13035229Y-12730174D02*
X13044753Y-12692079D01*
X13044753Y-12692079D02*
X13054277Y-12673031D01*
X13054277Y-12673031D02*
X13063801Y-12663508D01*
X13063801Y-12663508D02*
X13082848Y-12653984D01*
X13320944Y-12653984D02*
X13282848Y-12653984D01*
X13282848Y-12653984D02*
X13263801Y-12663508D01*
X13263801Y-12663508D02*
X13254277Y-12673031D01*
X13254277Y-12673031D02*
X13235229Y-12701603D01*
X13235229Y-12701603D02*
X13225706Y-12739698D01*
X13225706Y-12739698D02*
X13225706Y-12815888D01*
X13225706Y-12815888D02*
X13235229Y-12834936D01*
X13235229Y-12834936D02*
X13244753Y-12844460D01*
X13244753Y-12844460D02*
X13263801Y-12853984D01*
X13263801Y-12853984D02*
X13301896Y-12853984D01*
X13301896Y-12853984D02*
X13320944Y-12844460D01*
X13320944Y-12844460D02*
X13330467Y-12834936D01*
X13330467Y-12834936D02*
X13339991Y-12815888D01*
X13339991Y-12815888D02*
X13339991Y-12768269D01*
X13339991Y-12768269D02*
X13330467Y-12749222D01*
X13330467Y-12749222D02*
X13320944Y-12739698D01*
X13320944Y-12739698D02*
X13301896Y-12730174D01*
X13301896Y-12730174D02*
X13263801Y-12730174D01*
X13263801Y-12730174D02*
X13244753Y-12739698D01*
X13244753Y-12739698D02*
X13235229Y-12749222D01*
X13235229Y-12749222D02*
X13225706Y-12768269D01*
X13406658Y-12653984D02*
X13530467Y-12653984D01*
X13530467Y-12653984D02*
X13463801Y-12730174D01*
X13463801Y-12730174D02*
X13492372Y-12730174D01*
X13492372Y-12730174D02*
X13511420Y-12739698D01*
X13511420Y-12739698D02*
X13520944Y-12749222D01*
X13520944Y-12749222D02*
X13530467Y-12768269D01*
X13530467Y-12768269D02*
X13530467Y-12815888D01*
X13530467Y-12815888D02*
X13520944Y-12834936D01*
X13520944Y-12834936D02*
X13511420Y-12844460D01*
X13511420Y-12844460D02*
X13492372Y-12853984D01*
X13492372Y-12853984D02*
X13435229Y-12853984D01*
X13435229Y-12853984D02*
X13416182Y-12844460D01*
X13416182Y-12844460D02*
X13406658Y-12834936D01*
X13654277Y-12653984D02*
X13673325Y-12653984D01*
X13673325Y-12653984D02*
X13692372Y-12663508D01*
X13692372Y-12663508D02*
X13701896Y-12673031D01*
X13701896Y-12673031D02*
X13711420Y-12692079D01*
X13711420Y-12692079D02*
X13720944Y-12730174D01*
X13720944Y-12730174D02*
X13720944Y-12777793D01*
X13720944Y-12777793D02*
X13711420Y-12815888D01*
X13711420Y-12815888D02*
X13701896Y-12834936D01*
X13701896Y-12834936D02*
X13692372Y-12844460D01*
X13692372Y-12844460D02*
X13673325Y-12853984D01*
X13673325Y-12853984D02*
X13654277Y-12853984D01*
X13654277Y-12853984D02*
X13635229Y-12844460D01*
X13635229Y-12844460D02*
X13625706Y-12834936D01*
X13625706Y-12834936D02*
X13616182Y-12815888D01*
X13616182Y-12815888D02*
X13606658Y-12777793D01*
X13606658Y-12777793D02*
X13606658Y-12730174D01*
X13606658Y-12730174D02*
X13616182Y-12692079D01*
X13616182Y-12692079D02*
X13625706Y-12673031D01*
X13625706Y-12673031D02*
X13635229Y-12663508D01*
X13635229Y-12663508D02*
X13654277Y-12653984D01*
X13797134Y-12653984D02*
X13797134Y-12692079D01*
X13873325Y-12653984D02*
X13873325Y-12692079D01*
X14168563Y-12930174D02*
X14159039Y-12920650D01*
X14159039Y-12920650D02*
X14139991Y-12892079D01*
X14139991Y-12892079D02*
X14130468Y-12873031D01*
X14130468Y-12873031D02*
X14120944Y-12844460D01*
X14120944Y-12844460D02*
X14111420Y-12796841D01*
X14111420Y-12796841D02*
X14111420Y-12758746D01*
X14111420Y-12758746D02*
X14120944Y-12711127D01*
X14120944Y-12711127D02*
X14130468Y-12682555D01*
X14130468Y-12682555D02*
X14139991Y-12663508D01*
X14139991Y-12663508D02*
X14159039Y-12634936D01*
X14159039Y-12634936D02*
X14168563Y-12625412D01*
X14225706Y-12653984D02*
X14349515Y-12653984D01*
X14349515Y-12653984D02*
X14282848Y-12730174D01*
X14282848Y-12730174D02*
X14311420Y-12730174D01*
X14311420Y-12730174D02*
X14330468Y-12739698D01*
X14330468Y-12739698D02*
X14339991Y-12749222D01*
X14339991Y-12749222D02*
X14349515Y-12768269D01*
X14349515Y-12768269D02*
X14349515Y-12815888D01*
X14349515Y-12815888D02*
X14339991Y-12834936D01*
X14339991Y-12834936D02*
X14330468Y-12844460D01*
X14330468Y-12844460D02*
X14311420Y-12853984D01*
X14311420Y-12853984D02*
X14254277Y-12853984D01*
X14254277Y-12853984D02*
X14235229Y-12844460D01*
X14235229Y-12844460D02*
X14225706Y-12834936D01*
X14587610Y-12853984D02*
X14587610Y-12653984D01*
X14673325Y-12853984D02*
X14673325Y-12749222D01*
X14673325Y-12749222D02*
X14663801Y-12730174D01*
X14663801Y-12730174D02*
X14644753Y-12720650D01*
X14644753Y-12720650D02*
X14616182Y-12720650D01*
X14616182Y-12720650D02*
X14597134Y-12730174D01*
X14597134Y-12730174D02*
X14587610Y-12739698D01*
X14797134Y-12853984D02*
X14778087Y-12844460D01*
X14778087Y-12844460D02*
X14768563Y-12834936D01*
X14768563Y-12834936D02*
X14759039Y-12815888D01*
X14759039Y-12815888D02*
X14759039Y-12758746D01*
X14759039Y-12758746D02*
X14768563Y-12739698D01*
X14768563Y-12739698D02*
X14778087Y-12730174D01*
X14778087Y-12730174D02*
X14797134Y-12720650D01*
X14797134Y-12720650D02*
X14825706Y-12720650D01*
X14825706Y-12720650D02*
X14844753Y-12730174D01*
X14844753Y-12730174D02*
X14854277Y-12739698D01*
X14854277Y-12739698D02*
X14863801Y-12758746D01*
X14863801Y-12758746D02*
X14863801Y-12815888D01*
X14863801Y-12815888D02*
X14854277Y-12834936D01*
X14854277Y-12834936D02*
X14844753Y-12844460D01*
X14844753Y-12844460D02*
X14825706Y-12853984D01*
X14825706Y-12853984D02*
X14797134Y-12853984D01*
X14978087Y-12853984D02*
X14959039Y-12844460D01*
X14959039Y-12844460D02*
X14949515Y-12825412D01*
X14949515Y-12825412D02*
X14949515Y-12653984D01*
X15130468Y-12844460D02*
X15111420Y-12853984D01*
X15111420Y-12853984D02*
X15073325Y-12853984D01*
X15073325Y-12853984D02*
X15054277Y-12844460D01*
X15054277Y-12844460D02*
X15044753Y-12825412D01*
X15044753Y-12825412D02*
X15044753Y-12749222D01*
X15044753Y-12749222D02*
X15054277Y-12730174D01*
X15054277Y-12730174D02*
X15073325Y-12720650D01*
X15073325Y-12720650D02*
X15111420Y-12720650D01*
X15111420Y-12720650D02*
X15130468Y-12730174D01*
X15130468Y-12730174D02*
X15139991Y-12749222D01*
X15139991Y-12749222D02*
X15139991Y-12768269D01*
X15139991Y-12768269D02*
X15044753Y-12787317D01*
X15216182Y-12844460D02*
X15235230Y-12853984D01*
X15235230Y-12853984D02*
X15273325Y-12853984D01*
X15273325Y-12853984D02*
X15292372Y-12844460D01*
X15292372Y-12844460D02*
X15301896Y-12825412D01*
X15301896Y-12825412D02*
X15301896Y-12815888D01*
X15301896Y-12815888D02*
X15292372Y-12796841D01*
X15292372Y-12796841D02*
X15273325Y-12787317D01*
X15273325Y-12787317D02*
X15244753Y-12787317D01*
X15244753Y-12787317D02*
X15225706Y-12777793D01*
X15225706Y-12777793D02*
X15216182Y-12758746D01*
X15216182Y-12758746D02*
X15216182Y-12749222D01*
X15216182Y-12749222D02*
X15225706Y-12730174D01*
X15225706Y-12730174D02*
X15244753Y-12720650D01*
X15244753Y-12720650D02*
X15273325Y-12720650D01*
X15273325Y-12720650D02*
X15292372Y-12730174D01*
X15368563Y-12930174D02*
X15378087Y-12920650D01*
X15378087Y-12920650D02*
X15397134Y-12892079D01*
X15397134Y-12892079D02*
X15406658Y-12873031D01*
X15406658Y-12873031D02*
X15416182Y-12844460D01*
X15416182Y-12844460D02*
X15425706Y-12796841D01*
X15425706Y-12796841D02*
X15425706Y-12758746D01*
X15425706Y-12758746D02*
X15416182Y-12711127D01*
X15416182Y-12711127D02*
X15406658Y-12682555D01*
X15406658Y-12682555D02*
X15397134Y-12663508D01*
X15397134Y-12663508D02*
X15378087Y-12634936D01*
X15378087Y-12634936D02*
X15368563Y-12625412D01*
M02*
