G04 #@! TF.GenerationSoftware,KiCad,Pcbnew,9.0.0*
G04 #@! TF.CreationDate,2025-05-15T15:17:57-04:00*
G04 #@! TF.ProjectId,blood_pressure,626c6f6f-645f-4707-9265-73737572652e,rev?*
G04 #@! TF.SameCoordinates,Original*
G04 #@! TF.FileFunction,Copper,L1,Top*
G04 #@! TF.FilePolarity,Positive*
%FSLAX46Y46*%
G04 Gerber Fmt 4.6, Leading zero omitted, Abs format (unit mm)*
G04 Created by KiCad (PCBNEW 9.0.0) date 2025-05-15 15:17:57*
%MOMM*%
%LPD*%
G01*
G04 APERTURE LIST*
G04 Aperture macros list*
%AMRoundRect*
0 Rectangle with rounded corners*
0 $1 Rounding radius*
0 $2 $3 $4 $5 $6 $7 $8 $9 X,Y pos of 4 corners*
0 Add a 4 corners polygon primitive as box body*
4,1,4,$2,$3,$4,$5,$6,$7,$8,$9,$2,$3,0*
0 Add four circle primitives for the rounded corners*
1,1,$1+$1,$2,$3*
1,1,$1+$1,$4,$5*
1,1,$1+$1,$6,$7*
1,1,$1+$1,$8,$9*
0 Add four rect primitives between the rounded corners*
20,1,$1+$1,$2,$3,$4,$5,0*
20,1,$1+$1,$4,$5,$6,$7,0*
20,1,$1+$1,$6,$7,$8,$9,0*
20,1,$1+$1,$8,$9,$2,$3,0*%
G04 Aperture macros list end*
G04 #@! TA.AperFunction,SMDPad,CuDef*
%ADD10RoundRect,0.250000X-0.262500X-0.450000X0.262500X-0.450000X0.262500X0.450000X-0.262500X0.450000X0*%
G04 #@! TD*
G04 #@! TA.AperFunction,SMDPad,CuDef*
%ADD11RoundRect,0.250000X0.475000X-0.250000X0.475000X0.250000X-0.475000X0.250000X-0.475000X-0.250000X0*%
G04 #@! TD*
G04 #@! TA.AperFunction,ComponentPad*
%ADD12C,1.508000*%
G04 #@! TD*
G04 #@! TA.AperFunction,ComponentPad*
%ADD13R,2.600000X2.600000*%
G04 #@! TD*
G04 #@! TA.AperFunction,ComponentPad*
%ADD14C,2.600000*%
G04 #@! TD*
G04 #@! TA.AperFunction,SMDPad,CuDef*
%ADD15RoundRect,0.076250X-0.513750X-0.228750X0.513750X-0.228750X0.513750X0.228750X-0.513750X0.228750X0*%
G04 #@! TD*
G04 #@! TA.AperFunction,ComponentPad*
%ADD16O,1.700000X1.700000*%
G04 #@! TD*
G04 #@! TA.AperFunction,SMDPad,CuDef*
%ADD17R,1.700000X3.500000*%
G04 #@! TD*
G04 #@! TA.AperFunction,ComponentPad*
%ADD18R,1.700000X1.700000*%
G04 #@! TD*
G04 #@! TA.AperFunction,ComponentPad*
%ADD19R,1.800000X1.800000*%
G04 #@! TD*
G04 #@! TA.AperFunction,ComponentPad*
%ADD20C,1.800000*%
G04 #@! TD*
G04 #@! TA.AperFunction,ComponentPad*
%ADD21C,2.000000*%
G04 #@! TD*
G04 #@! TA.AperFunction,ComponentPad*
%ADD22RoundRect,0.250000X0.550000X0.550000X-0.550000X0.550000X-0.550000X-0.550000X0.550000X-0.550000X0*%
G04 #@! TD*
G04 #@! TA.AperFunction,ComponentPad*
%ADD23C,1.600000*%
G04 #@! TD*
G04 #@! TA.AperFunction,Conductor*
%ADD24C,0.500000*%
G04 #@! TD*
G04 #@! TA.AperFunction,Conductor*
%ADD25C,0.200000*%
G04 #@! TD*
G04 #@! TA.AperFunction,Conductor*
%ADD26C,0.250000*%
G04 #@! TD*
G04 APERTURE END LIST*
D10*
X119675000Y-96500000D03*
X121500000Y-96500000D03*
X123675000Y-95500000D03*
X125500000Y-95500000D03*
D11*
X137500000Y-56000000D03*
X137500000Y-54100000D03*
D12*
X107625000Y-56414000D03*
X107625000Y-53874000D03*
X107625000Y-51334000D03*
X107625000Y-48794000D03*
X107625000Y-46254000D03*
X133025000Y-56414000D03*
X133025000Y-53874000D03*
X133025000Y-51334000D03*
X133025000Y-48794000D03*
X133025000Y-46254000D03*
X133025000Y-43714000D03*
X133025000Y-41174000D03*
X133025000Y-38634000D03*
X133025000Y-36094000D03*
D10*
X115675000Y-97500000D03*
X117500000Y-97500000D03*
X156675000Y-58000000D03*
X158500000Y-58000000D03*
D13*
X159800000Y-38750000D03*
D14*
X165800000Y-38750000D03*
X162800000Y-34050000D03*
D15*
X156475000Y-49085000D03*
X156475000Y-50915000D03*
X158525000Y-50000000D03*
D16*
X107830000Y-88974100D03*
D17*
X107830000Y-89874100D03*
D16*
X110370000Y-88974100D03*
D17*
X110370000Y-89874100D03*
D18*
X112910000Y-88974100D03*
D17*
X112910000Y-89874100D03*
D16*
X115450000Y-88974100D03*
D17*
X115450000Y-89874100D03*
D16*
X117990000Y-88974100D03*
D17*
X117990000Y-89874100D03*
D16*
X120530000Y-88974100D03*
D17*
X120530000Y-89874100D03*
D16*
X123070000Y-88974100D03*
D17*
X123070000Y-89874100D03*
D18*
X125610000Y-88974100D03*
D17*
X125610000Y-89874100D03*
D16*
X128150000Y-88974100D03*
D17*
X128150000Y-89874100D03*
D16*
X130690000Y-88974100D03*
D17*
X130690000Y-89874100D03*
D16*
X133230000Y-88974100D03*
D17*
X133230000Y-89874100D03*
D16*
X135770000Y-88974100D03*
D17*
X135770000Y-89874100D03*
D18*
X138310000Y-88974100D03*
D17*
X138310000Y-89874100D03*
D16*
X140850000Y-88974100D03*
D17*
X140850000Y-89874100D03*
D16*
X143390000Y-88974100D03*
D17*
X143390000Y-89874100D03*
D16*
X145930000Y-88974100D03*
D17*
X145930000Y-89874100D03*
D16*
X148470000Y-88974100D03*
D17*
X148470000Y-89874100D03*
D18*
X151010000Y-88974100D03*
D17*
X151010000Y-89874100D03*
D16*
X153550000Y-88974100D03*
D17*
X153550000Y-89874100D03*
D16*
X156090000Y-88974100D03*
D17*
X156090000Y-89874100D03*
D16*
X156090000Y-71194100D03*
D17*
X156090000Y-70294100D03*
D16*
X153550000Y-71194100D03*
D17*
X153550000Y-70294100D03*
D18*
X151010000Y-71194100D03*
D17*
X151010000Y-70294100D03*
D16*
X148470000Y-71194100D03*
D17*
X148470000Y-70294100D03*
D16*
X145930000Y-71194100D03*
D17*
X145930000Y-70294100D03*
D16*
X143390000Y-71194100D03*
D17*
X143390000Y-70294100D03*
D16*
X140850000Y-71194100D03*
D17*
X140850000Y-70294100D03*
D18*
X138310000Y-71194100D03*
D17*
X138310000Y-70294100D03*
D16*
X135770000Y-71194100D03*
D17*
X135770000Y-70294100D03*
D16*
X133230000Y-71194100D03*
D17*
X133230000Y-70294100D03*
D16*
X130690000Y-71194100D03*
D17*
X130690000Y-70294100D03*
D16*
X128150000Y-71194100D03*
D17*
X128150000Y-70294100D03*
D18*
X125610000Y-71194100D03*
D17*
X125610000Y-70294100D03*
D16*
X123070000Y-71194100D03*
D17*
X123070000Y-70294100D03*
D16*
X120530000Y-71194100D03*
D17*
X120530000Y-70294100D03*
D16*
X117990000Y-71194100D03*
D17*
X117990000Y-70294100D03*
D16*
X115450000Y-71194100D03*
D17*
X115450000Y-70294100D03*
D18*
X112910000Y-71194100D03*
D17*
X112910000Y-70294100D03*
D16*
X110370000Y-71194100D03*
D17*
X110370000Y-70294100D03*
D16*
X107830000Y-71194100D03*
D17*
X107830000Y-70294100D03*
D16*
X137560000Y-79500000D03*
D18*
X137560000Y-76960000D03*
D16*
X137560000Y-74420000D03*
D19*
X165475000Y-72000000D03*
D20*
X168015000Y-72000000D03*
D19*
X165460000Y-82500000D03*
D20*
X168000000Y-82500000D03*
D19*
X165460000Y-92500000D03*
D20*
X168000000Y-92500000D03*
D21*
X163250000Y-62750000D03*
X169750000Y-62750000D03*
X163250000Y-58250000D03*
X169750000Y-58250000D03*
D22*
X170305000Y-50052500D03*
D23*
X162685000Y-50052500D03*
D24*
X110370000Y-62130000D02*
X110370000Y-71194100D01*
X137983400Y-33000000D02*
X155898400Y-50915000D01*
X116086000Y-56414000D02*
X110370000Y-62130000D01*
X133025000Y-56414000D02*
X137086000Y-56414000D01*
X155898400Y-50915000D02*
X156475000Y-50915000D01*
X130500000Y-33000000D02*
X137983400Y-33000000D01*
X128000000Y-35500000D02*
X130500000Y-33000000D01*
X123588100Y-56414000D02*
X128000000Y-52002100D01*
D25*
X110370000Y-69632100D02*
X110370000Y-71194100D01*
D24*
X133025000Y-56414000D02*
X123588100Y-56414000D01*
D25*
X137086000Y-56414000D02*
X137500000Y-56000000D01*
D24*
X128000000Y-52002100D02*
X128000000Y-35500000D01*
X123588100Y-56414000D02*
X116086000Y-56414000D01*
D25*
X171500000Y-65975000D02*
X165475000Y-72000000D01*
X158175000Y-56500000D02*
X169839892Y-56500000D01*
X165475000Y-81985000D02*
X165460000Y-82000000D01*
X137274000Y-53874000D02*
X137500000Y-54100000D01*
D24*
X133025000Y-53874000D02*
X137274000Y-53874000D01*
D25*
X156675000Y-58000000D02*
X158175000Y-56500000D01*
X171500000Y-58160108D02*
X171500000Y-65975000D01*
X169839892Y-56500000D02*
X171500000Y-58160108D01*
D24*
X168500000Y-99000000D02*
X173000000Y-94500000D01*
X173000000Y-76985000D02*
X168015000Y-72000000D01*
X118046560Y-98046560D02*
X119000000Y-99000000D01*
D25*
X117500000Y-97500000D02*
X118046560Y-98046560D01*
D24*
X119000000Y-99000000D02*
X168500000Y-99000000D01*
X173000000Y-94500000D02*
X173000000Y-76985000D01*
X171500000Y-93000000D02*
X171500000Y-85500000D01*
X167500000Y-97000000D02*
X171500000Y-93000000D01*
X122000000Y-97000000D02*
X167500000Y-97000000D01*
D25*
X121500000Y-96500000D02*
X122000000Y-97000000D01*
D24*
X171500000Y-85500000D02*
X168000000Y-82000000D01*
D25*
X125500000Y-95500000D02*
X126113359Y-96113359D01*
D24*
X127226718Y-95000000D02*
X165500000Y-95000000D01*
X165500000Y-95000000D02*
X168000000Y-92500000D01*
X126113359Y-96113359D02*
X127226718Y-95000000D01*
X120500000Y-46500000D02*
X120500000Y-39000000D01*
X120500000Y-39000000D02*
X135000000Y-24500000D01*
X143000000Y-24500000D02*
X156475000Y-37975000D01*
X107830000Y-67330000D02*
X107500000Y-67000000D01*
X107830000Y-71194100D02*
X107830000Y-67330000D01*
X107500000Y-67000000D02*
X107500000Y-59500000D01*
X107500000Y-59500000D02*
X120500000Y-46500000D01*
X135000000Y-24500000D02*
X143000000Y-24500000D01*
X156475000Y-37975000D02*
X156475000Y-49085000D01*
X159800000Y-39547500D02*
X170305000Y-50052500D01*
D25*
X159800000Y-38750000D02*
X159800000Y-39547500D01*
X158500000Y-71086100D02*
X158500000Y-58000000D01*
X137443900Y-72868000D02*
X156718100Y-72868000D01*
X163250000Y-58250000D02*
X158750000Y-58250000D01*
X158750000Y-58250000D02*
X158500000Y-58000000D01*
X163250000Y-58250000D02*
X169750000Y-58250000D01*
X135770000Y-71194100D02*
X137443900Y-72868000D01*
X156718100Y-72868000D02*
X158500000Y-71086100D01*
D24*
X115675000Y-89199100D02*
X115675000Y-97500000D01*
D25*
X115450000Y-88974100D02*
X115675000Y-89199100D01*
X119675000Y-96175000D02*
X119675000Y-96500000D01*
D24*
X117990000Y-88974100D02*
X117990000Y-94490000D01*
X117990000Y-94490000D02*
X119675000Y-96175000D01*
D25*
X117990000Y-88974100D02*
X117547500Y-89416600D01*
D24*
X120530000Y-93442500D02*
X122587500Y-95500000D01*
X120530000Y-88974100D02*
X120530000Y-93442500D01*
X122587500Y-95500000D02*
X123675000Y-95500000D01*
D25*
X163250000Y-62750000D02*
X169750000Y-62750000D01*
X163250000Y-69000000D02*
X163250000Y-62750000D01*
X117990000Y-71194100D02*
X129795900Y-83000000D01*
X129795900Y-83000000D02*
X149250000Y-83000000D01*
X149250000Y-83000000D02*
X163250000Y-69000000D01*
X163500000Y-63000000D02*
X163250000Y-62750000D01*
X133025000Y-41174000D02*
X147000000Y-55149000D01*
X147000000Y-70124100D02*
X145930000Y-71194100D01*
X147000000Y-55149000D02*
X147000000Y-70124100D01*
X153550000Y-59159000D02*
X153550000Y-71194100D01*
X133025000Y-38634000D02*
X153550000Y-59159000D01*
X152053900Y-87823100D02*
X136921000Y-87823100D01*
X173000000Y-66877000D02*
X168795235Y-71081765D01*
X167517529Y-70799000D02*
X166814000Y-71502529D01*
X133025000Y-36094000D02*
X137094000Y-36094000D01*
X171000000Y-55500000D02*
X173000000Y-57500000D01*
X166814000Y-72497471D02*
X167096764Y-72780236D01*
X136921000Y-87823100D02*
X135770000Y-88974100D01*
X168795235Y-71081765D02*
X168512471Y-70799000D01*
X137094000Y-36094000D02*
X156500000Y-55500000D01*
X173000000Y-57500000D02*
X173000000Y-66877000D01*
X166814000Y-71502529D02*
X166814000Y-72497471D01*
X156500000Y-55500000D02*
X171000000Y-55500000D01*
X168512471Y-70799000D02*
X167517529Y-70799000D01*
X167096764Y-72780236D02*
X152053900Y-87823100D01*
X144779000Y-72345100D02*
X147319000Y-72345100D01*
X133025000Y-46254000D02*
X144779000Y-58008000D01*
X147319000Y-72345100D02*
X148470000Y-71194100D01*
X144779000Y-58008000D02*
X144779000Y-72345100D01*
X156090000Y-60207004D02*
X156090000Y-71194100D01*
X132421000Y-37579000D02*
X133461996Y-37579000D01*
X131970000Y-38030000D02*
X132421000Y-37579000D01*
X131970000Y-42659000D02*
X131970000Y-38030000D01*
X133461996Y-37579000D02*
X156090000Y-60207004D01*
X133025000Y-43714000D02*
X131970000Y-42659000D01*
X106561000Y-84061000D02*
X106561000Y-85061000D01*
X106561000Y-57478000D02*
X106561000Y-84061000D01*
X126999000Y-86999000D02*
X126999000Y-93499000D01*
X126999000Y-93499000D02*
X127500000Y-94000000D01*
X107625000Y-56414000D02*
X106561000Y-57478000D01*
X126500000Y-86500000D02*
X126999000Y-86999000D01*
X127500000Y-94000000D02*
X137386100Y-94000000D01*
X140850000Y-90536100D02*
X140850000Y-88974100D01*
X137386100Y-94000000D02*
X140850000Y-90536100D01*
X108000000Y-86500000D02*
X126500000Y-86500000D01*
X106561000Y-85061000D02*
X108000000Y-86500000D01*
X116839000Y-75123100D02*
X130690000Y-88974100D01*
X139500000Y-58500000D02*
X133000000Y-65000000D01*
X133000000Y-65000000D02*
X120082100Y-65000000D01*
X134091317Y-48794000D02*
X139500000Y-54202683D01*
X133025000Y-48794000D02*
X134091317Y-48794000D01*
X116839000Y-68243100D02*
X116839000Y-75123100D01*
X139500000Y-54202683D02*
X139500000Y-58500000D01*
X120082100Y-65000000D02*
X116839000Y-68243100D01*
D26*
X162632500Y-50000000D02*
X162685000Y-50052500D01*
D24*
X158525000Y-50000000D02*
X162632500Y-50000000D01*
D25*
X162685000Y-50052500D02*
X162182500Y-49550000D01*
M02*
