%TF.GenerationSoftware,KiCad,Pcbnew,9.0.0*%
%TF.CreationDate,2025-05-15T15:19:50-04:00*%
%TF.ProjectId,blood_pressure,626c6f6f-645f-4707-9265-73737572652e,rev?*%
%TF.SameCoordinates,Original*%
%TF.FileFunction,Drillmap*%
%TF.FilePolarity,Positive*%
%FSLAX45Y45*%
G04 Gerber Fmt 4.5, Leading zero omitted, Abs format (unit mm)*
G04 Created by KiCad (PCBNEW 9.0.0) date 2025-05-15 15:19:50*
%MOMM*%
%LPD*%
G01*
G04 APERTURE LIST*
%ADD10C,0.050000*%
%ADD11C,0.200000*%
%ADD12C,0.150000*%
%ADD13C,0.180000*%
%ADD14C,0.320000*%
G04 APERTURE END LIST*
D10*
X10596000Y-2250000D02*
X10596000Y-10800000D01*
X10596000Y-2250000D02*
X17400000Y-2250000D01*
X17400000Y-10800000D02*
X17400000Y-2250000D01*
X10596000Y-10800000D02*
X17400000Y-10800000D01*
D11*
D12*
X11024000Y-7690910D02*
X11174000Y-7840910D01*
X11174000Y-7690910D02*
X11024000Y-7840910D01*
X11024000Y-8175910D02*
X11174000Y-8325910D01*
X11174000Y-8175910D02*
X11024000Y-8325910D01*
D13*
X10886000Y-7735910D02*
G75*
G02*
X10706000Y-7735910I-90000J0D01*
G01*
X10706000Y-7735910D02*
G75*
G02*
X10886000Y-7735910I90000J0D01*
G01*
X10886000Y-8280910D02*
G75*
G02*
X10706000Y-8280910I-90000J0D01*
G01*
X10706000Y-8280910D02*
G75*
G02*
X10886000Y-8280910I90000J0D01*
G01*
D14*
X11250000Y-2590000D02*
X11250000Y-2910000D01*
X11090000Y-2750000D02*
X11410000Y-2750000D01*
X11250000Y-10090000D02*
X11250000Y-10410000D01*
X11090000Y-10250000D02*
X11410000Y-10250000D01*
X16750000Y-2590000D02*
X16750000Y-2910000D01*
X16590000Y-2750000D02*
X16910000Y-2750000D01*
X16750000Y-10090000D02*
X16750000Y-10410000D01*
X16590000Y-10250000D02*
X16910000Y-10250000D01*
D11*
X10854277Y-11113984D02*
X10854277Y-10913984D01*
X10854277Y-10913984D02*
X10901896Y-10913984D01*
X10901896Y-10913984D02*
X10930467Y-10923508D01*
X10930467Y-10923508D02*
X10949515Y-10942555D01*
X10949515Y-10942555D02*
X10959039Y-10961603D01*
X10959039Y-10961603D02*
X10968563Y-10999698D01*
X10968563Y-10999698D02*
X10968563Y-11028270D01*
X10968563Y-11028270D02*
X10959039Y-11066365D01*
X10959039Y-11066365D02*
X10949515Y-11085412D01*
X10949515Y-11085412D02*
X10930467Y-11104460D01*
X10930467Y-11104460D02*
X10901896Y-11113984D01*
X10901896Y-11113984D02*
X10854277Y-11113984D01*
X11054277Y-11113984D02*
X11054277Y-10980650D01*
X11054277Y-11018746D02*
X11063801Y-10999698D01*
X11063801Y-10999698D02*
X11073324Y-10990174D01*
X11073324Y-10990174D02*
X11092372Y-10980650D01*
X11092372Y-10980650D02*
X11111420Y-10980650D01*
X11178086Y-11113984D02*
X11178086Y-10980650D01*
X11178086Y-10913984D02*
X11168563Y-10923508D01*
X11168563Y-10923508D02*
X11178086Y-10933031D01*
X11178086Y-10933031D02*
X11187610Y-10923508D01*
X11187610Y-10923508D02*
X11178086Y-10913984D01*
X11178086Y-10913984D02*
X11178086Y-10933031D01*
X11301896Y-11113984D02*
X11282848Y-11104460D01*
X11282848Y-11104460D02*
X11273324Y-11085412D01*
X11273324Y-11085412D02*
X11273324Y-10913984D01*
X11406658Y-11113984D02*
X11387610Y-11104460D01*
X11387610Y-11104460D02*
X11378086Y-11085412D01*
X11378086Y-11085412D02*
X11378086Y-10913984D01*
X11635229Y-11113984D02*
X11635229Y-10913984D01*
X11635229Y-10913984D02*
X11701896Y-11056841D01*
X11701896Y-11056841D02*
X11768562Y-10913984D01*
X11768562Y-10913984D02*
X11768562Y-11113984D01*
X11949515Y-11113984D02*
X11949515Y-11009222D01*
X11949515Y-11009222D02*
X11939991Y-10990174D01*
X11939991Y-10990174D02*
X11920943Y-10980650D01*
X11920943Y-10980650D02*
X11882848Y-10980650D01*
X11882848Y-10980650D02*
X11863801Y-10990174D01*
X11949515Y-11104460D02*
X11930467Y-11113984D01*
X11930467Y-11113984D02*
X11882848Y-11113984D01*
X11882848Y-11113984D02*
X11863801Y-11104460D01*
X11863801Y-11104460D02*
X11854277Y-11085412D01*
X11854277Y-11085412D02*
X11854277Y-11066365D01*
X11854277Y-11066365D02*
X11863801Y-11047317D01*
X11863801Y-11047317D02*
X11882848Y-11037793D01*
X11882848Y-11037793D02*
X11930467Y-11037793D01*
X11930467Y-11037793D02*
X11949515Y-11028270D01*
X12044753Y-10980650D02*
X12044753Y-11180650D01*
X12044753Y-10990174D02*
X12063801Y-10980650D01*
X12063801Y-10980650D02*
X12101896Y-10980650D01*
X12101896Y-10980650D02*
X12120943Y-10990174D01*
X12120943Y-10990174D02*
X12130467Y-10999698D01*
X12130467Y-10999698D02*
X12139991Y-11018746D01*
X12139991Y-11018746D02*
X12139991Y-11075889D01*
X12139991Y-11075889D02*
X12130467Y-11094936D01*
X12130467Y-11094936D02*
X12120943Y-11104460D01*
X12120943Y-11104460D02*
X12101896Y-11113984D01*
X12101896Y-11113984D02*
X12063801Y-11113984D01*
X12063801Y-11113984D02*
X12044753Y-11104460D01*
X12225705Y-11094936D02*
X12235229Y-11104460D01*
X12235229Y-11104460D02*
X12225705Y-11113984D01*
X12225705Y-11113984D02*
X12216182Y-11104460D01*
X12216182Y-11104460D02*
X12225705Y-11094936D01*
X12225705Y-11094936D02*
X12225705Y-11113984D01*
X12225705Y-10990174D02*
X12235229Y-10999698D01*
X12235229Y-10999698D02*
X12225705Y-11009222D01*
X12225705Y-11009222D02*
X12216182Y-10999698D01*
X12216182Y-10999698D02*
X12225705Y-10990174D01*
X12225705Y-10990174D02*
X12225705Y-11009222D01*
D12*
X10443500Y-11367500D02*
X10593500Y-11517500D01*
X10593500Y-11367500D02*
X10443500Y-11517500D01*
D11*
X10959039Y-11533984D02*
X10844753Y-11533984D01*
X10901896Y-11533984D02*
X10901896Y-11333984D01*
X10901896Y-11333984D02*
X10882848Y-11362555D01*
X10882848Y-11362555D02*
X10863801Y-11381603D01*
X10863801Y-11381603D02*
X10844753Y-11391127D01*
X11044753Y-11514936D02*
X11054277Y-11524460D01*
X11054277Y-11524460D02*
X11044753Y-11533984D01*
X11044753Y-11533984D02*
X11035229Y-11524460D01*
X11035229Y-11524460D02*
X11044753Y-11514936D01*
X11044753Y-11514936D02*
X11044753Y-11533984D01*
X11235229Y-11333984D02*
X11139991Y-11333984D01*
X11139991Y-11333984D02*
X11130467Y-11429222D01*
X11130467Y-11429222D02*
X11139991Y-11419698D01*
X11139991Y-11419698D02*
X11159039Y-11410174D01*
X11159039Y-11410174D02*
X11206658Y-11410174D01*
X11206658Y-11410174D02*
X11225705Y-11419698D01*
X11225705Y-11419698D02*
X11235229Y-11429222D01*
X11235229Y-11429222D02*
X11244753Y-11448269D01*
X11244753Y-11448269D02*
X11244753Y-11495888D01*
X11244753Y-11495888D02*
X11235229Y-11514936D01*
X11235229Y-11514936D02*
X11225705Y-11524460D01*
X11225705Y-11524460D02*
X11206658Y-11533984D01*
X11206658Y-11533984D02*
X11159039Y-11533984D01*
X11159039Y-11533984D02*
X11139991Y-11524460D01*
X11139991Y-11524460D02*
X11130467Y-11514936D01*
X11368562Y-11333984D02*
X11387610Y-11333984D01*
X11387610Y-11333984D02*
X11406658Y-11343508D01*
X11406658Y-11343508D02*
X11416182Y-11353031D01*
X11416182Y-11353031D02*
X11425705Y-11372079D01*
X11425705Y-11372079D02*
X11435229Y-11410174D01*
X11435229Y-11410174D02*
X11435229Y-11457793D01*
X11435229Y-11457793D02*
X11425705Y-11495888D01*
X11425705Y-11495888D02*
X11416182Y-11514936D01*
X11416182Y-11514936D02*
X11406658Y-11524460D01*
X11406658Y-11524460D02*
X11387610Y-11533984D01*
X11387610Y-11533984D02*
X11368562Y-11533984D01*
X11368562Y-11533984D02*
X11349515Y-11524460D01*
X11349515Y-11524460D02*
X11339991Y-11514936D01*
X11339991Y-11514936D02*
X11330467Y-11495888D01*
X11330467Y-11495888D02*
X11320943Y-11457793D01*
X11320943Y-11457793D02*
X11320943Y-11410174D01*
X11320943Y-11410174D02*
X11330467Y-11372079D01*
X11330467Y-11372079D02*
X11339991Y-11353031D01*
X11339991Y-11353031D02*
X11349515Y-11343508D01*
X11349515Y-11343508D02*
X11368562Y-11333984D01*
X11559039Y-11333984D02*
X11578086Y-11333984D01*
X11578086Y-11333984D02*
X11597134Y-11343508D01*
X11597134Y-11343508D02*
X11606658Y-11353031D01*
X11606658Y-11353031D02*
X11616182Y-11372079D01*
X11616182Y-11372079D02*
X11625705Y-11410174D01*
X11625705Y-11410174D02*
X11625705Y-11457793D01*
X11625705Y-11457793D02*
X11616182Y-11495888D01*
X11616182Y-11495888D02*
X11606658Y-11514936D01*
X11606658Y-11514936D02*
X11597134Y-11524460D01*
X11597134Y-11524460D02*
X11578086Y-11533984D01*
X11578086Y-11533984D02*
X11559039Y-11533984D01*
X11559039Y-11533984D02*
X11539991Y-11524460D01*
X11539991Y-11524460D02*
X11530467Y-11514936D01*
X11530467Y-11514936D02*
X11520943Y-11495888D01*
X11520943Y-11495888D02*
X11511420Y-11457793D01*
X11511420Y-11457793D02*
X11511420Y-11410174D01*
X11511420Y-11410174D02*
X11520943Y-11372079D01*
X11520943Y-11372079D02*
X11530467Y-11353031D01*
X11530467Y-11353031D02*
X11539991Y-11343508D01*
X11539991Y-11343508D02*
X11559039Y-11333984D01*
X11711420Y-11533984D02*
X11711420Y-11400650D01*
X11711420Y-11419698D02*
X11720943Y-11410174D01*
X11720943Y-11410174D02*
X11739991Y-11400650D01*
X11739991Y-11400650D02*
X11768563Y-11400650D01*
X11768563Y-11400650D02*
X11787610Y-11410174D01*
X11787610Y-11410174D02*
X11797134Y-11429222D01*
X11797134Y-11429222D02*
X11797134Y-11533984D01*
X11797134Y-11429222D02*
X11806658Y-11410174D01*
X11806658Y-11410174D02*
X11825705Y-11400650D01*
X11825705Y-11400650D02*
X11854277Y-11400650D01*
X11854277Y-11400650D02*
X11873324Y-11410174D01*
X11873324Y-11410174D02*
X11882848Y-11429222D01*
X11882848Y-11429222D02*
X11882848Y-11533984D01*
X11978086Y-11533984D02*
X11978086Y-11400650D01*
X11978086Y-11419698D02*
X11987610Y-11410174D01*
X11987610Y-11410174D02*
X12006658Y-11400650D01*
X12006658Y-11400650D02*
X12035229Y-11400650D01*
X12035229Y-11400650D02*
X12054277Y-11410174D01*
X12054277Y-11410174D02*
X12063801Y-11429222D01*
X12063801Y-11429222D02*
X12063801Y-11533984D01*
X12063801Y-11429222D02*
X12073324Y-11410174D01*
X12073324Y-11410174D02*
X12092372Y-11400650D01*
X12092372Y-11400650D02*
X12120943Y-11400650D01*
X12120943Y-11400650D02*
X12139991Y-11410174D01*
X12139991Y-11410174D02*
X12149515Y-11429222D01*
X12149515Y-11429222D02*
X12149515Y-11533984D01*
X12539991Y-11324460D02*
X12368563Y-11581603D01*
X12797134Y-11333984D02*
X12816182Y-11333984D01*
X12816182Y-11333984D02*
X12835229Y-11343508D01*
X12835229Y-11343508D02*
X12844753Y-11353031D01*
X12844753Y-11353031D02*
X12854277Y-11372079D01*
X12854277Y-11372079D02*
X12863801Y-11410174D01*
X12863801Y-11410174D02*
X12863801Y-11457793D01*
X12863801Y-11457793D02*
X12854277Y-11495888D01*
X12854277Y-11495888D02*
X12844753Y-11514936D01*
X12844753Y-11514936D02*
X12835229Y-11524460D01*
X12835229Y-11524460D02*
X12816182Y-11533984D01*
X12816182Y-11533984D02*
X12797134Y-11533984D01*
X12797134Y-11533984D02*
X12778086Y-11524460D01*
X12778086Y-11524460D02*
X12768563Y-11514936D01*
X12768563Y-11514936D02*
X12759039Y-11495888D01*
X12759039Y-11495888D02*
X12749515Y-11457793D01*
X12749515Y-11457793D02*
X12749515Y-11410174D01*
X12749515Y-11410174D02*
X12759039Y-11372079D01*
X12759039Y-11372079D02*
X12768563Y-11353031D01*
X12768563Y-11353031D02*
X12778086Y-11343508D01*
X12778086Y-11343508D02*
X12797134Y-11333984D01*
X12949515Y-11514936D02*
X12959039Y-11524460D01*
X12959039Y-11524460D02*
X12949515Y-11533984D01*
X12949515Y-11533984D02*
X12939991Y-11524460D01*
X12939991Y-11524460D02*
X12949515Y-11514936D01*
X12949515Y-11514936D02*
X12949515Y-11533984D01*
X13082848Y-11333984D02*
X13101896Y-11333984D01*
X13101896Y-11333984D02*
X13120944Y-11343508D01*
X13120944Y-11343508D02*
X13130467Y-11353031D01*
X13130467Y-11353031D02*
X13139991Y-11372079D01*
X13139991Y-11372079D02*
X13149515Y-11410174D01*
X13149515Y-11410174D02*
X13149515Y-11457793D01*
X13149515Y-11457793D02*
X13139991Y-11495888D01*
X13139991Y-11495888D02*
X13130467Y-11514936D01*
X13130467Y-11514936D02*
X13120944Y-11524460D01*
X13120944Y-11524460D02*
X13101896Y-11533984D01*
X13101896Y-11533984D02*
X13082848Y-11533984D01*
X13082848Y-11533984D02*
X13063801Y-11524460D01*
X13063801Y-11524460D02*
X13054277Y-11514936D01*
X13054277Y-11514936D02*
X13044753Y-11495888D01*
X13044753Y-11495888D02*
X13035229Y-11457793D01*
X13035229Y-11457793D02*
X13035229Y-11410174D01*
X13035229Y-11410174D02*
X13044753Y-11372079D01*
X13044753Y-11372079D02*
X13054277Y-11353031D01*
X13054277Y-11353031D02*
X13063801Y-11343508D01*
X13063801Y-11343508D02*
X13082848Y-11333984D01*
X13330467Y-11333984D02*
X13235229Y-11333984D01*
X13235229Y-11333984D02*
X13225706Y-11429222D01*
X13225706Y-11429222D02*
X13235229Y-11419698D01*
X13235229Y-11419698D02*
X13254277Y-11410174D01*
X13254277Y-11410174D02*
X13301896Y-11410174D01*
X13301896Y-11410174D02*
X13320944Y-11419698D01*
X13320944Y-11419698D02*
X13330467Y-11429222D01*
X13330467Y-11429222D02*
X13339991Y-11448269D01*
X13339991Y-11448269D02*
X13339991Y-11495888D01*
X13339991Y-11495888D02*
X13330467Y-11514936D01*
X13330467Y-11514936D02*
X13320944Y-11524460D01*
X13320944Y-11524460D02*
X13301896Y-11533984D01*
X13301896Y-11533984D02*
X13254277Y-11533984D01*
X13254277Y-11533984D02*
X13235229Y-11524460D01*
X13235229Y-11524460D02*
X13225706Y-11514936D01*
X13435229Y-11533984D02*
X13473325Y-11533984D01*
X13473325Y-11533984D02*
X13492372Y-11524460D01*
X13492372Y-11524460D02*
X13501896Y-11514936D01*
X13501896Y-11514936D02*
X13520944Y-11486365D01*
X13520944Y-11486365D02*
X13530467Y-11448269D01*
X13530467Y-11448269D02*
X13530467Y-11372079D01*
X13530467Y-11372079D02*
X13520944Y-11353031D01*
X13520944Y-11353031D02*
X13511420Y-11343508D01*
X13511420Y-11343508D02*
X13492372Y-11333984D01*
X13492372Y-11333984D02*
X13454277Y-11333984D01*
X13454277Y-11333984D02*
X13435229Y-11343508D01*
X13435229Y-11343508D02*
X13425706Y-11353031D01*
X13425706Y-11353031D02*
X13416182Y-11372079D01*
X13416182Y-11372079D02*
X13416182Y-11419698D01*
X13416182Y-11419698D02*
X13425706Y-11438746D01*
X13425706Y-11438746D02*
X13435229Y-11448269D01*
X13435229Y-11448269D02*
X13454277Y-11457793D01*
X13454277Y-11457793D02*
X13492372Y-11457793D01*
X13492372Y-11457793D02*
X13511420Y-11448269D01*
X13511420Y-11448269D02*
X13520944Y-11438746D01*
X13520944Y-11438746D02*
X13530467Y-11419698D01*
X13720944Y-11533984D02*
X13606658Y-11533984D01*
X13663801Y-11533984D02*
X13663801Y-11333984D01*
X13663801Y-11333984D02*
X13644753Y-11362555D01*
X13644753Y-11362555D02*
X13625706Y-11381603D01*
X13625706Y-11381603D02*
X13606658Y-11391127D01*
X13797134Y-11333984D02*
X13797134Y-11372079D01*
X13873325Y-11333984D02*
X13873325Y-11372079D01*
X14168563Y-11610174D02*
X14159039Y-11600650D01*
X14159039Y-11600650D02*
X14139991Y-11572079D01*
X14139991Y-11572079D02*
X14130468Y-11553031D01*
X14130468Y-11553031D02*
X14120944Y-11524460D01*
X14120944Y-11524460D02*
X14111420Y-11476841D01*
X14111420Y-11476841D02*
X14111420Y-11438746D01*
X14111420Y-11438746D02*
X14120944Y-11391127D01*
X14120944Y-11391127D02*
X14130468Y-11362555D01*
X14130468Y-11362555D02*
X14139991Y-11343508D01*
X14139991Y-11343508D02*
X14159039Y-11314936D01*
X14159039Y-11314936D02*
X14168563Y-11305412D01*
X14235229Y-11353031D02*
X14244753Y-11343508D01*
X14244753Y-11343508D02*
X14263801Y-11333984D01*
X14263801Y-11333984D02*
X14311420Y-11333984D01*
X14311420Y-11333984D02*
X14330468Y-11343508D01*
X14330468Y-11343508D02*
X14339991Y-11353031D01*
X14339991Y-11353031D02*
X14349515Y-11372079D01*
X14349515Y-11372079D02*
X14349515Y-11391127D01*
X14349515Y-11391127D02*
X14339991Y-11419698D01*
X14339991Y-11419698D02*
X14225706Y-11533984D01*
X14225706Y-11533984D02*
X14349515Y-11533984D01*
X14587610Y-11533984D02*
X14587610Y-11333984D01*
X14673325Y-11533984D02*
X14673325Y-11429222D01*
X14673325Y-11429222D02*
X14663801Y-11410174D01*
X14663801Y-11410174D02*
X14644753Y-11400650D01*
X14644753Y-11400650D02*
X14616182Y-11400650D01*
X14616182Y-11400650D02*
X14597134Y-11410174D01*
X14597134Y-11410174D02*
X14587610Y-11419698D01*
X14797134Y-11533984D02*
X14778087Y-11524460D01*
X14778087Y-11524460D02*
X14768563Y-11514936D01*
X14768563Y-11514936D02*
X14759039Y-11495888D01*
X14759039Y-11495888D02*
X14759039Y-11438746D01*
X14759039Y-11438746D02*
X14768563Y-11419698D01*
X14768563Y-11419698D02*
X14778087Y-11410174D01*
X14778087Y-11410174D02*
X14797134Y-11400650D01*
X14797134Y-11400650D02*
X14825706Y-11400650D01*
X14825706Y-11400650D02*
X14844753Y-11410174D01*
X14844753Y-11410174D02*
X14854277Y-11419698D01*
X14854277Y-11419698D02*
X14863801Y-11438746D01*
X14863801Y-11438746D02*
X14863801Y-11495888D01*
X14863801Y-11495888D02*
X14854277Y-11514936D01*
X14854277Y-11514936D02*
X14844753Y-11524460D01*
X14844753Y-11524460D02*
X14825706Y-11533984D01*
X14825706Y-11533984D02*
X14797134Y-11533984D01*
X14978087Y-11533984D02*
X14959039Y-11524460D01*
X14959039Y-11524460D02*
X14949515Y-11505412D01*
X14949515Y-11505412D02*
X14949515Y-11333984D01*
X15130468Y-11524460D02*
X15111420Y-11533984D01*
X15111420Y-11533984D02*
X15073325Y-11533984D01*
X15073325Y-11533984D02*
X15054277Y-11524460D01*
X15054277Y-11524460D02*
X15044753Y-11505412D01*
X15044753Y-11505412D02*
X15044753Y-11429222D01*
X15044753Y-11429222D02*
X15054277Y-11410174D01*
X15054277Y-11410174D02*
X15073325Y-11400650D01*
X15073325Y-11400650D02*
X15111420Y-11400650D01*
X15111420Y-11400650D02*
X15130468Y-11410174D01*
X15130468Y-11410174D02*
X15139991Y-11429222D01*
X15139991Y-11429222D02*
X15139991Y-11448269D01*
X15139991Y-11448269D02*
X15044753Y-11467317D01*
X15216182Y-11524460D02*
X15235230Y-11533984D01*
X15235230Y-11533984D02*
X15273325Y-11533984D01*
X15273325Y-11533984D02*
X15292372Y-11524460D01*
X15292372Y-11524460D02*
X15301896Y-11505412D01*
X15301896Y-11505412D02*
X15301896Y-11495888D01*
X15301896Y-11495888D02*
X15292372Y-11476841D01*
X15292372Y-11476841D02*
X15273325Y-11467317D01*
X15273325Y-11467317D02*
X15244753Y-11467317D01*
X15244753Y-11467317D02*
X15225706Y-11457793D01*
X15225706Y-11457793D02*
X15216182Y-11438746D01*
X15216182Y-11438746D02*
X15216182Y-11429222D01*
X15216182Y-11429222D02*
X15225706Y-11410174D01*
X15225706Y-11410174D02*
X15244753Y-11400650D01*
X15244753Y-11400650D02*
X15273325Y-11400650D01*
X15273325Y-11400650D02*
X15292372Y-11410174D01*
X15368563Y-11610174D02*
X15378087Y-11600650D01*
X15378087Y-11600650D02*
X15397134Y-11572079D01*
X15397134Y-11572079D02*
X15406658Y-11553031D01*
X15406658Y-11553031D02*
X15416182Y-11524460D01*
X15416182Y-11524460D02*
X15425706Y-11476841D01*
X15425706Y-11476841D02*
X15425706Y-11438746D01*
X15425706Y-11438746D02*
X15416182Y-11391127D01*
X15416182Y-11391127D02*
X15406658Y-11362555D01*
X15406658Y-11362555D02*
X15397134Y-11343508D01*
X15397134Y-11343508D02*
X15378087Y-11314936D01*
X15378087Y-11314936D02*
X15368563Y-11305412D01*
X15730468Y-11610174D02*
X15720944Y-11600650D01*
X15720944Y-11600650D02*
X15701896Y-11572079D01*
X15701896Y-11572079D02*
X15692372Y-11553031D01*
X15692372Y-11553031D02*
X15682849Y-11524460D01*
X15682849Y-11524460D02*
X15673325Y-11476841D01*
X15673325Y-11476841D02*
X15673325Y-11438746D01*
X15673325Y-11438746D02*
X15682849Y-11391127D01*
X15682849Y-11391127D02*
X15692372Y-11362555D01*
X15692372Y-11362555D02*
X15701896Y-11343508D01*
X15701896Y-11343508D02*
X15720944Y-11314936D01*
X15720944Y-11314936D02*
X15730468Y-11305412D01*
X15806658Y-11400650D02*
X15806658Y-11533984D01*
X15806658Y-11419698D02*
X15816182Y-11410174D01*
X15816182Y-11410174D02*
X15835230Y-11400650D01*
X15835230Y-11400650D02*
X15863801Y-11400650D01*
X15863801Y-11400650D02*
X15882849Y-11410174D01*
X15882849Y-11410174D02*
X15892372Y-11429222D01*
X15892372Y-11429222D02*
X15892372Y-11533984D01*
X16016182Y-11533984D02*
X15997134Y-11524460D01*
X15997134Y-11524460D02*
X15987611Y-11514936D01*
X15987611Y-11514936D02*
X15978087Y-11495888D01*
X15978087Y-11495888D02*
X15978087Y-11438746D01*
X15978087Y-11438746D02*
X15987611Y-11419698D01*
X15987611Y-11419698D02*
X15997134Y-11410174D01*
X15997134Y-11410174D02*
X16016182Y-11400650D01*
X16016182Y-11400650D02*
X16044753Y-11400650D01*
X16044753Y-11400650D02*
X16063801Y-11410174D01*
X16063801Y-11410174D02*
X16073325Y-11419698D01*
X16073325Y-11419698D02*
X16082849Y-11438746D01*
X16082849Y-11438746D02*
X16082849Y-11495888D01*
X16082849Y-11495888D02*
X16073325Y-11514936D01*
X16073325Y-11514936D02*
X16063801Y-11524460D01*
X16063801Y-11524460D02*
X16044753Y-11533984D01*
X16044753Y-11533984D02*
X16016182Y-11533984D01*
X16139992Y-11400650D02*
X16216182Y-11400650D01*
X16168563Y-11333984D02*
X16168563Y-11505412D01*
X16168563Y-11505412D02*
X16178087Y-11524460D01*
X16178087Y-11524460D02*
X16197134Y-11533984D01*
X16197134Y-11533984D02*
X16216182Y-11533984D01*
X16435230Y-11400650D02*
X16435230Y-11600650D01*
X16435230Y-11410174D02*
X16454277Y-11400650D01*
X16454277Y-11400650D02*
X16492373Y-11400650D01*
X16492373Y-11400650D02*
X16511420Y-11410174D01*
X16511420Y-11410174D02*
X16520944Y-11419698D01*
X16520944Y-11419698D02*
X16530468Y-11438746D01*
X16530468Y-11438746D02*
X16530468Y-11495888D01*
X16530468Y-11495888D02*
X16520944Y-11514936D01*
X16520944Y-11514936D02*
X16511420Y-11524460D01*
X16511420Y-11524460D02*
X16492373Y-11533984D01*
X16492373Y-11533984D02*
X16454277Y-11533984D01*
X16454277Y-11533984D02*
X16435230Y-11524460D01*
X16644753Y-11533984D02*
X16625706Y-11524460D01*
X16625706Y-11524460D02*
X16616182Y-11505412D01*
X16616182Y-11505412D02*
X16616182Y-11333984D01*
X16806658Y-11533984D02*
X16806658Y-11429222D01*
X16806658Y-11429222D02*
X16797135Y-11410174D01*
X16797135Y-11410174D02*
X16778087Y-11400650D01*
X16778087Y-11400650D02*
X16739992Y-11400650D01*
X16739992Y-11400650D02*
X16720944Y-11410174D01*
X16806658Y-11524460D02*
X16787611Y-11533984D01*
X16787611Y-11533984D02*
X16739992Y-11533984D01*
X16739992Y-11533984D02*
X16720944Y-11524460D01*
X16720944Y-11524460D02*
X16711420Y-11505412D01*
X16711420Y-11505412D02*
X16711420Y-11486365D01*
X16711420Y-11486365D02*
X16720944Y-11467317D01*
X16720944Y-11467317D02*
X16739992Y-11457793D01*
X16739992Y-11457793D02*
X16787611Y-11457793D01*
X16787611Y-11457793D02*
X16806658Y-11448269D01*
X16873325Y-11400650D02*
X16949515Y-11400650D01*
X16901896Y-11333984D02*
X16901896Y-11505412D01*
X16901896Y-11505412D02*
X16911420Y-11524460D01*
X16911420Y-11524460D02*
X16930468Y-11533984D01*
X16930468Y-11533984D02*
X16949515Y-11533984D01*
X17092373Y-11524460D02*
X17073325Y-11533984D01*
X17073325Y-11533984D02*
X17035230Y-11533984D01*
X17035230Y-11533984D02*
X17016182Y-11524460D01*
X17016182Y-11524460D02*
X17006658Y-11505412D01*
X17006658Y-11505412D02*
X17006658Y-11429222D01*
X17006658Y-11429222D02*
X17016182Y-11410174D01*
X17016182Y-11410174D02*
X17035230Y-11400650D01*
X17035230Y-11400650D02*
X17073325Y-11400650D01*
X17073325Y-11400650D02*
X17092373Y-11410174D01*
X17092373Y-11410174D02*
X17101896Y-11429222D01*
X17101896Y-11429222D02*
X17101896Y-11448269D01*
X17101896Y-11448269D02*
X17006658Y-11467317D01*
X17273325Y-11533984D02*
X17273325Y-11333984D01*
X17273325Y-11524460D02*
X17254277Y-11533984D01*
X17254277Y-11533984D02*
X17216182Y-11533984D01*
X17216182Y-11533984D02*
X17197135Y-11524460D01*
X17197135Y-11524460D02*
X17187611Y-11514936D01*
X17187611Y-11514936D02*
X17178087Y-11495888D01*
X17178087Y-11495888D02*
X17178087Y-11438746D01*
X17178087Y-11438746D02*
X17187611Y-11419698D01*
X17187611Y-11419698D02*
X17197135Y-11410174D01*
X17197135Y-11410174D02*
X17216182Y-11400650D01*
X17216182Y-11400650D02*
X17254277Y-11400650D01*
X17254277Y-11400650D02*
X17273325Y-11410174D01*
X17349516Y-11610174D02*
X17359039Y-11600650D01*
X17359039Y-11600650D02*
X17378087Y-11572079D01*
X17378087Y-11572079D02*
X17387611Y-11553031D01*
X17387611Y-11553031D02*
X17397135Y-11524460D01*
X17397135Y-11524460D02*
X17406658Y-11476841D01*
X17406658Y-11476841D02*
X17406658Y-11438746D01*
X17406658Y-11438746D02*
X17397135Y-11391127D01*
X17397135Y-11391127D02*
X17387611Y-11362555D01*
X17387611Y-11362555D02*
X17378087Y-11343508D01*
X17378087Y-11343508D02*
X17359039Y-11314936D01*
X17359039Y-11314936D02*
X17349516Y-11305412D01*
D13*
X10593500Y-11712500D02*
G75*
G02*
X10413500Y-11712500I-90000J0D01*
G01*
X10413500Y-11712500D02*
G75*
G02*
X10593500Y-11712500I90000J0D01*
G01*
D11*
X10959039Y-11803984D02*
X10844753Y-11803984D01*
X10901896Y-11803984D02*
X10901896Y-11603984D01*
X10901896Y-11603984D02*
X10882848Y-11632555D01*
X10882848Y-11632555D02*
X10863801Y-11651603D01*
X10863801Y-11651603D02*
X10844753Y-11661127D01*
X11044753Y-11784936D02*
X11054277Y-11794460D01*
X11054277Y-11794460D02*
X11044753Y-11803984D01*
X11044753Y-11803984D02*
X11035229Y-11794460D01*
X11035229Y-11794460D02*
X11044753Y-11784936D01*
X11044753Y-11784936D02*
X11044753Y-11803984D01*
X11168563Y-11689698D02*
X11149515Y-11680174D01*
X11149515Y-11680174D02*
X11139991Y-11670650D01*
X11139991Y-11670650D02*
X11130467Y-11651603D01*
X11130467Y-11651603D02*
X11130467Y-11642079D01*
X11130467Y-11642079D02*
X11139991Y-11623031D01*
X11139991Y-11623031D02*
X11149515Y-11613508D01*
X11149515Y-11613508D02*
X11168563Y-11603984D01*
X11168563Y-11603984D02*
X11206658Y-11603984D01*
X11206658Y-11603984D02*
X11225705Y-11613508D01*
X11225705Y-11613508D02*
X11235229Y-11623031D01*
X11235229Y-11623031D02*
X11244753Y-11642079D01*
X11244753Y-11642079D02*
X11244753Y-11651603D01*
X11244753Y-11651603D02*
X11235229Y-11670650D01*
X11235229Y-11670650D02*
X11225705Y-11680174D01*
X11225705Y-11680174D02*
X11206658Y-11689698D01*
X11206658Y-11689698D02*
X11168563Y-11689698D01*
X11168563Y-11689698D02*
X11149515Y-11699222D01*
X11149515Y-11699222D02*
X11139991Y-11708746D01*
X11139991Y-11708746D02*
X11130467Y-11727793D01*
X11130467Y-11727793D02*
X11130467Y-11765888D01*
X11130467Y-11765888D02*
X11139991Y-11784936D01*
X11139991Y-11784936D02*
X11149515Y-11794460D01*
X11149515Y-11794460D02*
X11168563Y-11803984D01*
X11168563Y-11803984D02*
X11206658Y-11803984D01*
X11206658Y-11803984D02*
X11225705Y-11794460D01*
X11225705Y-11794460D02*
X11235229Y-11784936D01*
X11235229Y-11784936D02*
X11244753Y-11765888D01*
X11244753Y-11765888D02*
X11244753Y-11727793D01*
X11244753Y-11727793D02*
X11235229Y-11708746D01*
X11235229Y-11708746D02*
X11225705Y-11699222D01*
X11225705Y-11699222D02*
X11206658Y-11689698D01*
X11368562Y-11603984D02*
X11387610Y-11603984D01*
X11387610Y-11603984D02*
X11406658Y-11613508D01*
X11406658Y-11613508D02*
X11416182Y-11623031D01*
X11416182Y-11623031D02*
X11425705Y-11642079D01*
X11425705Y-11642079D02*
X11435229Y-11680174D01*
X11435229Y-11680174D02*
X11435229Y-11727793D01*
X11435229Y-11727793D02*
X11425705Y-11765888D01*
X11425705Y-11765888D02*
X11416182Y-11784936D01*
X11416182Y-11784936D02*
X11406658Y-11794460D01*
X11406658Y-11794460D02*
X11387610Y-11803984D01*
X11387610Y-11803984D02*
X11368562Y-11803984D01*
X11368562Y-11803984D02*
X11349515Y-11794460D01*
X11349515Y-11794460D02*
X11339991Y-11784936D01*
X11339991Y-11784936D02*
X11330467Y-11765888D01*
X11330467Y-11765888D02*
X11320943Y-11727793D01*
X11320943Y-11727793D02*
X11320943Y-11680174D01*
X11320943Y-11680174D02*
X11330467Y-11642079D01*
X11330467Y-11642079D02*
X11339991Y-11623031D01*
X11339991Y-11623031D02*
X11349515Y-11613508D01*
X11349515Y-11613508D02*
X11368562Y-11603984D01*
X11559039Y-11603984D02*
X11578086Y-11603984D01*
X11578086Y-11603984D02*
X11597134Y-11613508D01*
X11597134Y-11613508D02*
X11606658Y-11623031D01*
X11606658Y-11623031D02*
X11616182Y-11642079D01*
X11616182Y-11642079D02*
X11625705Y-11680174D01*
X11625705Y-11680174D02*
X11625705Y-11727793D01*
X11625705Y-11727793D02*
X11616182Y-11765888D01*
X11616182Y-11765888D02*
X11606658Y-11784936D01*
X11606658Y-11784936D02*
X11597134Y-11794460D01*
X11597134Y-11794460D02*
X11578086Y-11803984D01*
X11578086Y-11803984D02*
X11559039Y-11803984D01*
X11559039Y-11803984D02*
X11539991Y-11794460D01*
X11539991Y-11794460D02*
X11530467Y-11784936D01*
X11530467Y-11784936D02*
X11520943Y-11765888D01*
X11520943Y-11765888D02*
X11511420Y-11727793D01*
X11511420Y-11727793D02*
X11511420Y-11680174D01*
X11511420Y-11680174D02*
X11520943Y-11642079D01*
X11520943Y-11642079D02*
X11530467Y-11623031D01*
X11530467Y-11623031D02*
X11539991Y-11613508D01*
X11539991Y-11613508D02*
X11559039Y-11603984D01*
X11711420Y-11803984D02*
X11711420Y-11670650D01*
X11711420Y-11689698D02*
X11720943Y-11680174D01*
X11720943Y-11680174D02*
X11739991Y-11670650D01*
X11739991Y-11670650D02*
X11768563Y-11670650D01*
X11768563Y-11670650D02*
X11787610Y-11680174D01*
X11787610Y-11680174D02*
X11797134Y-11699222D01*
X11797134Y-11699222D02*
X11797134Y-11803984D01*
X11797134Y-11699222D02*
X11806658Y-11680174D01*
X11806658Y-11680174D02*
X11825705Y-11670650D01*
X11825705Y-11670650D02*
X11854277Y-11670650D01*
X11854277Y-11670650D02*
X11873324Y-11680174D01*
X11873324Y-11680174D02*
X11882848Y-11699222D01*
X11882848Y-11699222D02*
X11882848Y-11803984D01*
X11978086Y-11803984D02*
X11978086Y-11670650D01*
X11978086Y-11689698D02*
X11987610Y-11680174D01*
X11987610Y-11680174D02*
X12006658Y-11670650D01*
X12006658Y-11670650D02*
X12035229Y-11670650D01*
X12035229Y-11670650D02*
X12054277Y-11680174D01*
X12054277Y-11680174D02*
X12063801Y-11699222D01*
X12063801Y-11699222D02*
X12063801Y-11803984D01*
X12063801Y-11699222D02*
X12073324Y-11680174D01*
X12073324Y-11680174D02*
X12092372Y-11670650D01*
X12092372Y-11670650D02*
X12120943Y-11670650D01*
X12120943Y-11670650D02*
X12139991Y-11680174D01*
X12139991Y-11680174D02*
X12149515Y-11699222D01*
X12149515Y-11699222D02*
X12149515Y-11803984D01*
X12539991Y-11594460D02*
X12368563Y-11851603D01*
X12797134Y-11603984D02*
X12816182Y-11603984D01*
X12816182Y-11603984D02*
X12835229Y-11613508D01*
X12835229Y-11613508D02*
X12844753Y-11623031D01*
X12844753Y-11623031D02*
X12854277Y-11642079D01*
X12854277Y-11642079D02*
X12863801Y-11680174D01*
X12863801Y-11680174D02*
X12863801Y-11727793D01*
X12863801Y-11727793D02*
X12854277Y-11765888D01*
X12854277Y-11765888D02*
X12844753Y-11784936D01*
X12844753Y-11784936D02*
X12835229Y-11794460D01*
X12835229Y-11794460D02*
X12816182Y-11803984D01*
X12816182Y-11803984D02*
X12797134Y-11803984D01*
X12797134Y-11803984D02*
X12778086Y-11794460D01*
X12778086Y-11794460D02*
X12768563Y-11784936D01*
X12768563Y-11784936D02*
X12759039Y-11765888D01*
X12759039Y-11765888D02*
X12749515Y-11727793D01*
X12749515Y-11727793D02*
X12749515Y-11680174D01*
X12749515Y-11680174D02*
X12759039Y-11642079D01*
X12759039Y-11642079D02*
X12768563Y-11623031D01*
X12768563Y-11623031D02*
X12778086Y-11613508D01*
X12778086Y-11613508D02*
X12797134Y-11603984D01*
X12949515Y-11784936D02*
X12959039Y-11794460D01*
X12959039Y-11794460D02*
X12949515Y-11803984D01*
X12949515Y-11803984D02*
X12939991Y-11794460D01*
X12939991Y-11794460D02*
X12949515Y-11784936D01*
X12949515Y-11784936D02*
X12949515Y-11803984D01*
X13082848Y-11603984D02*
X13101896Y-11603984D01*
X13101896Y-11603984D02*
X13120944Y-11613508D01*
X13120944Y-11613508D02*
X13130467Y-11623031D01*
X13130467Y-11623031D02*
X13139991Y-11642079D01*
X13139991Y-11642079D02*
X13149515Y-11680174D01*
X13149515Y-11680174D02*
X13149515Y-11727793D01*
X13149515Y-11727793D02*
X13139991Y-11765888D01*
X13139991Y-11765888D02*
X13130467Y-11784936D01*
X13130467Y-11784936D02*
X13120944Y-11794460D01*
X13120944Y-11794460D02*
X13101896Y-11803984D01*
X13101896Y-11803984D02*
X13082848Y-11803984D01*
X13082848Y-11803984D02*
X13063801Y-11794460D01*
X13063801Y-11794460D02*
X13054277Y-11784936D01*
X13054277Y-11784936D02*
X13044753Y-11765888D01*
X13044753Y-11765888D02*
X13035229Y-11727793D01*
X13035229Y-11727793D02*
X13035229Y-11680174D01*
X13035229Y-11680174D02*
X13044753Y-11642079D01*
X13044753Y-11642079D02*
X13054277Y-11623031D01*
X13054277Y-11623031D02*
X13063801Y-11613508D01*
X13063801Y-11613508D02*
X13082848Y-11603984D01*
X13216182Y-11603984D02*
X13349515Y-11603984D01*
X13349515Y-11603984D02*
X13263801Y-11803984D01*
X13463801Y-11603984D02*
X13482848Y-11603984D01*
X13482848Y-11603984D02*
X13501896Y-11613508D01*
X13501896Y-11613508D02*
X13511420Y-11623031D01*
X13511420Y-11623031D02*
X13520944Y-11642079D01*
X13520944Y-11642079D02*
X13530467Y-11680174D01*
X13530467Y-11680174D02*
X13530467Y-11727793D01*
X13530467Y-11727793D02*
X13520944Y-11765888D01*
X13520944Y-11765888D02*
X13511420Y-11784936D01*
X13511420Y-11784936D02*
X13501896Y-11794460D01*
X13501896Y-11794460D02*
X13482848Y-11803984D01*
X13482848Y-11803984D02*
X13463801Y-11803984D01*
X13463801Y-11803984D02*
X13444753Y-11794460D01*
X13444753Y-11794460D02*
X13435229Y-11784936D01*
X13435229Y-11784936D02*
X13425706Y-11765888D01*
X13425706Y-11765888D02*
X13416182Y-11727793D01*
X13416182Y-11727793D02*
X13416182Y-11680174D01*
X13416182Y-11680174D02*
X13425706Y-11642079D01*
X13425706Y-11642079D02*
X13435229Y-11623031D01*
X13435229Y-11623031D02*
X13444753Y-11613508D01*
X13444753Y-11613508D02*
X13463801Y-11603984D01*
X13625706Y-11803984D02*
X13663801Y-11803984D01*
X13663801Y-11803984D02*
X13682848Y-11794460D01*
X13682848Y-11794460D02*
X13692372Y-11784936D01*
X13692372Y-11784936D02*
X13711420Y-11756365D01*
X13711420Y-11756365D02*
X13720944Y-11718269D01*
X13720944Y-11718269D02*
X13720944Y-11642079D01*
X13720944Y-11642079D02*
X13711420Y-11623031D01*
X13711420Y-11623031D02*
X13701896Y-11613508D01*
X13701896Y-11613508D02*
X13682848Y-11603984D01*
X13682848Y-11603984D02*
X13644753Y-11603984D01*
X13644753Y-11603984D02*
X13625706Y-11613508D01*
X13625706Y-11613508D02*
X13616182Y-11623031D01*
X13616182Y-11623031D02*
X13606658Y-11642079D01*
X13606658Y-11642079D02*
X13606658Y-11689698D01*
X13606658Y-11689698D02*
X13616182Y-11708746D01*
X13616182Y-11708746D02*
X13625706Y-11718269D01*
X13625706Y-11718269D02*
X13644753Y-11727793D01*
X13644753Y-11727793D02*
X13682848Y-11727793D01*
X13682848Y-11727793D02*
X13701896Y-11718269D01*
X13701896Y-11718269D02*
X13711420Y-11708746D01*
X13711420Y-11708746D02*
X13720944Y-11689698D01*
X13797134Y-11603984D02*
X13797134Y-11642079D01*
X13873325Y-11603984D02*
X13873325Y-11642079D01*
X14168563Y-11880174D02*
X14159039Y-11870650D01*
X14159039Y-11870650D02*
X14139991Y-11842079D01*
X14139991Y-11842079D02*
X14130468Y-11823031D01*
X14130468Y-11823031D02*
X14120944Y-11794460D01*
X14120944Y-11794460D02*
X14111420Y-11746841D01*
X14111420Y-11746841D02*
X14111420Y-11708746D01*
X14111420Y-11708746D02*
X14120944Y-11661127D01*
X14120944Y-11661127D02*
X14130468Y-11632555D01*
X14130468Y-11632555D02*
X14139991Y-11613508D01*
X14139991Y-11613508D02*
X14159039Y-11584936D01*
X14159039Y-11584936D02*
X14168563Y-11575412D01*
X14235229Y-11623031D02*
X14244753Y-11613508D01*
X14244753Y-11613508D02*
X14263801Y-11603984D01*
X14263801Y-11603984D02*
X14311420Y-11603984D01*
X14311420Y-11603984D02*
X14330468Y-11613508D01*
X14330468Y-11613508D02*
X14339991Y-11623031D01*
X14339991Y-11623031D02*
X14349515Y-11642079D01*
X14349515Y-11642079D02*
X14349515Y-11661127D01*
X14349515Y-11661127D02*
X14339991Y-11689698D01*
X14339991Y-11689698D02*
X14225706Y-11803984D01*
X14225706Y-11803984D02*
X14349515Y-11803984D01*
X14587610Y-11803984D02*
X14587610Y-11603984D01*
X14673325Y-11803984D02*
X14673325Y-11699222D01*
X14673325Y-11699222D02*
X14663801Y-11680174D01*
X14663801Y-11680174D02*
X14644753Y-11670650D01*
X14644753Y-11670650D02*
X14616182Y-11670650D01*
X14616182Y-11670650D02*
X14597134Y-11680174D01*
X14597134Y-11680174D02*
X14587610Y-11689698D01*
X14797134Y-11803984D02*
X14778087Y-11794460D01*
X14778087Y-11794460D02*
X14768563Y-11784936D01*
X14768563Y-11784936D02*
X14759039Y-11765888D01*
X14759039Y-11765888D02*
X14759039Y-11708746D01*
X14759039Y-11708746D02*
X14768563Y-11689698D01*
X14768563Y-11689698D02*
X14778087Y-11680174D01*
X14778087Y-11680174D02*
X14797134Y-11670650D01*
X14797134Y-11670650D02*
X14825706Y-11670650D01*
X14825706Y-11670650D02*
X14844753Y-11680174D01*
X14844753Y-11680174D02*
X14854277Y-11689698D01*
X14854277Y-11689698D02*
X14863801Y-11708746D01*
X14863801Y-11708746D02*
X14863801Y-11765888D01*
X14863801Y-11765888D02*
X14854277Y-11784936D01*
X14854277Y-11784936D02*
X14844753Y-11794460D01*
X14844753Y-11794460D02*
X14825706Y-11803984D01*
X14825706Y-11803984D02*
X14797134Y-11803984D01*
X14978087Y-11803984D02*
X14959039Y-11794460D01*
X14959039Y-11794460D02*
X14949515Y-11775412D01*
X14949515Y-11775412D02*
X14949515Y-11603984D01*
X15130468Y-11794460D02*
X15111420Y-11803984D01*
X15111420Y-11803984D02*
X15073325Y-11803984D01*
X15073325Y-11803984D02*
X15054277Y-11794460D01*
X15054277Y-11794460D02*
X15044753Y-11775412D01*
X15044753Y-11775412D02*
X15044753Y-11699222D01*
X15044753Y-11699222D02*
X15054277Y-11680174D01*
X15054277Y-11680174D02*
X15073325Y-11670650D01*
X15073325Y-11670650D02*
X15111420Y-11670650D01*
X15111420Y-11670650D02*
X15130468Y-11680174D01*
X15130468Y-11680174D02*
X15139991Y-11699222D01*
X15139991Y-11699222D02*
X15139991Y-11718269D01*
X15139991Y-11718269D02*
X15044753Y-11737317D01*
X15216182Y-11794460D02*
X15235230Y-11803984D01*
X15235230Y-11803984D02*
X15273325Y-11803984D01*
X15273325Y-11803984D02*
X15292372Y-11794460D01*
X15292372Y-11794460D02*
X15301896Y-11775412D01*
X15301896Y-11775412D02*
X15301896Y-11765888D01*
X15301896Y-11765888D02*
X15292372Y-11746841D01*
X15292372Y-11746841D02*
X15273325Y-11737317D01*
X15273325Y-11737317D02*
X15244753Y-11737317D01*
X15244753Y-11737317D02*
X15225706Y-11727793D01*
X15225706Y-11727793D02*
X15216182Y-11708746D01*
X15216182Y-11708746D02*
X15216182Y-11699222D01*
X15216182Y-11699222D02*
X15225706Y-11680174D01*
X15225706Y-11680174D02*
X15244753Y-11670650D01*
X15244753Y-11670650D02*
X15273325Y-11670650D01*
X15273325Y-11670650D02*
X15292372Y-11680174D01*
X15368563Y-11880174D02*
X15378087Y-11870650D01*
X15378087Y-11870650D02*
X15397134Y-11842079D01*
X15397134Y-11842079D02*
X15406658Y-11823031D01*
X15406658Y-11823031D02*
X15416182Y-11794460D01*
X15416182Y-11794460D02*
X15425706Y-11746841D01*
X15425706Y-11746841D02*
X15425706Y-11708746D01*
X15425706Y-11708746D02*
X15416182Y-11661127D01*
X15416182Y-11661127D02*
X15406658Y-11632555D01*
X15406658Y-11632555D02*
X15397134Y-11613508D01*
X15397134Y-11613508D02*
X15378087Y-11584936D01*
X15378087Y-11584936D02*
X15368563Y-11575412D01*
X15730468Y-11880174D02*
X15720944Y-11870650D01*
X15720944Y-11870650D02*
X15701896Y-11842079D01*
X15701896Y-11842079D02*
X15692372Y-11823031D01*
X15692372Y-11823031D02*
X15682849Y-11794460D01*
X15682849Y-11794460D02*
X15673325Y-11746841D01*
X15673325Y-11746841D02*
X15673325Y-11708746D01*
X15673325Y-11708746D02*
X15682849Y-11661127D01*
X15682849Y-11661127D02*
X15692372Y-11632555D01*
X15692372Y-11632555D02*
X15701896Y-11613508D01*
X15701896Y-11613508D02*
X15720944Y-11584936D01*
X15720944Y-11584936D02*
X15730468Y-11575412D01*
X15806658Y-11670650D02*
X15806658Y-11803984D01*
X15806658Y-11689698D02*
X15816182Y-11680174D01*
X15816182Y-11680174D02*
X15835230Y-11670650D01*
X15835230Y-11670650D02*
X15863801Y-11670650D01*
X15863801Y-11670650D02*
X15882849Y-11680174D01*
X15882849Y-11680174D02*
X15892372Y-11699222D01*
X15892372Y-11699222D02*
X15892372Y-11803984D01*
X16016182Y-11803984D02*
X15997134Y-11794460D01*
X15997134Y-11794460D02*
X15987611Y-11784936D01*
X15987611Y-11784936D02*
X15978087Y-11765888D01*
X15978087Y-11765888D02*
X15978087Y-11708746D01*
X15978087Y-11708746D02*
X15987611Y-11689698D01*
X15987611Y-11689698D02*
X15997134Y-11680174D01*
X15997134Y-11680174D02*
X16016182Y-11670650D01*
X16016182Y-11670650D02*
X16044753Y-11670650D01*
X16044753Y-11670650D02*
X16063801Y-11680174D01*
X16063801Y-11680174D02*
X16073325Y-11689698D01*
X16073325Y-11689698D02*
X16082849Y-11708746D01*
X16082849Y-11708746D02*
X16082849Y-11765888D01*
X16082849Y-11765888D02*
X16073325Y-11784936D01*
X16073325Y-11784936D02*
X16063801Y-11794460D01*
X16063801Y-11794460D02*
X16044753Y-11803984D01*
X16044753Y-11803984D02*
X16016182Y-11803984D01*
X16139992Y-11670650D02*
X16216182Y-11670650D01*
X16168563Y-11603984D02*
X16168563Y-11775412D01*
X16168563Y-11775412D02*
X16178087Y-11794460D01*
X16178087Y-11794460D02*
X16197134Y-11803984D01*
X16197134Y-11803984D02*
X16216182Y-11803984D01*
X16435230Y-11670650D02*
X16435230Y-11870650D01*
X16435230Y-11680174D02*
X16454277Y-11670650D01*
X16454277Y-11670650D02*
X16492373Y-11670650D01*
X16492373Y-11670650D02*
X16511420Y-11680174D01*
X16511420Y-11680174D02*
X16520944Y-11689698D01*
X16520944Y-11689698D02*
X16530468Y-11708746D01*
X16530468Y-11708746D02*
X16530468Y-11765888D01*
X16530468Y-11765888D02*
X16520944Y-11784936D01*
X16520944Y-11784936D02*
X16511420Y-11794460D01*
X16511420Y-11794460D02*
X16492373Y-11803984D01*
X16492373Y-11803984D02*
X16454277Y-11803984D01*
X16454277Y-11803984D02*
X16435230Y-11794460D01*
X16644753Y-11803984D02*
X16625706Y-11794460D01*
X16625706Y-11794460D02*
X16616182Y-11775412D01*
X16616182Y-11775412D02*
X16616182Y-11603984D01*
X16806658Y-11803984D02*
X16806658Y-11699222D01*
X16806658Y-11699222D02*
X16797135Y-11680174D01*
X16797135Y-11680174D02*
X16778087Y-11670650D01*
X16778087Y-11670650D02*
X16739992Y-11670650D01*
X16739992Y-11670650D02*
X16720944Y-11680174D01*
X16806658Y-11794460D02*
X16787611Y-11803984D01*
X16787611Y-11803984D02*
X16739992Y-11803984D01*
X16739992Y-11803984D02*
X16720944Y-11794460D01*
X16720944Y-11794460D02*
X16711420Y-11775412D01*
X16711420Y-11775412D02*
X16711420Y-11756365D01*
X16711420Y-11756365D02*
X16720944Y-11737317D01*
X16720944Y-11737317D02*
X16739992Y-11727793D01*
X16739992Y-11727793D02*
X16787611Y-11727793D01*
X16787611Y-11727793D02*
X16806658Y-11718269D01*
X16873325Y-11670650D02*
X16949515Y-11670650D01*
X16901896Y-11603984D02*
X16901896Y-11775412D01*
X16901896Y-11775412D02*
X16911420Y-11794460D01*
X16911420Y-11794460D02*
X16930468Y-11803984D01*
X16930468Y-11803984D02*
X16949515Y-11803984D01*
X17092373Y-11794460D02*
X17073325Y-11803984D01*
X17073325Y-11803984D02*
X17035230Y-11803984D01*
X17035230Y-11803984D02*
X17016182Y-11794460D01*
X17016182Y-11794460D02*
X17006658Y-11775412D01*
X17006658Y-11775412D02*
X17006658Y-11699222D01*
X17006658Y-11699222D02*
X17016182Y-11680174D01*
X17016182Y-11680174D02*
X17035230Y-11670650D01*
X17035230Y-11670650D02*
X17073325Y-11670650D01*
X17073325Y-11670650D02*
X17092373Y-11680174D01*
X17092373Y-11680174D02*
X17101896Y-11699222D01*
X17101896Y-11699222D02*
X17101896Y-11718269D01*
X17101896Y-11718269D02*
X17006658Y-11737317D01*
X17273325Y-11803984D02*
X17273325Y-11603984D01*
X17273325Y-11794460D02*
X17254277Y-11803984D01*
X17254277Y-11803984D02*
X17216182Y-11803984D01*
X17216182Y-11803984D02*
X17197135Y-11794460D01*
X17197135Y-11794460D02*
X17187611Y-11784936D01*
X17187611Y-11784936D02*
X17178087Y-11765888D01*
X17178087Y-11765888D02*
X17178087Y-11708746D01*
X17178087Y-11708746D02*
X17187611Y-11689698D01*
X17187611Y-11689698D02*
X17197135Y-11680174D01*
X17197135Y-11680174D02*
X17216182Y-11670650D01*
X17216182Y-11670650D02*
X17254277Y-11670650D01*
X17254277Y-11670650D02*
X17273325Y-11680174D01*
X17349516Y-11880174D02*
X17359039Y-11870650D01*
X17359039Y-11870650D02*
X17378087Y-11842079D01*
X17378087Y-11842079D02*
X17387611Y-11823031D01*
X17387611Y-11823031D02*
X17397135Y-11794460D01*
X17397135Y-11794460D02*
X17406658Y-11746841D01*
X17406658Y-11746841D02*
X17406658Y-11708746D01*
X17406658Y-11708746D02*
X17397135Y-11661127D01*
X17397135Y-11661127D02*
X17387611Y-11632555D01*
X17387611Y-11632555D02*
X17378087Y-11613508D01*
X17378087Y-11613508D02*
X17359039Y-11584936D01*
X17359039Y-11584936D02*
X17349516Y-11575412D01*
X10493500Y-11912500D02*
X10493500Y-12112500D01*
X10393500Y-12012500D02*
X10593500Y-12012500D01*
X10835229Y-11903984D02*
X10959039Y-11903984D01*
X10959039Y-11903984D02*
X10892372Y-11980174D01*
X10892372Y-11980174D02*
X10920944Y-11980174D01*
X10920944Y-11980174D02*
X10939991Y-11989698D01*
X10939991Y-11989698D02*
X10949515Y-11999222D01*
X10949515Y-11999222D02*
X10959039Y-12018269D01*
X10959039Y-12018269D02*
X10959039Y-12065888D01*
X10959039Y-12065888D02*
X10949515Y-12084936D01*
X10949515Y-12084936D02*
X10939991Y-12094460D01*
X10939991Y-12094460D02*
X10920944Y-12103984D01*
X10920944Y-12103984D02*
X10863801Y-12103984D01*
X10863801Y-12103984D02*
X10844753Y-12094460D01*
X10844753Y-12094460D02*
X10835229Y-12084936D01*
X11044753Y-12084936D02*
X11054277Y-12094460D01*
X11054277Y-12094460D02*
X11044753Y-12103984D01*
X11044753Y-12103984D02*
X11035229Y-12094460D01*
X11035229Y-12094460D02*
X11044753Y-12084936D01*
X11044753Y-12084936D02*
X11044753Y-12103984D01*
X11130467Y-11923031D02*
X11139991Y-11913508D01*
X11139991Y-11913508D02*
X11159039Y-11903984D01*
X11159039Y-11903984D02*
X11206658Y-11903984D01*
X11206658Y-11903984D02*
X11225705Y-11913508D01*
X11225705Y-11913508D02*
X11235229Y-11923031D01*
X11235229Y-11923031D02*
X11244753Y-11942079D01*
X11244753Y-11942079D02*
X11244753Y-11961127D01*
X11244753Y-11961127D02*
X11235229Y-11989698D01*
X11235229Y-11989698D02*
X11120944Y-12103984D01*
X11120944Y-12103984D02*
X11244753Y-12103984D01*
X11368562Y-11903984D02*
X11387610Y-11903984D01*
X11387610Y-11903984D02*
X11406658Y-11913508D01*
X11406658Y-11913508D02*
X11416182Y-11923031D01*
X11416182Y-11923031D02*
X11425705Y-11942079D01*
X11425705Y-11942079D02*
X11435229Y-11980174D01*
X11435229Y-11980174D02*
X11435229Y-12027793D01*
X11435229Y-12027793D02*
X11425705Y-12065888D01*
X11425705Y-12065888D02*
X11416182Y-12084936D01*
X11416182Y-12084936D02*
X11406658Y-12094460D01*
X11406658Y-12094460D02*
X11387610Y-12103984D01*
X11387610Y-12103984D02*
X11368562Y-12103984D01*
X11368562Y-12103984D02*
X11349515Y-12094460D01*
X11349515Y-12094460D02*
X11339991Y-12084936D01*
X11339991Y-12084936D02*
X11330467Y-12065888D01*
X11330467Y-12065888D02*
X11320943Y-12027793D01*
X11320943Y-12027793D02*
X11320943Y-11980174D01*
X11320943Y-11980174D02*
X11330467Y-11942079D01*
X11330467Y-11942079D02*
X11339991Y-11923031D01*
X11339991Y-11923031D02*
X11349515Y-11913508D01*
X11349515Y-11913508D02*
X11368562Y-11903984D01*
X11559039Y-11903984D02*
X11578086Y-11903984D01*
X11578086Y-11903984D02*
X11597134Y-11913508D01*
X11597134Y-11913508D02*
X11606658Y-11923031D01*
X11606658Y-11923031D02*
X11616182Y-11942079D01*
X11616182Y-11942079D02*
X11625705Y-11980174D01*
X11625705Y-11980174D02*
X11625705Y-12027793D01*
X11625705Y-12027793D02*
X11616182Y-12065888D01*
X11616182Y-12065888D02*
X11606658Y-12084936D01*
X11606658Y-12084936D02*
X11597134Y-12094460D01*
X11597134Y-12094460D02*
X11578086Y-12103984D01*
X11578086Y-12103984D02*
X11559039Y-12103984D01*
X11559039Y-12103984D02*
X11539991Y-12094460D01*
X11539991Y-12094460D02*
X11530467Y-12084936D01*
X11530467Y-12084936D02*
X11520943Y-12065888D01*
X11520943Y-12065888D02*
X11511420Y-12027793D01*
X11511420Y-12027793D02*
X11511420Y-11980174D01*
X11511420Y-11980174D02*
X11520943Y-11942079D01*
X11520943Y-11942079D02*
X11530467Y-11923031D01*
X11530467Y-11923031D02*
X11539991Y-11913508D01*
X11539991Y-11913508D02*
X11559039Y-11903984D01*
X11711420Y-12103984D02*
X11711420Y-11970650D01*
X11711420Y-11989698D02*
X11720943Y-11980174D01*
X11720943Y-11980174D02*
X11739991Y-11970650D01*
X11739991Y-11970650D02*
X11768563Y-11970650D01*
X11768563Y-11970650D02*
X11787610Y-11980174D01*
X11787610Y-11980174D02*
X11797134Y-11999222D01*
X11797134Y-11999222D02*
X11797134Y-12103984D01*
X11797134Y-11999222D02*
X11806658Y-11980174D01*
X11806658Y-11980174D02*
X11825705Y-11970650D01*
X11825705Y-11970650D02*
X11854277Y-11970650D01*
X11854277Y-11970650D02*
X11873324Y-11980174D01*
X11873324Y-11980174D02*
X11882848Y-11999222D01*
X11882848Y-11999222D02*
X11882848Y-12103984D01*
X11978086Y-12103984D02*
X11978086Y-11970650D01*
X11978086Y-11989698D02*
X11987610Y-11980174D01*
X11987610Y-11980174D02*
X12006658Y-11970650D01*
X12006658Y-11970650D02*
X12035229Y-11970650D01*
X12035229Y-11970650D02*
X12054277Y-11980174D01*
X12054277Y-11980174D02*
X12063801Y-11999222D01*
X12063801Y-11999222D02*
X12063801Y-12103984D01*
X12063801Y-11999222D02*
X12073324Y-11980174D01*
X12073324Y-11980174D02*
X12092372Y-11970650D01*
X12092372Y-11970650D02*
X12120943Y-11970650D01*
X12120943Y-11970650D02*
X12139991Y-11980174D01*
X12139991Y-11980174D02*
X12149515Y-11999222D01*
X12149515Y-11999222D02*
X12149515Y-12103984D01*
X12539991Y-11894460D02*
X12368563Y-12151603D01*
X12797134Y-11903984D02*
X12816182Y-11903984D01*
X12816182Y-11903984D02*
X12835229Y-11913508D01*
X12835229Y-11913508D02*
X12844753Y-11923031D01*
X12844753Y-11923031D02*
X12854277Y-11942079D01*
X12854277Y-11942079D02*
X12863801Y-11980174D01*
X12863801Y-11980174D02*
X12863801Y-12027793D01*
X12863801Y-12027793D02*
X12854277Y-12065888D01*
X12854277Y-12065888D02*
X12844753Y-12084936D01*
X12844753Y-12084936D02*
X12835229Y-12094460D01*
X12835229Y-12094460D02*
X12816182Y-12103984D01*
X12816182Y-12103984D02*
X12797134Y-12103984D01*
X12797134Y-12103984D02*
X12778086Y-12094460D01*
X12778086Y-12094460D02*
X12768563Y-12084936D01*
X12768563Y-12084936D02*
X12759039Y-12065888D01*
X12759039Y-12065888D02*
X12749515Y-12027793D01*
X12749515Y-12027793D02*
X12749515Y-11980174D01*
X12749515Y-11980174D02*
X12759039Y-11942079D01*
X12759039Y-11942079D02*
X12768563Y-11923031D01*
X12768563Y-11923031D02*
X12778086Y-11913508D01*
X12778086Y-11913508D02*
X12797134Y-11903984D01*
X12949515Y-12084936D02*
X12959039Y-12094460D01*
X12959039Y-12094460D02*
X12949515Y-12103984D01*
X12949515Y-12103984D02*
X12939991Y-12094460D01*
X12939991Y-12094460D02*
X12949515Y-12084936D01*
X12949515Y-12084936D02*
X12949515Y-12103984D01*
X13149515Y-12103984D02*
X13035229Y-12103984D01*
X13092372Y-12103984D02*
X13092372Y-11903984D01*
X13092372Y-11903984D02*
X13073325Y-11932555D01*
X13073325Y-11932555D02*
X13054277Y-11951603D01*
X13054277Y-11951603D02*
X13035229Y-11961127D01*
X13225706Y-11923031D02*
X13235229Y-11913508D01*
X13235229Y-11913508D02*
X13254277Y-11903984D01*
X13254277Y-11903984D02*
X13301896Y-11903984D01*
X13301896Y-11903984D02*
X13320944Y-11913508D01*
X13320944Y-11913508D02*
X13330467Y-11923031D01*
X13330467Y-11923031D02*
X13339991Y-11942079D01*
X13339991Y-11942079D02*
X13339991Y-11961127D01*
X13339991Y-11961127D02*
X13330467Y-11989698D01*
X13330467Y-11989698D02*
X13216182Y-12103984D01*
X13216182Y-12103984D02*
X13339991Y-12103984D01*
X13511420Y-11903984D02*
X13473325Y-11903984D01*
X13473325Y-11903984D02*
X13454277Y-11913508D01*
X13454277Y-11913508D02*
X13444753Y-11923031D01*
X13444753Y-11923031D02*
X13425706Y-11951603D01*
X13425706Y-11951603D02*
X13416182Y-11989698D01*
X13416182Y-11989698D02*
X13416182Y-12065888D01*
X13416182Y-12065888D02*
X13425706Y-12084936D01*
X13425706Y-12084936D02*
X13435229Y-12094460D01*
X13435229Y-12094460D02*
X13454277Y-12103984D01*
X13454277Y-12103984D02*
X13492372Y-12103984D01*
X13492372Y-12103984D02*
X13511420Y-12094460D01*
X13511420Y-12094460D02*
X13520944Y-12084936D01*
X13520944Y-12084936D02*
X13530467Y-12065888D01*
X13530467Y-12065888D02*
X13530467Y-12018269D01*
X13530467Y-12018269D02*
X13520944Y-11999222D01*
X13520944Y-11999222D02*
X13511420Y-11989698D01*
X13511420Y-11989698D02*
X13492372Y-11980174D01*
X13492372Y-11980174D02*
X13454277Y-11980174D01*
X13454277Y-11980174D02*
X13435229Y-11989698D01*
X13435229Y-11989698D02*
X13425706Y-11999222D01*
X13425706Y-11999222D02*
X13416182Y-12018269D01*
X13654277Y-11903984D02*
X13673325Y-11903984D01*
X13673325Y-11903984D02*
X13692372Y-11913508D01*
X13692372Y-11913508D02*
X13701896Y-11923031D01*
X13701896Y-11923031D02*
X13711420Y-11942079D01*
X13711420Y-11942079D02*
X13720944Y-11980174D01*
X13720944Y-11980174D02*
X13720944Y-12027793D01*
X13720944Y-12027793D02*
X13711420Y-12065888D01*
X13711420Y-12065888D02*
X13701896Y-12084936D01*
X13701896Y-12084936D02*
X13692372Y-12094460D01*
X13692372Y-12094460D02*
X13673325Y-12103984D01*
X13673325Y-12103984D02*
X13654277Y-12103984D01*
X13654277Y-12103984D02*
X13635229Y-12094460D01*
X13635229Y-12094460D02*
X13625706Y-12084936D01*
X13625706Y-12084936D02*
X13616182Y-12065888D01*
X13616182Y-12065888D02*
X13606658Y-12027793D01*
X13606658Y-12027793D02*
X13606658Y-11980174D01*
X13606658Y-11980174D02*
X13616182Y-11942079D01*
X13616182Y-11942079D02*
X13625706Y-11923031D01*
X13625706Y-11923031D02*
X13635229Y-11913508D01*
X13635229Y-11913508D02*
X13654277Y-11903984D01*
X13797134Y-11903984D02*
X13797134Y-11942079D01*
X13873325Y-11903984D02*
X13873325Y-11942079D01*
X14168563Y-12180174D02*
X14159039Y-12170650D01*
X14159039Y-12170650D02*
X14139991Y-12142079D01*
X14139991Y-12142079D02*
X14130468Y-12123031D01*
X14130468Y-12123031D02*
X14120944Y-12094460D01*
X14120944Y-12094460D02*
X14111420Y-12046841D01*
X14111420Y-12046841D02*
X14111420Y-12008746D01*
X14111420Y-12008746D02*
X14120944Y-11961127D01*
X14120944Y-11961127D02*
X14130468Y-11932555D01*
X14130468Y-11932555D02*
X14139991Y-11913508D01*
X14139991Y-11913508D02*
X14159039Y-11884936D01*
X14159039Y-11884936D02*
X14168563Y-11875412D01*
X14330468Y-11970650D02*
X14330468Y-12103984D01*
X14282848Y-11894460D02*
X14235229Y-12037317D01*
X14235229Y-12037317D02*
X14359039Y-12037317D01*
X14587610Y-12103984D02*
X14587610Y-11903984D01*
X14673325Y-12103984D02*
X14673325Y-11999222D01*
X14673325Y-11999222D02*
X14663801Y-11980174D01*
X14663801Y-11980174D02*
X14644753Y-11970650D01*
X14644753Y-11970650D02*
X14616182Y-11970650D01*
X14616182Y-11970650D02*
X14597134Y-11980174D01*
X14597134Y-11980174D02*
X14587610Y-11989698D01*
X14797134Y-12103984D02*
X14778087Y-12094460D01*
X14778087Y-12094460D02*
X14768563Y-12084936D01*
X14768563Y-12084936D02*
X14759039Y-12065888D01*
X14759039Y-12065888D02*
X14759039Y-12008746D01*
X14759039Y-12008746D02*
X14768563Y-11989698D01*
X14768563Y-11989698D02*
X14778087Y-11980174D01*
X14778087Y-11980174D02*
X14797134Y-11970650D01*
X14797134Y-11970650D02*
X14825706Y-11970650D01*
X14825706Y-11970650D02*
X14844753Y-11980174D01*
X14844753Y-11980174D02*
X14854277Y-11989698D01*
X14854277Y-11989698D02*
X14863801Y-12008746D01*
X14863801Y-12008746D02*
X14863801Y-12065888D01*
X14863801Y-12065888D02*
X14854277Y-12084936D01*
X14854277Y-12084936D02*
X14844753Y-12094460D01*
X14844753Y-12094460D02*
X14825706Y-12103984D01*
X14825706Y-12103984D02*
X14797134Y-12103984D01*
X14978087Y-12103984D02*
X14959039Y-12094460D01*
X14959039Y-12094460D02*
X14949515Y-12075412D01*
X14949515Y-12075412D02*
X14949515Y-11903984D01*
X15130468Y-12094460D02*
X15111420Y-12103984D01*
X15111420Y-12103984D02*
X15073325Y-12103984D01*
X15073325Y-12103984D02*
X15054277Y-12094460D01*
X15054277Y-12094460D02*
X15044753Y-12075412D01*
X15044753Y-12075412D02*
X15044753Y-11999222D01*
X15044753Y-11999222D02*
X15054277Y-11980174D01*
X15054277Y-11980174D02*
X15073325Y-11970650D01*
X15073325Y-11970650D02*
X15111420Y-11970650D01*
X15111420Y-11970650D02*
X15130468Y-11980174D01*
X15130468Y-11980174D02*
X15139991Y-11999222D01*
X15139991Y-11999222D02*
X15139991Y-12018269D01*
X15139991Y-12018269D02*
X15044753Y-12037317D01*
X15216182Y-12094460D02*
X15235230Y-12103984D01*
X15235230Y-12103984D02*
X15273325Y-12103984D01*
X15273325Y-12103984D02*
X15292372Y-12094460D01*
X15292372Y-12094460D02*
X15301896Y-12075412D01*
X15301896Y-12075412D02*
X15301896Y-12065888D01*
X15301896Y-12065888D02*
X15292372Y-12046841D01*
X15292372Y-12046841D02*
X15273325Y-12037317D01*
X15273325Y-12037317D02*
X15244753Y-12037317D01*
X15244753Y-12037317D02*
X15225706Y-12027793D01*
X15225706Y-12027793D02*
X15216182Y-12008746D01*
X15216182Y-12008746D02*
X15216182Y-11999222D01*
X15216182Y-11999222D02*
X15225706Y-11980174D01*
X15225706Y-11980174D02*
X15244753Y-11970650D01*
X15244753Y-11970650D02*
X15273325Y-11970650D01*
X15273325Y-11970650D02*
X15292372Y-11980174D01*
X15368563Y-12180174D02*
X15378087Y-12170650D01*
X15378087Y-12170650D02*
X15397134Y-12142079D01*
X15397134Y-12142079D02*
X15406658Y-12123031D01*
X15406658Y-12123031D02*
X15416182Y-12094460D01*
X15416182Y-12094460D02*
X15425706Y-12046841D01*
X15425706Y-12046841D02*
X15425706Y-12008746D01*
X15425706Y-12008746D02*
X15416182Y-11961127D01*
X15416182Y-11961127D02*
X15406658Y-11932555D01*
X15406658Y-11932555D02*
X15397134Y-11913508D01*
X15397134Y-11913508D02*
X15378087Y-11884936D01*
X15378087Y-11884936D02*
X15368563Y-11875412D01*
X15730468Y-12180174D02*
X15720944Y-12170650D01*
X15720944Y-12170650D02*
X15701896Y-12142079D01*
X15701896Y-12142079D02*
X15692372Y-12123031D01*
X15692372Y-12123031D02*
X15682849Y-12094460D01*
X15682849Y-12094460D02*
X15673325Y-12046841D01*
X15673325Y-12046841D02*
X15673325Y-12008746D01*
X15673325Y-12008746D02*
X15682849Y-11961127D01*
X15682849Y-11961127D02*
X15692372Y-11932555D01*
X15692372Y-11932555D02*
X15701896Y-11913508D01*
X15701896Y-11913508D02*
X15720944Y-11884936D01*
X15720944Y-11884936D02*
X15730468Y-11875412D01*
X15806658Y-11970650D02*
X15806658Y-12103984D01*
X15806658Y-11989698D02*
X15816182Y-11980174D01*
X15816182Y-11980174D02*
X15835230Y-11970650D01*
X15835230Y-11970650D02*
X15863801Y-11970650D01*
X15863801Y-11970650D02*
X15882849Y-11980174D01*
X15882849Y-11980174D02*
X15892372Y-11999222D01*
X15892372Y-11999222D02*
X15892372Y-12103984D01*
X16016182Y-12103984D02*
X15997134Y-12094460D01*
X15997134Y-12094460D02*
X15987611Y-12084936D01*
X15987611Y-12084936D02*
X15978087Y-12065888D01*
X15978087Y-12065888D02*
X15978087Y-12008746D01*
X15978087Y-12008746D02*
X15987611Y-11989698D01*
X15987611Y-11989698D02*
X15997134Y-11980174D01*
X15997134Y-11980174D02*
X16016182Y-11970650D01*
X16016182Y-11970650D02*
X16044753Y-11970650D01*
X16044753Y-11970650D02*
X16063801Y-11980174D01*
X16063801Y-11980174D02*
X16073325Y-11989698D01*
X16073325Y-11989698D02*
X16082849Y-12008746D01*
X16082849Y-12008746D02*
X16082849Y-12065888D01*
X16082849Y-12065888D02*
X16073325Y-12084936D01*
X16073325Y-12084936D02*
X16063801Y-12094460D01*
X16063801Y-12094460D02*
X16044753Y-12103984D01*
X16044753Y-12103984D02*
X16016182Y-12103984D01*
X16139992Y-11970650D02*
X16216182Y-11970650D01*
X16168563Y-11903984D02*
X16168563Y-12075412D01*
X16168563Y-12075412D02*
X16178087Y-12094460D01*
X16178087Y-12094460D02*
X16197134Y-12103984D01*
X16197134Y-12103984D02*
X16216182Y-12103984D01*
X16435230Y-11970650D02*
X16435230Y-12170650D01*
X16435230Y-11980174D02*
X16454277Y-11970650D01*
X16454277Y-11970650D02*
X16492373Y-11970650D01*
X16492373Y-11970650D02*
X16511420Y-11980174D01*
X16511420Y-11980174D02*
X16520944Y-11989698D01*
X16520944Y-11989698D02*
X16530468Y-12008746D01*
X16530468Y-12008746D02*
X16530468Y-12065888D01*
X16530468Y-12065888D02*
X16520944Y-12084936D01*
X16520944Y-12084936D02*
X16511420Y-12094460D01*
X16511420Y-12094460D02*
X16492373Y-12103984D01*
X16492373Y-12103984D02*
X16454277Y-12103984D01*
X16454277Y-12103984D02*
X16435230Y-12094460D01*
X16644753Y-12103984D02*
X16625706Y-12094460D01*
X16625706Y-12094460D02*
X16616182Y-12075412D01*
X16616182Y-12075412D02*
X16616182Y-11903984D01*
X16806658Y-12103984D02*
X16806658Y-11999222D01*
X16806658Y-11999222D02*
X16797135Y-11980174D01*
X16797135Y-11980174D02*
X16778087Y-11970650D01*
X16778087Y-11970650D02*
X16739992Y-11970650D01*
X16739992Y-11970650D02*
X16720944Y-11980174D01*
X16806658Y-12094460D02*
X16787611Y-12103984D01*
X16787611Y-12103984D02*
X16739992Y-12103984D01*
X16739992Y-12103984D02*
X16720944Y-12094460D01*
X16720944Y-12094460D02*
X16711420Y-12075412D01*
X16711420Y-12075412D02*
X16711420Y-12056365D01*
X16711420Y-12056365D02*
X16720944Y-12037317D01*
X16720944Y-12037317D02*
X16739992Y-12027793D01*
X16739992Y-12027793D02*
X16787611Y-12027793D01*
X16787611Y-12027793D02*
X16806658Y-12018269D01*
X16873325Y-11970650D02*
X16949515Y-11970650D01*
X16901896Y-11903984D02*
X16901896Y-12075412D01*
X16901896Y-12075412D02*
X16911420Y-12094460D01*
X16911420Y-12094460D02*
X16930468Y-12103984D01*
X16930468Y-12103984D02*
X16949515Y-12103984D01*
X17092373Y-12094460D02*
X17073325Y-12103984D01*
X17073325Y-12103984D02*
X17035230Y-12103984D01*
X17035230Y-12103984D02*
X17016182Y-12094460D01*
X17016182Y-12094460D02*
X17006658Y-12075412D01*
X17006658Y-12075412D02*
X17006658Y-11999222D01*
X17006658Y-11999222D02*
X17016182Y-11980174D01*
X17016182Y-11980174D02*
X17035230Y-11970650D01*
X17035230Y-11970650D02*
X17073325Y-11970650D01*
X17073325Y-11970650D02*
X17092373Y-11980174D01*
X17092373Y-11980174D02*
X17101896Y-11999222D01*
X17101896Y-11999222D02*
X17101896Y-12018269D01*
X17101896Y-12018269D02*
X17006658Y-12037317D01*
X17273325Y-12103984D02*
X17273325Y-11903984D01*
X17273325Y-12094460D02*
X17254277Y-12103984D01*
X17254277Y-12103984D02*
X17216182Y-12103984D01*
X17216182Y-12103984D02*
X17197135Y-12094460D01*
X17197135Y-12094460D02*
X17187611Y-12084936D01*
X17187611Y-12084936D02*
X17178087Y-12065888D01*
X17178087Y-12065888D02*
X17178087Y-12008746D01*
X17178087Y-12008746D02*
X17187611Y-11989698D01*
X17187611Y-11989698D02*
X17197135Y-11980174D01*
X17197135Y-11980174D02*
X17216182Y-11970650D01*
X17216182Y-11970650D02*
X17254277Y-11970650D01*
X17254277Y-11970650D02*
X17273325Y-11980174D01*
X17349516Y-12180174D02*
X17359039Y-12170650D01*
X17359039Y-12170650D02*
X17378087Y-12142079D01*
X17378087Y-12142079D02*
X17387611Y-12123031D01*
X17387611Y-12123031D02*
X17397135Y-12094460D01*
X17397135Y-12094460D02*
X17406658Y-12046841D01*
X17406658Y-12046841D02*
X17406658Y-12008746D01*
X17406658Y-12008746D02*
X17397135Y-11961127D01*
X17397135Y-11961127D02*
X17387611Y-11932555D01*
X17387611Y-11932555D02*
X17378087Y-11913508D01*
X17378087Y-11913508D02*
X17359039Y-11884936D01*
X17359039Y-11884936D02*
X17349516Y-11875412D01*
M02*
